<?xml version="1.0" encoding="utf-8"?>
<!-- Generator: Adobe Illustrator 23.0.3, SVG Export Plug-In . SVG Version: 6.00 Build 0)  -->
<svg version="1.1" id="Layer_1" xmlns="http://www.w3.org/2000/svg" xmlns:xlink="http://www.w3.org/1999/xlink" x="0px" y="0px"
	 viewBox="0 0 595.28 841.89" style="enable-background:new 0 0 595.28 841.89;" xml:space="preserve">
<style type="text/css">
	.st0{fill:none;stroke:#5D7367;stroke-miterlimit:10;}
	.st1{fill:#5D7367;}
	.st2{fill:#EC828F;}
	.st3{fill:none;stroke:#EC828F;stroke-miterlimit:10;}
	.st4{fill:none;stroke:#F18E9A;stroke-miterlimit:10;}
	.st5{fill:#EC828F;stroke:#EC828F;stroke-miterlimit:10;}
	.st6{fill:#F5B992;}
	.st7{fill:none;stroke:#D85C53;stroke-miterlimit:10;}
	.st8{fill:#E32B27;stroke:#D85C53;stroke-miterlimit:10;}
	.st9{fill:#D85C53;stroke:#D85C53;stroke-miterlimit:10;}
	.st10{fill:none;stroke:#D85C53;stroke-linecap:round;stroke-miterlimit:10;}
	.st11{fill:none;stroke:#8C9CB6;stroke-miterlimit:10;}
	.st12{fill:#B0C6D5;}
	.st13{fill:none;stroke:#7C868B;stroke-linecap:round;stroke-linejoin:round;stroke-miterlimit:10;}
	.st14{fill:none;stroke:#7C868B;stroke-miterlimit:10;}
	.st15{fill:#B0C6D5;stroke:#7C868B;stroke-miterlimit:10;}
	.st16{fill:#7C868B;stroke:#7C868B;stroke-miterlimit:10;}
	.st17{fill:#F7A3A8;stroke:#7C868B;stroke-miterlimit:10;}
	.st18{fill:#7C868B;}
	.st19{fill:#7D5F9D;}
	.st20{fill:none;stroke:#D998AB;stroke-linecap:round;stroke-linejoin:round;stroke-miterlimit:10;}
	.st21{fill:#D998AB;stroke:#D998AB;stroke-linecap:round;stroke-linejoin:round;stroke-miterlimit:10;}
	.st22{fill:#D998AB;}
	.st23{fill:#8CA75C;}
	.st24{fill:#94B871;stroke:#E47A26;stroke-miterlimit:10;}
	.st25{fill:none;stroke:#FBE293;stroke-linecap:round;stroke-linejoin:round;stroke-miterlimit:10;}
	.st26{fill:#FBE293;}
	.st27{fill:none;stroke:#FBE293;stroke-width:0.75;stroke-linecap:round;stroke-linejoin:round;stroke-miterlimit:10;}
	.st28{fill:#FBE293;stroke:#FBE293;stroke-miterlimit:10;}
	.st29{fill:#798C8B;}
	.st30{fill:none;stroke:#D1B1C1;stroke-linecap:round;stroke-linejoin:round;stroke-miterlimit:10;}
	.st31{fill:#D1B1C1;stroke:#D0B1C1;stroke-linecap:round;stroke-linejoin:round;stroke-miterlimit:10;}
	.st32{fill:#D1B1C1;}
	.st33{fill:none;stroke:#51658D;stroke-miterlimit:10;}
	.st34{fill:#4A5A76;}
	.st35{fill:none;stroke:#F39F63;stroke-miterlimit:10;}
	.st36{fill:#F39F63;stroke:#F39F63;stroke-miterlimit:10;}
	.st37{fill:#F39F63;}
	.st38{fill:#F39F63;stroke:#F39F63;stroke-linejoin:round;stroke-miterlimit:10;}
	.st39{fill:#7D4850;}
	.st40{fill:none;stroke:#D1562D;stroke-miterlimit:10;}
	.st41{fill:#D1562D;stroke:#D1562D;stroke-miterlimit:10;}
	.st42{fill:#D1562D;}
	.st43{fill:#DABDBA;}
	.st44{fill:none;stroke:#CD6E69;stroke-linecap:round;stroke-linejoin:round;stroke-miterlimit:10;}
	.st45{fill:#CD6E69;}
	.st46{fill:none;stroke:#CD6E69;stroke-miterlimit:10;}
	.st47{fill:#CE6E6A;stroke:#CD6E69;stroke-width:0.5;stroke-linecap:round;stroke-linejoin:round;stroke-miterlimit:10;}
	.st48{fill:#8B674E;}
	.st49{fill:none;stroke:#EE956F;stroke-linecap:round;stroke-linejoin:round;stroke-miterlimit:10;}
	.st50{fill:none;stroke:#EE956F;stroke-miterlimit:10;}
	.st51{fill:#EE956F;stroke:#EE956F;stroke-miterlimit:10;}
	.st52{fill:#EE956F;}
	.st53{fill:none;stroke:#EE956F;stroke-linejoin:round;stroke-miterlimit:10;}
	.st54{fill:#F8D0B8;stroke:#F7D0B8;stroke-linecap:round;stroke-linejoin:round;stroke-miterlimit:10;}
	.st55{fill:none;stroke:#F8D0B8;stroke-linecap:round;stroke-linejoin:round;stroke-miterlimit:10;}
	.st56{fill:#F8D0B8;stroke:#F8D0B8;stroke-linecap:round;stroke-linejoin:round;stroke-miterlimit:10;}
	.st57{fill:#F8D0B8;stroke:#F8D0B8;stroke-miterlimit:10;}
	.st58{fill:#F8D0B8;}
	.st59{fill:#C4B4B3;}
	.st60{fill:none;stroke:#A77056;stroke-miterlimit:10;}
	.st61{fill:none;stroke:#7675B7;stroke-miterlimit:10;}
	.st62{fill:none;stroke:#ED6E60;stroke-miterlimit:10;}
	.st63{fill:#7675B7;}
	.st64{fill:#FAA74D;}
	.st65{fill:none;stroke:#F6D9CE;stroke-miterlimit:10;}
	.st66{fill:#F6D9CE;}
	.st67{fill:#F6D9CE;stroke:#F6D9CE;stroke-miterlimit:10;}
	.st68{fill:#6E6B86;}
	.st69{fill:none;stroke:#8EA451;stroke-miterlimit:10;}
	.st70{fill:#8EA451;}
	.st71{fill:#F5DBB1;}
	.st72{fill:none;stroke:#B88869;stroke-miterlimit:10;}
	.st73{fill:#B88869;stroke:#B88869;stroke-miterlimit:10;}
	.st74{fill:#CDA99E;}
	.st75{fill:#956C9B;stroke:#956C9B;stroke-linecap:round;stroke-linejoin:round;stroke-miterlimit:10;}
	.st76{fill:#A454A1;stroke:#956C9B;stroke-linecap:round;stroke-linejoin:round;stroke-miterlimit:10;}
	.st77{fill:#A454A1;stroke:#956C9B;stroke-miterlimit:10;}
	.st78{fill:none;stroke:#956C9B;stroke-miterlimit:10;}
	.st79{fill:none;stroke:#956C9B;stroke-linecap:round;stroke-linejoin:round;stroke-miterlimit:10;}
	.st80{fill:#956C9B;stroke:#956D9B;stroke-linecap:round;stroke-linejoin:round;stroke-miterlimit:10;}
	.st81{fill:#956C9B;}
	.st82{fill:#CED3C5;}
	.st83{fill:#CED3C5;stroke:#8675A4;stroke-linecap:round;stroke-linejoin:round;stroke-miterlimit:10;}
	.st84{fill:#CED3C5;stroke:#8675A4;stroke-width:0.75;stroke-linecap:round;stroke-linejoin:round;stroke-miterlimit:10;}
	.st85{fill:#8ABEE7;stroke:#8675A4;stroke-miterlimit:10;}
	.st86{fill:none;stroke:#8675A4;stroke-linecap:round;stroke-linejoin:round;stroke-miterlimit:10;}
	.st87{fill:#8676A5;stroke:#8675A4;stroke-linecap:round;stroke-linejoin:round;stroke-miterlimit:10;}
	.st88{fill:#8676A5;stroke:#8676A5;stroke-linecap:round;stroke-linejoin:round;stroke-miterlimit:10;}
	.st89{fill:none;stroke:#8676A5;stroke-miterlimit:10;}
	.st90{fill:#E8B99F;}
	.st91{fill:none;stroke:#A38E81;stroke-miterlimit:10;}
	.st92{fill:#A38E81;stroke:#A38E81;stroke-miterlimit:10;}
	.st93{fill:#A38E81;}
	.st94{fill:none;stroke:#A38E81;stroke-linecap:round;stroke-linejoin:round;stroke-miterlimit:10;}
	.st95{fill:#5C6D3E;}
	.st96{fill:none;stroke:#C6C9A8;stroke-linecap:round;stroke-linejoin:round;stroke-miterlimit:10;}
	.st97{fill:#C6C9A8;stroke:#C6C9A8;stroke-linecap:round;stroke-linejoin:round;stroke-miterlimit:10;}
	.st98{fill:none;stroke:#D3D9AB;stroke-miterlimit:10;}
	.st99{fill:#C6C9A8;stroke:#C5C9A7;stroke-miterlimit:10;}
	.st100{fill:#C6C9A8;}
	.st101{fill:none;stroke:#C6C9A8;stroke-linecap:round;stroke-miterlimit:10;}
	.st102{fill:#F69890;}
	.st103{fill:#F39D1F;stroke:#F6C154;stroke-miterlimit:10;}
	.st104{fill:#F6C154;stroke:#F6C154;stroke-miterlimit:10;}
	.st105{fill:none;stroke:#F6C154;stroke-linecap:round;stroke-linejoin:round;stroke-miterlimit:10;}
	.st106{fill:none;stroke:#F6C154;stroke-miterlimit:10;}
	.st107{fill:#F6C154;stroke:#F6C154;stroke-linecap:round;stroke-linejoin:round;stroke-miterlimit:10;}
	.st108{fill:#F39D1F;stroke:#F6C154;stroke-linecap:round;stroke-linejoin:round;stroke-miterlimit:10;}
	.st109{fill:#FFFFFF;stroke:#F6C154;stroke-miterlimit:10;}
	.st110{fill:#ABCABF;}
	.st111{fill:none;stroke:#6F998C;stroke-miterlimit:10;}
	.st112{fill:none;stroke:#6F998C;stroke-linecap:round;stroke-linejoin:round;stroke-miterlimit:10;}
	.st113{fill:#ABCABF;stroke:#6F998C;stroke-linecap:round;stroke-linejoin:round;stroke-miterlimit:10;}
	.st114{fill:#6F998C;stroke:#6E998C;stroke-linecap:round;stroke-linejoin:round;stroke-miterlimit:10;}
	.st115{fill:#6F998C;}
	.st116{fill:#529EA2;}
	.st117{fill:none;stroke:#FFC84A;stroke-miterlimit:10;}
	.st118{fill:#FFC84A;stroke:#FFC84A;stroke-miterlimit:10;}
	.st119{fill:#FFC84A;}
</style>
<g>
	<g>
		<g>
			<path class="st1" d="M303.62,289c-26.05,17.84-73.17,16.26-88.39-9.39c-4.69-7.89-6.27-17.21-7.17-26.35
				c-1.81-18.54-1.12-37.24,0.33-55.81c1.53-19.52,4.94-36.73,21.68-48.35c11.39-7.91,23.66-13.76,17.81-29.97
				c-1.23-3.4-3.03-6.56-4.38-9.91c-3.63-8.99-3.87-19.3-0.67-28.45c2.15-6.16,6.2-12.1,12.29-14.44
				c4.81-1.85,10.26-1.21,15.17,0.35c10.52,3.34,17.57,13.19,19.5,23.78c2.11,11.62-6.94,24.63-10.31,35.55
				c-0.62,2.01-1.25,4.11-0.91,6.2c1.42,8.65,9.95,11.49,16.04,16.09c28.62,21.63,27.61,74.55,26.83,107.01
				c-0.1,4.16-0.29,8.36-1.46,12.35C317.43,276.46,311.49,283.61,303.62,289z"/>
			<path class="st2" d="M224.98,113.48c0.05-0.19,0.1-0.38,0.15-0.57c2.59-9.67,8.46-19.55,13.14-28.4
				c4.26-8.05,7.61-19.76,15.2-25.05c8.28-5.76,21.2-4.85,28.59,1.89c3.84,3.51,6.39,8.19,8.65,12.87
				c3.98,8.26,7.29,16.84,9.9,25.63c2.04,6.88,3.55,14.65,0.12,20.95c-1.82,3.34-4.84,5.85-7.96,8.02
				c-3.02,2.1-20.46,10.4-21.64,2.21c-0.16-1.14,0.37-2.25,0.87-3.28c4.36-9.05,12.39-28.21,8.81-38.44
				c-3.18-9.07-13.08-10.82-13.16-22.95c0,0-0.99,9.7-8.82,12.14c-21.41,6.67-10.93,42.8-3.53,56.19
				c-2.14,3.61-7.38,3.71-11.41,2.52c-7.19-2.12-13.53-7-17.43-13.4c-0.86-1.41-1.61-2.91-1.91-4.53
				C224.19,117.37,224.5,115.39,224.98,113.48z"/>
			<path class="st3" d="M253.75,93.11c0,0,3.4,2.15,6.15-0.27"/>
			<path class="st3" d="M269.44,92.83c0.18,0.07,2.29,1.74,6.35,0"/>
			<path class="st2" d="M264.84,112.53c0,0,1.92-2.39,2.31,0c0,0,0,1.33-2.31,2.7c0,0-2.99,0-2.82-1.88
				C262.02,113.35,262.02,111.18,264.84,112.53z"/>
			<ellipse class="st2" cx="264.58" cy="102.1" rx="0.78" ry="1.27"/>
		</g>
		<path class="st4" d="M295.59,190.15c0,0-0.07,6.79,4.83,14.25c1.28,1.95,2.14,4.15,2.38,6.48c0.58,5.52-0.07,14.84-10.08,18.23
			c0,0-10.38,2.97-16.71-6.72"/>
		<path class="st3" d="M297.62,227.2c2.23,21.67,4.68,44.97-7.55,64.26"/>
		<path class="st4" d="M297.62,223.07c0,0-9.96,4.9-6.58-5.32c0,0,5.15-8.1,10.04-4.3C301.08,213.44,304.46,218.09,297.62,223.07z"
			/>
		<path class="st5" d="M296.35,218.25c0,0-2.19,0.42-0.59,1.77c0,0,2.28,0.68,2.87,0.68c0,0,1.6-0.77,0.42-1.69
			C299.05,219.01,297.16,217.94,296.35,218.25z"/>
		<path class="st3" d="M238.15,191.1c2.37,4.07,1.16,9.22-0.27,13.71c-1.43,4.49-3.01,9.42-1.22,13.78
			c1.81,4.4,6.58,6.85,11.23,7.86c6.64,1.45,14.56,0.21,18.46-5.36"/>
		<path class="st3" d="M237.53,220.82c-3.3,24.26-4.03,48.01-3.68,72.39"/>
		<path class="st4" d="M240.68,213.98c-0.02,2.44,0.82,3.56,1.97,5c1.14,1.45,2.79,2.54,4.62,2.79c0.91,0.13,1.92,0.01,2.57-0.63
			c0.3-0.29,0.5-0.67,0.64-1.07c0.75-2.21-0.59-4.58-2.13-6.33c-0.76-0.87-1.6-1.69-2.63-2.21c-1.03-0.52-2.27-0.71-3.34-0.27
			C241.31,211.7,241.03,212.43,240.68,213.98z"/>
		<path class="st5" d="M244.2,216.38c-1.28,0.91-2.12,2.41-2.24,3.98c-0.03,0.4-0.01,0.82,0.18,1.17c0.44,0.8,1.64,0.88,2.41,0.4
			c0.77-0.49,1.2-1.36,1.55-2.2c0.22-0.53,0.42-1.07,0.46-1.64c0.03-0.57-0.12-1.17-0.53-1.57c-0.41-0.4-1.1-0.52-1.56-0.2
			L244.2,216.38z"/>
	</g>
	<g>
		<path class="st6" d="M294.82,277.02c-3.19-14.95-1.97-31.55-2.07-46.62c-0.11-15.74,2.21-33.41,10.16-47.24
			c3.54-6.16,8.26-11.56,12.94-16.91c5.06-5.78,12.27-11.59,15.71-18.46c1.37-2.98,2.06-6.22,2.75-9.42
			c1.84-8.62,3.63-17.21,4.98-25.87c1.17-7.54,3.16-15.74,8.89-21.18c5.61-5.33,14.47-6.92,21.59-3.88
			c21.28,9.08,12.68,43.19,21.3,59.95c3.28,6.39,8.43,11.57,13.08,17.04c8.05,9.46,14.85,20.1,19.13,31.76
			c4.01,10.94,5.74,22.56,7.43,34.08c2.86,19.53,2.75,37.76-4.63,56.46c-1.27,3.21-2.74,6.41-5.05,8.96
			c-4.11,4.54-10.29,6.47-16.16,8.22c-5.81,1.73-11.63,3.46-17.44,5.18c-5.24,1.56-10.5,3.12-15.9,4.02
			c-13.1,2.17-26.5,0.34-39.65-1.49c-6.81-0.95-13.75-1.93-19.98-4.84C299.59,301.04,297.41,289.18,294.82,277.02z"/>
		<path class="st7" d="M329.92,175.87c0,0-12.25,35.91-5.68,114.7"/>
		<path class="st7" d="M392.66,172c0,0,14.14,17.41,9.13,114.16"/>
		<path class="st7" d="M327.15,187.26c0,0-10.56,37.99,14.56,39.99c0,0,21.11,0,22.64-17.92c0,0,4.01,19.75,22.44,17.91
			c0,0,21.72-7.28,10.69-42.27"/>
		<ellipse class="st8" cx="342" cy="202.96" rx="1.18" ry="1.79"/>
		<ellipse class="st8" cx="391.19" cy="208.48" rx="0.88" ry="2"/>
		<path class="st9" d="M337.19,140.83c0,0,7.1,12.54-9.95,15.18c0,0-17.3,0.37-12.78-12.64c0,0-3.76-2.33-4.38-6.98
			c-1.23-9.16,6.31-8.33,5-10.18c-7.03-10.01,6.9-13.31,4.63-14.19c-2.27-0.88-6.14-12.71,6.59-12.11c0,0-5.31-14.43,9.97-14.43
			c0,0,2.21-13.45,14.03-7.21c0,0,4.99-9.86,12.79-2.83c0,0,7.41-5.57,11.24,1.6c0,0,9.8-0.09,8.99,8.44c0,0,8.84,2.89,4.32,9.4
			c0,0,7.95,2.88,4.77,6.78c-1.84,2.25,4.65-0.44,3.47,7c0,0,5.96,1.94,2.46,6.23c0,0,5.37,0.86,4.68,6.71c0,0,0.9,2.82-2.47,3.02
			c0,0,9.3,2.61,4.96,8.85c0,0,5.22-0.24,7,3.93c0,0,7.78,10.58-7,14.38c0,0-5.62,11.23-17.17,1.79c0,0-14.12-3.21-5.01-13.97
			c0,0-8.99-3.3-2.68-18.87c0,0-6.29-3.19-3.47-10.14c0,0,1.7-2.44-2.84-10.69c0,0-3.33-13.17-14.68-7.87c0,0-8.65-3.42-9.45,5.77
			c0,0-3,0.4-4.42,3.56c-0.8,1.79-0.62,3.83,0.38,5.53c1.62,2.75,3.52,7.93-1.87,11.79c0,0,0.7,4.88,1.55,10.19
			C346.98,136.01,341.99,139.98,337.19,140.83z"/>
		<path class="st10" d="M351.65,108.98c2.28,1.26,5.15,1.41,7.56,0.4"/>
		<path class="st10" d="M367.01,109.25c1.09,0.87,2.48,1.08,3.78,0.89c1.3-0.19,2.54-0.75,3.77-1.31"/>
		<path class="st7" d="M360.64,126.23c1.12,1.39,3.6,1.31,4.62-0.15"/>
		<path class="st7" d="M361.82,116.99c-0.06,0.57-0.12,1.13-0.18,1.7"/>
	</g>
	<g>
		<path class="st12" d="M216.69,292.52c-1.44,1.52-3.07,2.95-4.94,4.29c-8.64,6.19-19.9,6.98-30.51,7.56
			c-7.68,0.42-15.36,0.84-23.05,1.25c-9.12,0.5-18.33,0.99-27.31-0.67c-8.98-1.65-17.83-5.69-23.56-12.79
			c-11.83-14.67-5.17-49.55-4.42-67.72c0.69-16.71-0.34-41.07,9.55-55.6c0,0,3.04-4.94,8.18-7.19c0.72-0.32,1.53-0.34,2.26-0.03
			c2.62,1.12,10.1,3.73,17.48,0.88c0,0,13.64-4.11,13.73-22.85c0-0.12,0.02-0.24,0.03-0.37c2.36-32.77,3.35-54.23,13.01-60.8
			c1.83-1.24,3.45-2.57,4.82-0.84c0.03,0.04,0.05,0.06,0.05,0.06c0.51,0.64,0.75,1.48,0.55,2.28c-0.32,1.25,0.11,2.62,5.07,0.48
			c0.43-0.19,0.91-0.28,1.38-0.23c0.94,0.11,2.61,0.56,4.71,2.18c0.49,0.38,1.1,0.57,1.72,0.54c0.75-0.03,2.01-0.02,4,0.13
			c0.77,0.06,1.48,0.43,1.97,1.02c1.18,1.43,3.17,4.35,2.86,7.49c0,0-0.87,12.81-0.31,17.47c0.01,0.07,0.01,0.13,0.01,0.2
			c0.03,1.65,0.53,24.04,2.64,30.45c0.1,0.31,0.17,0.63,0.13,0.96c-0.32,2.68,3.51,11.29,2.29,12.88c0,0,0.63,3.42-0.09,4.87
			c-0.78,1.56-6.34-1.84-4.65-1.4c2.56,0.66,8.17,3.45,14.35,0.89c1.38-0.57,0,0,2.77,5.7c3.19,6.57,11.59,20.54,12.38,32.39
			c1.03,15.38,1.97,30.77,2.24,46.19C226.31,259.39,229.28,279.19,216.69,292.52z"/>
		<path class="st13" d="M137.85,178.89c0,0-4.58,53.09-7.09,63.83c0,0-1.77,38.07-0.74,43.83"/>
		<path class="st14" d="M203.67,207.39c0,0,1.96,76.23,0.34,86.26"/>
		<path class="st15" d="M141.51,177.71c0,0-0.71,12.71-2.19,14.18c0,0-8.12,7.57-1.48,16.93c0,0,12.55,17.78,35.3-10.58"/>
		<path class="st13" d="M202.93,177.71c0,0,0.4,10.49,1.47,12.7c0,0,5.55,9.81,0,16.21c-0.23,0.26-0.47,0.52-0.74,0.77
			c-6.75,6.35-16.94,11.23-28.9-5.17"/>
		
			<ellipse transform="matrix(0.8393 -0.5437 0.5437 0.8393 -89.3909 105.5014)" class="st16" cx="133.77" cy="203.96" rx="2.98" ry="0.81"/>
		
			<ellipse transform="matrix(0.2979 -0.9546 0.9546 0.2979 -45.902 340.663)" class="st17" cx="208.64" cy="201.54" rx="0.41" ry="1.84"/>
		<path class="st18" d="M110.8,164.88c0.13-4,0.19-8.14,0.19-8.14c0-10.33,3.02-15.44,7.71-20.99c3.41-4.04,7.78-7.11,12.58-9.34
			c5.62-2.61,10.99-6.6,14.87-12.76c4.13-6.58,7.7-15.79,8.04-16.84c2.75-8.39,2.22-13.29,10.07-25.16
			c5.04-7.62,17.2-8.59,23.09-6.62c6.5,2.17,11.78,7.09,12.79,16.5c0,0,6.74,24.41,7.56,31.22c0.93,7.77,7.41,13.42,8.75,21.63
			c0.47,2.89,3.27,7.31,4.2,11.84c0.38,1.86,1.79,11.08,0.96,14.19c-1.12,4.18,3.22,17.29-3.16,17.29c-8.46,0-7.69-7.94-10-9.71
			c-3.32-2.54-6.78,0.05-9.99-2.04c-14.41-9.42-6.73-26.33-7.63-28.62c-4.67-11.91,4.46-16.17,2.09-21.5
			c-3.19-7.14-1.68-16.32,0.54-22.26c0.7-1.86,0.82-3.93,0.03-5.75c-0.75-1.72-2.21-3.1-5.08-1.73c-0.74,0.36-3.43,1.31-5.31-3
			c-0.85-1.96-3.89-2.05-6.28,0.08c-3.2,2.85-7.57-2.45-7.57-2.45c-0.74-0.94-2.06,0.03-2.84,0.93c-0.85,0.99-2.46,4.19-3.19,6.64
			c-6.93,23.24-5.04,40.08-5.04,40.12c-0.25,5.67-0.62,19.79-3.49,23.81c0,0-3.91,13.2-23.69,12.84c-1.66-0.03-3.31-0.37-4.87-0.95
			c-0.75-0.28-1.65-0.57-2.58-0.81c-2.49-0.63-4.7,0.71-6.85,2.13c-0.5,0.33-1.08,0.82-1.68,1.38
			C113.4,168.36,110.73,167.11,110.8,164.88z"/>
		<path class="st14" d="M168.6,90.3c-0.2,0.29-0.07,0.71,0.19,0.94c0.26,0.23,0.61,0.33,0.95,0.42c1.21,0.32,2.65,0.59,3.61-0.23"/>
		<path class="st14" d="M182.81,91.65c1.6,1.67,4.2,2.31,6.39,1.56"/>
		<path class="st14" d="M176.13,98.12c0.12,0.82-0.18,1.64-0.17,2.46s0.57,1.78,1.39,1.7"/>
		<path class="st14" d="M172.9,111.44c1.12,1.31,3.15,1.76,4.72,1.03"/>
	</g>
	<g>
		<g>
			<g>
				<g>
					<path class="st19" d="M18.16,282.66c1,3.77,2.06,7.66,4.5,10.7c3.69,4.6,9.8,6.4,15.58,7.57c28.81,5.86,66.45,5.38,88.3-10.23
						c1.01-0.72,1.76-1.75,2.16-2.92c8.4-24.44,0.29-107.07,0.29-107.07c-0.12-15.86-23.24-42.53-23.24-42.53
						c-8.55-12.52-7.89-19.74-7.89-19.74c15.37-0.62,13.09-36.15,13.09-36.15c-9.76-0.42-14.2-12.67-14.2-12.67
						c-9.77,7.73-16.79,10.14-16.79,10.14c3.01,36.08-16.06,49.08-24.51,57.97c-4.61,4.85-5.56,5.82-6.5,7.05
						C7.91,198.33,18.16,282.66,18.16,282.66z"/>
					<path class="st20" d="M51.21,169.14c0,0-6.16,32.73-8.76,55c0,0-5.87,48.76-2.13,64.34"/>
					<path class="st20" d="M56.83,170.38c0,0-2.34,10.44-4.36,14.8c0,0-1.66,4.95-3.74,9.35c0,0-5.16,13.56-3.59,17.76
						c1.57,4.21,0,0,0,0s0.77,3.2,2.76,5.65c1.57,1.93,4.03,2.82,6.5,2.5c5.03-0.66,14.98-5.01,22.07-27.63"/>
					<path class="st20" d="M77.95,198.12c0,0,2.89,10.24,4.45,19.43c0,0,2.49,19.05,17.44,16.25c0,0,11.72-2.16,8.37-36.38
						c0,0-1.29-11.67-1.15-19.15"/>
					<path class="st21" d="M45.45,213.18c0,0,4.7-1.49,1.89,3.95L45.45,213.18z"/>
					<path class="st21" d="M99.84,233.8c0,0-0.05-4.83,4.65-4.99C104.49,228.81,104.04,231.77,99.84,233.8z"/>
					
						<ellipse transform="matrix(0.6396 -0.7687 0.7687 0.6396 -149.2801 113.1909)" class="st22" cx="46.07" cy="215.79" rx="1.56" ry="0.92"/>
					<ellipse class="st22" cx="103.18" cy="232.24" rx="1.11" ry="1.09"/>
					<path class="st20" d="M89.87,86.4c0,0,3.74,1.56,6.23,0"/>
					<path class="st20" d="M99.84,104.63c0,0,0.6,0.16,2.32-1.09"/>
					<path class="st22" d="M81.87,81.26c0,0-0.16,0.31-0.04,0.83c2.35,10.1-0.25,29.95-7.94,32.63c0,0-2.84,0-4.29-3.96
						c0,0-16.2-43,10.81-51.52c0,0,20.77-8.1,29.91,10.8c0,0,2.4,7.89,0.74,13.3c0,0-14.97,1.47-14.31-13.5
						C96.76,69.84,91.79,83.13,81.87,81.26z"/>
				</g>
				<path class="st20" d="M105.67,85.77c0,0,2.18,1.05,5.33-0.13"/>
			</g>
			<path class="st20" d="M110.19,190.58c0,0,2.7,82.74-1.98,97.24"/>
		</g>
		<path class="st20" d="M101.81,90.74c0.04,0.59,0.08,1.19,0.12,1.78c0.03,0.47,0.06,0.97-0.16,1.39c-0.22,0.42-0.77,0.7-1.18,0.45"
			/>
	</g>
	<g>
		<path class="st23" d="M47.82,477.11c16.37,1.53,33.26-0.49,49.63-3.01c17.48-2.69,27.05-12.67,28.56-29.84
			c2.98-33.91,0.67-68.27-6.83-101.48c-2.38-10.55-8.65-13.08-13.91-21.32c-4.49-7.03-1.07-16.14,1.25-24.15
			c3.95-13.63,4.3-28.3,1-42.1c-7.75-32.43-42.18-7.32-46.12,13.6c-2.77,14.69-1.8,25.96-13.22,36.83
			c-19.68,18.73-25.09,40.89-27.51,66.67c-2.84,30.14-8.1,57.57,1.53,87.38C27.16,475.04,33.79,475.81,47.82,477.11z"/>
		<path class="st25" d="M43.93,347.59c0,0-17.68,46.35-4.55,103.99"/>
		<path class="st25" d="M104,371.67c0,0,6.29,63.17,2.23,82.71"/>
		<path class="st25" d="M43.93,349.23c0,0-3.16,25.92,3.2,40.29c5.97,13.5,22.77,8.88,26-15.3"/>
		<path class="st25" d="M101.6,354.63c0,0,10.21,43.77-9.98,45.62c0,0-15.65,0-15.65-28.58"/>
		<path class="st25" d="M51.04,390.29c-1.84-1.85-3.14-4.28-0.71-6.51c2.63-2.43,6.98-1.84,8.96,1.14c0.86,1.29,1.26,2.84,0.37,4.49
			C57.96,392.57,53.57,392.83,51.04,390.29z"/>
		<path class="st25" d="M90.82,393.81c0,0-4.07-0.07-4.87-3.96c-0.55-2.71-0.55-5.97,4.26-5.97
			C96.82,383.88,96.82,392.01,90.82,393.81z"/>
		<path class="st26" d="M55.5,387.56c0.41,0.77,0.13,1.79,0.03,2.97c-0.12,1.36-0.15,3.14-1.65,3.46c-2.05,0.28-1.96-1.14-1.91-2.32
			C52.17,386.91,54.26,385.22,55.5,387.56z"/>
		<path class="st26" d="M92.88,393.81c-0.06,0.83,0.01,2.17-1.05,2.37c-1.16,0.45-2.53-0.42-2.93-1.6c-0.4-1.18,0.36-4.69,1.03-5.73
			c0,0,0.91-2.35,2.24-0.59C92.98,389.3,92.91,393.41,92.88,393.81z"/>
		<path class="st27" d="M77.59,264.99c0.75,1.83,4.02,1.83,4.6,0.98"/>
		<path class="st27" d="M94.6,267.06c1.44,2.02,3.84,1.3,4.57,0.61"/>
		<path class="st27" d="M84.64,287.87c0.98,1.04,2.46,1.21,3.69,0.42"/>
		<path class="st25" d="M87.99,275.71c0.07,0.44,0,0.9-0.21,1.29"/>
		<path class="st28" d="M93.81,247.63c1.33,1.39,3.3,2.29,5.12,3.07c3.34,1.43,5.31,3.09,6.78,6.4c2.44,5.48,2.27,13.16,0.76,18.86
			c-2.84,10.77-10.17,19-15.11,28.72c-2.11,4.15-3,9.46-0.34,13.28c1.58,2.28,4.15,3.64,6.69,4.77c4.79,2.14,9.98,3.8,15.21,3.35
			c15.29-1.33,15.8-18.47,11.79-29.86c-0.84-2.38-1.92-4.67-2.63-7.1c-1.19-4.06-1.28-8.35-1.69-12.56
			c-0.86-6.84-2.81-13.56-4.28-20.34c-0.66-3.07-1.33-6.16-2.57-9.05c-4.96-11.56-19.22-17.91-31.09-14.46
			c-4.58,1.33-8.33,3.16-11.51,6.73c-2.37,2.66-4.59,5.44-6.65,8.34c-2.01,2.82-3.87,5.75-5.43,8.83
			c-4.66,9.17-6.71,19.62-12.31,28.25c-4.25,6.54-7.15,12.6-7.35,20.6c-0.04,1.46,0,2.94,0.31,4.37c0.89,4.2,4.07,7.7,7.9,9.66
			c6.21,3.18,20.16,2.8,23.24-4.93c1.04-2.62,0.94-5.54,0.67-8.34c-0.36-3.8-1-7.57-1.62-11.33c-0.62-3.77-2.39-7.58-2.69-11.25
			c-0.39-4.74,0.63-9.57,1.51-14.2c0.83-4.39,1.5-8.84,2.88-13.07c0.84-2.58,3.24-4.38,5.76-5.38c2.53-1,5.25-1.36,7.87-2.09
			c2.64-0.73,5.18-1.85,7.52-3.29C92.82,246.39,93.26,247.05,93.81,247.63z"/>
	</g>
	<g>
		<g>
			<g>
				<path class="st29" d="M63.43,467.62c2.48-5.25-1.34-11.08-3.72-16.37c-0.18-0.4-0.35-0.8-0.51-1.2"/>
				<path class="st29" d="M133.92,624.08c-6.08,23.55-37.3,19.47-55.51,18.91c-13.17-0.4-50.71,9.8-56.09-8.56
					c-7.56-25.86-7-53.33-5.86-80.25c0.86-20.22,2.87-42.42,17.25-56.66c4.93-4.88,10.99-8.44,16.55-12.61
					c5.55-4.17,10.81-9.24,13.07-15.81c3.03-8.8-2.19-13.54-4.9-21.02c-3.12-8.6-1.24-18.41,3.97-25.75
					c7.28-10.27,20.53-12.14,31.12-5.63c13.15,8.09,10.81,19.5,10.89,32.5c0.04,6.17-0.23,13.09-4.72,17.33
					c-1.92,1.81-5.32,3.64-5.73,6.53c-0.46,3.26,3.15,7.06,5.14,9.45c5.25,6.27,12.01,11.04,17.72,16.86
					c12.13,12.37,19.15,29.32,20.63,46.59c0.42,4.89,0.41,9.81,0.41,14.71c-0.01,10.94-0.28,21.8-1.1,32.71
					C135.99,603.7,136.56,613.85,133.92,624.08z"/>
				<path class="st30" d="M41.97,532.63c0,0-0.74,90.97-2.31,106.9"/>
				<path class="st30" d="M41.97,540.89c0,0-0.24,25.08,14.91,31.74c0,0,13.08,7.07,21.59-16.13"/>
				<path class="st30" d="M64.76,563.55c0.26-3.57-1.25-6.73-3.34-6.95c-2.09-0.21-5.26,2.06-5.61,5.62
					c-0.34,3.56,1.07,6.72,3.16,6.83C61.09,569.17,64.54,566.56,64.76,563.55z"/>
				<ellipse class="st31" cx="60.24" cy="563.78" rx="0.86" ry="1.57"/>
				<path class="st30" d="M78.1,437.61c0,0,1.41,1.84,3.68,0"/>
				<path class="st30" d="M95,437.67c0,0,1.92,1.6,3.84,0"/>
				<path class="st30" d="M84.01,456.81c0,0,2.88,1.09,3.79-0.44"/>
				<path class="st30" d="M89.46,444.2c0.1,1.31,1.23,1.58,0.67,2.59c-0.57,0.57-1.43,0.55-1.8,0.57"/>
				<path class="st31" d="M101.98,561.93c-0.51,0.06-0.94,0.75-1.11,1.24c-0.18,0.49-0.17,1.03-0.17,1.56
					c0,0.28,0.01,0.58,0.16,0.82c0.22,0.36,0.73,0.47,1.12,0.32c0.4-0.14,0.7-0.48,0.93-0.84c0.36-0.57,0.59-1.23,0.65-1.9
					c0.02-0.2,0.02-0.41-0.05-0.59C103.26,561.9,102.8,561.82,101.98,561.93"/>
				<path class="st30" d="M101.05,559.6c-1.14,0.99-2.02,2.29-2.53,3.72c-0.28,0.77-0.45,1.59-0.32,2.4
					c0.17,1.08,0.91,2.04,1.89,2.46s2.17,0.29,3.04-0.34c0.28-0.2,0.53-0.45,0.77-0.72c1.31-1.46,2.19-3.32,2.5-5.27
					c0.11-0.68,0.14-1.4-0.13-2.02c-0.42-0.96-1.52-1.48-2.54-1.39C102.71,558.53,101.92,558.79,101.05,559.6"/>
				<path class="st30" d="M115.98,530.81c1.39,35.97,1.88,71.99,1.45,107.98"/>
				<path class="st30" d="M79.46,557.04c0.73,6.74,4.33,10.8,7.43,13.23c5.77,4.52,12.37,5,17.52,3.37
					c7.93-2.51,9.43-8.29,10.88-14.26c0.91-3.74,1.15-11.59,1.15-15.51"/>
			</g>
		</g>
		<g>
			<path class="st32" d="M67.13,440.37c-1.13-3.07-1.28-5.13-1.74-8.3c-0.22-1.48-0.56-3.29,0.6-4.24c0.72-0.59,1.73-0.58,2.66-0.58
				c3.43-0.01,6.92-1.04,10.09-2.33c3.36-1.37,4.78-3.23,8.29-2.5c4.38,0.91,7.76,2.99,12.54,2.76c0.39,3.33,0.79,6.67,1.55,9.93
				c0.83,3.57,2.08,7.06,2.59,10.69c0.7,4.99-1.06,9.78-3.29,14.16c-0.91,1.78-1.73,3.39-3.23,4.73c-1.6,1.43-3.66,2.27-4.89,4.12
				c-0.84,1.27-1.13,2.83-1.21,4.35c-0.14,2.54,1.99,4.31,4.16,5.17c0.88,0.35,3.05,0.69,4.01,0.71c3.4,0.08,3.4,0.08,5.53,0.04
				c1.32-0.03,3.39-0.45,4.53-1.08c3.05-1.67,3.33-5.73,3.44-9.27c0.41-12.73,1.57-25.92-1.86-38.37
				c-3.71-13.44-15.18-23.15-29.38-23.76c-8.72-0.38-17.6,3.17-23.4,9.69c-2.17,2.44-3.89,5.24-5.44,8.1
				c-4.82,8.89-8.12,18.8-8.09,28.91c0.01,2.47,0.23,5.01,1.29,7.24c0.61,1.29,1.49,2.44,2.43,3.52c4.82,5.52,11.5,9.38,18.68,10.8
				c0.81,0.16,1.69,0.28,2.42-0.1c3.18-1.65-1.12-8.83-0.74-11.34c0.21-1.4,0.77-2.73,1.14-4.1c1.1-4.07,0.59-8.43-0.52-12.5
				C68.68,444.63,67.91,442.5,67.13,440.37z"/>
		</g>
	</g>
	<g>
		<path class="st34" d="M455.82,285.71c9.11,19.96,37.46,15.89,73.18,11.32c5.65-0.72,10.76-1.83,15.22-3.08
			c15.26-4.26,26.2-17.67,27.51-33.46c2.06-24.75-1.58-57.23-1.58-57.23c0.63-35.04-19.72-53.92-19.72-53.92
			c-5.87-7.55-11.15-39.97-11.15-39.97c-0.52-48.04-25.18-41.01-25.18-41.01c-19.55,0.42-28.08,73.49-28.08,73.49
			c-12.17,5.09-23.71,29.1-23.71,29.1C452.25,192.14,455.82,285.71,455.82,285.71"/>
		<path class="st35" d="M476.06,190.99c0,0-0.94,79.2,1.05,93.25"/>
		<path class="st35" d="M551.48,188.57c0,0,5.24,79.62,0,95.14"/>
		<path class="st35" d="M482.04,186.29c0,0-6.61,42.46,12.06,40.89c0,0,9.99,2.52,19.68-13.32"/>
		<path class="st35" d="M522.85,214.17c0,0,19.47-5.98,21.59-17.73"/>
		<path class="st35" d="M524.11,211.13c0,0,1.5,3.57,1.8,4.83"/>
		<path class="st35" d="M525.76,210.68c0,0,1.86,2.52,1.7,4.04"/>
		<path class="st35" d="M528.35,209.61c0,0,1.84,1.08,1.97,3.09"/>
		<path class="st35" d="M530.87,208.37c0,0,2.81,1.7,2.23,3.8"/>
		<path class="st35" d="M533.31,207.35c0,0,2.31,0.92,2.02,2.81"/>
		<path class="st35" d="M535.35,206.38c0,0,1.84,0.79,1.65,2.37"/>
		<path class="st35" d="M537.02,204.7c0,0,2.53,0.24,2.24,2.31"/>
		<path class="st35" d="M538.29,203.1c0,0,3.02,0.08,2.36,2.07"/>
		<path class="st35" d="M540.34,201.29c0,0,3.36,0.05,2.65,1.81"/>
		<path class="st35" d="M541.71,199.56c0,0,3.01-0.76,3.11,0.71"/>
		<path class="st35" d="M543.08,197.15c0,0,1.95-0.45,2.05,0.66"/>
		<path class="st36" d="M487.63,222.09c0,0-7.47-6.29-1.94-6.14c0,0,8.26,7.34,3.57,7.32C489.25,223.27,488.6,223.69,487.63,222.09z
			"/>
		<path class="st37" d="M483.02,222.36c0,0,1.28-2.64,2.09-2.73c0,0,2.58,1.61,1.86,2.64c-0.02,0.03-0.04,0.06-0.07,0.09
			c-0.94,1.02-0.64,1.75-2.98,1.71C483.92,224.06,482.46,224.16,483.02,222.36z"/>
		<path class="st35" d="M506.93,100.25c0,0,2.79,2.41,5.59-0.29"/>
		<path class="st35" d="M521.61,99.86c0,0,2.95,2.52,5.9,0.1"/>
		<path class="st35" d="M513.85,121.55c0,0,2.45,1.9,4.45-0.3"/>
		<path class="st38" d="M515.45,111.41c0,0.3-0.08,0.55-0.17,0.55c-0.09,0-0.17-0.25-0.17-0.55s0.25-1.82,0.34-1.82
			S515.45,111.41,515.45,111.41z"/>
		<path class="st37" d="M468.51,160.88c0,0-2.71-5.71,0.49-11.87c0.38-0.73,0.81-1.46,1.29-2.19c4.62-6.92,6.5-9.58,9.02-16.64
			c0,0,2.65-4.89,4.33-15.17c0,0,3.75-16.44,9.45-31.04c0,0,7.15-21.49,28.52-20.52c0,0,17.91,4.64,18.72,27.66
			c0,0,7.98,29.07,7.46,41.56c0,0,6.63,22.55,0.02,28.22c0,0-1.66,1.68-4.35,2.31c0,0,0.73-5.04-0.14-8.81
			c0,0-10.27-3.24-11.55-12.53c0,0,0.44-21.43,3.57-44.09c0,0-18.38-2.96-18.91-24.78c0,0-11.88,24.73-17.13,26.62
			c0,0,7.69,62.12-7.63,61.71c0,0-5.66-1.26-5.66-18.25c0,0-2.31-0.84-6.92,4.2C479.1,147.25,468.72,157.53,468.51,160.88z"/>
	</g>
	<g>
		<g>
			<path class="st39" d="M394.8,299.83c8.78,11.23,25.78,12.66,38.96,13.3c10.42,0.51,20.86,0.2,31.22-0.97
				c5.51-0.62,11.17-1.5,15.94-4.33c3.85-2.28,7.19-3.05,8.99-7.15l0,0c0,0,6.01-107.11-21.32-130.89c0,0-19.82-16.27-16.48-33.38
				c0,0,8.43-35.52-4.92-49.49c0,0-13.85-17.68-24.91,3.81c0,0-7.01,11.2-4.39,25.41c0.12,0.65,0.17,1.31,0.12,1.98
				c-0.2,2.76-0.15,11.45,7.01,19.51c0.92,1.04,1.53,2.31,1.82,3.66c0.55,2.59,0.8,6.86-1.64,11.61c0,0-10.85,16.69-17.11,22.53
				c0,0-12.31,11.26-13.14,35.46v89.79"/>
			<path class="st40" d="M414.45,238.19c0,0-3.6,59.64-1.56,61.78"/>
			<path class="st40" d="M468.43,217.15c0,0,16.58,15.02,11.89,18.15c0,0-16.11,11.73-33.4-10.01"/>
			<path class="st40" d="M441.36,218.82c0,0,2.19,10.88-9.23,17.52c0,0-10.64,8.1-23.08-5.07c0,0-0.24-2.85,0-4.57
				c0,0,1.33-2.82,6.02-2.66c0,0,1.25-0.39,2.35-2.31c0,0-1.41-6.83,0-8.36"/>
			<ellipse class="st41" cx="407.25" cy="227.8" rx="1.49" ry="0.94"/>
			<ellipse class="st41" cx="427.83" cy="124.11" rx="0.55" ry="0.79"/>
			<path class="st40" d="M430.95,110.6c0,0-0.87,1.91,0,2.36"/>
			<path class="st40" d="M429.31,103.88c0,0-2.83,1.1-4.08-1.56"/>
			<path class="st40" d="M442.61,105.93c0,0-3.12,0.13-4.38-2.06"/>
			<path class="st42" d="M454.64,110.04c0,0,0.57-22.8-1.3-31.9c0,0-8.75-39.56-11.88-39.76h-9.18c0,0-9.94,41.91-1.59,43.23
				C440.42,80.96,452.77,86.44,454.64,110.04z"/>
		</g>
		<path class="st40" d="M471.76,240.77c0,0-2.2,54.78-3.75,58.92"/>
		<ellipse class="st41" cx="482.95" cy="233.58" rx="1.33" ry="0.7"/>
	</g>
	<g>
		<g>
			<g>
				<path class="st43" d="M230.65,453.72c-1.11-20.66-2.72-59.3-1.04-86.16c0.93-14.9,7.4-28.9,18.09-39.33
					c13.55-13.22,33.35-33.46,39.24-44.44c1.04-1.94,1.6-4.09,1.69-6.3c0.36-8.87,2.72-41.76,17.79-38.23c0,0,15.88-2.3,18.97,50.65
					c0.11,1.88,0.55,3.71,1.34,5.43c4.71,10.23,21.97,48.28,24.6,62.42c0.17,0.91,0.24,1.82,0.24,2.75l-0.37,91.46
					c-0.03,6.81-0.83,18.92-15.58,25.47c-5.16,2.29-10.84,3.17-16.48,2.9l-45.48-2.19C238.19,472.2,231.08,461.72,230.65,453.72z"/>
				<path class="st44" d="M245.98,366.09c0,0-4.44,27.34,23.6,19.74c0,0,10.98-3.44,15.29-11.55"/>
				<path class="st44" d="M287.08,340.01c0,0-4.48,43.54,19.65,45.06c0,0,25.43,2.66,25.55-29.82"/>
				<path class="st44" d="M303.22,367.43c0,0,0.59-4.18,5.01-4.63c0,0,6.38-0.82,6.36,5.49c0,0,0.22,5.09-5.69,4.2
					C308.9,372.5,303.3,372.95,303.22,367.43z"/>
				
					<ellipse transform="matrix(0.9998 -0.0179 0.0179 0.9998 -6.5475 5.5895)" class="st45" cx="308.84" cy="368.4" rx="2.15" ry="1.1"/>
				<path class="st44" d="M254.22,386.02c0,0-2.1,59.74-0.45,80.53"/>
				<path class="st44" d="M330.78,367.31c0,0-2.43,83.03-5.14,97.95"/>
				<path class="st45" d="M227.9,374.01c-8.04,1.95-15.8-4.7-14.71-12.89c1.44-10.9,15.84-31.14,42.79-58.92
					c0.94-0.97,8.39-10.82,11.32-16.44c3.96-7.58,6.22-12.08,15.46-29.33c3.72-6.95,5.73-12.58,11.06-17.24
					c6.26-5.48,21.22-10.93,29.71,15.85c0,0,4.26,13.84,5.89,33.21c0,0-0.18,7.12,7.51,23.13c0.32,0.66,0.69,1.31,1.09,1.92
					c2.53,3.92,12.71,21.15,13.54,46.03c0,0-6.09-23.9-17.89-45.19c0,0-11-19.84-13.91-42.13c0,0-1.48-24.4-8.84-27.61
					c0,0-1.29-0.59-3.26-0.68c-4.89-0.24-9.24,3.12-10.63,7.81c-1.75,5.87-4.47,19.11-7.23,37.5c0,0-3.77,34.51-15.61,48.92
					C274.19,337.95,257.41,366.85,227.9,374.01z"/>
			</g>
			<path class="st46" d="M294.21,260.57c0,0,4.23,1.24,7.65-0.14"/>
			<path class="st46" d="M309.06,260.31c0,0,6,1.44,8.74-0.16"/>
			<path class="st46" d="M307.08,268.11c0,0,0.35,2.26-0.59,2.28"/>
			<path class="st47" d="M308.08,279.28c0,0,1.28-2.21,0.85-0.02c0,0-0.1,1.65-0.81,2.21c0,0-1.74,0-1.92-1.55
				C306.2,279.92,306.33,276.97,308.08,279.28z"/>
		</g>
		<path class="st44" d="M250.85,374.84c2.37,3.97,7.36,6.18,11.89,5.29"/>
	</g>
	<g>
		<g>
			<g>
				<path class="st48" d="M461.99,477.12c-1.63-1.21-3.13-2.59-4.49-4.16c-8.79-10.18-11.33-28.91-9.76-41.72
					c3.32-27.04,4.38-57.76,17.05-82.52c2.07-3.5,4.3-6.96,7.27-9.77c2.84-2.7,6.27-4.73,9.67-6.73
					c5.74-3.39,22.45-9.27,20.11-18.05c-0.78-2.92-3.55-4.83-5.55-7.13c-4.39-5.03-5.17-12.08-5.75-18.66
					c-0.96-10.79-0.58-22.53,6.54-31.4c6.86-8.54,22.29-9.81,31.05-3.14c7.19,5.47,9.58,14.95,10.96,23.75
					c1.43,9.08,1.87,14.96-2.67,23.05c-3.07,5.47-8.87,13.28-4.26,19.44c4.26,5.7,12.43,8.74,18.21,12.74
					c6.11,4.22,11.79,9.28,15.24,15.88c3.47,6.63,4.42,14.22,5.06,21.65c0.92,10.67,1.3,21.37,1.69,32.06
					c0.18,5.01,0.36,10.03,0.54,15.04c0.37,10.17,0.73,20.4-0.59,30.49c-0.69,5.32-1.85,10.57-3.01,15.81
					c-2.66,12.04-16.6,16.52-27.44,18.71c-6.59,1.33-13,1.1-19.65,1.9c-9.74,1.17-19.58,1.58-29.39,1.2
					C482.02,485.15,470.38,483.35,461.99,477.12z"/>
				<path class="st49" d="M481.44,369.97c0,0-4.38,20.25,7.94,29.5c2.54,1.9,5.85,2.53,8.85,1.5c4.61-1.59,11.15-6.38,14.01-20.5"/>
				<path class="st49" d="M514.25,378.54c0,0,2.27,17.38,15.42,20.99c3.88,1.07,8.14,0.13,10.92-2.8c3.7-3.9,7.41-12.23,6.37-29.99"
					/>
				<path class="st50" d="M490.94,396.65c-0.93-0.36-1.57-1.07-1.66-1.86c-0.16-1.4-0.02-3.71,2.4-4.32c0,0,0.16-0.04,0.42-0.09
					c1.77-0.31,3.57,0.66,3.67,2.04c0,0.02,0,0.03,0,0.05c0,0.05,0,0.09,0.01,0.14C495.82,394.15,494.76,398.12,490.94,396.65z"/>
				<path class="st50" d="M532.34,392.31c0,0-1.34-1.75-0.6-4.12c0.41-1.32,1.48-2,2.98-2.33c1.36-0.3,2.84,0.04,3.79,1.06
					c0.75,0.8,1.54,2.37,0.82,4.25c-0.26,0.68-0.78,1.25-1.42,1.62C536.53,393.61,533.82,394.74,532.34,392.31z"/>
				<path class="st51" d="M491.68,395c0,0-0.72-1.14,0-1.88c0.43-0.45,1.01-0.18,1.55,0.1c0,0,0.69,0.61,0.13,1.77
					C493.18,395.36,492.53,395.57,491.68,395z"/>
				<path class="st51" d="M534.18,390.66c0,0-0.24-1.62,1.32-1.19c1.56,0.43,0.82,1.62,0.82,1.62s-0.24,0.84-1.43,0.61
					C534.63,391.64,534.16,391.19,534.18,390.66z"/>
				<path class="st49" d="M481.88,365.19c0,0-9.26,93.46-0.81,119.29"/>
				<path class="st49" d="M546.75,382.55c0,0,3.61,71.98,0.81,92.03"/>
				<path class="st52" d="M537.51,266.86c-2.57,0.18-4.73,2.7-4.51,5.27c0.22,2.56,2.79,4.68,5.35,4.41
					c-2.32-0.37-4.26,2.3-3.93,4.63c0.32,2.33,2.16,4.16,4.12,5.47c-2.53-0.63-5.39,1.13-5.97,3.67c-0.58,2.54,1.23,5.37,3.78,5.91
					c-2.5,0.01-4.91,1.7-5.77,4.05s-0.11,5.19,1.79,6.82c-3.61,1.72-4.02,7.67-0.67,9.87c0.67,0.21,1.33,0.41,2,0.62
					c-2.63,0.45-4.66,3.17-4.35,5.82c0.31,2.65,2.92,4.82,5.59,4.65c-1.44,1.66-1.58,4.32-0.32,6.12c1.26,1.8,3.8,2.58,5.86,1.8
					c-1.37,1.49-0.3,4.15,1.56,4.94c1.86,0.79,4.02,0.2,5.83-0.71c0.03,1.45,0.07,2.89,0.1,4.34c3.53,1.17,7.69,0.21,10.35-2.4
					c3.43-0.75,6.57-2.76,8.68-5.57c3.99,1.12,8.27-3.54,6.8-7.42c3.92,1.25,8.01-4.02,5.82-7.5c2.14-0.62,4.2-2.12,4.73-4.29
					c0.53-2.17-1.12-4.81-3.35-4.69c1.97-1.2,3.86-3.02,4.01-5.32s-2.43-4.65-4.44-3.51c2.68-2,3.86-5.79,2.79-8.96
					c-1.77,0-3.55-0.01-5.32-0.01c3.03-2.59,1.75-8.46-2.09-9.55c-0.62,0.62,0.67,1.59,1.38,1.08c0.7-0.52,0.72-1.54,0.67-2.42
					c-0.09-1.49-0.2-3.06-1.01-4.31s-2.59-2.01-3.85-1.2c1.66-2.67,1.71-6.25,0.13-8.97c-0.98-0.1-1.96-0.2-2.95-0.3
					c1.63-3.14,0.87-7.33-1.75-9.71c-2.62-2.38-6.86-2.72-9.83-0.8c1.36-4.85-4.13-10.09-8.91-8.52c0.9-3.72-1.08-7.95-4.52-9.63
					c-3.21-1.57-6.74-0.57-9.59,1.15c-0.87-5.82-5.47-9.99-11.57-8.62c-4.83,1.08-4.65,2.58-8.78,1.22c-3.07-1.02-4.3-3.68-8.23-3.6
					c-4.63,0.1-8.98,3.46-10.07,7.78c-2.51-1.33-5.35-2.08-8.21-2.17c-1.62-0.05-3.3,0.11-4.74,0.82c-3.04,1.48-3.86,4.96-3.42,7.91
					c-2.96-0.57-9.81-2.45-10.82,1.87c-0.59,2.56,0.25,5.38,2.18,7.25c-2.99-0.67-6.43,0.63-7.89,3.22
					c-1.46,2.59-0.53,6.26,2.15,7.7c-3.01-0.7-6.33,1.4-7.08,4.29c-0.72,2.81,1.32,5.23,2.38,7.51c-3.9,1.46-8.76,0.92-10.2,6.07
					c-1.04,3.73,0.86,7.06,2.52,10.18c-2.41,1.2-5.04,3-5.19,6.03c-0.15,3,2.89,5.88,5.8,5.13c-2.37,0.6-4.12,3.05-3.93,5.49
					c0.19,2.44,2.31,4.58,4.75,4.8c-0.65,2.52,0.19,5.36,2.1,7.12c1.91,1.76,4.81,2.36,7.27,1.51c-0.85,2.42,0.06,5.35,2.14,6.86
					c2.08,1.5,5.15,1.45,7.18-0.12c-1.51,2.7-0.21,6.56,2.63,7.8s6.55-0.43,7.51-3.37c0.43,2.92,3.59,5.14,6.48,4.55
					s4.93-3.87,4.18-6.73c1.39,2.72,5.61,3.38,7.76,1.21c1.83-1.85,0.43-3.31,0.9-5.21c0.35-1.41,1.76-4.18,1.77-5.97
					c0.01-1.97-1.33-3.87-3.18-4.52c1.26-2.25,1.3-5.14,0.11-7.42c-0.64-1.23-2.51-2.06-2.99-3.1c-0.81-1.75,0.28-2.27-0.13-3.78
					c-0.44-1.66-0.82-7.71-4.88-4.67c2.69-1.52,4-4.97,2.95-7.8c-2.15-5.79-7.7-2.33-4.89-9.07c1.25-2.99-0.55-6.8-3.71-7.88
					c2.32-0.24,4.4-1.89,5.09-4.03c0.69-2.13-0.06-4.63-1.82-6.08c4.75,0.65,9.4-4.06,8.46-8.57c2.73,0.29,5.57,0.56,8.17-0.29
					c2.6-0.85,4.2-1.23,4.02-3.86c0.66,2.51,2.49,4.79,4.16,6.8c1.11,1.33,2.37,2.62,3.98,3.34c1.79,0.8,3.33,0.46,5.06-0.09
					c0.06,1.58,0.67,2.97,2.06,3.92c1.36,0.93,3.08,1.25,4.74,1.36c1.45,0.1,2.95,0.04,4.28-0.52c-2.52,1.06-2.39,5.25-1.53,7.16
					c1.2,2.66,3.65,4.43,6.27,5.72c-1.27-0.62-9.4,13.61,0.12,15.65c-2.53-0.09-4.96,1.85-5.32,4.25c-0.36,2.4,1.4,4.92,3.85,5.52
					c-2.62-1.32-6.28-0.17-7.57,2.39c-1.3,2.59,1.19,3.92,0.96,5.87c-0.28,2.33-2.85,3.79-2.61,6.61c0.2,2.38,2.15,4.53,4.58,5.05
					c-1.88-1.08-4.06,1.48-3.69,3.54c0.61,3.39,5.57,5.17,8.36,3c-2.28,2.04-1.98,6.09,0.56,7.81c2.73,1.84,4.87-1.01,7.04-0.29
					c1.66,0.55,2.6,3.05,4.2,4.07c0.88,0.55,1.9,0.98,2.94,0.9c2.7-0.2,3.91-3.27,4.51-5.8c1.07,1.98,4.13,2.45,6.06,1.19
					s2.66-3.78,2.16-5.96c-0.36-1.6-1.42-3.15-3.03-3.71c2.11,1.1,4.62-1.65,3.97-3.86c-0.45-1.53-2.38-3.05-3.45-3.84
					c2.79-1.11,5.36-4.08,4.07-7.11c-0.19-0.45-0.46-0.9-0.45-1.39c0.02-0.67,0.54-1.21,0.86-1.8c1.19-2.17-1.24-4.42-2.99-5.22
					c3.69-3.37,2.53-5.3,2.2-9.32c-0.15-1.86-1.26-2.31-1.1-4.37c0.1-1.34,1.37-2.57,1.35-4.13c-0.02-2.49-1.51-4.91-3.77-6.14
					c2.6-2.16,2.68-6.15,1.23-9.14c-0.77-1.59-2.77-3.18-4.22-2.11c1.91-2.18,3.34-5.08,2.56-7.82c-0.78-2.74-4.62-4.6-6.9-2.79
					c0.34-3.02,0.46-6.58-1.97-8.51c-1.49-1.19-4.17-1.25-6-1.07c0.38-3.34-0.45-7.36-4.15-8.98c-3.54-1.55-7.59-0.28-10.44,1.98
					c0.02-0.12,0.03-0.24,0.04-0.36"/>
			</g>
		</g>
		<path class="st53" d="M501.37,273.85c2.42,1.69,5.37,0.53,5.99,0.06"/>
		<path class="st53" d="M519.74,273.75c3.53,2.16,5.03,0.52,5.99,0.06"/>
		<path class="st53" d="M513.76,283.59c0.26,0.73,0.25,1.53-0.01,2.26"/>
		<path class="st53" d="M510.84,296.83c2.27,0.97,4.29,0.31,5.99-0.12"/>
	</g>
	<g>
		<path class="st42" d="M523.74,416.43c18.12,11.73,18.07,41.01,10.83,58.84c-1.26,3.1-2.8,6.19-2.98,9.53
			c-0.52,9.67,9.03,14.77,15.38,20.16c3.26,2.77,6.54,5.55,9.39,8.74c7.47,8.34,11.74,19.17,13.69,30.2
			c2.49,14.03,1.44,28.59,2.1,42.73c0.61,12.93,1.21,26.02-1.31,38.72c-0.99,4.98-2.48,9.94-5.24,14.19
			c-8.41,12.97-25.35,12.62-39.03,11.96c-16.57-0.8-43.82-2.6-57.39-13.72c-1.3-1.06-1.51-3.51-1.9-4.99
			c-7.55-28.78-9.49-61.91-6.77-91.57c0.48-5.22,1.13-10.48,2.9-15.42c4.02-11.26,12.57-18.41,22.25-24.79
			c4.53-2.99,18.63-9.84,20.59-14.71c2.54-6.31-8.05-11.66-10.94-15.69c-4.09-5.71-4.11-13.23-3.71-19.96
			c0.36-6.16,0.86-12.31,1.49-18.44c0.13-1.3,0.28-2.61,0.62-3.88C497.24,415.42,512.66,409.26,523.74,416.43z"/>
		<path class="st54" d="M496.93,555.9c0,0-0.69,4.42,0.58,4.82c0,0,2.61-1.88,1.08-4.82H496.93z"/>
		<path class="st54" d="M531.15,558.74c0,0-0.15,4.31,1.12,4.71c0,0,1.66-1.83,1.09-4.71H531.15z"/>
		<path class="st55" d="M545.12,527.04c0.86,6.43,9.19,77.04-1.6,108.6"/>
		<path class="st55" d="M483.96,529.2c-2.02,10.24,15.73,53.42,29.4,0.4"/>
		<path class="st55" d="M515.55,532.7c-0.94,12.53,24.6,53.8,28.61-5.65"/>
		<path class="st55" d="M509,447.69c0,0-0.92,2.96,1.51,3.23"/>
		<path class="st56" d="M522.69,439.66c0,0.46-1.01,0.83-2.26,0.83s-2.26-0.37-2.26-0.83c0-0.46,1.01,0,2.26,0
			S522.69,439.2,522.69,439.66z"/>
		<path class="st56" d="M503.92,439.66c0,0.46-1.01,0.83-2.26,0.83c-1.25,0-2.26-0.37-2.26-0.83c0-0.46,1.01,0,2.26,0
			C502.91,439.66,503.92,439.2,503.92,439.66z"/>
		<path class="st57" d="M510.75,462.47c0,0.53-0.83,0.95-1.47,0.95c-0.51,0-1.4-0.43-1.4-0.95c0-0.53,1.13-0.12,1.43-0.12
			S510.75,461.95,510.75,462.47z"/>
		<path class="st55" d="M483.8,532.36c-0.01,12.11,0.15,23.49,0.15,34.58c-0.01,19.76,0.03,39.83,5.48,58.83"/>
		<g>
			<path class="st58" d="M497.23,426.32c2.15,1.51,2.25,4.12,4.44,5.43c2.29,1.37,4.45,1.49,6.75,0.05
				c0.67-0.42,1.24-0.98,1.95-1.33c2.36-1.15,5.06,0.49,7.54,1.39c2.48,0.9,6.34,0.05,6.09-2.53c0.89,3.14,3.76,5.66,7.04,6.18
				c-1.1,3.52,2.16,7.63,5.91,7.45c-0.65,1.65-0.82,3.61,0.14,5.11c0.97,1.5,0.8,5.47,4.64,0.93c0.45-0.54,0.8-1.14,1.05-1.79
				c1.98-5.09,2.91-10.57,2.71-16.02c-0.11-2.96-0.58-5.99-2.14-8.53s-4.42-4.47-7.43-4.28c0.4-1.8,0.81-3.69,0.25-5.45
				c-0.55-1.76-2.42-3.27-4.23-2.78c0.82-2.36-0.63-5.24-3.04-6.04c-0.91-0.3-1.88-0.33-2.8-0.57c-1.84-0.48-3.34-1.76-4.9-2.83
				c-1.56-1.07-3.43-2.01-5.3-1.66s-3.38,2.58-2.34,4.15c-2.57-4.54-8.06-7.33-13.31-6.76c-0.21,1.74-0.42,3.48-0.63,5.23
				c-1.56-0.87-3.71-0.52-4.9,0.79s-1.29,3.44-0.23,4.86c-1.91-0.74-4-1.49-5.96-0.91c-1.96,0.58-3.34,3.17-1.98,4.67
				c-3.57-0.12-6.29,4.38-4.47,7.4c-1.89-1.75-5.53-0.9-6.4,1.5c-0.87,2.4,1.4,5.32,3.99,5.14c-2.61,1.34-2.41,5.49-0.12,7.31
				c2.29,1.82,5.66,1.69,8.4,0.63c-3.87,0.59-5.17,6.63-1.88,8.72c-1.86,0.09-3.43,1.94-3.18,3.75c0.25,1.81,2.27,3.19,4.1,2.79
				c2.27-0.5,3.38-3.07,3.51-5.35c0.14-2.28-0.31-4.64,0.42-6.8c0.4,1.07,0.83,2.2,1.73,2.93c0.9,0.73,3.86,1.06,4.79-1.26
				c1.89-4.71,0.44-6.08-0.25-11.35"/>
		</g>
	</g>
	<g>
		<path class="st59" d="M131.63,730.17c0.01-11.62-0.53-23.24-2.85-34.67c-2.69-13.26-7.9-26.25-16.69-36.53
			c-3.92-4.59-8.01-8.69-8.54-15.03c-0.35-4.21,0.42-8.42,0.79-12.62c0.97-11.09-0.89-22.21-2.75-33.19
			c-2.12-12.54-7.43-17.53-19.9-18.89c-9.47-1.04-19.82,1.18-22.98,11.37c-4.63,14.89,2.32,31.22-4.44,45.57
			c-1.91,4.06-4.82,7.55-7.7,10.99c-4.75,5.68-9.5,11.36-14.26,17.04c-2.63,3.14-5.28,6.31-7.33,9.86
			c-3.54,6.12-5.19,13.14-6.32,20.12c-1,6.17-1.64,12.4-2,18.65c-0.37,6.58-0.44,13.17-0.5,19.77c-0.03,3.5-0.06,6.99-0.1,10.49
			c-0.04,4.13-0.08,8.27,0.31,12.39c0.8,8.59,2.83,20.32,7.77,27.54c4.29,6.25,11.43,10.38,18.97,12.54s15.52,2.53,23.4,2.58
			c9.54,0.07,19.08-0.3,28.59-1.1c13.7-1.15,25.9-5.47,31.75-19.05c3.98-9.23,4.26-19.58,4.48-29.63
			C131.47,742.31,131.63,736.24,131.63,730.17z"/>
		<path class="st61" d="M112.36,691.28c0,0,1.51,39.35-12.21,47.77c-2.42,1.48-5.25,1.56-7.82,0.55
			c-4.13-1.63-10.57-6.08-13.06-18.23"/>
		<path class="st61" d="M99.36,735.25c0,0,4.62-5.57,0.9-7.31c-3.37-1.58-7.46,7.73-3.13,8.59
			C97.12,736.52,98.48,737.04,99.36,735.25z"/>
		<path class="st61" d="M101.36,734.17c0,0-0.85-0.85-1.29-0.91c0,0-1.43,1.11-1.03,1.82c0.01,0.02,0.03,0.04,0.04,0.06
			c0.67,1.18,1.68,2.17,2.64,1.45C101.71,736.59,102.16,735.75,101.36,734.17z"/>
		<path class="st61" d="M93.57,604.29c0,0-3.57,3.14-7.14-0.39"/>
		<path class="st61" d="M76.09,604.01c0,0-3.77,3.16-7.55,0.14"/>
		<path class="st61" d="M82.86,622.12c0,0-1.3,2.12-3.59,0.31"/>
		<path class="st63" d="M102.85,590.6c-1.34-3.24-3.25-6.25-6.33-8.97c-1.69-1.5-3.42-2.97-5.33-4.17
			c-11.7-7.35-26.26-2.46-32.99,8.96c-6.09,10.32-4.37,23.33-7.41,34.57c-5.44,20.09-24.3,30.61-31.31,49.52
			c-3.86,10.41-4.25,21.76-5.4,32.7c-0.4,3.81,0.64,6.05,2.17,9.38c0.99,2.15,4.14,5.15,4.71,6.9c-1.72-5.24-1.49-11.12,0.38-16.29
			c1.09-3.02,2.75-5.79,4.91-8.05c10.32-10.79,4.36-27.77,19.58-34.24c4.52-1.92,9.39-3.12,13.57-5.71
			c4.78-2.96,9.76-9.13,10.34-14.85c0.35-3.41-0.41-6.83-1.35-10.13c-3.2-11.29-12.04-31.96-0.43-40.08
			c2.76-1.93,5.75-3.58,8.97-4.6c4.14-1.32,8.72-1.54,12.81-0.07c16.49,5.92,9.18,33.95,6.95,46.71c-0.94,5.36-2.72,12.6-0.58,17.87
			c0.72,1.78,1.99,3.28,3.23,4.75c11.79,13.91,31.9,29.08,22.86,49.33c11.15-2.46,8.78-22.58,6.63-30.54
			c-1.86-6.89-4.27-13.45-8.76-18.93c-4.39-5.36-8.22-11.17-9.95-17.96c-0.77-2.99-1.11-6.08-1.46-9.15
			C107.32,615.46,107.53,601.95,102.85,590.6z"/>
		<path class="st61" d="M44.11,693.95c-0.82,9.51-0.26,15.75,0.81,23.89c0.78,5.95,3.34,13.42,7.17,17.14
			c3.65,3.54,10.17,3.53,14.18,0.63c4-2.9,6.8-5.52,7.55-15.2"/>
		<path class="st61" d="M52.12,729.4c0.98,2.3,2.16,4.54,4.42,5.09c1.12,0.27,2.17-0.79,2.22-2.21c0.07-2.23-1.11-4.04-2.31-5.58
			c-0.9-1.14-2.33-1.53-3.44-0.72C51.92,726.77,51.62,728.02,52.12,729.4z"/>
		<path class="st61" d="M54.83,729.35c-1.05-0.92-3.15,0.91-2.89,3.7c0.15,1.62,2.29,1.94,3.17,0.73S55.76,730.52,54.83,729.35"/>
		<path class="st61" d="M45.7,679.52c-7.87,36.8-7.99,75.42-0.34,112.27"/>
		<path class="st61" d="M82.48,610.67c0.39,1.06,0.49,2.17,0.3,3.25"/>
		<path class="st61" d="M113.24,689.29c0.44,13.53,1.38,27.04,2.82,40.49c2.24,20.89,5.56,42.81-1.81,62.34"/>
	</g>
	<g>
		<path class="st64" d="M450.07,466.09c4.2-5.99,6.36-13.66,7.13-22.27c2.31-26.17,0.86-52.67-4.29-78.43
			c-3.18-15.9-8.5-32.65-21.41-42.46c-9.16-6.96-29.93-9.91-21.97-26.96c0.69-1.49,1.63-2.86,2.16-4.42
			c0.59-1.72,0.64-3.58,0.69-5.4c0.19-8.52,0.14-17.33-3.26-25.15c-3.63-8.35-12.44-13.6-21.4-13.74c-18.15-0.29-23,23.13-21,36.86
			c0.98,6.72,4.08,13.41,9.65,17.28c1.95,1.36,4.19,2.38,5.7,4.21c6.82,8.26-4.44,13.7-10.21,17.25
			c-7.9,4.85-14.27,10.55-18.43,19.1c-5.88,12.06-5.97,26.02-5.94,39.44c0.04,19.13,0.08,38.26,0.12,57.39
			c0.03,16.54,2.01,30.22,19.05,35.68c19.61,6.28,40.71,7.83,61.02,4.46c0.96-0.16,1.91-0.33,2.86-0.53
			C439.54,476.47,445.83,472.13,450.07,466.09z"/>
		<path class="st65" d="M423.13,344.79c0,0,16.33,2.38,7.09,116.95"/>
		<path class="st65" d="M394.52,271.21c0,0-0.62-2.68-3.19-0.45C391.32,270.75,392.96,272.74,394.52,271.21z"/>
		<path class="st65" d="M378.06,268.71c0,0-1.05-1.46-3.03-0.43C375.03,268.28,376.34,269.66,378.06,268.71z"/>
		<path class="st65" d="M385.73,280.13l-0.6-1.67c0,0-0.22-0.2-0.11,0.78C385.14,280.21,385.73,280.13,385.73,280.13z"/>
		<path class="st65" d="M387.71,290.53h-2.36c0,0,0.83,1.07,2.36,0.74V290.53z"/>
		<path class="st66" d="M401.35,256c0.5-0.39,0.97-0.81,1.42-1.26c-2.92,2.99-0.32,14.45,0.63,17.9c1.41,5.14,2.26,10.03-1.45,14.73
			c-0.81,1.02-1.81,1.95-2.28,3.15c-2,5.05,5.97,7.32,9.81,7.25c12.65-0.22,14.52-13.54,13.83-23.56
			c-0.94-13.62-5.53-26.56-16.63-35.25c-1.28-1-2.63-1.94-4.15-2.52c-2.04-0.79-4.27-0.91-6.45-0.92
			c-13.24-0.03-24.36,3.21-30.36,16.08c-3.55,7.62-4.45,16.17-5.3,24.53c-0.73,7.23-1.37,19.94,7.66,22.87
			c2.27,0.74,6.17-2.8,6.93-2.52c-2.73-1-4.86-3.27-6.16-5.87c-1.3-2.6-1.84-5.51-2.11-8.4c-0.48-5.24-0.06-10.56,1.2-15.67
			c1.09-4.41,3.76-8.22,4.99-12.58c0.06,2.53,2.98,3.3,5.07,3.84c4.23,1.09,8.56,2.01,12.92,1.78
			C394.65,259.38,398.43,258.26,401.35,256z"/>
		<path class="st65" d="M371.46,350.21c-0.51,7.04-1.03,14.09-1.54,21.13c-2.16,29.68-4.27,60.02,3.4,88.78
			c0.24,0.9,0.83,2.02,1.74,1.82"/>
		<path class="st67" d="M383.23,375.38c0.76,0.71,1.78,1.13,2.82,1.16c0.72,0.03,1.48-0.15,2.01-0.64c0.52-0.49,0.73-1.36,0.34-1.96
			c-0.2-0.31-0.51-0.51-0.84-0.67c-1.08-0.51-2.4-0.5-3.48,0.02c-0.3,0.15-0.58,0.33-0.79,0.6c-0.6,0.79-0.07,2.15,0.91,2.31"/>
		<path class="st67" d="M412.97,375.25c0.76,0.71,1.78,1.13,2.82,1.17c0.72,0.03,1.48-0.15,2.01-0.64c0.52-0.49,0.73-1.36,0.34-1.96
			c-0.2-0.31-0.51-0.51-0.84-0.67c-1.08-0.51-2.4-0.5-3.48,0.02c-0.3,0.15-0.58,0.33-0.79,0.6c-0.6,0.79-0.07,2.15,0.91,2.31"/>
	</g>
	<g>
		<g>
			<g>
				<g>
					<path class="st68" d="M123.27,467.11c-1.17-3.11-1.97-6.53-2.49-10.16c-3.92-27.59,0.02-55.47,5.09-82.63
						c2.13-11.39,5.22-21.99,9.16-32.85c3.23-8.91,10.02-15.95,18-21.13c3.68-2.39,7.65-4.34,11.23-6.89
						c3.58-2.55,6.82-5.83,8.29-9.97c1.01-2.84,1.12-5.91,1.21-8.92c0.41-12.46-1.69-25.53,1.06-37.62
						c2.1-9.23,7.76-16.28,17.43-17.93c8.86-1.51,18.43,2.86,23.09,10.55c3.06,5.05,4.01,11.05,4.9,16.88
						c1.12,7.35,1.46,15.62-2.61,22.23c-1.14,1.86-2.84,3.82-4.65,5.07c-1.41,0.98-3.25,1.26-4.06,2.93
						c-5.71,11.77,5.87,23.73,12.69,31.97c2.81,3.39,5.63,6.81,7.77,10.67c8.73,15.74,10.03,37.6,11.37,55.16
						c1.55,20.22,1.01,40.6-1.63,60.71c-0.72,5.49-1.64,11.09-4.3,15.95c-7.21,13.19-27.28,9.88-40.18,11.43
						c-17.13,2.05-34.44,4.06-51.61,1.17C132.55,481.96,126.51,475.73,123.27,467.11z"/>
					<path class="st69" d="M196.05,262.05c0,0,4.05,1.69,6.75,0"/>
					<path class="st69" d="M206.85,280.07c0,0,0.65,0.17,2.52-1.18"/>
					<path class="st70" d="M187.38,259.94c0,0,0.52,3.03,0.55,3.6c0.59,11.58-0.77,45.29-6.4,49.12c0,0-15.57-11.73-17.14-16.68
						c0,0-7.84-50.67,21.42-59.89c0,0,22.5-8.78,32.41,11.7c0,0,1.57,2.77,1.46,11.46c0,0-14.51,1.14-16.16-11.69
						C203.51,247.56,195.93,260.16,187.38,259.94z"/>
					<path class="st69" d="M148.64,354.71c-7.45,18.04-10.98,37.69-10.26,57.19c0.27,7.36,1.13,14.68,2,22
						c1.53,12.95,3.06,25.9,4.59,38.85"/>
					<path class="st69" d="M214.88,346.79c8.04,43.15,6.99,87.97-3.05,130.7"/>
					<path class="st69" d="M146.37,361.18c-1.14,5.5-3.25,10.8-3.96,16.37c-0.71,5.57,0.26,11.79,4.35,15.64
						c3.56,3.36,8.75,4.29,13.64,4.57c1.82,0.1,3.65,0.14,5.45-0.15c3.94-0.63,7.54-2.82,10.19-5.8c2.65-2.98,4.36-6.72,5.26-10.6
						c0.12,2.68,1.48,5.2,3.35,7.11c1.87,1.92,4.23,3.3,6.65,4.45c3.36,1.61,6.96,2.85,10.68,3.13c2.79,0.21,5.68-0.14,8.15-1.45
						c3.45-1.83,5.74-5.37,6.91-9.09c1.17-3.72,1.42-13.22,0.81-18.22"/>
				</g>
				<path class="st69" d="M213.3,262.03c0,0,2.8,2.35,5.61,0.3"/>
			</g>
			<path class="st69" d="M210.43,267.29c1.28,1.19,0.93,3.64-0.63,4.42"/>
		</g>
		<path class="st70" d="M151.39,380.44c-1.34,1.35-1.93,3.4-1.52,5.26c0.23,1.01,0.72,1.94,1.32,2.78c1.68,2.36,4.25,4.12,7.1,4.62
			c0.93,0.17,1.87,0.05,2.81-0.07c1.51-0.2,3.26-1.69,3.85-2.53c2.05-2.96,0.98-7.2-1.86-9.99
			C160.26,377.73,154.6,377.2,151.39,380.44"/>
		<path class="st70" d="M204.42,379.71c-2.97,0.28-4.17,0.94-5.13,2.18c-0.86,1.13-1.4,2.29-1.28,4c0.13,1.83,1.55,3.34,3.15,4.23
			c2.57,1.43,5.81,1.62,8.53,0.48c2.58-1.07,4.78-3.78,4.09-6.49c-0.47-1.84-2.15-3.17-3.96-3.74
			C208.01,379.81,206.93,379.64,204.42,379.71"/>
		<path class="st70" d="M155.24,387.6c-1.59,0.66-2.79,2.34-2.6,4.05s2.02,3.15,3.67,2.67c1.49-0.42,2.31-2.06,2.45-3.6
			c0.09-1.03-0.08-2.17-0.83-2.89C157.18,387.11,156.4,387.1,155.24,387.6"/>
		<path class="st70" d="M206.39,386.47c-0.62,0.18-1.19,0.79-1.49,1.37c-0.3,0.57-0.4,1.23-0.39,1.88c0.03,1.53,0.86,3.14,2.32,3.61
			c0.93,0.3,2.01,0.07,2.73-0.59s1.06-1.71,0.85-2.66c-0.07-0.33-0.21-0.65-0.34-0.96c-0.19-0.43-0.38-0.86-0.65-1.25
			c-0.49-0.69-1.23-1.19-2.05-1.39c-0.38-0.09-0.68-0.11-1.1,0.03"/>
		<path class="st70" d="M204.34,299.02c1.67,3.41,4.15,6.41,7.18,8.68c1.04,0.78,2.34,1.5,3.57,1.1c0.65-0.21,1.17-0.71,1.62-1.23
			c3.72-4.3,4.09-10.48,4.27-16.17c0.38-11.64,0.74-23.43-1.87-34.78c0.04,7.77,0.07,15.65-1.94,23.15s-6.34,14.72-13.13,18.5
			c0.26,0.9,0.98,1.65,1.87,1.94"/>
	</g>
	<g>
		<g>
			<path class="st71" d="M233.4,541.09c0.49,3.56,0.98,7.14,1.55,10.75c1.82,11.36,4.01,22.56,4.6,34.22
				c0.24,4.86,0.48,9.72,0.73,14.57c2.23,44.72-44.49,51.89-79.31,47.83c-27.26-3.18-34.77-16.65-34.56-42.88
				c0.29-36.65-9.16-88.1,21.87-115.17c5.78-5.04,17-9.07,20.39-16.44c3.23-7.03,2.89-16.33,0.42-23.49
				c-4.54-13.12-7.27-33.67,7.39-41.68c11.67-6.38,21.91-7.48,30.58,4.96c4.15,5.95,5.21,15.43,4.78,22.46
				c-0.45,7.35,0.36,14.51-3.96,21.03c-3.01,4.55-7.58,7.92-10.48,12.55c-7.24,11.54,2.05,16.59,10.56,22.45
				C225.32,504.18,230.63,521.07,233.4,541.09z"/>
			<path class="st72" d="M215.77,562.64c0,0,4.52,54.2,0,65.76"/>
			<path class="st72" d="M159.74,538.62c0,0-18.7,15.77-13.41,19.05c0,0,18.17,12.32,37.66-10.51"/>
			<g>
				<path class="st72" d="M186.3,543.54c0,0-2.47,11.43,10.41,18.39c0,0,12,8.5,26.02-5.32c0,0,0.27-2.99,0-4.8
					c0,0-1.5-2.96-6.79-2.79c0,0-1.41-0.41-2.65-2.42c0,0,1.59-7.17,0-8.78"/>
				<ellipse class="st73" cx="222.84" cy="552.97" rx="1.68" ry="0.99"/>
			</g>
			<ellipse class="st73" cx="197.7" cy="449.6" rx="0.62" ry="0.83"/>
			<path class="st72" d="M194.18,435.42c0,0,0.98,2,0,2.48"/>
			<path class="st72" d="M196.03,428.36c0,0,3.19,1.15,4.6-1.64"/>
			<path class="st72" d="M181.04,430.52c0,0,3.52,0.14,4.93-2.16"/>
			<path class="st73" d="M164.21,400.04c-0.97-1.02-2.43-1.56-3.84-1.41c-0.67,0.07-1.36,0.32-1.74,0.87c-0.2,0.29-0.3,0.65-0.37,1
				c-0.34,1.72-0.21,3.87,1.27,4.94c-1.8,0.2-3.89,0.56-5.15,2c-1.25,1.44-0.76,4.32,1.15,4.49c-1.79-0.09-3.81,0.6-4.54,2.24
				s0.81,4,2.52,3.46c-2.09,0.16-4.37,0.95-5.31,2.82c-0.94,1.87,0.54,4.75,2.59,4.35c-1.87-0.19-3.66,1.65-3.43,3.51
				c0.23,1.86,2.41,3.2,4.18,2.57c-1.64,0.26-2.9,2-2.63,3.64c0.28,1.67,1.93,2.74,3.56,2.62c-1.47,0.28-1.82,1.87-0.5,2.77
				c0.8,0.54,1.85,0.53,2.8,0.39c-0.58,0.8-0.52,2,0.14,2.74c0.66,0.74,1.85,0.93,2.71,0.44c-0.45,0.9-0.26,2.09,0.46,2.8
				c0.72,0.71,1.9,0.89,2.8,0.43c-0.5,0.88-0.24,2.12,0.58,2.73c1.01,0.74,2.03-0.14,2.98,0.31c1.11,0.53,0.88,2.26,2.71,2.36
				c1.8,0.09,3.22-2,2.84-3.68c0.17,0.75,2.22,0.62,2.7,0.48c0.94-0.29,1.64-1.05,1.7-2.07c0.12-1.96-2.83-2.92-4.35-3.08
				c1.63-0.59,2.66-2.5,2.25-4.19s-2.18-2.93-3.9-2.72c1.44-0.37,2.47-1.9,2.27-3.37s-1.61-2.67-3.09-2.63
				c1.11,0.37,2.46-0.52,2.55-1.69c0.1-1.17-1.07-2.27-2.23-2.1c1.46-0.2,2.62-1.68,2.46-3.15c-0.16-1.47-1.61-2.66-3.08-2.54
				c1.14,0.58,2.73-0.13,3.06-1.37c0.36-1.37-0.72-2.41-1.93-2.7c2.77-0.81,3.62,1.52,6.06,1.9c1.03,0.16,6.68-1.98,4.93-3.73
				c1.71,1.47,3.84,2.77,6.07,2.46c2.23-0.3,4.12-2.97,2.93-4.88c0.33,2.04,2.29,3.68,4.35,3.65c2.06-0.03,3.97-1.73,4.24-3.78
				c0.03,1.72,1.22,3.37,2.84,3.94c1.63,0.57,3.58,0.02,4.68-1.31c0.04,1.63,0.08,3.27,0.12,4.9c1.04,0.57,2.4,0.49,3.38-0.18
				c-0.45,2.17-0.21,5.34,2,5.46c-0.39,1.27-0.78,2.62-0.44,3.9c0.34,1.28,1.73,2.38,2.97,1.9c-0.67,1.31-1.35,2.68-1.44,4.15
				s0.6,3.09,1.96,3.65c-1.24-0.02-1.82,1.85-0.99,2.76s2.38,0.83,3.41,0.13c1.02-0.7,1.64-1.85,2.17-2.97
				c0.57-1.21,1.1-2.6,0.66-3.86c-0.44-1.27-2.34-1.98-3.15-0.92c1.51,0.39,3.24-0.68,3.56-2.21c0.32-1.53-0.84-3.21-2.38-3.45
				c1.7-0.25,3.13-1.75,3.3-3.47c0.17-1.71-0.95-3.46-2.57-4.03c2.18-2.24,0.45-6.77-2.67-6.99c1.11-1.07,1.44-2.87,0.78-4.27
				c-0.66-1.4-2.26-2.28-3.8-2.1c1.1-1.59,1-3.92-0.25-5.41c-1.25-1.48-3.52-1.99-5.28-1.18c1.49-0.49,2.36-2.33,1.8-3.79
				c-0.56-1.46-2.45-2.24-3.88-1.6c0.42-1.66-0.46-3.55-2-4.3c-1.54-0.75-3.57-0.27-4.62,1.09c0.65-1.53-0.14-3.52-1.67-4.17
				c-1.53-0.66-3.52,0.14-4.18,1.67c-0.45-2.43-3.4-4.05-5.69-3.12c-0.04,0.9-0.08,1.8-0.13,2.7c-0.63-1.76-2.66-2.9-4.49-2.51
				c-1.83,0.39-3.22,2.25-3.08,4.12c-1.67-0.95-3.71-1.51-5.51-0.84s-3.02,2.96-2.06,4.63c-1.95-0.91-4.27-1.63-6.2-0.67
				c-1.93,0.95-2.45,4.31-0.45,5.09c-1.83,0.1-3.65,0.21-5.48,0.31c-0.59,1.58-0.28,3.44,0.72,4.78"/>
		</g>
		<path class="st72" d="M150.71,559.29c-0.74,13.05-1.56,26.1-1.96,39.16c-0.37,12-1.27,24.14,2.52,35.81"/>
		<ellipse class="st73" cx="143.78" cy="556.73" rx="1.5" ry="0.74"/>
	</g>
	<g>
		<path class="st74" d="M233.28,609.35c-3.27-11.93-4.1-23.98-4.47-36.51c-0.45-15.2-0.13-30.6,2.51-45.62
			c1.16-6.57,2.77-13.14,5.4-19.32c3.47-8.14,9.8-13.18,16.21-19.28c2.26-2.15,4.54-4.33,6.31-6.88c2.63-3.8,4.02-8.26,5.28-12.67
			c4-13.94,7.43-27.87,10.73-41.97c1.71-7.34,4-15.47,10.65-19.35c8.45-4.93,17.64-5.54,23.72,3.19c3.23,4.64,4.37,10.36,4.73,15.95
			c1.08,16.81-4.04,34.86,3.85,49.86c4.64,8.82,13.1,15.04,20.46,21.9c10.61,9.88,15.62,23.56,16.34,37.53
			c0.94,18.25,2.18,36.44,1.08,54.77c-0.51,8.55-1.05,21.82-7.1,28.64c-1.48,1.67-3.45,2.83-5.45,3.83
			c-13.51,6.76-26.23,4.27-40.62,4.66c-15.26,0.41-30.46,2.21-45.73,2.26c-5.28,0.02-10.99-0.14-15.16-3.37
			c-3.24-2.5-4.99-6.44-6.4-10.28C234.73,614.26,233.95,611.81,233.28,609.35z"/>
		<path class="st75" d="M289.34,428.88c0,0-2.88,0.85-6.09,0.85c0,0,1.02,1.13,2.04,1.13c0,0,0.58,0.42,1.75-0.99"/>
		<path class="st76" d="M301,428.17c0,0,2.19,0.71,5.4,0c0,0-1.75,2.4-4.74,0.71"/>
		<path class="st77" d="M295.24,439.2c0,0-1.09-1.13,0-1.41C296.33,437.5,296.48,439.2,295.24,439.2z"/>
		<path class="st77" d="M294.99,448.1c0,0-0.29-1.41,1.57-1.41c0,0,1.57,0.42,0.4,1.41C296.96,448.1,296.23,449.38,294.99,448.1z"/>
		<path class="st78" d="M251.7,560.01c0,0-1.8,57.43-0.05,64.08"/>
		<path class="st78" d="M337.12,553.01c0,0-0.6,61.7-3.67,70.33"/>
		<path class="st79" d="M257.48,523.05c0,0-0.6,1.66-2.74,8.88c0,0-7.81,20.87-3.04,28.08c0,0,3.21,6.93,9.82,9.48
			c0,0,19.89,8.61,28.5-16.63"/>
		<path class="st79" d="M297.11,554.8c0,0,6.65,12.73,15.73,12.87c0,0,27.75,4.95,24.83-26.88c0,0-1.32-12.97-2.85-18.44"/>
		<path class="st79" d="M260.59,557c0,0-5.55-3.26-2.17-9.19c0.85-1.49,2.22-2.68,3.86-3.29c1.77-0.65,4.27-0.98,6.72,0.69
			c1.44,0.98,2.38,2.51,2.84,4.15c0.68,2.39,0.94,6.02-2.55,8.24C269.3,557.61,264.3,560.01,260.59,557z"/>
		<path class="st79" d="M317.43,545.15c2.61-1.18,5.71-0.16,8.04,1.67c2.34,1.84,4.4,4.71,1.55,8.22c0,0-3.64,7.39-10.65,2.15
			c-1.8-1.34-2.81-3.39-2.83-5.59C313.52,549.18,314.67,546.4,317.43,545.15z"/>
		<path class="st80" d="M323.58,555.26l1.92-1.52c0,0,5.2,1.46,2.43,3.21C327.93,556.94,325.99,559.41,323.58,555.26z"/>
		<path class="st80" d="M263.05,554.53l-1.92-1.52c0,0-5.95,1.31-3.18,3.05C257.95,556.07,259.56,557.8,263.05,554.53z"/>
		<path class="st81" d="M237.35,506.35c-0.49-3.85-0.28-7.98,0.05-11.22c0.93-9.16,6.77-16.97,12.39-24.26
			c6.64-8.61,10.13-16.72,13.23-27.21c3.04-10.28,5.17-20.79,8.04-31.11c0.54-1.98,1.73-4.07,2.8-5.8
			c3.98-6.46,11.21-10.8,18.79-11.26c19.23-1.19,28.65,19.54,29.41,35.87c0.35,7.42-0.8,15.35,1.43,22.57
			c1.97,6.38,5.55,13.07,9.3,18.58c0.37,0.55,0.77,1.07,1.18,1.59c9.77,12.31,20.31,31.22,19.22,47.07
			c-3.94-2.26-6.75-9.12-10.17-12.63c-3.68-3.77-7.93-7.02-12.58-9.59c-3.01-1.66-6.2-3.06-8.96-5.08
			c-11.56-8.44-11.81-21.42-9.89-34.39c1.47-9.9,2.75-19.35,2.64-29.37c-0.04-3.92-0.54-5.73-3.07-9c-1.31-1.69-6.37-6.05-5.92-8.45
			c-0.49,2.6-3.07,4.36-5.67,4.86c-2.6,0.5-5.27,0.03-7.9-0.22c-3.64-0.34-7.33-0.23-10.95,0.31c-6.5,0.97-5.42,17.23-4.48,21.99
			c1.18,5.97,4.4,11.36,5.87,17.27c1.46,5.88,1.12,12.19-0.97,17.87c-1.77,4.81-4.72,9.09-6.76,13.78
			c-1.96,4.51-3.06,9.37-5.16,13.82c-3.39,7.19-12.12,14.01-20.03,15.19C241.14,518.73,238.2,512.97,237.35,506.35z"/>
	</g>
	<g>
		<g>
			<path class="st82" d="M417.84,412.83c-26.73-21.12-45.46,27.8-35.45,47.68c2.18,4.32,6.19,8.08,6.18,12.92
				c-0.02,6.74-7.48,11.6-12.04,15.26c-16.43,13.17-25.81,33.54-29.74,54.22c-4.36,22.97-6.44,53.44,0.77,76.05
				c3.07,9.64,9.48,18.64,18.94,22.78c10.49,4.59,22.6,1.92,33.67,2.05c19.9,0.23,55.98,3.77,59.05-23.68
				c1.81-16.21,3.63-32.52,2.61-48.79c-1.14-18.21-4.98-37.76-13.53-54.03c-5.12-9.74-12.86-15.56-20.55-22.93
				c-6.42-6.15-17.03-15.29-10.84-25.12c7.92-12.57,11.2-28,9.06-42.7C425.15,420.88,422.05,416.16,417.84,412.83z"/>
			<path class="st83" d="M381.75,443.18c0,0-3.55,6.28-2.21,8.35c0,0-1.64,1.42-0.33,2.96c0,0-2.22,0.8-0.19,3.47
				c0,0-2.31,1.95-0.09,3.68c0,0-2.03,1.46-0.25,3.64c0,0-2.21,1.55-0.01,3.25c0,0-2.1,1.65-0.07,4.05c0,0-1.94,1.79,0.06,3.51
				c0,0-1.63,2.49,0.55,3.71c0,0-2.13,1.46-0.19,4.03c0,0-0.54,1.76,0.7,1.95c0,0,1.51,0.98,0.98-2.01c0,0,1.71-1.38,0.53-4.07
				c0,0,1.75-2.17-0.04-3.96c0,0,1.42-1.61-0.19-3.61c0,0,2.03-0.98,0.17-3.66c0,0,1.24-2.23-0.47-3.17c0,0,1.27-1.71,0.14-3.28
				c0,0,1.34-1.78,0.08-3.45c0,0,1.95-1.73,0.31-3.74c0,0,1.82-2.15,0.43-3.32c0,0,1.69-1.54,0-3.16c0,0,1.9-1.43,0.62-3.3
				C382.29,445.07,383.21,442.64,381.75,443.18z"/>
			<path class="st84" d="M408.92,403.62c0,0,3.21-1.66,5.2,0.61c0,0,3.43-0.62,3.59,1.7c0,0.05,0.01,0.1,0.01,0.15
				c0,0,4.9,2.13,2.76,4.91c0,0,2.47,1.45,0.75,2.97c0,0,3.29,0.85,1.85,2.83c0,0,2.45,0.55,1.87,1.78c0,0,2.64,1.06,1.33,3.13
				c0,0,2.51,1.23,1.15,2.36c0,0,2.62,1.36,0.84,2.62c0,0,3.18,1.35,0.92,2.82c0,0,3.05,2.39,0.22,3.66c0,0,3.71,1.76,1.1,3.48
				c0,0,3.63,2.14,0.73,3.99c0,0,3.64,2.13,0.59,3.76c-0.03,0.02-0.06,0.03-0.09,0.05c0,0,1.95,2.14,0.45,3.4
				c0,0,2.48,1.75,0.46,3.28c0,0,2.49,2.63-0.26,3.87c0,0,1.6,1.7-0.49,2.87c0,0,1.77,1.96-0.18,2.99c0,0,1.46,0.94,0.05,2.97
				c0,0,1.55,2.08-0.57,3.53c0,0,1.35,2.16-0.36,3.33c0,0,1.26,1.89-0.58,3.11c0,0,1.25,2.06-0.66,3.15c0,0,1.77,2.45-0.16,3.73
				c0,0,2.04,1.32,0.48,3.63c0,0,2.26,1.7,0.17,3.49c0,0,0.7,2.79-1.54,2.97c0,0-2.03-0.34-1.13-3.08c0,0-2.41-1.43-0.36-3.34
				c0,0-2.09-1.72-0.19-3.87c0,0-1.9-1.66-0.06-3.67c0,0-1.67-1.73,0.55-3.52c0,0-1.19-1.82,0.78-2.9c0,0-1.62-2.76,1.08-3.42
				c0,0-2.54-2.02-0.39-3.7c0,0-1.5-2.34,0.38-3.44c0,0-1.78-1.21-0.06-3.26c0,0-2.14-1.99,0.09-3.24c0,0-1.92-1.43-0.5-3.16
				c0,0-1.78-1.32,0.02-3.58c0,0-2.34-2.05,0.61-3.46c0,0-2.88-1.66-0.5-2.95c0,0-3.34-1.96-0.85-3.45c0,0-4.2-2.12-1.09-4.02
				c0,0-3.49-1.9-0.58-4.2c0,0-3.66-1.14-1.25-3.53c0,0-3.39-1.78-1.91-3.8c0,0-3.21-0.94-1.73-2.94c0,0-2.75-0.34-2.29-2.4
				c0,0-3.84-2.02-2.13-4.25c0,0-2.23-0.34-1.69-3.27c0,0-2.39,0.12-2.11-1.97c0,0-6.36-0.03-4.26-2.9"/>
			<path class="st83" d="M390.25,414.05c0,0-4.06,0.28-3.46,2.63c0,0-3.48,1.48-1.79,3.27c0,0-3.42,1.15-1.77,3.2
				c0,0-3.77,1.7-1.43,3.21c0,0-3.47,1.99-0.8,3.54c0,0-3.36,2.88-0.3,4.53c0,0-3.36,1.37-1.18,3.46c0,0-3.46,2.16-1.26,3.69
				c0,0-2.94,2.02-1.52,3.47c0,0-3.24,2.09-1.46,3.78c0,0-3.03,3.23-1.19,4.36c0,0-3.28,2.66-1.24,3.82c0,0-2.39,2.03-0.38,3.3
				c0,0-2.96,1.91-0.86,3.42c0,0-2.32,1.12-0.59,3.12c0,0-2.62,1.95-1.41,3.16c0.04,0.04,0.09,0.08,0.14,0.12c0,0,0,0.02-0.01,0.04
				c-0.34,1.73,1.96,2.66,2.95,1.2c0.46-0.67,0.81-1.28,0.69-1.41c0,0,0.22-1.72-0.22-2.63c0,0,2.32-1.62,1.19-3.73
				c0,0,2.55-1.16,1.2-3.65c0,0,2.08-1.32,0.67-3.86c0,0,2.17-1.51,1.31-3.99c0,0,2.74-1.39,1.7-3.56c0,0,2.11-1.59,1.23-3.23
				c0,0,2.06-1.49,1.02-3.1c0,0,2.43-1.84,1.13-3.79c0,0,3.24-1.24,1.55-3.53c0,0,3.07-2.2,1.01-4.58c0,0,1.41-1.56,0.27-3.52
				c0,0,2.44-2.29,0.85-4.33c0,0,2.45-0.24,1.62-1.8c0,0,2.08-1.09,1.4-2.26c0,0,2.51-0.53,2.29-2.24
				C391.58,416.13,392.99,414.97,390.25,414.05z"/>
			<path class="st83" d="M410.32,405.67c0,0-5.35-2.28-7.04-0.62c0,0-4.56-1.3-5.9,1.36c0,0-2.74-1.76-5.15,0.59
				c0,0-4.59,0.33-4.49,2.42c0,0-4.48-0.58-4.55,3.32c0,0-4.85-0.09-5.2,3.16c0,0-4.91,1.33-2.9,4.38c0,0-5.34,1.15-3.4,4.57
				c0,0-5.49,1.81-2.94,5.03c0,0-4.91,1.14-2.77,4.76c0,0-2.55,1.95-1.24,3.54c0,0-3.05,1.53-0.98,3.15c0,0-2.93,1.53-1.5,3.08
				c0,0-2.7,1.48-0.91,2.92c0,0-3.44,0.64-2.04,3.35c0,0-2.12,1-0.25,2.39c0,0-2.24,0.86-1.1,2.3c0,0-2.85,1.06-0.98,2.63
				c0,0-3.18-0.05-2.02,2.16c0,0-2.17,1.44-0.55,2.57c0,0-2.04,1.29-0.64,2.06s0.15,0.04,0.15,0.04s-1.68,1.49-0.23,1.96
				c0,0-2.25,1.24-1.29,2.56c0,0-1.9,1.6-1.63,3.32c0,0,0.12,1.68,2.53,1.16c0,0,1.91-1.29,0.95-2.97c0,0,1.83-0.57,1.91-3.4
				c0,0,2.11-1.66,0.46-2.53c0,0,2.52-0.87,0.94-2.14c0,0,1.42-0.78,0.11-1.9c0,0,2.77-1.02,1.75-2.15c0,0,2.66-1.14,1.38-2.15
				c0,0,2.31-1.33,0.73-2.65c0,0,2.47-0.78,1.33-2.76c0,0,2.67-1.54,1.38-3.1c0,0,2.87-0.52,1.26-2.73c0,0,2.85-1.05,2.21-3.07
				c0,0,2.94-1.35,2.03-3.16c0,0,3.19-1.58,2.14-3.17c0,0,4.47-1.8,2.62-5.12c0,0,3.8-3.19,2.85-5.24c0,0,4.87-2.62,3.7-4.5
				c0,0,4.14-1.17,3.53-3.61c0,0,3.09-1,3.31-2.65c0,0,3.61-0.56,4.31-2.49c0,0,3.9-0.3,4.87-1.73c0,0,4.29,0.66,4.89-1.28
				c0,0,3.3,1.2,4.72-0.55C406.71,408.82,412.1,409.61,410.32,405.67z"/>
			<path class="st84" d="M412.87,403.47c0,0,4.03-1.8,5.55,1.24c0.81,1.62-0.06,0.19-0.06,0.19s3.55-1.32,4.1,1.46
				c0,0,2.81,0.24,2.36,2.52c0,0,2.03,0.71,1.19,2.46c0,0,2.89,0.88,2,1.97c0,0,2.82,1.92,1.62,3.67c0,0,2.42,1.83,0.95,2.9
				c0,0,1.9,1.3,0.71,3.31c0,0,3.17,2.47,1.96,4.16c0,0,1.88,2.38,0.35,3.8c0,0,1.25,1.47,0.33,2.86c0,0,1.74,1.01,0.63,3.08
				c0,0,1.42,1.2,0.58,2.56c0,0,1.6,2.01,0.34,3.02c0,0,2.56,2.33,1.2,3.83c0,0,1.52,2.66,0.9,3.56c0,0,1.1,2.11-0.02,3.1
				c0,0,1.77,2.41,0.34,3.38c0,0,3.29,1.77,0.96,3.62c0,0,1.59,2.94-0.73,3.61c0,0,1.74,2.46,0.42,3.86c0,0,1.79,3.45-0.07,4.68
				c0,0,1.71,5.34-0.41,5.95c0,0,0.31,3.53-1.38,4.65c0,0,1.78,2.46-1.13,4.08c0,0-0.06,3.45-2.01,3.32c0,0-3.72,0.82-3.24-1.86
				c0,0-0.61-1.79,0.99-3.24c0,0-2.03-2.52,0.5-4.38c0,0-2.8-3.42,0.62-5.75c0,0-2.79-2.36-0.11-5.76c0,0-1.9-3.06,0.84-4.61
				c0,0-2.39-2.16,0.08-4.53c0,0-2.48-2.78,0.84-5.03c0,0-2.31-1.84,0.08-4.49c0,0-3.76-2.43-0.94-5.49c0,0-5-0.88-1.83-5.33
				c0,0-4.13-3.2-1.17-6.36c0,0-3.19-2.31-0.39-3.85c0,0-2.78-2.56-0.46-4.34c0,0-2.33-0.78-1.09-2.15c0,0-2.29-0.72-0.65-2.88
				c0,0-3.3-0.84-1.45-3.89c0,0-2.29-0.48-2.15-2.66c0,0-2.31-0.61-2.12-3c0.01-0.09,0.02-0.18,0.03-0.27c0,0-3.21-0.33-3.12-1.81
				c0,0-3.28,0.3-3.19-2.01c0,0-3.36,0.01-3.34-1.29C412.27,405.32,410.96,404.08,412.87,403.47z"/>
			<path class="st85" d="M396.84,453.36c1.85,1.06,4.4,1.37,6.68,0.81"/>
			<path class="st83" d="M410.86,408.34c0,0,1.2,1.85,5.56,2.84c0,0,0.35,2.44,2.75,3.14c0,0-0.12,3.97,3.33,5.3
				c0,0-1.42,3.48,1.33,5.27c0,0-1.48,2.76,2.33,5.03c0,0-1.72,2.17,0.5,3.84c0,0-0.55,2.63,1.24,3.19c0,0-1.6,2.66-0.35,3.57
				c0,0-1.25,2.65,0.15,4.07c0,0-0.99,1.45,0.51,2.34c0,0-1.49,1.64,0.07,2.89c0,0-1.4,1.73,0.24,2.97c0,0-1.86,1.61-0.03,2.96
				c0,0-2.42,1.01-0.85,3.45c0,0-2.28,0.6-1.04,3.13c0,0-2.48,0.98-1.36,2.83c0,0-1.79,0.52-0.93,2.97c0,0-1.53,0.7-0.75,2.27
				c0,0-1.92,1.46-0.59,2.85c0,0-1.78,0.29-0.74,2.23c0,0-1.73,0.73-1.11,2.14c0,0-1.51,1.21-0.73,2.48c0,0-1.39,0.88-0.68,2.21
				c0,0-1.69,0.78-0.43,2.04c0,0-1.06,1.06-0.23,1.89c0,0-0.85,1.47,0.53,2.13c0,0-0.17,1.16,1.1,1.49c0,0,0.44,0.25,1.28-0.23
				c0,0,0.63-1-0.03-1.89c0,0,0.12-0.64-0.63-1.63c0,0,0.9-0.97,0-1.75c0,0,1.23-0.62,0.42-1.82c0,0,1.89-0.94,0.86-2.38
				c0,0,1.57-0.52,0.57-2.17c0,0,2.01-0.31,1.16-2.24c0,0,1.44-0.73,0.5-2.46c0,0,1.27-0.89,0.5-2.4c0,0,1.75-0.9,0.66-2.31
				c0,0,1.78-0.54,0.85-2.64c0,0,2.41-0.64,1.46-2.83c0,0,1.59,1.05,0.91,0.23c0,0,1.63-1.38,0.6-2.47c0,0,2.4-0.97,1-3.06
				c0,0,1.82-1.38-0.16-2.72c0,0,1.95-0.6,1.17-2.32c0,0,0.85-1.67-0.4-2.93c0,0,1.91-2.2-0.19-2.93c0,0,1.73-1.26,0.53-2.48
				c0,0,1.12-1.8-0.35-3.03c0,0,1.67-1.2-0.7-1.85c0,0,1.55-1.38,0.43-2.29c0,0,1.32-2.3-0.01-2.6c0,0,0.67-2.1-0.43-2.5
				c0,0,1.55-1.58-0.18-2.72c0,0,1.04-1.62-1.55-2.6c0,0,1.66-2.95-1.01-3.57c0,0,0.85-3.1-1.1-3.55c0,0,0.56-1.96-1.9-2.45
				c0,0,0.68-1.74-0.66-2.05c0,0-0.11-1.89-1.55-2.26c0,0-0.07-1.22-1.39-1.6c0,0-0.43-1.77-2.92-1.87c0,0-0.91-1.95-2.9-1.75
				c0,0-6.23-2.55-4.96,0.69"/>
			<path class="st83" d="M407.66,413.96c0,0,1.77,1.13,5.3,1.21c0,0-0.17,2.92,3.15,3.95c0,0-1.09,4.13,0.64,4.61
				c0,0-0.69,2.01,0.96,2.51c0,0-1.09,2.89,0.64,3.87c0,0-1.63,2.57,0.29,3.63c0,0-1.4,1.79,0.48,2.55c0,0-1.12,1.22,0.29,1.81
				c0,0-1.04,1.42,0.36,2.1c0,0-0.8,0.74,0.45,1.7c0,0-1.25,1.62-0.09,2.53c0,0-1.16,0.82-0.28,2.11c0,0-1.85,0.72-0.25,2.52
				c0,0-1.98,0.57-1.04,3.16c0,0-1.35,0.65-0.16,2.33c0,0-2.82,0.74-1.74,4.25c0,0-2.02,0.68-0.81,3.43c0,0-2,1.12-0.33,2.99
				c0,0-1.87,1.43-0.32,3.07c0,0-1.57,0.5-0.26,2.04c0,0-1.82,0.42-0.74,2.23c0,0-1.61,1.08-0.09,2.62c0,0-1.2,0.54-0.67,1.95
				c0,0-1.61,1.48-0.06,2.7c0,0-1.54,0.69-0.31,2.32c0,0-1.63,0.2-0.71,2.13c0,0-1.25,0.94,0.07,1.96c0,0-0.99,0.74,0.15,1.39
				c0,0-0.93,1.09-0.15,1.58c0,0,0.39,0.32,1.73-0.18c0,0,0.21-0.39-0.03-1.65c0,0,1.29-0.76,0.68-1.25c0,0,0.59-1.5-0.52-2.32
				c0,0,0.94,0.12,0.35-1.44c0,0,1.33-0.94,0.43-2.08c0,0,1.62-1.11,0.63-2.77c0,0,1.39-1.2,0.31-2.39c0,0,1.54-1.14,0.06-2.52
				c0,0,1.67-0.51,0.96-2.07c0,0,1.37-1.24,0.24-2.53c0,0,1.23-1.07,0.25-2.33c0,0,2.51-1.17,0.99-3.26c0,0,1.78-1.09,0.47-2.81
				c0,0,2.52-1.1,1.41-4.31c0,0,2.23-0.8,1.17-3.16c0,0,1.7-0.75,0.38-2.73c0,0,1.38-1.47,0.37-2.79c0,0,1.63-0.87,0.38-1.94
				c0,0,0.76-1.3-0.29-2.31c0,0,1.61-1.18,0.07-2.39c0,0,0.34-1.82-0.66-2.23c0,0,0.33-0.91-0.57-1.76c0,0,1.12-1.09-0.13-2.42
				c0,0,1.49-1.79-0.63-3.55c0,0,2.33-2.77-0.06-4.21c0,0,1.57-1.79-0.62-2.37c0,0,2.49-2.69,0.05-3.6c0,0,1.1-2.53-1.19-3.35
				c0,0,0.78-2.52-2.53-2.93c0,0-2.18-1.3-4.38-1.03c0,0-2.63-1.11-3.05-0.01c0,0-1.9,0.32-1.09,1.61"/>
			<path class="st83" d="M414.56,408.05c0,0-3.58-1.9-6.51-0.07c0,0-2.4-0.98-3.68,0.62c0,0-2.37-1.45-3.64-0.25
				c0,0-3.93-1.11-4.24,0.96c0,0-2.99-0.96-3.47,0.43c0,0-2.96-0.29-2.96,1.88c0,0-3.24-1.16-3.89,0.91c0,0-1.96,1.22-1.7,2.82
				c0,0-3.43-0.09-3.33,1.78c0,0-1.52,0.79-0.27,2.32c0,0-2.56,0.97-1.94,3.34c0,0-3.24,1.01-2.79,2.71c0,0-2.27,0.3-1.82,1.73
				c0.45,1.43,0.28,0.07,0.28,0.07s-3.28,1.37-2.6,4.24c0,0-1.89-0.46-2.46,2.1c0,0-2.36,0.59-2.22,2.8c0,0-2.23-0.33-2.6,2.07
				c0,0-2.4,0.02-1.7,2.82c0,0-2.57-0.2-1.82,2.47c0,0-2.26,0.42-1.33,2.64c0,0-2.38,0.79-1.58,3.22c0,0-2.06,1.41-0.92,3.06
				c0,0-1.7,0.58-0.99,2.46c0,0-2.25-0.26-1.71,2.13c0,0-2.16,1.09-0.76,2.74c0,0-2.11,0.49-1.24,2.43c0,0-1.9,0.28-1.03,2.19
				c0,0-1.99,0.6-1.09,2.39c0,0-1.85,0.4-0.94,1.89c0,0-1.46,0.13-0.9,1.84c0,0-1.44,1.11-0.56,2.4c0,0-0.05,0.29,0.78,0.46
				c0.42,0.09,0.84-0.21,1.06-0.58c0.3-0.49,0.58-0.88,0.47-1.86c0,0,0.86-0.47,0.66-1.79c0,0,1.67-0.55,1.13-1.95
				c0,0,1.47-0.61,1.12-2.34c0,0,1.95-0.16,1.15-2.03c0,0,2.14-0.68,1.07-2.61c0,0,2.05-0.55,1.04-2.42c0,0,2.12,0.31,1.73-1.57
				c0,0,1.73-0.63,1.09-2.72c0,0,1.55-0.11,1.2-1.7c0,0,1.98-1,1.04-2.55c0,0,1.68-0.42,0.35-2.03c0,0,2.24-0.1,1.51-2.39
				c0,0,1.76-0.16,1.04-2.21c0,0,2.62,0.12,1.92-2.13c0,0,1.4-0.36,1.35-2.38c0,0,2.2-0.31,2.29-2.04c0,0,2.25,0.02,2.12-2.24
				c0,0,2.79-0.28,2.36-2.28c0,0,3.21-1.13,2.74-3.73c0,0,2.72-0.29,2.21-2.27c0,0,2.51-0.82,1.82-2.47c0,0,3.19-0.6,2.67-2.32
				c0,0,2.83-0.64,1.94-2.12c0,0,1.45-0.07,1.48-2.34c0,0,3.16,0.24,3.38-1.93c0,0,2.29,0.13,2.75-1.35c0,0,3.21,0.78,3.45-0.7
				c0,0,1.68,0.62,3.49-0.85c0,0,2.85,1.22,3.7-0.06c0,0,2.78,0.72,3.6-0.48c0,0,4.31,1.13,4.86-0.17
				C412.69,411.01,415.11,411.44,414.56,408.05z"/>
			<path class="st84" d="M394.24,407.84c0,0-4.2-0.2-4.11,1.19c0,0-2.68-0.1-3.07,1.75c0,0-2.3,0.32-1.95,2.01
				c0,0-2.36-0.07-2.5,2.04c0,0-1.82,0.52-1.28,2.13c0,0-2.43,1.76-1.77,3.28c0,0-2.71,0.11-2.32,2.85c0,0-2.56,0.98-1.26,3.43
				c0,0-2.87,1.5-1.77,3.05c0,0-2.88-0.03-2,2.93c0,0-2.71-0.1-1.67,3.06c0,0-2.27,0.11-1.51,2.55c0,0-1.76,0.37-1.07,2.59
				c0,0-2.09,0.5-1.23,2.7c-0.01,0.09-2.82,0.19-1.98,2.58c0,0-1.98,0.41-1.16,2.33c0,0-1.79,0.97-0.88,2.3c0,0-1.83,0.61-0.99,1.82
				c0,0-1.62,0.44-1.03,2.05c0,0-1.65,0.62-1.34,2.12c0,0-1.42,0.39-0.93,2.18c0,0-1.57,0.79-0.38,2.16c0,0-1.63,1.27-0.89,2.46
				c0,0-1.39,0.41-0.55,2.05c0,0-1.62,1.47-0.56,2.28c0,0-1.31,1.11-0.32,2.32c0,0-0.94,1.74-0.02,2.79c0,0,0.91,0.97,2.11,0.06
				c0,0,1.07-0.91,0.5-2.19c0,0,1.1-1.13,0.25-2.48c0,0,1.03-1.06,0.03-2.13c0,0,0.68-1.27,0.36-2.08c0,0,1.44-1.11,0.71-2.3
				c0,0,1.37-0.55,0.64-2c0,0,1.6-1.16,1.01-2.32c0,0,1.42-0.58,1.23-1.72c0,0,1.64-1.35,0.9-2.27c0,0,1.38-0.85,1.01-1.87
				c0,0,1.71-1.22,0.8-2.47c0,0,1.6-0.93,1.15-2.26c0,0,2.07-1.01,1.8-2.51c0,0,1.85-1.16,1.22-2.56c0,0,1.67-1.47,1.26-2.33
				c0,0,2.32-0.36,1.88-2.19c0,0,1.82-1.02,1.64-2.68c0,0,2.92-0.61,2.32-2.39c0,0,2.4-1.61,1.67-3.02c0,0,2.43-0.27,1.74-2.17
				c0,0,2.63-1.69,1.41-3.52c0,0,2.08-1.05,1.62-2.99c0,0,2-0.5,1.61-2.33c0,0,2.59-0.91,1.97-2.57c0,0,2.09-1.25,1.54-2.82
				c0,0,2.27,0.82,2.33-0.39c0,0,2.47,0,2.15-1.46c0,0,2.69-0.64,2.26-1.44C394.8,409.43,395.51,408.75,394.24,407.84z"/>
			<path class="st83" d="M410.56,406.77c1.32-0.61,1.1-2.61-0.31-2.99c-1.04-0.28-2.46-0.38-3.85,0.4c-0.06,0.03-0.12,0.07-0.17,0.1
				c0,0-3.32-2.05-5.48,1.28c0,0-2.33-2-3.96,0.88c0,0-3.13-1.99-4.3,1.29c0,0-3.03-0.73-3.23,2.21c0,0-4.19-1.87-4.33,2.63
				c0,0-4.21-1-4.29,3.25c0,0-2.95-1.32-3.44,2.59c0,0-4.25-0.05-2.93,4.15c0,0-4.39-0.8-3.95,3.52c0,0-4.25-0.02-2.97,4.32
				c0,0-4.58-1.13-3.92,4.12c0,0-4.04-0.03-3.16,3.61c0,0-3.09-0.85-2.59,3.26c0,0-3.4-0.09-2.38,3.66c0,0-3.67-0.63-2.97,3.93
				c0,0-4.11-0.99-3.77,4.15c0,0-1.89-1.13-2.88,0c-1.04,1.19,0.34,2.93-0.52,2.93c-1.7,0-3.23,1.29-2.45,3.3
				c0,0-2.78-0.61-2.55,2.36c0,0-3.07,0.28-3.07,2.08c0,0,0.38,2.44,2.66,1.72c0,0,2.24-0.91,2.26-2.66c0,0,2.6-0.03,2.58-1.65
				c0,0,3.26-0.19,2.64-3.16c0,0,3.53,0.57,2.8-2.31c0,0,2.67,0.33,1.97-2.45c0,0,2.94-0.54,2.27-3.45c0,0,3.13-0.03,3.87-3.13
				c0,0,2.65-1.87,2.8-3.64c0,0,2.6-0.95,2.39-3.24c0,0,3.11-1.48,2.79-3.61c0,0,4.04-1.72,3.7-3.93c0,0,3.32-0.95,2.51-4.53
				c0,0,4.4,0.67,3.87-3.54c0,0,4.34-0.52,3.21-3.54c0,0,4.06-0.24,3.11-3.49c0,0,3.77,1.09,4.24-2.34c0,0,4.09-0.26,3.73-3.18
				c0,0,3.1,1.58,3.59-1.12c0,0,3.47,0.79,3.56-1.34c0,0,3.47,1.08,4.01-1.23c0,0,3.43,1.71,4.55-0.98c0,0,2.19,0.68,4.2-0.18
				C410.41,406.83,410.47,406.82,410.56,406.77z"/>
			<path class="st86" d="M373.32,535.64c0,0-8.69,56.19,0.58,106.14"/>
			<path class="st86" d="M432.37,524.48c0,0,8.24,72.97,2.48,117.3"/>
			<path class="st83" d="M378.38,523.26c0,0-8.4,11.35-9.09,22c-0.47,7.26,5.87,12.37,13.15,12.2c9.29-0.22,16.98-4.19,16.97-14.35"
				/>
			<path class="st83" d="M432.37,524.48c2.92,7.75,14.33,28.36-2.1,33.03c-0.78,0.22-4.39-0.04-5.2-0.1
				c-4.46-0.33-15.92-3.39-18.66-15.68"/>
			<path class="st87" d="M432.43,548.39c-0.43,1.35-1,5.23,2.97,6.55c0,0,3.01-1.51,3.39-5.66c0.13-1.41-0.67-2.72-1.84-3.07
				c-0.4-0.12-0.86-0.24-1.38-0.36C434.23,545.55,432.9,546.9,432.43,548.39z"/>
			<path class="st87" d="M436.88,552.51c0,0-0.03-2.71,1.27-2.49c1.59,0.28,2.98,1.28,2.45,2.81
				C440.14,554.17,437.07,553.3,436.88,552.51z"/>
			<path class="st83" d="M416.21,405.82c0,0,3.06-0.82,3.37,1.67c0,0,2.68,0.25,3.04,2.26c0,0,3.37-0.66,3.14,1.63
				c0,0,3.71,0.64,3.04,3.54c0,0,3.03,1.27,1.56,3.7c0,0,2.57,0.42,1.84,2.94c0,0,2.36,0.71,1.89,2.56c0,0,1.85,0.63,1.11,2.29
				c0,0,1.72,0.71,1.01,2.21c0,0,2.59,1.96,0.61,4.23c0,0,3.1,1.62,1.05,3.84c0,0,1.5,0.26,1.95,1.68c0.53,1.67-1.13,2.41-1.13,2.41
				c0.37,0.47,1.88,2.82,0.28,3.87c0,0,2.14,1.11,0.66,3.38c0,0,2.38,2.07,0.07,3.61c0,0,2.13,2.04,0.2,3.17c0,0,2.69,3.07,0.1,4.37
				c0,0,1.48,1.64-0.48,2.87c0,0,1.65,1.9-0.2,2.98c0,0,2.57,1.42,0.02,2.95c0,0,1.95,2.26,0.07,3.53c0,0,1.47,3.18-0.45,3.75
				c0,0,1.62,2.41-0.11,3.67c0,0,1.18,1.95-0.34,2.69c0,0,1.3,2.13-0.76,3.03c0,0,2.4,2.67,0.11,3.93c0,0,2.13,3.28-0.27,3.3
				c0,0,1.99,2.76-0.12,3c0,0-3.59,0.96-3-3.09c0,0-2.15-1.65-0.22-3.62c0,0-1.63-1.33,0.36-3.48c0,0-1.99-2.01-0.03-3.65
				c0,0-1.55-1.67,0.55-3.52c0,0-1.1-1.78,0.76-2.9c0,0-1.52-2.91,1.04-3.43c0,0-2.36-1.94-0.34-3.67c0,0-1.38-2.28,0.38-3.43
				c0,0-1.66-1.15-0.03-3.24c0,0-1.99-1.92,0.11-3.23c0,0-1.57-0.98-0.22-2.74c0,0-2.01-2.19,0-3.35c0,0-2.41-2.55,0.01-3.81
				c0,0-2.22-1.54-0.04-3.17c0,0-2.68-1.21-0.77-3.41c0,0-3.02-1.48-0.99-3.96c0,0-3.09-2.16-0.52-4.16c0,0-3-1.35-1.15-3.48
				c0,0-3.03-0.78-1.76-3.73c0,0-2.71-0.33-1.6-2.87c0,0-2.58-0.26-2.13-2.33c0,0-3.49-0.79-1.97-4.17c0,0-4.01,0.31-3.99-2.57
				c0-0.49-0.64-0.64-1.24-0.75c-1.06-0.19-1.96-0.91-2.43-1.88l-0.34-1.35c-3.24,0.98-3.35-1.84-3.35-1.84
				c-2.53,1.14-4.47-1.4-4.24-2.37C410.93,403.06,414.51,403.58,416.21,405.82z"/>
			<path class="st83" d="M411.75,411.17c0,0-2.15-2.57-4.68-1.08c0,0-2.72-1.67-3.69,0.46c-0.02,0.04-0.04,0.09-0.06,0.14
				c0,0-3.96,0.28-3.63,4.25c0,0-2.55-0.66-2.21,2.04c0,0-2.49-0.84-2.6,2.07c0,0-2.51-0.24-2.6,2.07c0,0-2.28-0.83-1.91,1.52
				c0,0-2.39-0.72-1.83,1.85c0,0-2.73,0.45-1.66,2.19c0,0-3.21,0.26-1.8,2.35c0,0-3.47,1.27-1.5,3.36c0,0-2.87,0-2.19,2.92
				c0,0-2.77,0.17-2.06,3.51c0.01,0.05-3.85,1.07-1.85,3.34c0.02,0.02,0.04,0.05,0.06,0.07c0,0-2.77,0.49-1.21,2.65
				c0,0-2.16,0.39-1.7,2.69c0,0-2.26,1.23-1.04,3.49c0,0-2.03,1.04-1.02,3.71c0,0-1.81,0.5-0.92,2.86c0,0-1.72,0.79-1.11,2.77
				c0,0-2.58,0.68-0.96,3.25c0,0-2.19,0.96-0.94,3.49c0,0-1.86,1.63-0.75,3.26c0,0-1.65,1.01-0.92,3.21c0,0-2.24,0.54-1.07,2.97
				c0,0-2.32,0.74-1.36,2.98c0,0-2.2,1.49-0.99,3.16c0,0-1.49,2.19-0.38,2.88c0,0,2.64,0.97,2.58-1.57c0,0,2.38-0.95,1.32-3.4
				c0,0,2.75-0.41,1.7-3.05c0,0,1.84-1.53,0.63-3.68c0,0,2.79-0.84,1.53-3.22c0,0,1.67-1.33,0.37-2.97c0,0,2.25-1.71,0.3-3.55
				c0,0,2.43-0.74,1.19-3c0,0,2.39-1.49,1.18-3.11c0,0,2.41-0.94,1.42-3.62c0,0,2.54-1.19,1.09-3.07c0,0,2.16-0.73,1.56-2.8
				c0,0,1.99-0.67,1.27-3.36c0,0,1.92-0.45,0.78-2.74c0,0,1.99-0.87,1.47-2.67c0,0,2.5-1.4,1.92-3.61c0,0,4.35-0.66,2.37-3.42
				c0,0,3.45-0.03,1.79-3.11c0,0,4.6-1.39,3.4-4.39c0,0,2.6-0.17,2.36-2.64c0,0,3.09,0.17,2.54-2.17c0,0,2.9,0.07,2.97-2.17
				c0,0,3.26,0.45,3-2.21c0,0,2.85,0.04,2.62-2.53c0,0,2,0.87,2.51-1.18c0,0,5.45,1.99,4.69-1.37"/>
			<path class="st83" d="M407.88,411.49c1.93-0.4,2.26-3.06,0.48-3.91c-1.27-0.6-2.97-1.02-3.9,0.42c0,0-3.86-1.52-4.99,1.59
				c0,0-2.42-1.06-3.37,1.61c0,0-3.46-0.69-4.12,2.23c0,0-4.4-0.88-4.66,2.98c0,0-3.12,0.5-3.58,3.72c0,0-4.5-0.09-3.56,4.06
				c0,0-4.46,0.25-3.07,4.65c0,0-3.94,2.33-1.98,5.4c0,0-4.31,0.98-2.72,4.48c0,0-2.8,1.69-1.35,3.59c0,0-2.64,0.35-1.41,3.14
				c0,0-2.58,0.61-1.41,3.1c0,0-2.45,0.84-0.91,2.92c0,0-3.03,0.36-1.58,3.1c0,0-2.14,0.63-1.05,2.66c0,0-1.51,0.79-0.6,2.31
				c0,0-2.06,0.73-0.96,2.64c0,0-2.64,0.08-1.8,2.22c0,0-1.88,1.51-0.59,2.56c0,0-1.34,0.36-0.64,2.06l0.13,0.03
				c0,0-1.48,1.54-0.29,1.95c0,0-1.94,1.32-1.21,2.58c0,0-1.74,1.68-0.91,2.34c0,0-0.22,0.68,1.68,0.68c0,0,1.92-1.99,1.35-3.05
				c0,0,1.9-0.24,1.11-1.98c0,0,1.53-0.8,0.51-2.52c0,0,2.14-0.96,0.89-2.15c0,0,1.23-0.83,0.19-1.88c0,0,2.42-0.38,1.57-2.2
				c0,0,1.82-0.54,0.92-2.58c0,0,2.2-0.44,1.09-2.24c0,0,2.36-0.81,1.25-2.78c0,0,2.36-0.69,1.31-3.12c0,0,2.42-0.63,1.19-2.75
				c0,0,2.42-1.15,2-3.12c0,0,2.6-0.77,1.17-3.67c0,0,2.11-0.85,1.86-3.15c0,0,2.64-0.79,1.74-4.17c0,0,3.57-1.32,2.86-5.77
				c0,0,4.25-1.06,3.21-4.12c0,0,3.56-1.14,3.18-3.52c0,0,3.8-0.79,3.52-3.24c0,0,3.47,0.48,3.74-2.83c0,0,3.96,1.1,4.83-1.99
				c0,0,3.54,0.48,4.14-1.46c0,0,2.68,1.05,3.96-0.73C407.12,411.58,407.45,411.58,407.88,411.49z"/>
			<path class="st83" d="M409.12,410.62c0.28-0.52,0.87-0.63,1.46-0.67c2.35-0.18,4.06-0.13,4.06,2.38c0,0,3.54-0.1,2.95,2.77
				c0,0,3.66-0.61,3.47,3.13c0,0,4.41,0.83,3.73,4.41c0,0,3.99,2.32,1.71,5.69c0,0,2.92,1.46,1.03,3.95c0,0,2.52,2.93-0.26,4.56
				c0,0,3.24,1.94-0.31,5.85c0,0,2.97,2.95-0.42,5.68c0,0,1.15,4.06-1.65,5.72c0,0,1.65,3.07-0.88,3.92c0,0,0.88,2.14-0.75,2.89
				c0,0,1.05,3.24-0.85,3.63c0,0,1.51,1.74-0.32,2.99c0,0,1.17,2.39-1.21,3.32c0,0,1.24,1.76-0.51,2.59c0,0,1.14,2.19-0.55,2.45
				c0,0,1.07,1.95-0.84,2.68c0,0,1.42,1.55-0.43,2.6c0,0,1.2,1.79-0.48,2.58c0,0,0.8,1.25-0.75,2.04c0,0,1.04,1.96-0.85,2.3
				c0,0,0.73,1.88-0.85,2.19c0,0,0.17,1.58-1.16,2.25c0,0-1.67-0.19-0.37-2.56c0,0-1.48-2.33,1.04-2.92c0,0-0.92-2.17,0.53-2.05
				c0,0-1.03-1.55,0.57-2.45c0,0-0.84-1.65,0.51-1.81c0,0-0.72-1.87,0.56-2.53c0,0-0.94-1.71,0.44-2.64c0,0-1.2-1.58,0.28-2.48
				c0,0-0.95-2.55,0.65-2.94c0,0-1.07-2.49,0.83-3.26c0,0-1.46-2.35,0.69-2.89c0,0-0.96-1.89,0.71-3.34c0,0-1.21-2.39,0.62-3.27
				c0,0-1.05-2.88,0.68-3.77c0,0-2.29-3.39,1.07-5.4c0,0-2.71-2.97,0.69-5.55c0,0-2.74-3.44,0.36-5.5c0,0-3.43-2.01-1.7-5.38
				c0,0-1.26-1.43,0.02-3.21c0.03,0-1.99-2.23-1.42-4.18c0,0-4.46-0.64-2.55-4.25c0,0-4.5,1.1-4.12-2.99c0,0-3.86,0.38-3.18-2.55
				C411.36,414.59,407.5,413.62,409.12,410.62z"/>
			<g>
				<path class="st88" d="M376.18,547.78c0.22,2.25,3.32,3.15,5.49,3.77c0.86,0.24,1.85-0.16,2.13-1.01
					c0.66-1.97-1.31-3.98-2.71-5.39C381.09,545.14,375.47,540.44,376.18,547.78z"/>
				<path class="st88" d="M377.68,550.24c-1.04-0.87-2.23-0.53-3.16,0.04c-0.93,0.57-1.34,2.01-0.59,2.81
					c1.11,1.2,3.05-0.01,4.18-1.2C378.5,551.23,378.15,550.67,377.68,550.24"/>
			</g>
		</g>
		<path class="st89" d="M401.52,439.54c-0.06,0.27-0.26,0.67-0.39,1.01c-0.11,0.27-0.58,0.97-0.45,1.14
			c0.56,0.73,1.09,0.19,1.24,0.05"/>
		<path class="st89" d="M391.6,431.24c0.54,0.87,1.55,1.43,2.58,1.42c1.02-0.01,2.02-0.59,2.54-1.47"/>
		<path class="st89" d="M408.28,431.13c1.27,1.63,3.79,2.14,5.59,1.12"/>
	</g>
	<g>
		<g>
			<path class="st90" d="M475.09,794.85c-10.07-0.39-20.62,2.11-30.7,2.7c-9.86,0.57-21.13,0.14-31.02-0.95
				c-8.96-0.99-18.33-4.53-23.1-12.18c-6.47-10.39-5.26-24.03-5.18-35.73c0.09-13.64,0.84-27.27,2.25-40.84
				c1.05-10.1,2.5-20.27,6.19-29.74c2.42-6.2,5.85-12.1,10.45-16.94c5.06-5.34,12.11-7.52,18.16-11.65
				c6.21-4.24,12.24-10.77,5.51-16.96c-2.54-2.34-3.43-5.94-4.06-9.34c-1.17-6.3-1.88-12.69-2.13-19.09
				c-0.27-7-0.61-16.97,3.37-23.03c4.15-6.31,11.43-10.66,18.95-11.3c9.58-0.81,19.41,4.38,24.14,12.75
				c3.16,5.59,4.08,12.16,4.33,18.57c0.31,8.03-0.35,16.06-1.37,24.03c-0.88,6.86-3.49,14.03-0.42,20.59
				c3.65,7.8,12.88,12.69,18.77,18.69c7.67,7.82,11.68,17.74,12.81,28.69c1.53,14.92,1.52,30.3,1.99,45.3
				c0.05,1.62,0.1,3.25,0.14,4.87c0.25,9.41,0.37,19-2.28,28.03C498.12,784.18,488.62,793.59,475.09,794.85z"/>
			<g>
				<path class="st91" d="M486.45,704.69c0,0,0.65,29.27-8.05,77.69"/>
				<path class="st91" d="M410.22,681.21c0.23,4.85-2.91,5.73-3.11,18.98c0,0-2.7,24.03,18.48,22.45c0,0,20.45-0.07,21.31-27.68"/>
				<path class="st91" d="M446.9,694.96c0,0-1.25,15.16,5.64,23.06c6.55,7.5,18.05,9.44,25.54,5.56
					c16.09-8.33,5.19-32.31,4.15-39.55"/>
				<path class="st91" d="M415.07,716.39c0,0-5.2-7.19,0.24-11.31c0,0,6.25-4.68,10.91,1.58c0,0,3.61,7.38-2.01,10.77
					C424.21,717.43,418.1,720.01,415.07,716.39z"/>
				<path class="st92" d="M418.83,712.67l-0.76-0.31c-0.73-0.3-1.55-0.04-1.99,0.61c-0.73,1.1-1.65,2.89-1.35,4.71
					c0.24,1.45,1.64,2.02,2.68,1.13c1.05-0.9,2.01-2.74,2.39-4.24C420.02,713.79,419.58,712.98,418.83,712.67z"/>
				<path class="st91" d="M409.94,715.83c-0.88,7-1.76,14-2.17,21.05c-1.06,18.13,1.02,36.29,3.1,54.34"/>
			</g>
			<path class="st93" d="M414.02,649.14c2.15,0.02,4.26-0.7,6.14-1.74c0.25,4.89,6.32,7.57,10.25,4.92
				c2.85-1.92,5.06-4.99,5.37-8.41c0.31-3.43-1.59-7.1-4.8-8.33c2.16-1.8,2.37-5.06,1.83-7.83c-0.95-4.85-3.9-7.16-6.19-11.11
				c-1.75-3.01-1.19-1.14,0.37-4.31c0.77-1.56,1.56-2.78,1.77-4.57c0.31-2.67-0.3-5.35-1.04-7.94c-0.21-0.73-0.43-1.49-0.34-2.25
				c0.13-1.05,0.82-1.93,1.39-2.83c0.89-1.39,1.52-2.92,1.87-4.52c0.32-1.44-0.4-2.98-0.09-4.38c0.42-1.92,0.76-1.45,2.63-1.38
				c3.14,0.11,6.25-0.86,8.51-3.07c-0.17,0.17,3.22,1.49,3.54,1.55c2.76,0.55,6.6-0.07,8.57-2.18c-0.09,1.78,1.17,3.44,2.78,4.27
				c1.8,0.94,4.9,0.1,5.94,2.15c0.56,1.11,0.3,3.27,0.49,4.52c0.25,1.62,0.58,3.22,1.01,4.81c0.2,0.76,0.43,1.53,0.88,2.18
				c1.1,1.59,2.16,0.92,1.27,3.07c-0.53,1.28-1.6,2.3-2.19,3.55c-0.88,1.88-1.18,4.3,0.19,5.88c0.35,0.4,0.83,0.92,0.55,1.37
				c-0.09,0.15-0.25,0.25-0.4,0.35c-1.59,1.06-2.45,2.99-2.48,4.88c-0.03,1.93,1.47,3.6,1.46,5.36c-0.02,1.79-1.9,3.1-1.94,5.09
				c-0.05,2.23,1.31,4.43,3.35,5.42c-2.86,1.9-4.86,4.99-5.42,8.33c-1.27,7.57,4.36,12.76,11.58,12.69c0.34,0,0.69-0.02,1.01-0.14
				c0.63-0.25,8.7-3,5.64-4.78c1.92,1.12,4.49,1.03,6.32-0.23c1.84-1.25,2.86-3.61,2.52-5.81c1.69,0.37,3.57-0.26,4.68-1.59
				c1.12-1.32,1.42-3.28,0.77-4.88c3.19-2.16,3.17-7.66-0.04-9.8c-0.42-0.28-0.89-0.53-1.1-0.99c-0.17-0.37-0.12-0.8-0.07-1.2
				c0.29-2.09,0.67-4.22,0.35-6.31c-0.44-2.89-2.36-3.28-3.72-5.31c-1.19-1.78-1.17-4.21-2.72-5.85c-0.13-0.13-0.27-0.27-0.3-0.44
				c-0.05-0.33,0.31-0.56,0.56-0.78c0.44-0.39,0.62-0.98,0.76-1.54c0.88-3.73,0.05-7.81-2.21-10.95c-1.35-1.87-3.46-3.48-4.31-5.66
				c-0.86-2.21,0.06-4.46-0.29-6.72c-0.54-3.56-2.44-8.47-6.53-9.29c-1.39-0.28-3.18-0.27-3.73-1.54c-0.16-0.36-0.17-0.76-0.23-1.15
				c-0.39-2.6-2.87-4.48-5.46-5.2c-3-0.83-7.17,0.45-9.24-1.98c-2.34-2.75-9.14-2.17-11.98-0.5c-2.51,1.47-5.75,0.04-8.69,0.49
				c-3.71,0.58-7.61,2.96-8,6.63c-0.04,0.43-0.04,0.87-0.23,1.26c-0.26,0.55-0.83,0.89-1.36,1.22c-2.36,1.49-4.33,3.56-5.66,5.98
				c-0.73,1.33-1.25,2.88-1.28,4.41c-0.02,1.58,0.87,2.68-0.29,3.89c-1.02,1.06-2.84,1.42-3.95,2.61c-1.16,1.24-2.01,2.78-2.62,4.34
				c-1.3,3.3-0.97,6.95-2.01,10.31c-1.08,3.48-4.77,4.81-6.11,8.16c-0.29,0.72-0.45,1.47-0.61,2.23c-0.15,0.7-0.3,1.39-0.45,2.09
				c-0.58,2.73-0.3,5.04,2.4,6.37c-1.89,2.74-3.75,4.68-3.83,8.44c-0.05,2.23,0.31,4.54,1.52,6.4c1.39,2.14,3.89,1.69,5.19,3.03
				c1.38,1.42,0.87,4.16,2.09,6.04c1.25,1.93,3.56,3.03,5.87,3.16C413.71,649.13,413.86,649.13,414.02,649.14z"/>
			<path class="st92" d="M473.8,715.35c0.45,0.7,0.92,1.39,1.4,2.07c0.28,0.39,0.57,0.79,0.94,1.1c0.37,0.31,0.84,0.52,1.3,0.48
				c0.32-0.03,0.61-0.17,0.88-0.34c0.23-0.14,0.46-0.32,0.53-0.58c0.05-0.17,0.02-0.35-0.02-0.53c-0.2-0.89-0.77-1.66-1.36-2.37
				c-0.54-0.63-1.21-1.28-2.01-1.31c-0.42-0.02-0.82,0.15-1.16,0.37c-0.2,0.13-0.39,0.29-0.49,0.51c-0.1,0.22-0.08,0.52,0.09,0.7"/>
			<path class="st91" d="M472.6,704.24c-0.05,0-0.09,0.01-0.14,0.02c-2.5,0.57-4.16,1.32-4.91,3.52c-0.59,1.7-0.44,3.27-0.28,4.21
				c0.35,2.14,0.99,3.75,2.95,4.69c2.42,1.17,4.89,1.21,6.78,0.14c1.61-0.92,2.13-1.69,2.62-3.37c0.35-1.18,0.43-3.19-0.19-5.1
				c-0.76-2.35-1.91-3.83-4.84-4.19L472.6,704.24z"/>
		</g>
		<path class="st94" d="M433.21,597.54c1.36,0.7,3.97,0.89,5.31,0.38"/>
		<path class="st94" d="M452.29,598.74c1.56,0.58,3.95,0.58,5.9-0.44"/>
		<path class="st94" d="M445.09,605.8c-0.03,1.37-0.05,2.74-0.08,4.11c0.49,0.06,0.99,0.11,1.48,0.17"/>
		<path class="st94" d="M442.18,621.84c0.9,1.54,3.49,1.6,4.47,0.11"/>
	</g>
	<g>
		<g>
			<g>
				<path class="st95" d="M502.27,798.77c-9.22-0.1-18.43-1.36-24.11-7.6c-16.23-17.84-12.32-46.72-11.66-69.17
					c0.51-17.16,0.09-43.25,12.77-56.78c9.21-9.82,18.15-14.5,20.68-16.49c3.95-3.12,11.13-4.84,10.43-11.22
					c-0.8-7.18-7.8-13.67-10.85-20.02c-3.72-7.74-2.61-16.82-1.42-25.31c0.38-2.68,0.77-5.43,2-7.84c1.01-1.98,2.54-3.66,4.21-5.12
					c11.33-9.91,37.08-12.03,42.74,5.64c0.51,1.58,0.76,3.24,1,4.88c0.27,1.77,0.53,3.54,0.77,5.31c1.3,9.54,2.58,19.61-3.55,27.93
					c-1.65,2.24-3.78,4.13-5.33,6.45c-3.49,5.24-1.07,11.87,2.63,16.38c3.35,4.08,7.77,7.18,11.51,10.93
					c7.5,7.52,12.04,17.49,14.55,27.71c7.18,29.21,5.5,61.13,2.47,90.78c-2.34,22.85-34.9,23.74-52.07,23.32
					C514.05,798.43,508.15,798.83,502.27,798.77z"/>
				<path class="st96" d="M551.32,714.84c0,0-0.8,70.44,1.05,76.99"/>
				<path class="st96" d="M492.02,688.61l-0.19,0.82c-0.37,1.59-1.11,3.08-2.23,4.29c-2.76,2.98-5.14,9.03-3.49,17.87
					c0,0,2.01,7.77,7.55,10.04c5.63,2.31,11.29,2.21,13.9,1.29c4.7-1.64,8.38-3.69,10.07-9.23"/>
				<path class="st96" d="M547.68,687.68c0,0,0.48,3.87,2.55,6.63c0.29,0.39,10.36,18.1-5.13,25.03c-3.81,1.7-7.96,2.49-12.07,1.75
					c-4.64-0.84-10.58-3.12-13.12-9.22"/>
				
					<ellipse transform="matrix(0.6298 -0.7768 0.7768 0.6298 -347.2306 693.6438)" class="st97" cx="554.04" cy="711.08" rx="0.87" ry="1.82"/>
				<path class="st96" d="M529.26,606.48c0,0,0.28,2.14-1.23,2.48"/>
				<path class="st96" d="M524.31,619.27c0,0,1.55,1.23,3.1,0.86"/>
				<path class="st96" d="M487.22,714.46c-0.85,1.83,2.23,61.9,3.34,76.19"/>
				
					<ellipse transform="matrix(0.5806 -0.8142 0.8142 0.5806 -376.6174 694.7413)" class="st99" cx="486.05" cy="712.94" rx="2.17" ry="1.2"/>
			</g>
		</g>
		<path class="st100" d="M507.13,623.44c-2.2-3.44-4.46-6.85-6.06-10.57c-3.06-7.16-3.44-15.33-1.19-22.77
			c1.03-3.4,1.85-6.02,5.02-7.24c0.19-0.07,7.15-0.59,6.48-1.2c2.43,2.2,6.7,2.21,9.15,0c0.28,1.33,2.01,1.85,3.43,1.81
			c1.81-0.05,3.04-0.89,4.68-1.32c2.02-0.53,2.83,0.59,4.94,0.54c1.84-0.04,3.46-1.28,5.23-1.24c2.96,0.08,5.33,1.8,7.16,3.86
			c0.88,0.98,1.41,2.11,2.39,2.99c1.04-1.82-0.29-3.94-0.95-5.9c-1.39-4.12-2.83-8.34-5.68-11.71c-9.31-10.98-28.77-9.97-39.06-1
			c-18.02,15.69-7.49,43.39,0.62,60.97c2.39,5.17,4.8,10.43,5.7,16.06c0.98,6.17,0.09,12.5-1.45,18.56
			c-0.69,2.7-13.74,33.28-6.82,32.21c2.55-0.4,6.17-8.9,7.23-10.94c4.01-7.71,6.71-16.03,7.94-24.54
			c1.28-8.85-0.13-18.57-2.83-27.06C511.75,630.8,509.47,627.1,507.13,623.44z"/>
		<path class="st101" d="M512.96,596.96c1.41,1.13,3.25,1.09,4.64-0.09"/>
		<path class="st101" d="M534.36,596.15c1.33,1.17,3.3,1.18,4.64,0.02"/>
	</g>
	<g>
		<path class="st102" d="M296.2,781.93c-0.43-19.36-1.6-96.02,6.57-115.45c0.09-0.21,0.15-0.4,0.21-0.62
			c0.53-2.17,1.59-10.7,6.09-18.74c0.24-0.44,3.85-4.06,4.24-4.37c2.16-1.69,8.41-5.67,25.98-16.71
			c8.03-5.04,12.16-13.58,12.37-23.82c0.13-6.64,1.63-14.48,3.44-19.05c0.79-1.99,2.84-3.24,4.95-2.9c1.05,0.17,2.67,0.24,5.19,0.06
			l5.24-0.35c2.18-0.15,4.31,1.24,4.72,3.39c0.04,0.2,0.06,0.4,0.07,0.61c0.1,2.53,1.01,14.39,0.81,18.65c0,0-0.3,11.76-1.11,12.57
			c0,0-0.66,0.41-1.77,1.44c-1.06,0.99-1.57,2.43-1.39,3.86c0.56,4.48,2.84,14.6,12.08,21.15c0,0,12.16,9.22,15.3,20.07
			c3.13,10.8,6.06,15.07,6.48,28.83c0,0.1,0,0.2,0,0.3c-0.12,3.53,4.23,73.35-2.51,90.99c-9.51,24.89-91.17,23.45-104.08,3.46
			C297.9,783.46,296.21,782.68,296.2,781.93z"/>
		<path class="st103" d="M362.39,608.56c0,0,3.34-3.42,4.26,0C366.65,608.56,366.19,610.76,362.39,608.56z"/>
		<path class="st104" d="M358.14,580.13c0,0-4.76,8.31-4.56,15.3c0,0,0,9.63,1.01,11.55c0,0,1.61,9.83-1.02,10.44
			c0,0-10.23-1.01-12.06-8.31c0,0-2.4-4.09-0.06-18.81c0.02-0.11,0.04-0.23,0.06-0.34c2.43-15,4.26-32.43,19.46-32.43
			c0,0,15-2.74,24.63,18.75c0,0,11.45,37,9.83,40.44c0,0,1.01,6.99-10.74,10.34c0,0-9.32,4.97-11.25-0.61c0,0,0.91-1.52,2.03-13.89
			c0,0,0.2-21.29-0.2-25.04c0,0,0.61-5.88-3.45-6.89c0,0-3.95,0-6.08,0S360.67,580.13,358.14,580.13z"/>
		<path class="st105" d="M319.73,687.56c0,0-0.7,7.51-2.74,22.91c-0.09,0.68-1.29,14.01-1.32,14.75
			c-1.16,26.91,1.64,48.67,1.99,58.27"/>
		<path class="st106" d="M383.68,688.99c0,0,1.43,85.6-1,96.09"/>
		<path class="st105" d="M329.25,668.52c0,0-19.46,19.89-2.74,23.67c-0.35,0.06,13.96-0.97,16.72-3.21"/>
		<path class="st105" d="M380.94,670.13c0,0,5.53,11,2.65,18.85c-0.29,0.78-0.66,1.53-1.13,2.24c-5.17,7.79-17.64,2.02-24.02-2.24"
			/>
		<path class="st106" d="M320.06,686.24c0,0-1.03-9.85,5.81-2.57c0,0,5.62,8.53,0.65,8.53C326.51,692.2,321.03,692.2,320.06,686.24z
			"/>
		<path class="st106" d="M373.45,694.37c0,0-2.15-7.21,2.4-9.38c1.59-0.76,3.49-0.45,4.94,0.56c1.49,1.05,3.13,2.74,2.43,4.81
			c-0.19,0.58-2.61,3.56-3.45,3.96C375.51,696.35,373.45,694.37,373.45,694.37z"/>
		<ellipse class="st103" cx="378.18" cy="689.15" rx="0.53" ry="0.87"/>
		<ellipse class="st103" cx="322.76" cy="685.94" rx="0.53" ry="0.87"/>
		<polygon class="st107" points="364.14,599.97 364.6,599.21 364.6,599.97 		"/>
		<polygon class="st108" points="365.81,599.21 365.81,599.97 366.65,599.97 		"/>
		<path class="st103" d="M357.38,590.09c0,0,1.14-0.46,1.67-0.38c0.53,0.08,0.61,0.3,0.99,0.76
			C360.04,590.47,358.59,591.83,357.38,590.09z"/>
		<path class="st103" d="M369.92,591c0,0,1.83-0.92,2.59,0.09C372.5,591.09,370.82,592.03,369.92,591z"/>
	</g>
	<g>
		<path class="st110" d="M200.16,688.16c0.63-5.16,1.54-10.28,2.98-15.27c6.77-23.44,25.82-38.22,36.27-59.43
			c3.29-6.67,6.59-13.37,8.98-20.42c1.79-5.31,3.08-10.85,5.87-15.71c5.39-9.42,16.8-12.72,24.78-4.21
			c6.19,6.61,8.44,15.95,9.52,24.93c1.08,8.99,1.25,18.21,4.25,26.75c3.01,8.58,9.83,13.85,15.44,20.6
			c6.5,7.82,8.36,17.89,10.26,27.76c4.41,22.91,4.15,46.4,3.88,69.62c-0.15,12.7-0.4,25.86-5.85,37.33
			c-13.36,28.12-60.49,21.39-85.33,17.17c-8.86-1.51-17.81-5.1-23.35-12.17c-5.48-6.99-6.86-16.27-7.73-25.12
			c-1.99-20.27-2.3-40.7-0.94-61.02C199.42,695.37,199.72,691.75,200.16,688.16z"/>
		<path class="st112" d="M222.43,681.61c0,0-0.97,93.57,0,101.04"/>
		<path class="st112" d="M301.77,697.21c0,0,2.02,59.94-3.09,91.06"/>
		<path class="st113" d="M226.82,684.86c0,0-15.4,19.58-1.75,31.35c1.99,1.71,6.47,3.51,9.1,3.52c5.33,0.02,13.21-0.9,23.19-12.78"
			/>
		<path class="st112" d="M258.49,706.27c0,0,16.54,13.19,28.75,12.53c0,0,21.93-0.8,12.02-35.08"/>
		<path class="st112" d="M225.93,703.08c1.87,0.65,3.16,1.97,3.38,4.62c0.08,0.99-0.09,2-0.59,2.85c-0.66,1.1-1.99,2.26-4.65,1.88
			c-3.59-0.52-3.31-4.26-3.12-5.43C221.47,703.89,223.4,702.2,225.93,703.08z"/>
		<path class="st112" d="M295.4,715.23c-3.21,1.24-6.52-0.79-5.91-4.36c0.37-2.19,1.22-3.37,2.42-4.24c2.99-2.14,6.72-0.78,6.7,2.46
			c-0.01,1.23-0.1,2.62-0.89,4.03C297.73,713.11,296.97,714.62,295.4,715.23z"/>
		
			<ellipse transform="matrix(0.3953 -0.9185 0.9185 0.3953 -513.9133 634.681)" class="st114" cx="225.1" cy="707.67" rx="0.81" ry="1.22"/>
		<ellipse class="st114" cx="294.02" cy="710.88" rx="0.81" ry="1.07"/>
		<path class="st112" d="M261.47,588.58c0,0,1.4,2,3.84,0"/>
		<path class="st112" d="M274.57,587.65c0,0,1.71,1.38,3.41,0"/>
		<path class="st112" d="M268.79,603.42c0,0,1.62,1.14,2.92,0"/>
		<path class="st115" d="M200.07,677.88c0.6-10.02,4.78-19.44,9.17-28.46c4.42-9.07,9.22-18.13,16.18-25.45
			c11.08-11.66,17.83-27.98,22.13-43.67c1.18-4.33,11.75-27.4,29.28-16.61c5.76,3.55,9.41,9.09,10.46,15.07
			c0.97,5.51,2.37,13.07,3.45,17.02c1.82,6.67,12.07,33.29,5.56,36.43c0,0-3.77-2.57-6.97-8c0,0-5.82-8.53-5.48-18.64
			c0,0-0.47-20.03,0.67-19.97c0,0-10.48-1.6-13.03-9.57c0,0-1.43-3.51-1.61-3.45c-2.46,0.71,0.75,8.21-14.66,17.35
			c-4.45,19.23-14.28,32.02-27.76,45.8C215.66,647.79,206.3,662.21,200.07,677.88z"/>
		<path class="st112" d="M270.74,593.13c0.83,0.9,0.57,2.56-0.5,3.16"/>
	</g>
	<g>
		<g>
			<g>
				<path class="st116" d="M149.3,652.33c-2.16,1.63-4.09,3.54-6.25,5.18c-12.65,9.58-15.36,23.21-18.19,36.93
					c-5.85,28.36-7.69,53.96-3.59,82.63c4.39,30.7,93.83,15.61,93.83,15.61c5.84-0.26,10.65-4.71,11.31-10.51
					c2.34-20.68,2.5-62.3,2.5-62.3s0.25-7.21-0.24-18.62c-0.52-12.11-4.9-23-8.67-30.25c-2.99-5.76-7.54-10.55-13.17-13.79
					c-9.3-5.37-25.23-20.71-17.81-30.44c7.87-10.32,12.41-26.28,7.41-38.77c-6.03-15.08-27.98-18.89-36.88-4.31
					c-2.07,3.39-3.3,7.22-4.33,11.06c-1,3.72-1.84,7.49-2.51,11.29c-0.3,1.68-0.56,3.37-0.59,5.07c-0.09,5.7,2.77,10.81,6.19,15.16
					c3,3.82,6.61,8.04,4.45,13.18C160.35,645.17,154.04,648.75,149.3,652.33z"/>
				<path class="st117" d="M162.47,593.35c0,0,2.49,4.12,5.52,0.67"/>
				<path class="st117" d="M179.02,597.01c0,0,1.88,3.73,5.16,1.53"/>
				<path class="st118" d="M169.8,613.23c0,0,1.31-2.01,1.57,0c0,0-0.52,0.87-1.57,2.27c0,0-2.62-0.19-1.92-1.58
					C167.87,613.92,167.87,612.09,169.8,613.23z"/>
				<ellipse class="st119" cx="171.84" cy="602.91" rx="0.48" ry="0.79"/>
			</g>
			<path class="st117" d="M197.52,697.93c0,0-0.09,8.48,6.65,17.05c0,0,5.51,18.19-9.62,23.31c0,0-10.76,3.08-17.32-6.96"/>
			<path class="st117" d="M204.64,727.13c0,0,4.76,39.7,2.04,59.98"/>
			<path class="st117" d="M199.62,732.03c0,0-10.32,5.07-6.82-5.51c0,0,5.33-8.4,10.41-4.46
				C203.2,722.06,206.7,726.87,199.62,732.03z"/>
			<path class="st118" d="M198.15,726.39c0,0-2.27,0.44-0.61,1.84c0,0,2.36,0.7,2.97,0.7c0,0,1.66-0.8,0.44-1.75
				C200.95,727.17,198.99,726.06,198.15,726.39z"/>
		</g>
		<path class="st117" d="M145.54,698.37c1.67,4.19,1.79,8.97,0.34,13.24c-0.75,2.2-1.9,4.25-2.59,6.47
			c-2.37,7.54,1.43,16.53,8.48,20.1s16.54,1.3,21.21-5.08"/>
		<path class="st117" d="M145.77,734.64c-2.17,17.36-3.34,34.85-3.51,52.35"/>
		<path class="st117" d="M148.22,730.47c1.7,3.57,2.02,3.88,6.31,4.59c1.69,0.28,3.03-0.9,3.03-2.61c0-0.07,0-0.12,0.01-0.16
			c0.64-3.19-0.22-4.92-1.92-7.69c-0.93-1.51-2.4-2.94-4.18-2.89c-1.8,0.05-3.25,1.68-3.67,3.43
			C147.38,726.89,147.76,728.73,148.22,730.47"/>
		<path class="st117" d="M152.02,727.71c-0.15,0.15-0.3,0.3-0.44,0.45c-0.35,0.36-0.72,0.76-0.78,1.25
			c-0.06,0.5,0.39,1.07,0.88,0.92c0.26-0.08,0.42-0.32,0.57-0.55c0.14-0.21,0.28-0.43,0.41-0.64c0.15-0.24,0.31-0.48,0.35-0.76
			s-0.04-0.6-0.28-0.74c-0.24-0.15-0.63-0.02-0.66,0.26"/>
	</g>
</g>
</svg>
