<?xml version="1.0" encoding="UTF-8" standalone="no"?>
<svg
   xmlns:dc="http://purl.org/dc/elements/1.1/"
   xmlns:cc="http://creativecommons.org/ns#"
   xmlns:rdf="http://www.w3.org/1999/02/22-rdf-syntax-ns#"
   xmlns:svg="http://www.w3.org/2000/svg"
   xmlns="http://www.w3.org/2000/svg"
   xmlns:sodipodi="http://sodipodi.sourceforge.net/DTD/sodipodi-0.dtd"
   xmlns:inkscape="http://www.inkscape.org/namespaces/inkscape"
   inkscape:version="1.0 (6e3e5246a0, 2020-05-07)"
   sodipodi:docname="donnine-home.svg"
   id="svg644"
   version="1.1"
   viewBox="0 0 1175 381">
  <metadata
     id="metadata648">
    <rdf:RDF>
      <cc:Work
         rdf:about="">
        <dc:format>image/svg+xml</dc:format>
        <dc:type
           rdf:resource="http://purl.org/dc/dcmitype/StillImage" />
      </cc:Work>
    </rdf:RDF>
  </metadata>
  <sodipodi:namedview
     inkscape:current-layer="svg644"
     inkscape:window-maximized="1"
     inkscape:window-y="0"
     inkscape:window-x="0"
     inkscape:cy="272.25676"
     inkscape:cx="587.5"
     inkscape:zoom="1.2595745"
     showgrid="false"
     id="namedview646"
     inkscape:window-height="1052"
     inkscape:window-width="1920"
     inkscape:pageshadow="2"
     inkscape:pageopacity="0"
     guidetolerance="10"
     gridtolerance="10"
     objecttolerance="10"
     borderopacity="1"
     bordercolor="#666666"
     pagecolor="#ffffff" />
  <defs
     id="defs4">
    <style
       id="style2">.cls-1,.cls-10,.cls-102,.cls-106,.cls-111,.cls-114,.cls-13,.cls-16,.cls-20,.cls-23,.cls-26,.cls-27,.cls-30,.cls-31,.cls-37,.cls-41,.cls-46,.cls-48,.cls-5,.cls-51,.cls-52,.cls-55,.cls-57,.cls-60,.cls-64,.cls-69,.cls-75,.cls-76,.cls-8,.cls-80,.cls-84,.cls-86,.cls-89,.cls-92,.cls-97,.cls-98{fill:none;}.cls-1{stroke:#994472;}.cls-1,.cls-10,.cls-104,.cls-106,.cls-11,.cls-110,.cls-114,.cls-13,.cls-16,.cls-17,.cls-20,.cls-21,.cls-22,.cls-23,.cls-26,.cls-27,.cls-28,.cls-31,.cls-32,.cls-33,.cls-34,.cls-41,.cls-42,.cls-48,.cls-52,.cls-53,.cls-57,.cls-60,.cls-62,.cls-69,.cls-70,.cls-73,.cls-74,.cls-76,.cls-81,.cls-87,.cls-89,.cls-90,.cls-96,.cls-97{stroke-miterlimit:10;}.cls-2{font-size:23px;fill:#994472;font-family:Karla-Bold, Karla;font-weight:700;}.cls-3{font-size:20px;font-family:Karla-Italic, Karla;font-weight:400;font-style:italic;}.cls-4{fill:#7c5e9c;}.cls-5,.cls-6{stroke:#d796a9;}.cls-102,.cls-103,.cls-106,.cls-108,.cls-109,.cls-111,.cls-112,.cls-113,.cls-23,.cls-30,.cls-37,.cls-38,.cls-46,.cls-49,.cls-5,.cls-51,.cls-6,.cls-64,.cls-65,.cls-66,.cls-75,.cls-77,.cls-78,.cls-79,.cls-8,.cls-80,.cls-84,.cls-86,.cls-92,.cls-94,.cls-95,.cls-98,.cls-99{stroke-linecap:round;}.cls-102,.cls-103,.cls-108,.cls-109,.cls-111,.cls-112,.cls-113,.cls-30,.cls-37,.cls-38,.cls-44,.cls-46,.cls-49,.cls-5,.cls-51,.cls-55,.cls-6,.cls-64,.cls-65,.cls-66,.cls-75,.cls-77,.cls-78,.cls-79,.cls-8,.cls-80,.cls-84,.cls-86,.cls-92,.cls-94,.cls-95,.cls-98,.cls-99{stroke-linejoin:round;}.cls-6,.cls-7{fill:#d796a9;}.cls-8{stroke:#d997aa;}.cls-9{fill:#f4dbb0;}.cls-10,.cls-11{stroke:#b88769;}.cls-11{fill:#b88769;}.cls-12{fill:#6e6b86;}.cls-13{stroke:#8ea452;}.cls-14{fill:#8ea452;}.cls-15{fill:#7d4750;}.cls-16,.cls-17{stroke:#d0562d;}.cls-17,.cls-18{fill:#d0562d;}.cls-19{fill:#f5b892;}.cls-20,.cls-21,.cls-22,.cls-23{stroke:#d85c53;}.cls-21{fill:#e22a27;}.cls-22{fill:#d85c53;}.cls-24{fill:#5d7367;}.cls-25,.cls-28{fill:#eb818e;}.cls-26,.cls-28{stroke:#eb818e;}.cls-27{stroke:#f08c99;}.cls-29,.cls-32{fill:#afc5d4;}.cls-30,.cls-31,.cls-32,.cls-33,.cls-34{stroke:#7d858b;}.cls-33,.cls-35{fill:#7d858b;}.cls-34{fill:#f6a2a7;}.cls-36{fill:#788a8a;}.cls-37{stroke:#d0b0c1;}.cls-38,.cls-39{fill:#d0b0c1;}.cls-38{stroke:#d0b1c1;}.cls-40{fill:#4a5b77;}.cls-41,.cls-42,.cls-44{stroke:#f29e63;}.cls-42,.cls-43,.cls-44{fill:#f29e63;}.cls-45{fill:#d9bcb9;}.cls-46,.cls-48,.cls-49{stroke:#cd6e6a;}.cls-47{fill:#cd6e6a;}.cls-49{fill:#ce6e69;stroke-width:0.5px;}.cls-50{fill:#8b674d;}.cls-51,.cls-52,.cls-53,.cls-55{stroke:#ed946e;}.cls-53,.cls-54{fill:#ed946e;}.cls-56{fill:#c4b4b3;}.cls-57{stroke:#7575b6;}.cls-58{fill:#7575b6;}.cls-59{fill:#f9a74c;}.cls-60,.cls-62{stroke:#f5d8cd;}.cls-61,.cls-62{fill:#f5d8cd;}.cls-63,.cls-65{fill:#abc9be;}.cls-64,.cls-65,.cls-66{stroke:#6f988b;}.cls-66,.cls-67{fill:#6f988b;}.cls-68{fill:#519ea1;}.cls-69,.cls-70{stroke:#ffc84a;}.cls-70,.cls-71{fill:#ffc84a;}.cls-72{fill:#f59790;}.cls-73,.cls-78{fill:#f29c1f;}.cls-73,.cls-74,.cls-75,.cls-76,.cls-77,.cls-78{stroke:#f5c153;}.cls-74,.cls-77{fill:#f5c153;}.cls-79,.cls-81,.cls-82{fill:#f7cfb7;}.cls-79,.cls-80,.cls-81{stroke:#f7cfb7;}.cls-83{fill:#8ba75c;}.cls-84,.cls-86,.cls-87{stroke:#fbe192;}.cls-85,.cls-87{fill:#fbe192;}.cls-109,.cls-86{stroke-width:0.75px;}.cls-88{fill:#e6b89d;}.cls-89,.cls-90,.cls-92{stroke:#a38d80;}.cls-90,.cls-91{fill:#a38d80;}.cls-93{fill:#cca99e;}.cls-100,.cls-94,.cls-99{fill:#946c9a;}.cls-94,.cls-95,.cls-96,.cls-97,.cls-98{stroke:#946c9a;}.cls-95,.cls-96{fill:#a354a0;}.cls-99{stroke:#946d9b;}.cls-101{fill:#5b6e3e;}.cls-102,.cls-103,.cls-106{stroke:#c5c8a7;}.cls-103,.cls-104,.cls-105{fill:#c5c8a7;}.cls-104{stroke:#c5c8a6;}.cls-107,.cls-108,.cls-109{fill:#cdd2c4;}.cls-108,.cls-109,.cls-110,.cls-111,.cls-112{stroke:#8675a4;}.cls-110{fill:#89bde6;}.cls-112,.cls-113{fill:#8676a4;}.cls-113,.cls-114{stroke:#8676a4;}</style>
  </defs>
  <title
     id="title6">donninesitomargo</title>
  <g
     style="stroke:none"
     data-name="Layer 2"
     id="Layer_2">
    <rect
       style="stroke:none"
       id="rect8"
       height="480.5"
       width="1175"
       class="cls-1" />
  </g>
  <g
     data-name="Layer 1"
     id="Layer_1">
    <path
       id="path17"
       d="M32.85,214.1c.78,2.92,1.6,5.94,3.49,8.29,2.86,3.57,7.6,5,12.08,5.87,22.34,4.54,51.52,4.18,68.46-7.93a4.68,4.68,0,0,0,1.68-2.26c6.51-18.95.22-83,.22-83-.09-12.3-18-33-18-33-6.63-9.7-6.12-15.3-6.12-15.3,11.92-.48,10.14-28,10.14-28-7.57-.33-11-9.83-11-9.83-7.58,6-13,7.86-13,7.86,2.33,28-12.45,38.06-19,45-3.57,3.76-4.3,4.51-5,5.47C24.9,148.71,32.85,214.1,32.85,214.1Z"
       class="cls-4" />
    <path
       id="path19"
       d="M58.47,126.07s-4.78,25.38-6.79,42.65c0,0-4.55,37.81-1.65,49.89"
       class="cls-5" />
    <path
       id="path21"
       d="M62.83,127s-1.81,8.09-3.38,11.48a77.41,77.41,0,0,1-2.9,7.25s-4,10.51-2.78,13.77h0a12.4,12.4,0,0,0,2.14,4.38,5.49,5.49,0,0,0,5,1.94c3.91-.51,11.62-3.89,17.12-21.42"
       class="cls-5" />
    <path
       id="path23"
       d="M79.2,148.54s2.24,7.94,3.45,15.07c0,0,1.93,14.77,13.53,12.6,0,0,9.09-1.67,6.49-28.21a146.36,146.36,0,0,1-.9-14.84"
       class="cls-5" />
    <path
       id="path25"
       d="M54,160.22s3.64-1.16,1.46,3.06Z"
       class="cls-6" />
    <path
       id="path27"
       d="M96.18,176.21s0-3.75,3.6-3.87C99.78,172.34,99.44,174.64,96.18,176.21Z"
       class="cls-6" />
    <ellipse
       id="ellipse29"
       transform="translate(-105.09 100.36) rotate(-50.24)"
       ry="0.71"
       rx="1.21"
       cy="162.24"
       cx="54.49"
       class="cls-7" />
    <ellipse
       id="ellipse31"
       ry="0.85"
       rx="0.86"
       cy="175"
       cx="98.77"
       class="cls-7" />
    <path
       id="path33"
       d="M88.45,61.93s2.89,1.2,4.83,0"
       class="cls-5" />
    <path
       id="path35"
       d="M96.18,76.06s.46.12,1.8-.84"
       class="cls-5" />
    <path
       id="path37"
       d="M82.24,57.94a1,1,0,0,0,0,.64C84,66.42,82,81.8,76.06,83.88c0,0-2.2,0-3.33-3.07,0,0-12.55-33.34,8.39-39.94,0,0,16.1-6.29,23.19,8.37,0,0,1.86,6.12.57,10.31,0,0-11.6,1.14-11.09-10.47C93.79,49.08,89.94,59.39,82.24,57.94Z"
       class="cls-7" />
    <path
       id="path39"
       d="M100.7,61.44a5.62,5.62,0,0,0,4.14-.1"
       class="cls-5" />
    <path
       id="path41"
       d="M104.2,142.7s2.1,64.15-1.53,75.39"
       class="cls-8" />
    <path
       id="path43"
       d="M97.71,65.28l.09,1.38a2,2,0,0,1-.12,1.08.7.7,0,0,1-.91.35"
       class="cls-5" />
    <path
       id="path45"
       d="M213.88,153c.38,2.76.75,5.54,1.2,8.34,1.41,8.81,3.11,17.49,3.56,26.53l.57,11.3c1.73,34.67-34.5,40.23-61.49,37.09-21.14-2.47-27-12.92-26.8-33.25.23-28.42-7.1-68.32,17-89.3,4.48-3.91,13.18-7,15.81-12.75,2.5-5.45,2.24-12.66.32-18.21-3.51-10.17-5.63-26.11,5.73-32.32,9.06-4.94,17-5.8,23.71,3.85,3.22,4.61,4,12,3.71,17.41-.35,5.7.28,11.25-3.07,16.3-2.34,3.53-5.88,6.15-8.13,9.73-5.62,9,1.59,12.87,8.19,17.41C207.61,124.41,211.73,137.5,213.88,153Z"
       class="cls-9" />
    <path
       id="path47"
       d="M200.21,169.73s3.5,42,0,51"
       class="cls-10" />
    <path
       id="path49"
       d="M156.76,151.1s-14.49,12.23-10.39,14.77c0,0,14.09,9.55,29.2-8.15"
       class="cls-10" />
    <path
       id="path51"
       d="M177.35,154.92s-1.91,8.86,8.07,14.26c0,0,9.31,6.59,20.18-4.13a21.27,21.27,0,0,0,0-3.72s-1.17-2.29-5.27-2.17a4.08,4.08,0,0,1-2.05-1.87s1.23-5.56,0-6.81"
       class="cls-10" />
    <ellipse
       id="ellipse53"
       ry="0.76"
       rx="1.3"
       cy="162.23"
       cx="205.69"
       class="cls-11" />
    <ellipse
       id="ellipse55"
       ry="0.64"
       rx="0.48"
       cy="82.08"
       cx="186.2"
       class="cls-11" />
    <path
       id="path57"
       d="M183.47,71.09s.75,1.55,0,1.92"
       class="cls-10" />
    <path
       id="path59"
       d="M184.9,65.61s2.47.89,3.56-1.27"
       class="cls-10" />
    <path
       id="path61"
       d="M173.28,67.29s2.73.11,3.82-1.68"
       class="cls-10" />
    <path
       id="path63"
       d="M160.23,43.66a3.64,3.64,0,0,0-3-1.1,1.88,1.88,0,0,0-1.36.68,2,2,0,0,0-.28.77c-.27,1.34-.17,3,1,3.83-1.39.16-3,.43-4,1.55s-.59,3.35.89,3.48A3.57,3.57,0,0,0,150,54.61c-.57,1.27.62,3.1,2,2.68-1.62.13-3.38.74-4.12,2.19s.42,3.68,2,3.37a2.43,2.43,0,1,0,.58,4.71,2.56,2.56,0,0,0-2,2.83,2.59,2.59,0,0,0,2.76,2,1.13,1.13,0,0,0-.39,2.14,3.08,3.08,0,0,0,2.18.31A1.73,1.73,0,0,0,153,77a1.75,1.75,0,0,0,2.1.34,1.86,1.86,0,0,0,2.52,2.5,1.68,1.68,0,0,0,.45,2.11c.79.58,1.58-.1,2.31.24s.69,1.76,2.1,1.83a2.41,2.41,0,0,0,2.21-2.86c.13.58,1.72.49,2.08.37a1.78,1.78,0,0,0,1.32-1.6c.09-1.52-2.19-2.26-3.38-2.39a2.77,2.77,0,0,0-1.27-5.35,2.37,2.37,0,0,0-.64-4.66,1.51,1.51,0,1,0,.25-2.93,2.22,2.22,0,0,0-.48-4.41,1.67,1.67,0,1,0,.88-3.16c2.14-.63,2.81,1.18,4.69,1.47.8.13,5.18-1.53,3.82-2.89,1.33,1.14,3,2.15,4.71,1.91s3.2-2.3,2.27-3.78a3.37,3.37,0,0,0,6.67-.1,3.29,3.29,0,0,0,5.83,2l.1,3.8a2.55,2.55,0,0,0,2.61-.14c-.35,1.68-.16,4.13,1.56,4.23a5.57,5.57,0,0,0-.34,3,1.91,1.91,0,0,0,2.3,1.47,8.25,8.25,0,0,0-1.11,3.22,2.83,2.83,0,0,0,1.52,2.83c-1,0-1.41,1.43-.76,2.14a2.09,2.09,0,0,0,2.64.1,5.4,5.4,0,0,0,1.68-2.3,4.07,4.07,0,0,0,.51-3c-.34-1-1.81-1.53-2.44-.71a2.24,2.24,0,1,0,.91-4.39,3,3,0,0,0,.57-5.81c1.69-1.74.35-5.25-2.07-5.42a2.89,2.89,0,0,0-2.34-4.94,3.46,3.46,0,0,0-4.29-5.11,2.24,2.24,0,1,0-1.61-4.17A2.91,2.91,0,0,0,185.78,38a2.46,2.46,0,1,0-4.53-1.94,3.4,3.4,0,0,0-4.42-2.42l-.09,2.09A3,3,0,0,0,170.87,37a5.14,5.14,0,0,0-4.27-.65c-1.4.53-2.34,2.3-1.6,3.59-1.51-.71-3.31-1.26-4.81-.53s-1.9,3.35-.35,4l-4.24.25a4,4,0,0,0,.55,3.7"
       class="cls-11" />
    <path
       id="path65"
       d="M149.76,167.14c-.57,10.11-1.21,20.23-1.52,30.36-.29,9.3-1,18.71,1.95,27.77"
       class="cls-10" />
    <ellipse
       id="ellipse67"
       ry="0.57"
       rx="1.16"
       cy="165.15"
       cx="144.39"
       class="cls-11" />
    <path
       id="path69"
       d="M640.92,218.53a37.24,37.24,0,0,1-1.93-7.88c-3-21.39,0-43,4-64.07a159.74,159.74,0,0,1,7.1-25.47c2.51-6.92,7.77-12.37,14-16.39,2.85-1.85,5.93-3.36,8.7-5.34a16.85,16.85,0,0,0,6.43-7.73,22.93,22.93,0,0,0,.94-6.91c.32-9.66-1.31-19.8.82-29.18,1.63-7.16,6-12.62,13.52-13.9a17.92,17.92,0,0,1,17.9,8.18c2.37,3.91,3.11,8.57,3.8,13.09.87,5.7,1.13,12.11-2,17.23a13.55,13.55,0,0,1-3.6,3.94c-1.09.75-2.52,1-3.15,2.27-4.43,9.12,4.55,18.39,9.84,24.79a56,56,0,0,1,6,8.27C730,131.63,731,148.58,732,162.2a227.92,227.92,0,0,1-1.26,47.07c-.56,4.26-1.27,8.6-3.33,12.37-5.59,10.23-21.15,7.66-31.16,8.86-13.28,1.58-26.71,3.14-40,.91C648.11,230,643.43,225.21,640.92,218.53Z"
       class="cls-12" />
    <path
       id="path71"
       d="M697.35,59.53s3.14,1.31,5.23,0"
       class="cls-13" />
    <path
       id="path73"
       d="M705.73,73.5s.5.13,1.95-.92"
       class="cls-13" />
    <path
       id="path75"
       d="M690.63,57.89s.41,2.35.43,2.8c.46,9-.6,35.12-5,38.08,0,0-12.08-9.09-13.29-12.93,0,0-6.08-39.29,16.6-46.44,0,0,17.45-6.81,25.13,9.07,0,0,1.21,2.14,1.13,8.89,0,0-11.25.88-12.53-9.06C703.14,48.3,697.26,58.07,690.63,57.89Z"
       class="cls-14" />
    <path
       id="path77"
       d="M660.6,131.38a106.22,106.22,0,0,0-8,44.34c.21,5.71.88,11.38,1.55,17.06q1.77,15.06,3.55,30.12"
       class="cls-13" />
    <path
       id="path79"
       d="M712,125.23a246.87,246.87,0,0,1-2.37,101.34"
       class="cls-13" />
    <path
       id="path81"
       d="M658.84,136.4c-.89,4.26-2.52,8.37-3.07,12.69s.2,9.14,3.37,12.13c2.76,2.6,6.78,3.32,10.57,3.54a19.3,19.3,0,0,0,4.23-.12,13.62,13.62,0,0,0,7.9-4.49,18.62,18.62,0,0,0,4.07-8.22,8.66,8.66,0,0,0,2.61,5.52,17.89,17.89,0,0,0,5.15,3.45,23.46,23.46,0,0,0,8.28,2.43,11.59,11.59,0,0,0,6.31-1.13,11.8,11.8,0,0,0,5.36-7c.91-2.88,1.1-10.24.63-14.12"
       class="cls-13" />
    <path
       id="path83"
       d="M710.73,59.51a3.62,3.62,0,0,0,4.34.24"
       class="cls-13" />
    <path
       id="path85"
       d="M708.5,63.6A2.22,2.22,0,0,1,708,67"
       class="cls-13" />
    <path
       id="path87"
       d="M662.73,151.33a4.52,4.52,0,0,0-1.18,4.08,6,6,0,0,0,1,2.15,8.78,8.78,0,0,0,5.51,3.59,7,7,0,0,0,2.18-.06,5.29,5.29,0,0,0,3-2c1.59-2.29.76-5.58-1.44-7.74s-6.59-2.58-9.07-.06"
       class="cls-14" />
    <path
       id="path89"
       d="M703.84,150.76c-2.3.22-3.23.73-4,1.7a4.24,4.24,0,0,0-1,3.1,4.41,4.41,0,0,0,2.45,3.27,7.71,7.71,0,0,0,6.61.38c2-.83,3.71-2.94,3.18-5a4.43,4.43,0,0,0-3.08-2.9,10.39,10.39,0,0,0-4.19-.52"
       class="cls-14" />
    <path
       id="path91"
       d="M665.71,156.88a3.18,3.18,0,0,0-2,3.14,2.41,2.41,0,0,0,2.85,2.07,3.08,3.08,0,0,0,1.9-2.79,2.7,2.7,0,0,0-.64-2.24,1.68,1.68,0,0,0-2.09-.18"
       class="cls-14" />
    <path
       id="path93"
       d="M705.37,156a2.2,2.2,0,0,0-1.15,1.06,3.07,3.07,0,0,0-.3,1.46,3,3,0,0,0,1.79,2.8,2.17,2.17,0,0,0,2.78-2.52,5.12,5.12,0,0,0-.26-.75,5.5,5.5,0,0,0-.51-1,2.72,2.72,0,0,0-1.59-1.08,1.38,1.38,0,0,0-.85,0"
       class="cls-14" />
    <path
       id="path95"
       d="M703.78,88.19a18.84,18.84,0,0,0,5.57,6.74,3.24,3.24,0,0,0,2.77.85,2.94,2.94,0,0,0,1.26-1c2.88-3.34,3.17-8.13,3.31-12.54.29-9,.57-18.17-1.45-27,0,6,.06,12.14-1.5,18s-4.92,11.41-10.18,14.34a2.24,2.24,0,0,0,1.45,1.5"
       class="cls-14" />
    <path
       id="path97"
       d="M450.57,231.35c6.81,8.7,20,9.82,30.21,10.31a149.46,149.46,0,0,0,24.21-.75c4.27-.48,8.66-1.16,12.36-3.36,3-1.77,5.57-2.36,7-5.54h0s4.65-83-16.53-101.49c0,0-15.37-12.61-12.78-25.88,0,0,6.53-27.53-3.82-38.37,0,0-10.74-13.71-19.31,3a30,30,0,0,0-3.4,19.71,6,6,0,0,1,.09,1.53A20.88,20.88,0,0,0,474,105.58a6.35,6.35,0,0,1,1.41,2.84,13.47,13.47,0,0,1-1.28,9s-8.41,12.94-13.26,17.47c0,0-9.54,8.73-10.19,27.5V232"
       class="cls-15" />
    <path
       id="path99"
       d="M465.81,183.55s-2.79,46.24-1.21,47.9"
       class="cls-16" />
    <path
       id="path101"
       d="M507.66,167.24s12.86,11.65,9.22,14.07c0,0-12.49,9.1-25.9-7.76"
       class="cls-16" />
    <path
       id="path103"
       d="M486.68,168.53s1.7,8.44-7.16,13.58c0,0-8.25,6.29-17.89-3.93a20.28,20.28,0,0,1,0-3.54s1-2.18,4.67-2.06a3.7,3.7,0,0,0,1.82-1.79s-1.09-5.3,0-6.49"
       class="cls-16" />
    <ellipse
       id="ellipse105"
       ry="0.73"
       rx="1.16"
       cy="175.5"
       cx="460.23"
       class="cls-17" />
    <ellipse
       id="ellipse107"
       ry="0.61"
       rx="0.43"
       cy="95.1"
       cx="476.18"
       class="cls-17" />
    <path
       id="path109"
       d="M478.61,84.63s-.67,1.48,0,1.83"
       class="cls-16" />
    <path
       id="path111"
       d="M477.34,79.41a2.47,2.47,0,0,1-3.16-1.21"
       class="cls-16" />
    <path
       id="path113"
       d="M487.65,81s-2.43.1-3.4-1.6"
       class="cls-16" />
    <path
       id="path115"
       d="M497,84.19s.44-17.68-1-24.73c0,0-6.78-30.67-9.21-30.84h-7.12s-7.71,32.5-1.23,33.52C486,61.65,495.52,65.89,497,84.19Z"
       class="cls-18" />
    <path
       id="path117"
       d="M510.25,185.56s-1.7,42.47-2.91,45.68"
       class="cls-16" />
    <ellipse
       id="ellipse119"
       ry="0.55"
       rx="1.03"
       cy="179.98"
       cx="518.92"
       class="cls-17" />
    <path
       id="path121"
       d="M334.85,200c-2.48-11.59-1.53-24.46-1.61-36.15-.08-12.2,1.72-25.9,7.88-36.62,2.75-4.78,6.41-9,10-13.11,3.92-4.49,9.52-9,12.18-14.32a34.75,34.75,0,0,0,2.13-7.3c1.42-6.69,2.81-13.34,3.86-20.06.9-5.84,2.44-12.21,6.89-16.42A15.86,15.86,0,0,1,393,53c16.49,7,9.83,33.49,16.51,46.48,2.54,5,6.53,9,10.14,13.21a82,82,0,0,1,14.83,24.63c3.11,8.48,4.45,17.49,5.77,26.42,2.21,15.14,2.13,29.28-3.59,43.78a22.58,22.58,0,0,1-3.92,6.95c-3.19,3.52-8,5-12.53,6.37l-13.52,4A101.12,101.12,0,0,1,394.32,228c-10.16,1.69-20.55.27-30.74-1.15-5.29-.73-10.66-1.5-15.5-3.75C338.55,218.61,336.86,209.42,334.85,200Z"
       class="cls-19" />
    <path
       id="path123"
       d="M362.07,121.56s-9.5,27.85-4.41,88.94"
       class="cls-20" />
    <path
       id="path125"
       d="M410.71,118.56s11,13.5,7.08,88.52"
       class="cls-20" />
    <path
       id="path127"
       d="M359.92,130.4s-8.19,29.46,11.29,31c0,0,16.36,0,17.55-13.9,0,0,3.11,15.31,17.4,13.89,0,0,16.84-5.65,8.29-32.78"
       class="cls-20" />
    <ellipse
       id="ellipse129"
       ry="1.38"
       rx="0.91"
       cy="142.57"
       cx="371.43"
       class="cls-21" />
    <ellipse
       id="ellipse131"
       ry="1.55"
       rx="0.69"
       cy="146.85"
       cx="409.57"
       class="cls-21" />
    <path
       id="path133"
       d="M367.7,94.4s5.51,9.72-7.71,11.77c0,0-13.41.29-9.91-9.8a8.08,8.08,0,0,1-3.4-5.42c-.95-7.1,4.89-6.45,3.88-7.89-5.45-7.77,5.35-10.32,3.59-11s-4.76-9.86,5.11-9.4c0,0-4.12-11.19,7.74-11.19,0,0,1.71-10.42,10.87-5.59,0,0,3.87-7.64,9.92-2.19,0,0,5.75-4.32,8.71,1.24,0,0,7.6-.07,7,6.54,0,0,6.85,2.24,3.35,7.29,0,0,6.17,2.23,3.7,5.25-1.43,1.75,3.6-.34,2.69,5.43,0,0,4.62,1.51,1.9,4.83a4.46,4.46,0,0,1,3.63,5.21s.7,2.18-1.92,2.34c0,0,7.21,2,3.85,6.86,0,0,4.05-.18,5.43,3,0,0,6,8.2-5.43,11.15,0,0-4.35,8.7-13.31,1.39,0,0-10.95-2.49-3.89-10.83,0,0-7-2.56-2.08-14.63A6,6,0,0,1,398.7,71s1.32-1.89-2.2-8.29c0,0-2.58-10.21-11.38-6.1,0,0-6.71-2.65-7.33,4.47a4.75,4.75,0,0,0-3.43,2.77,4.66,4.66,0,0,0,.3,4.29c1.25,2.13,2.72,6.15-1.45,9.14,0,0,.54,3.79,1.2,7.9C375.29,90.66,371.43,93.73,367.7,94.4Z"
       class="cls-22" />
    <path
       id="path135"
       d="M378.91,69.7a6.84,6.84,0,0,0,5.86.31"
       class="cls-23" />
    <path
       id="path137"
       d="M390.83,69.91a3.75,3.75,0,0,0,2.92.68,11.25,11.25,0,0,0,2.92-1"
       class="cls-23" />
    <path
       id="path139"
       d="M385.88,83.07a2.35,2.35,0,0,0,3.59-.12"
       class="cls-20" />
    <path
       id="path141"
       d="M386.8,75.91l-.14,1.32"
       class="cls-20" />
    <path
       id="path143"
       d="M411.65,360.54c-20.2,13.84-56.73,12.61-68.54-7.28-3.63-6.11-4.86-13.34-5.55-20.42-1.41-14.38-.87-28.88.25-43.28,1.19-15.13,3.84-28.47,16.82-37.49,8.83-6.13,18.34-10.67,13.8-23.23-.95-2.64-2.34-5.09-3.39-7.69a31.67,31.67,0,0,1-.52-22.06c1.67-4.78,4.8-9.39,9.53-11.2,3.73-1.44,7.95-.94,11.76.27,8.16,2.59,13.63,10.23,15.12,18.44,1.64,9-5.38,19.1-8,27.56a10.63,10.63,0,0,0-.7,4.81c1.1,6.7,7.71,8.9,12.44,12.48,22.18,16.77,21.41,57.8,20.8,83a37.47,37.47,0,0,1-1.13,9.57C422.36,350.82,417.75,356.36,411.65,360.54Z"
       class="cls-24" />
    <path
       id="path145"
       d="M350.68,224.45c0-.14.07-.29.11-.44,2-7.5,6.56-15.16,10.19-22,3.31-6.24,5.9-15.32,11.79-19.42,6.42-4.46,16.43-3.76,22.16,1.47,3,2.72,5,6.34,6.71,10a130.71,130.71,0,0,1,7.67,19.87c1.58,5.33,2.76,11.36.09,16.24a19.1,19.1,0,0,1-6.17,6.22c-2.34,1.63-15.86,8.06-16.78,1.72a4.59,4.59,0,0,1,.67-2.55c3.39-7,9.61-21.87,6.83-29.8-2.46-7-10.14-8.39-10.2-17.8,0,0-.77,7.52-6.84,9.42-16.6,5.16-8.48,33.18-2.74,43.56-1.66,2.81-5.72,2.88-8.84,2a24,24,0,0,1-13.52-10.39,10.64,10.64,0,0,1-1.48-3.51A10.78,10.78,0,0,1,350.68,224.45Z"
       class="cls-25" />
    <path
       id="path147"
       d="M373,208.65s2.64,1.67,4.77-.21"
       class="cls-26" />
    <path
       id="path149"
       d="M385.15,208.44c.13.05,1.77,1.35,4.92,0"
       class="cls-26" />
    <path
       id="path151"
       d="M381.58,223.71s1.49-1.85,1.79,0c0,0,0,1-1.79,2.1,0,0-2.32,0-2.18-1.46C379.4,224.35,379.4,222.67,381.58,223.71Z"
       class="cls-25" />
    <ellipse
       id="ellipse153"
       ry="0.99"
       rx="0.6"
       cy="215.62"
       cx="381.38"
       class="cls-25" />
    <path
       id="path155"
       d="M405.43,283.9a21.62,21.62,0,0,0,3.74,11,11.4,11.4,0,0,1,1.84,5c.45,4.28-.05,11.5-7.81,14.13a12,12,0,0,1-13-5.21"
       class="cls-27" />
    <path
       id="path157"
       d="M407,312.62c1.72,16.81,3.62,34.87-5.86,49.83"
       class="cls-26" />
    <path
       id="path159"
       d="M407,309.42s-7.73,3.79-5.11-4.13c0,0,4-6.28,7.79-3.33C409.68,302,412.3,305.56,407,309.42Z"
       class="cls-27" />
    <path
       id="path161"
       d="M406,305.69s-1.7.32-.45,1.37a15.93,15.93,0,0,0,2.22.53s1.24-.6.33-1.32C408.11,306.27,406.64,305.44,406,305.69Z"
       class="cls-28" />
    <path
       id="path163"
       d="M360.88,284.63c1.84,3.16.9,7.15-.21,10.64s-2.34,7.3-.94,10.68,5.1,5.31,8.7,6.1c5.15,1.12,11.29.17,14.31-4.15"
       class="cls-26" />
    <path
       id="path165"
       d="M360.4,307.68c-2.55,18.81-3.12,37.22-2.85,56.13"
       class="cls-26" />
    <path
       id="path167"
       d="M362.85,302.38a5.34,5.34,0,0,0,1.52,3.88,5.65,5.65,0,0,0,3.58,2.16,2.38,2.38,0,0,0,2-.48,2.08,2.08,0,0,0,.5-.83c.58-1.72-.46-3.55-1.65-4.91a7.17,7.17,0,0,0-2-1.72,3.18,3.18,0,0,0-2.59-.21C363.34,300.61,363.12,301.17,362.85,302.38Z"
       class="cls-27" />
    <path
       id="path169"
       d="M365.58,304.23a4.25,4.25,0,0,0-1.74,3.09,1.62,1.62,0,0,0,.15.9,1.35,1.35,0,0,0,1.86.31,3.49,3.49,0,0,0,1.21-1.7,4.06,4.06,0,0,0,.35-1.28,1.55,1.55,0,0,0-.41-1.22,1,1,0,0,0-1.21-.15Z"
       class="cls-28" />
    <path
       id="path171"
       d="M317.82,218.5a26.16,26.16,0,0,1-3.83,3.33c-6.7,4.8-15.42,5.42-23.65,5.86l-17.87,1c-7.07.38-14.22.76-21.18-.52s-13.82-4.41-18.27-9.92c-9.17-11.38-4-38.42-3.43-52.51.54-13-.26-31.84,7.41-43.11a15.86,15.86,0,0,1,6.34-5.58,2.22,2.22,0,0,1,1.75,0c2,.87,7.83,2.89,13.55.68,0,0,10.58-3.19,10.65-17.72a2.46,2.46,0,0,1,0-.28c1.83-25.41,2.59-42,10.09-47.15,1.42-1,2.67-2,3.74-.65l0,0a2,2,0,0,1,.43,1.77c-.25,1,.09,2,3.93.37a2.09,2.09,0,0,1,1.07-.18,7.53,7.53,0,0,1,3.66,1.7,2.05,2.05,0,0,0,1.33.42,27.8,27.8,0,0,1,3.1.1,2.21,2.21,0,0,1,1.53.79c.91,1.11,2.46,3.38,2.21,5.81,0,0-.67,9.93-.24,13.55a.89.89,0,0,1,0,.15c0,1.28.41,18.64,2,23.61a1.73,1.73,0,0,1,.1.75c-.24,2.08,2.72,8.75,1.78,10,0,0,.49,2.65-.07,3.78s-4.91-1.43-3.6-1.09c2,.51,6.33,2.68,11.12.69,1.07-.44,0,0,2.15,4.42,2.47,5.1,9,15.93,9.59,25.11.8,11.93,1.53,23.86,1.74,35.82C325.29,192.82,327.58,208.17,317.82,218.5Z"
       class="cls-29" />
    <path
       id="path173"
       d="M256.69,130.4s-3.55,41.16-5.49,49.49c0,0-1.38,29.52-.58,34"
       class="cls-30" />
    <path
       id="path175"
       d="M307.73,152.5s1.52,59.1.26,66.88"
       class="cls-31" />
    <path
       id="path177"
       d="M259.54,129.48s-.56,9.86-1.7,11c0,0-6.3,5.86-1.15,13.12,0,0,9.73,13.78,27.37-8.2"
       class="cls-32" />
    <path
       id="path179"
       d="M307.16,129.48s.31,8.13,1.14,9.85c0,0,4.31,7.6,0,12.57a7.87,7.87,0,0,1-.57.6c-5.24,4.92-13.14,8.7-22.41-4"
       class="cls-30" />
    <ellipse
       id="ellipse181"
       transform="translate(-40.72 161.91) rotate(-32.93)"
       ry="0.63"
       rx="2.31"
       cy="149.84"
       cx="253.53"
       class="cls-33" />
    <ellipse
       id="ellipse183"
       transform="translate(77.52 401.31) rotate(-72.67)"
       ry="1.43"
       rx="0.31"
       cy="147.96"
       cx="311.58"
       class="cls-34" />
    <path
       id="path185"
       d="M235.72,119.53c.1-3.1.15-6.31.15-6.31,0-8,2.34-12,6-16.27a28,28,0,0,1,9.75-7.24,26.35,26.35,0,0,0,11.53-9.9,80.62,80.62,0,0,0,6.23-13c2.14-6.51,1.72-10.31,7.81-19.51,3.91-5.91,13.33-6.66,17.9-5.13,5,1.68,9.14,5.5,9.92,12.79,0,0,5.23,18.93,5.86,24.21.72,6,5.74,10.4,6.78,16.77.37,2.25,2.53,5.67,3.26,9.19.3,1.44,1.39,8.59.74,11-.87,3.24,2.5,13.4-2.45,13.4-6.56,0-6-6.16-7.75-7.53-2.58-2-5.26,0-7.75-1.58-11.17-7.3-5.22-20.42-5.91-22.19-3.63-9.23,3.46-12.54,1.61-16.67-2.47-5.54-1.3-12.66.42-17.27a6,6,0,0,0,0-4.45c-.58-1.34-1.71-2.41-3.94-1.35-.57.28-2.66,1-4.11-2.32-.66-1.52-3-1.59-4.87.06-2.49,2.21-5.88-1.89-5.88-1.89-.57-.73-1.59,0-2.2.72a19.18,19.18,0,0,0-2.47,5.15c-5.37,18-3.9,31.08-3.91,31.11-.19,4.39-.48,15.34-2.7,18.46,0,0-3,10.23-18.37,10a11.69,11.69,0,0,1-3.78-.73c-.58-.21-1.27-.44-2-.63-1.94-.48-3.65.56-5.31,1.65a10.12,10.12,0,0,0-1.3,1.08A2,2,0,0,1,235.72,119.53Z"
       class="cls-35" />
    <path
       id="path187"
       d="M280.53,61.71a.59.59,0,0,0,.15.73,1.76,1.76,0,0,0,.74.32c.94.25,2.06.46,2.8-.17"
       class="cls-31" />
    <path
       id="path189"
       d="M291.56,62.76a4.85,4.85,0,0,0,4.95,1.2"
       class="cls-31" />
    <path
       id="path191"
       d="M286.38,67.77a15.32,15.32,0,0,1-.13,1.91c0,.64.44,1.38,1.08,1.32"
       class="cls-31" />
    <path
       id="path193"
       d="M283.87,78.1a3.2,3.2,0,0,0,3.66.8"
       class="cls-31" />
    <path
       id="path195"
       d="M73.36,229.42c2-4-.86-8.61-2.62-12.75-.13-.32-.26-.63-.38-.94"
       class="cls-36" />
    <path
       id="path197"
       d="M125.48,351.84C120.39,370,96.25,366.33,82.14,365.6c-10.2-.52-39.46,6.78-43.34-7.53-5.45-20.17-4.57-41.45-3.25-62.31,1-15.66,2.91-32.84,14.29-43.64,3.9-3.71,8.65-6.37,13-9.51s8.53-7,10.39-12c2.49-6.78-1.48-10.54-3.46-16.38a22.08,22.08,0,0,1,3.49-19.9c5.81-7.84,16.11-9.08,24.22-3.86,10.06,6.48,8.07,15.29,7.92,25.36-.07,4.79-.39,10.15-3.94,13.36-1.51,1.37-4.18,2.74-4.54,5-.41,2.53,2.32,5.53,3.83,7.41,4,4.94,9.14,8.75,13.46,13.35,9.21,9.79,14.38,23,15.24,36.45.25,3.79.17,7.6.08,11.41-.18,8.48-.57,16.89-1.37,25.34C127.41,336.07,127.69,344,125.48,351.84Z"
       class="cls-36" />
    <path
       id="path199"
       d="M55.67,279.47s-2,70.5-3.51,82.83"
       class="cls-37" />
    <path
       id="path201"
       d="M55.54,285.87S55,305.31,66.59,310.71c0,0,10,5.69,17-12.16"
       class="cls-37" />
    <path
       id="path203"
       d="M72.84,303.8c.26-2.77-.86-5.24-2.47-5.44s-4.12,1.51-4.44,4.27.72,5.23,2.34,5.35S72.63,306.13,72.84,303.8Z"
       class="cls-37" />
    <ellipse
       id="ellipse205"
       transform="matrix(0.02, -1, 1, 0.02, -235.94, 366.93)"
       ry="0.67"
       rx="1.22"
       cy="303.91"
       cx="69.34"
       class="cls-38" />
    <path
       id="path207"
       d="M85.21,206.39s1.06,1.45,2.85.06"
       class="cls-37" />
    <path
       id="path209"
       d="M98.31,206.7a2.34,2.34,0,0,0,3,.07"
       class="cls-37" />
    <path
       id="path211"
       d="M89.48,221.37s2.22.89,2.94-.28"
       class="cls-37" />
    <path
       id="path213"
       d="M93.91,211.68c0,1,.93,1.24.48,2a2,2,0,0,1-1.41.41"
       class="cls-37" />
    <path
       id="path215"
       d="M101.73,303.15c-.4,0-.74.56-.89.94a3.47,3.47,0,0,0-.15,1.2,1.26,1.26,0,0,0,.11.64.73.73,0,0,0,.86.27,1.49,1.49,0,0,0,.73-.63,3.4,3.4,0,0,0,.54-1.47,1,1,0,0,0,0-.46c-.18-.5-.54-.57-1.17-.49"
       class="cls-38" />
    <path
       id="path217"
       d="M101,301.32a7,7,0,0,0-2,2.85,3.94,3.94,0,0,0-.29,1.85,2.56,2.56,0,0,0,1.43,1.94,2.47,2.47,0,0,0,2.37-.21,3.92,3.92,0,0,0,.6-.55,8,8,0,0,0,2-4,2.79,2.79,0,0,0-.06-1.57,2,2,0,0,0-2-1.12,3.14,3.14,0,0,0-2.1.85"
       class="cls-37" />
    <path
       id="path219"
       d="M113.07,279.24q.77,41.86-.61,83.73"
       class="cls-37" />
    <path
       id="path221"
       d="M84.35,299a15.2,15.2,0,0,0,19.07,13.27c6.19-1.82,7.44-6.27,8.66-10.88.77-2.88,1.08-9,1.14-12"
       class="cls-37" />
    <path
       id="path223"
       d="M76.66,208.35a27.69,27.69,0,0,1-1.22-6.46c-.14-1.16-.38-2.56.54-3.28a3.16,3.16,0,0,1,2.07-.4,21.47,21.47,0,0,0,7.85-1.65c2.63-1,3.76-2.42,6.47-1.8,3.38.77,6,2.44,9.67,2.34a69.35,69.35,0,0,0,1,7.73c.58,2.78,1.49,5.5,1.83,8.33.46,3.87-1,7.56-2.78,10.92a11.63,11.63,0,0,1-2.58,3.61c-1.27,1.09-2.88,1.71-3.86,3.12a6.74,6.74,0,0,0-1,3.35c-.15,2,1.48,3.38,3.15,4.08a13.32,13.32,0,0,0,3.1.62c2.63.11,2.63.11,4.28.11a9,9,0,0,0,3.53-.76c2.39-1.24,2.68-4.39,2.82-7.13.52-9.86,1.63-20.07-.83-29.77a24.66,24.66,0,0,0-22.39-18.9,23.21,23.21,0,0,0-18.29,7.13,33.07,33.07,0,0,0-4.35,6.2c-3.88,6.82-6.6,14.44-6.74,22.28a13.15,13.15,0,0,0,.89,5.64,11.72,11.72,0,0,0,1.83,2.76A26,26,0,0,0,76,235.09a2.82,2.82,0,0,0,1.88,0c2.48-1.23-.73-6.86-.39-8.8a26.66,26.66,0,0,1,.94-3.16,18.57,18.57,0,0,0-.2-9.7C77.8,211.68,77.24,210,76.66,208.35Z"
       class="cls-39" />
    <path
       id="path225"
       d="M234,355c7.07,15.48,29.05,12.32,56.75,8.78a82.56,82.56,0,0,0,11.8-2.39,29.4,29.4,0,0,0,21.33-25.94c1.6-19.19-1.22-44.37-1.22-44.37.49-27.17-15.29-41.81-15.29-41.81-4.56-5.85-8.65-31-8.65-31-.4-37.25-19.52-31.8-19.52-31.8-15.16.33-21.77,57-21.77,57-9.44,4-18.38,22.57-18.38,22.57-7.81,16.43-5,89-5,89"
       class="cls-40" />
    <path
       id="path227"
       d="M249.69,281.58s-.73,61.41.82,72.31"
       class="cls-41" />
    <path
       id="path229"
       d="M308.17,279.71s4.06,61.73,0,73.77"
       class="cls-41" />
    <path
       id="path231"
       d="M254.33,277.94s-5.13,32.92,9.35,31.7c0,0,7.75,1.95,15.26-10.33"
       class="cls-41" />
    <path
       id="path233"
       d="M286,299.56s15.09-4.64,16.74-13.75"
       class="cls-41" />
    <path
       id="path235"
       d="M286.94,297.2s1.17,2.76,1.4,3.74"
       class="cls-41" />
    <path
       id="path237"
       d="M288.22,296.85s1.45,1.95,1.33,3.13"
       class="cls-41" />
    <path
       id="path239"
       d="M290.24,296a3.27,3.27,0,0,1,1.52,2.4"
       class="cls-41" />
    <path
       id="path241"
       d="M292.19,295.06s2.17,1.32,1.73,2.95"
       class="cls-41" />
    <path
       id="path243"
       d="M294.08,294.27s1.79.71,1.57,2.18"
       class="cls-41" />
    <path
       id="path245"
       d="M295.66,293.52s1.43.61,1.29,1.84"
       class="cls-41" />
    <path
       id="path247"
       d="M297,292.22s2,.18,1.74,1.79"
       class="cls-41" />
    <path
       id="path249"
       d="M297.94,291s2.34.06,1.83,1.6"
       class="cls-41" />
    <path
       id="path251"
       d="M299.53,289.57s2.6,0,2.05,1.41"
       class="cls-41" />
    <path
       id="path253"
       d="M300.59,288.23s2.33-.59,2.42.55"
       class="cls-41" />
    <path
       id="path255"
       d="M301.66,286.36s1.51-.35,1.59.51"
       class="cls-41" />
    <path
       id="path257"
       d="M258.66,305.7s-5.8-4.88-1.51-4.76c0,0,6.41,5.69,2.77,5.67C259.92,306.61,259.41,306.94,258.66,305.7Z"
       class="cls-42" />
    <path
       id="path259"
       d="M255.09,305.9s1-2,1.62-2.11c0,0,2,1.25,1.44,2l0,.06c-.73.8-.5,1.36-2.32,1.33C255.78,307.23,254.66,307.3,255.09,305.9Z"
       class="cls-43" />
    <path
       id="path261"
       d="M273.62,211.23A3.19,3.19,0,0,0,278,211"
       class="cls-41" />
    <path
       id="path263"
       d="M285,210.92a3.62,3.62,0,0,0,4.58.09"
       class="cls-41" />
    <path
       id="path265"
       d="M279,227.74a2.56,2.56,0,0,0,3.46-.23"
       class="cls-41" />
    <path
       id="path267"
       d="M280.23,219.88c0,.24-.06.43-.13.43s-.13-.19-.13-.43a6,6,0,0,1,.26-1.41A9.48,9.48,0,0,1,280.23,219.88Z"
       class="cls-44" />
    <path
       id="path269"
       d="M243.84,258.24a11,11,0,0,1,.38-9.2,16.72,16.72,0,0,1,1-1.7c3.58-5.37,5-7.43,7-12.9,0,0,2.06-3.8,3.36-11.77a197.43,197.43,0,0,1,7.33-24.07s5.54-16.67,22.11-15.91c0,0,13.88,3.6,14.52,21.45,0,0,6.18,22.54,5.79,32.22,0,0,5.14,17.49,0,21.88A7.53,7.53,0,0,1,302,260a22.53,22.53,0,0,0-.11-6.83s-8-2.52-9-9.72a335.84,335.84,0,0,1,2.77-34.18S281.41,207,281,190.08c0,0-9.22,19.18-13.29,20.64,0,0,6,48.17-5.91,47.84,0,0-4.39-1-4.39-14.15,0,0-1.79-.65-5.37,3.26C252.05,247.67,244,255.64,243.84,258.24Z"
       class="cls-43" />
    <path
       id="path271"
       d="M534.58,209.82c-.86-16-2.11-46-.81-66.81a46.7,46.7,0,0,1,14-30.49c10.51-10.25,25.86-25.94,30.42-34.46a11.21,11.21,0,0,0,1.31-4.88c.28-6.87,2.11-32.38,13.79-29.64,0,0,12.32-1.79,14.71,39.27a11.74,11.74,0,0,0,1,4.2c3.65,7.93,17,37.44,19.07,48.4a10.82,10.82,0,0,1,.19,2.13L628,208.45c0,5.29-.64,14.68-12.08,19.76a28.21,28.21,0,0,1-12.78,2.24l-35.26-1.69C540.43,224.15,534.91,216,534.58,209.82Z"
       class="cls-45" />
    <path
       id="path273"
       d="M546.47,141.87s-3.45,21.21,18.3,15.31c0,0,8.51-2.67,11.86-9"
       class="cls-46" />
    <path
       id="path275"
       d="M578.33,121.66s-3.47,33.75,15.24,34.94c0,0,19.72,2.06,19.82-23.13"
       class="cls-46" />
    <path
       id="path277"
       d="M590.85,142.92a4.33,4.33,0,0,1,3.89-3.59s4.94-.64,4.93,4.26c0,0,.17,3.94-4.42,3.25C595.25,146.84,590.91,147.2,590.85,142.92Z"
       class="cls-46" />
    <ellipse
       id="ellipse279"
       transform="translate(-2.48 10.68) rotate(-1.03)"
       ry="0.85"
       rx="1.67"
       cy="143.67"
       cx="595.21"
       class="cls-47" />
    <path
       id="path281"
       d="M552.86,157.32s-1.63,46.33-.35,62.45"
       class="cls-46" />
    <path
       id="path283"
       d="M612.22,142.82s-1.88,64.38-4,76"
       class="cls-46" />
    <path
       id="path285"
       d="M532.45,148a9.22,9.22,0,0,1-11.4-10c1.11-8.45,12.28-24.15,33.17-45.69A99.88,99.88,0,0,0,563,79.59c3.07-5.88,4.83-9.36,12-22.74,2.89-5.4,4.44-9.76,8.58-13.38,4.85-4.24,16.45-8.47,23,12.29a135.53,135.53,0,0,1,4.57,25.75S611,87,617,99.44a13.65,13.65,0,0,0,.85,1.49,72.76,72.76,0,0,1,10.49,35.69s-4.72-18.53-13.87-35c0,0-8.53-15.39-10.78-32.67,0,0-1.15-18.91-6.86-21.4A7.38,7.38,0,0,0,594.3,47a8.33,8.33,0,0,0-8.25,6.06c-1.35,4.55-3.46,14.81-5.6,29.08,0,0-2.92,26.75-12.11,37.92C568.34,120.05,555.33,142.46,532.45,148Z"
       class="cls-47" />
    <path
       id="path287"
       d="M583.86,60.06a10.42,10.42,0,0,0,5.93-.11"
       class="cls-48" />
    <path
       id="path289"
       d="M595.38,59.85s4.65,1.12,6.77-.12"
       class="cls-48" />
    <path
       id="path291"
       d="M593.85,65.9s.27,1.76-.46,1.77"
       class="cls-48" />
    <path
       id="path293"
       d="M594.62,74.57s1-1.72.66,0c0,0-.08,1.27-.63,1.71,0,0-1.35,0-1.49-1.2C593.16,75.07,593.26,72.77,594.62,74.57Z"
       class="cls-49" />
    <path
       id="path295"
       d="M550.24,148.66a9,9,0,0,0,9.22,4.1"
       class="cls-46" />
    <path
       id="path297"
       d="M534.67,366.91a21.65,21.65,0,0,1-3.48-3.23c-6.81-7.89-8.78-22.41-7.56-32.34,2.57-21,3.39-44.79,13.22-64a34.24,34.24,0,0,1,5.63-7.58,40.82,40.82,0,0,1,7.5-5.21c4.45-2.63,17.4-7.19,15.59-14-.6-2.26-2.75-3.74-4.3-5.52-3.41-3.9-4-9.37-4.46-14.48-.75-8.36-.45-17.47,5.07-24.34,5.32-6.62,17.28-7.6,24.07-2.44,5.58,4.25,7.43,11.6,8.5,18.42,1.11,7,1.45,11.6-2.07,17.87-2.38,4.24-6.88,10.3-3.3,15.08,3.3,4.42,9.63,6.78,14.12,9.87,4.74,3.28,9.14,7.2,11.81,12.31s3.43,11,3.92,16.79c.71,8.27,1,16.57,1.31,24.86l.42,11.66c.29,7.89.57,15.82-.45,23.64-.54,4.13-1.44,8.2-2.34,12.26-2.06,9.34-12.86,12.81-21.27,14.51-5.11,1-10.08.85-15.23,1.47a144.66,144.66,0,0,1-22.79.93C550.2,373.13,541.18,371.74,534.67,366.91Z"
       class="cls-50" />
    <path
       id="path299"
       d="M549.75,283.83s-3.39,15.71,6.16,22.87a7.4,7.4,0,0,0,6.86,1.16c3.58-1.23,8.65-4.95,10.87-15.89"
       class="cls-51" />
    <path
       id="path301"
       d="M575.19,290.48S577,304,587.14,306.75a8.52,8.52,0,0,0,8.47-2.17c2.87-3,5.75-9.48,4.94-23.25"
       class="cls-51" />
    <path
       id="path303"
       d="M557.12,304.51a1.86,1.86,0,0,1-1.28-1.44c-.13-1.09,0-2.88,1.86-3.35a2.1,2.1,0,0,1,.32-.07c1.38-.25,2.77.51,2.85,1.58v0s0,.07,0,.11C560.9,302.58,560.08,305.66,557.12,304.51Z"
       class="cls-52" />
    <path
       id="path305"
       d="M589.22,301.15a3.7,3.7,0,0,1-.47-3.19,2.76,2.76,0,0,1,2.31-1.81,3.05,3.05,0,0,1,3.58,4.12,2.55,2.55,0,0,1-1.1,1.26C592.47,302.16,590.37,303,589.22,301.15Z"
       class="cls-52" />
    <path
       id="path307"
       d="M557.7,303.24s-.56-.89,0-1.47c.33-.34.77-.13,1.19.08a1.12,1.12,0,0,1,.11,1.37C558.86,303.51,558.35,303.68,557.7,303.24Z"
       class="cls-53" />
    <path
       id="path309"
       d="M590.64,299.87s-.18-1.26,1-.92.64,1.25.64,1.25-.18.65-1.1.47A.89.89,0,0,1,590.64,299.87Z"
       class="cls-53" />
    <path
       id="path311"
       d="M550.1,280.12s-7.19,72.47-.63,92.5"
       class="cls-51" />
    <path
       id="path313"
       d="M600.39,293.58s2.8,55.81.63,71.36"
       class="cls-51" />
    <path
       id="path315"
       d="M593.23,203.88a3.76,3.76,0,1,0,.65,7.5c-1.8-.29-3.3,1.78-3,3.58A6.55,6.55,0,0,0,594,219.2a3.81,3.81,0,1,0-1.7,7.43,4.79,4.79,0,0,0-3.09,8.42c-2.8,1.34-3.12,5.95-.52,7.66l1.55.48a4.09,4.09,0,0,0,1,8.11,3.87,3.87,0,0,0,4.3,6.15c-1.06,1.15-.24,3.22,1.21,3.83a5.54,5.54,0,0,0,4.52-.55l.08,3.36a8.08,8.08,0,0,0,8-1.86,11.54,11.54,0,0,0,6.72-4.32c3.1.87,6.42-2.74,5.28-5.75,3,1,6.21-3.12,4.51-5.82a5,5,0,0,0,3.66-3.33c.42-1.68-.86-3.72-2.59-3.63,1.53-.94,3-2.34,3.1-4.13s-1.88-3.6-3.44-2.72a6.36,6.36,0,0,0,2.16-6.95h-4.12c2.35-2,1.35-6.56-1.63-7.4-.48.47.52,1.23,1.07.83a2.11,2.11,0,0,0,.52-1.87,6.77,6.77,0,0,0-.78-3.34,2.31,2.31,0,0,0-3-.93,6.88,6.88,0,0,0,.1-7l-2.28-.23a6.27,6.27,0,0,0-9-8.15c1.06-3.76-3.2-7.83-6.91-6.61a6.77,6.77,0,0,0-3.5-7.46c-2.49-1.22-5.23-.45-7.44.89-.67-4.51-4.23-7.75-9-6.68-3.74.84-3.6,2-6.8.94-2.38-.79-3.33-2.86-6.38-2.79a8.41,8.41,0,0,0-7.81,6,14.62,14.62,0,0,0-6.36-1.68,7.79,7.79,0,0,0-3.68.63c-2.36,1.15-3,3.85-2.65,6.14-2.3-.44-7.61-1.9-8.4,1.45a6.06,6.06,0,0,0,1.69,5.62,5.72,5.72,0,0,0-6.11,2.49,4.48,4.48,0,0,0,1.66,6,4.78,4.78,0,0,0-5.48,3.33c-.56,2.17,1,4,1.84,5.82-3,1.12-6.79.71-7.91,4.71-.8,2.89.67,5.47,2,7.89-1.87.93-3.91,2.33-4,4.67s2.25,4.56,4.5,4a4.06,4.06,0,0,0,.64,8,5.6,5.6,0,0,0,7.26,6.69,4.65,4.65,0,0,0,7.23,5.23,4.31,4.31,0,1,0,7.86,3.43,4.23,4.23,0,1,0,8.27-1.69,3.93,3.93,0,0,0,6,.94c1.43-1.43.34-2.56.7-4,.27-1.1,1.37-3.24,1.38-4.63a3.81,3.81,0,0,0-2.47-3.51,6.13,6.13,0,0,0,.08-5.75c-.5-1-1.94-1.6-2.32-2.4-.62-1.36.22-1.76-.1-2.94s-.63-6-3.78-3.62a5.12,5.12,0,0,0,2.29-6c-1.67-4.49-6-1.8-3.79-7a4.78,4.78,0,0,0-2.88-6.11,4.73,4.73,0,0,0,4-3.12,4.46,4.46,0,0,0-1.41-4.72c3.69.51,7.29-3.15,6.56-6.64a15.36,15.36,0,0,0,6.34-.23c2-.65,3.25-.95,3.11-3a14.68,14.68,0,0,0,3.23,5.27,9,9,0,0,0,3.08,2.59,5.14,5.14,0,0,0,3.93-.07,3.64,3.64,0,0,0,1.59,3,9,9,0,0,0,7,.66c-2,.82-1.86,4.07-1.19,5.55a9.74,9.74,0,0,0,4.87,4.44c-1-.48-7.29,10.55.09,12.14a4.1,4.1,0,0,0-4.13,3.29,4,4,0,0,0,3,4.28,4.56,4.56,0,0,0-5.87,1.85c-1,2,.92,3,.74,4.55-.22,1.81-2.21,2.94-2,5.13a4.57,4.57,0,0,0,3.56,3.91c-1.46-.83-3.15,1.15-2.86,2.75.47,2.63,4.32,4,6.48,2.33a4,4,0,0,0,.43,6.06c2.12,1.43,3.78-.79,5.46-.23,1.29.43,2,2.37,3.26,3.16a3.9,3.9,0,0,0,2.28.69c2.09-.15,3-2.53,3.5-4.49a3.42,3.42,0,0,0,4.69.92,4.4,4.4,0,0,0,1.68-4.62,3.86,3.86,0,0,0-2.35-2.88c1.64.85,3.59-1.28,3.08-3-.35-1.19-1.84-2.37-2.68-3,2.17-.86,4.15-3.16,3.16-5.52a2.65,2.65,0,0,1-.35-1.07c0-.52.42-.94.67-1.4.92-1.68-1-3.42-2.32-4,2.86-2.61,2-4.11,1.71-7.23-.12-1.44-1-1.79-.85-3.38.08-1,1.06-2,1.05-3.21a5.6,5.6,0,0,0-2.92-4.76c2-1.68,2.07-4.77,1-7.09-.59-1.23-2.14-2.46-3.27-1.64,1.48-1.68,2.59-3.93,2-6.06s-3.58-3.56-5.35-2.16c.27-2.34.36-5.1-1.53-6.6-1.15-.92-3.23-1-4.65-.83.29-2.6-.35-5.71-3.22-7s-5.88-.21-8.09,1.54l0-.28"
       class="cls-54" />
    <path
       id="path317"
       d="M565.21,209.3a4.45,4.45,0,0,0,4.64,0"
       class="cls-55" />
    <path
       id="path319"
       d="M579.45,209.22c2.74,1.68,3.9.4,4.64.05"
       class="cls-55" />
    <path
       id="path321"
       d="M574.81,216.85a2.6,2.6,0,0,1,0,1.76"
       class="cls-55" />
    <path
       id="path323"
       d="M572.55,227.12a6.71,6.71,0,0,0,4.64-.1"
       class="cls-55" />
    <path
       id="path325"
       d="M832.3,169.44a133.85,133.85,0,0,0-2.21-26.88c-2.08-10.29-6.12-20.35-12.93-28.33-3-3.55-6.21-6.73-6.63-11.65-.27-3.26.33-6.53.62-9.79.75-8.6-.7-17.22-2.14-25.73-1.64-9.73-5.76-13.59-15.43-14.65-7.35-.8-15.36.91-17.82,8.82-3.59,11.54,1.8,24.2-3.44,35.33a40.5,40.5,0,0,1-6,8.52l-11.05,13.21a54.92,54.92,0,0,0-5.68,7.65c-2.75,4.74-4,10.19-4.91,15.6A142.72,142.72,0,0,0,743.15,156c-.29,5.11-.33,10.22-.38,15.33l-.07,8.13c0,3.21-.06,6.42.23,9.61.63,6.66,2.2,15.75,6,21.35,3.32,4.85,8.86,8.05,14.71,9.72s12,2,18.15,2q11.08.08,22.17-.85c10.62-.89,20.07-4.24,24.61-14.77,3.09-7.16,3.3-15.18,3.47-23C832.18,178.85,832.3,174.14,832.3,169.44Z"
       class="cls-56" />
    <path
       id="path327"
       d="M817.36,139.28s1.17,30.51-9.47,37a6.69,6.69,0,0,1-6.06.42c-3.2-1.26-8.19-4.71-10.13-14.13"
       class="cls-57" />
    <path
       id="path329"
       d="M807.28,173.38s3.58-4.32.69-5.67c-2.61-1.23-5.78,6-2.43,6.65C805.54,174.36,806.6,174.76,807.28,173.38Z"
       class="cls-57" />
    <path
       id="path331"
       d="M808.83,172.54s-.66-.66-1-.7c0,0-1.11.86-.8,1.41l0,0c.52.91,1.31,1.69,2.05,1.13A2.15,2.15,0,0,0,808.83,172.54Z"
       class="cls-57" />
    <path
       id="path333"
       d="M802.79,71.83a4,4,0,0,1-5.54-.3"
       class="cls-57" />
    <path
       id="path335"
       d="M789.24,71.62s-2.93,2.45-5.86.11"
       class="cls-57" />
    <path
       id="path337"
       d="M794.49,85.66a1.76,1.76,0,0,1-2.79.24"
       class="cls-57" />
    <path
       id="path339"
       d="M810,61.22a18.28,18.28,0,0,0-4.91-7A32.1,32.1,0,0,0,801,51c-9.08-5.7-20.36-1.91-25.58,6.94-4.72,8-3.39,18.09-5.75,26.81-4.22,15.57-18.84,23.73-24.27,38.39-3,8.07-3.3,16.87-4.19,25.35-.31,3,.5,4.69,1.69,7.27.77,1.67,3.21,4,3.65,5.35a19.66,19.66,0,0,1,.29-12.63,17.88,17.88,0,0,1,3.81-6.24c8-8.36,3.38-21.53,15.18-26.55,3.51-1.49,7.28-2.42,10.52-4.42,3.71-2.29,7.57-7.08,8-11.52a21.26,21.26,0,0,0-1-7.85c-2.48-8.75-9.34-24.78-.33-31.07a25.86,25.86,0,0,1,6.95-3.57,15.69,15.69,0,0,1,9.93-.06c12.79,4.6,7.12,26.33,5.39,36.22-.73,4.15-2.11,9.77-.45,13.86a14,14,0,0,0,2.51,3.68c9.14,10.78,24.73,22.55,17.72,38.24,8.65-1.91,6.81-17.5,5.14-23.68-1.44-5.34-3.31-10.43-6.79-14.68S817,102.22,815.64,97a49.84,49.84,0,0,1-1.13-7.09C813.45,80.5,813.61,70,810,61.22Z"
       class="cls-58" />
    <path
       id="path341"
       d="M764.44,141.35a76.71,76.71,0,0,0,.62,18.52c.61,4.62,2.59,10.41,5.56,13.29s7.89,2.74,11,.49,5.27-4.28,5.86-11.79"
       class="cls-57" />
    <path
       id="path343"
       d="M770.65,168.84c.76,1.78,1.68,3.52,3.43,3.95.87.2,1.68-.62,1.72-1.71a6.74,6.74,0,0,0-1.8-4.33,1.92,1.92,0,0,0-2.66-.56A2.16,2.16,0,0,0,770.65,168.84Z"
       class="cls-57" />
    <path
       id="path345"
       d="M772.75,168.8c-.81-.71-2.44.71-2.24,2.88a1.36,1.36,0,0,0,2.46.56,3.09,3.09,0,0,0-.22-3.44"
       class="cls-57" />
    <path
       id="path347"
       d="M765.68,130.16a212.05,212.05,0,0,0-.27,87.05"
       class="cls-57" />
    <path
       id="path349"
       d="M794.19,76.78a4.64,4.64,0,0,1,.23,2.52"
       class="cls-57" />
    <path
       id="path351"
       d="M818,137.74q.51,15.73,2.19,31.39c1.73,16.2,4.31,33.2-1.41,48.34"
       class="cls-57" />
    <path
       id="path353"
       d="M509.14,358.43c3.25-4.65,4.93-10.59,5.52-17.27a214.67,214.67,0,0,0-3.32-60.81c-2.47-12.33-6.59-25.31-16.61-32.92-7.1-5.39-23.2-7.68-17-20.9a35,35,0,0,0,1.67-3.43,14,14,0,0,0,.54-4.19c.15-6.6.1-13.44-2.53-19.5-2.82-6.47-9.65-10.54-16.6-10.65-14.07-.23-17.83,17.93-16.28,28.57.76,5.21,3.16,10.4,7.48,13.4,1.51,1.06,3.25,1.85,4.42,3.27,5.29,6.41-3.44,10.62-7.91,13.37-6.13,3.76-11.07,8.18-14.29,14.81-4.56,9.35-4.63,20.17-4.61,30.57l.09,44.5c0,12.83,1.56,23.43,14.78,27.67a101.41,101.41,0,0,0,47.31,3.46c.74-.13,1.48-.26,2.22-.42C501,366.48,505.86,363.11,509.14,358.43Z"
       class="cls-59" />
    <path
       id="path355"
       d="M488.25,264.38s12.67,1.84,5.5,90.68"
       class="cls-60" />
    <path
       id="path357"
       d="M466.07,207.32s-.49-2.07-2.48-.35C463.59,207,464.86,208.51,466.07,207.32Z"
       class="cls-60" />
    <path
       id="path359"
       d="M453.31,205.39a1.78,1.78,0,0,0-2.35-.34A2,2,0,0,0,453.31,205.39Z"
       class="cls-60" />
    <path
       id="path361"
       d="M459.26,214.24l-.47-1.29s-.17-.16-.08.6S459.26,214.24,459.26,214.24Z"
       class="cls-60" />
    <path
       id="path363"
       d="M460.79,222.31H459a1.86,1.86,0,0,0,1.83.58Z"
       class="cls-60" />
    <path
       id="path365"
       d="M471.37,195.53a10,10,0,0,0,1.09-1c-2.26,2.32-.25,11.2.49,13.88,1.09,4,1.75,7.78-1.13,11.43a10.51,10.51,0,0,0-1.76,2.43c-1.56,3.92,4.62,5.68,7.61,5.63,9.81-.17,11.25-10.5,10.72-18.27-.73-10.56-4.29-20.59-12.89-27.33a12.8,12.8,0,0,0-3.22-2,13.84,13.84,0,0,0-5-.71c-10.27,0-18.89,2.49-23.54,12.47-2.76,5.9-3.45,12.53-4.11,19-.57,5.6-1.07,15.46,5.94,17.73,1.76.57,4.78-2.17,5.37-2a9.09,9.09,0,0,1-4.77-4.55,18,18,0,0,1-1.63-6.51,36.8,36.8,0,0,1,.93-12.15c.84-3.42,2.92-6.37,3.86-9.76.05,2,2.31,2.55,3.94,3a33.07,33.07,0,0,0,10,1.38A14.46,14.46,0,0,0,471.37,195.53Z"
       class="cls-61" />
    <path
       id="path367"
       d="M448.19,268.58,447,285c-1.67,23-3.31,46.54,2.64,68.83.18.7.64,1.57,1.34,1.42"
       class="cls-60" />
    <path
       id="path369"
       d="M457.31,288.1a3.47,3.47,0,0,0,2.19.9,2.09,2.09,0,0,0,1.55-.5,1.25,1.25,0,0,0,.27-1.52,1.51,1.51,0,0,0-.65-.52,3.19,3.19,0,0,0-2.7,0,1.73,1.73,0,0,0-.61.46,1.18,1.18,0,0,0,.71,1.79"
       class="cls-62" />
    <path
       id="path371"
       d="M480.38,288a3.47,3.47,0,0,0,2.19.9,2.12,2.12,0,0,0,1.55-.5,1.25,1.25,0,0,0,.27-1.52,1.54,1.54,0,0,0-.66-.52,3.17,3.17,0,0,0-2.69,0,1.64,1.64,0,0,0-.61.46,1.18,1.18,0,0,0,.71,1.79"
       class="cls-62" />
    <path
       id="path373"
       d="M633.27,280.23a74.4,74.4,0,0,1,2.31-11.84c5.25-18.17,20-29.63,28.12-46.07a131.86,131.86,0,0,0,7-15.84c1.39-4.11,2.39-8.41,4.55-12.18,4.18-7.31,13-9.86,19.21-3.26,4.8,5.12,6.54,12.36,7.38,19.33s1,14.12,3.3,20.74,7.62,10.74,12,16c5,6.06,6.48,13.87,8,21.53,3.42,17.76,3.21,36,3,54-.11,9.85-.3,20.05-4.53,28.94-10.36,21.81-46.9,16.59-66.16,13.32-6.87-1.17-13.81-4-18.11-9.44s-5.32-12.62-6-19.47a286.5,286.5,0,0,1-.73-47.32C632.7,285.82,632.93,283,633.27,280.23Z"
       class="cls-63" />
    <path
       id="path375"
       d="M650.54,275.15s-.76,72.55,0,78.34"
       class="cls-64" />
    <path
       id="path377"
       d="M712.05,287.25s1.57,46.47-2.39,70.6"
       class="cls-64" />
    <path
       id="path379"
       d="M653.94,277.67S642,292.85,652.59,302a13.85,13.85,0,0,0,7,2.73c4.13,0,10.24-.7,18-9.91"
       class="cls-65" />
    <path
       id="path381"
       d="M678.5,294.27s12.83,10.23,22.29,9.72c0,0,17-.62,9.32-27.2"
       class="cls-64" />
    <path
       id="path383"
       d="M653.25,291.8a3.72,3.72,0,0,1,2.63,3.58,3.77,3.77,0,0,1-.46,2.21,3.28,3.28,0,0,1-3.61,1.46c-2.78-.41-2.57-3.31-2.42-4.21C649.8,292.43,651.29,291.12,653.25,291.8Z"
       class="cls-64" />
    <path
       id="path385"
       d="M707.12,301.22c-2.49,1-5-.61-4.58-3.38a4.6,4.6,0,0,1,1.88-3.29c2.31-1.66,5.21-.6,5.19,1.91a6.1,6.1,0,0,1-.69,3.12A3.75,3.75,0,0,1,707.12,301.22Z"
       class="cls-64" />
    <ellipse
       id="ellipse387"
       transform="translate(123.32 778.05) rotate(-66.71)"
       ry="0.95"
       rx="0.63"
       cy="295.36"
       cx="652.61"
       class="cls-66" />
    <ellipse
       id="ellipse389"
       ry="0.83"
       rx="0.63"
       cy="297.85"
       cx="706.05"
       class="cls-66" />
    <path
       id="path391"
       d="M680.81,203s1.09,1.55,3,0"
       class="cls-64" />
    <path
       id="path393"
       d="M691,202.3a2.12,2.12,0,0,0,2.64,0"
       class="cls-64" />
    <path
       id="path395"
       d="M686.48,214.53a1.92,1.92,0,0,0,2.27,0"
       class="cls-64" />
    <path
       id="path397"
       d="M633.2,272.26c.47-7.76,3.71-15.07,7.12-22.07s7.15-14.05,12.54-19.73c8.59-9,13.83-21.7,17.16-33.86.92-3.36,9.11-21.24,22.7-12.88a17.28,17.28,0,0,1,8.11,11.68c.75,4.27,1.84,10.14,2.68,13.2,1.41,5.18,9.35,25.82,4.31,28.25a20.53,20.53,0,0,1-5.41-6.2s-4.51-6.62-4.24-14.45c0,0-.37-15.53.52-15.49,0,0-8.13-1.24-10.1-7.42a19.05,19.05,0,0,0-1.26-2.67c-1.9.55.58,6.36-11.37,13.45-3.45,14.92-11.07,24.83-21.52,35.51A99.33,99.33,0,0,0,633.2,272.26Z"
       class="cls-67" />
    <path
       id="path399"
       d="M688,206.55a1.66,1.66,0,0,1-.39,2.45"
       class="cls-64" />
    <path
       id="path401"
       d="M159.09,249c-1.68,1.26-3.17,2.74-4.85,4-9.8,7.43-11.91,18-14.1,28.64-4.54,22-6,41.84-2.79,64.07,3.4,23.8,72.75,12.1,72.75,12.1a9.22,9.22,0,0,0,8.77-8.15c1.81-16,1.94-48.31,1.94-48.31s.19-5.59-.19-14.43c-.4-9.39-3.79-17.84-6.72-23.46a26.28,26.28,0,0,0-10.21-10.69c-7.2-4.17-19.56-16.06-13.81-23.61,6.1-8,9.63-20.37,5.75-30.06-4.68-11.69-21.69-14.65-28.59-3.34a32.33,32.33,0,0,0-3.36,8.57q-1.17,4.34-2,8.76a24.77,24.77,0,0,0-.45,3.93c-.08,4.42,2.15,8.38,4.79,11.75,2.33,3,5.13,6.24,3.45,10.22C167.65,243.46,162.76,246.23,159.09,249Z"
       class="cls-68" />
    <path
       id="path403"
       d="M169.3,203.28s1.93,3.2,4.27.52"
       class="cls-69" />
    <path
       id="path405"
       d="M182.13,206.11s1.45,2.89,4,1.19"
       class="cls-69" />
    <path
       id="path407"
       d="M175,218.69s1-1.56,1.22,0c0,0-.41.68-1.22,1.77,0,0-2-.16-1.5-1.23C173.48,219.23,173.48,217.81,175,218.69Z"
       class="cls-70" />
    <ellipse
       id="ellipse409"
       ry="0.61"
       rx="0.37"
       cy="210.69"
       cx="176.56"
       class="cls-71" />
    <path
       id="path411"
       d="M196.47,284.36a23,23,0,0,0,5.15,13.22s4.28,14.11-7.46,18.08a12.4,12.4,0,0,1-13.42-5.4"
       class="cls-69" />
    <path
       id="path413"
       d="M202,307s3.7,30.78,1.58,46.5"
       class="cls-69" />
    <path
       id="path415"
       d="M198.1,310.81s-8,3.93-5.29-4.27c0,0,4.13-6.51,8.07-3.46C200.88,303.08,203.59,306.81,198.1,310.81Z"
       class="cls-69" />
    <path
       id="path417"
       d="M197,306.43s-1.76.34-.47,1.42a17,17,0,0,0,2.3.54s1.29-.61.34-1.36C199.13,307,197.61,306.17,197,306.43Z"
       class="cls-70" />
    <path
       id="path419"
       d="M156.17,284.71a15,15,0,0,1,.26,10.26c-.58,1.71-1.47,3.3-2,5a13.07,13.07,0,0,0,23,11.64"
       class="cls-69" />
    <path
       id="path421"
       d="M156.34,312.83a355.3,355.3,0,0,0-2.72,40.59"
       class="cls-69" />
    <path
       id="path423"
       d="M158.24,309.59c1.33,2.77,1.57,3,4.9,3.57a2,2,0,0,0,2.35-2,.41.41,0,0,1,0-.12c.49-2.47-.18-3.81-1.49-6a4,4,0,0,0-3.24-2.24,3.29,3.29,0,0,0-2.85,2.65,8.55,8.55,0,0,0,.32,4.13"
       class="cls-69" />
    <path
       id="path425"
       d="M161.19,307.46l-.34.35a1.8,1.8,0,0,0-.61,1c0,.38.31.82.68.71a.92.92,0,0,0,.45-.42l.32-.5A1.86,1.86,0,0,0,162,308a.54.54,0,0,0-.22-.57.34.34,0,0,0-.51.2"
       class="cls-69" />
    <path
       id="path427"
       d="M737.61,354.56c-.34-15-1.24-74.44,5.09-89.51a2.7,2.7,0,0,0,.16-.48c.41-1.68,1.24-8.29,4.73-14.53.19-.34,3-3.15,3.29-3.39,1.67-1.31,6.51-4.4,20.14-13,6.22-3.9,9.43-10.53,9.58-18.46a48.47,48.47,0,0,1,2.67-14.78,3.57,3.57,0,0,1,3.84-2.25,18.24,18.24,0,0,0,4,.05l4.06-.27a3.43,3.43,0,0,1,3.66,2.62,3.93,3.93,0,0,1,.06.48c.07,2,.78,11.16.62,14.46,0,0-.23,9.12-.86,9.75a9.37,9.37,0,0,0-1.38,1.11,3.51,3.51,0,0,0-1.07,3c.43,3.47,2.2,11.32,9.37,16.4,0,0,9.43,7.15,11.86,15.56s4.7,11.68,5,22.35v.23c-.09,2.74,3.28,56.88-1.94,70.56-7.38,19.29-70.7,18.18-80.7,2.68C738.93,355.75,737.62,355.14,737.61,354.56Z"
       class="cls-72" />
    <path
       id="path429"
       d="M788.93,220.14s2.6-2.65,3.31,0C792.24,220.14,791.88,221.85,788.93,220.14Z"
       class="cls-73" />
    <path
       id="path431"
       d="M785.63,198.09s-3.69,6.45-3.53,11.87c0,0,0,7.47.78,9,0,0,1.25,7.62-.79,8.09,0,0-7.93-.78-9.34-6.44,0,0-1.86-3.17,0-14.59,0-.09,0-.17,0-.26,1.88-11.63,3.3-25.15,15.08-25.15,0,0,11.64-2.12,19.1,14.54,0,0,8.88,28.68,7.62,31.35,0,0,.79,5.43-8.33,8,0,0-7.23,3.85-8.72-.47,0,0,.71-1.18,1.57-10.77,0,0,.16-16.5-.15-19.41,0,0,.47-4.56-2.68-5.34h-4.71C789.88,198.49,787.6,198.09,785.63,198.09Z"
       class="cls-74" />
    <path
       id="path433"
       d="M755.85,281.39s-.54,5.83-2.12,17.76c-.07.53-1,10.87-1,11.44-.9,20.87,1.27,37.74,1.54,45.19"
       class="cls-75" />
    <path
       id="path435"
       d="M805.44,282.5s1.11,66.37-.78,74.5"
       class="cls-76" />
    <path
       id="path437"
       d="M763.24,266.63s-15.09,15.42-2.13,18.36c-.27,0,10.82-.75,13-2.49"
       class="cls-75" />
    <path
       id="path439"
       d="M803.32,267.88s4.29,8.53,2,14.62a8.58,8.58,0,0,1-.87,1.74c-4,6-13.68,1.56-18.63-1.74"
       class="cls-75" />
    <path
       id="path441"
       d="M756.11,280.37s-.8-7.64,4.5-2c0,0,4.36,6.61.5,6.61A5.21,5.21,0,0,1,756.11,280.37Z"
       class="cls-76" />
    <path
       id="path443"
       d="M797.51,286.67s-1.67-5.59,1.86-7.27a3.84,3.84,0,0,1,3.83.44c1.15.81,2.43,2.12,1.88,3.73a12,12,0,0,1-2.67,3.06C799.11,288.21,797.51,286.67,797.51,286.67Z"
       class="cls-76" />
    <ellipse
       id="ellipse445"
       ry="0.67"
       rx="0.41"
       cy="282.63"
       cx="801.17"
       class="cls-73" />
    <ellipse
       id="ellipse447"
       ry="0.67"
       rx="0.41"
       cy="280.13"
       cx="758.2"
       class="cls-73" />
    <polygon
       id="polygon449"
       points="790.29 213.48 790.64 212.89 790.64 213.48 790.29 213.48"
       class="cls-77" />
    <polygon
       id="polygon451"
       points="791.59 212.89 791.59 213.48 792.24 213.48 791.59 212.89"
       class="cls-78" />
    <path
       id="path453"
       d="M785,205.81a3.84,3.84,0,0,1,1.3-.29c.41.06.47.24.77.59A1.3,1.3,0,0,1,785,205.81Z"
       class="cls-73" />
    <path
       id="path455"
       d="M794.77,206.52s1.42-.71,2,.07C796.78,206.59,795.47,207.32,794.77,206.52Z"
       class="cls-73" />
    <path
       id="path457"
       d="M1105.07,51.79c14,9.09,14,31.8,8.4,45.62-1,2.4-2.17,4.79-2.31,7.38-.4,7.5,7,11.46,11.93,15.64a71.77,71.77,0,0,1,7.28,6.77c5.79,6.47,9.1,14.87,10.62,23.41,1.93,10.88,1.11,22.17,1.63,33.13.47,10,.93,20.18-1,30a31.28,31.28,0,0,1-4.07,11c-6.51,10.06-19.65,9.79-30.26,9.28-12.85-.62-34-2-44.49-10.64-1-.82-1.18-2.72-1.48-3.87-5.85-22.32-7.36-48-5.25-71a48.43,48.43,0,0,1,2.25-12c3.11-8.73,9.74-14.28,17.25-19.22,3.51-2.32,14.44-7.63,16-11.41,2-4.89-6.24-9-8.48-12.16-3.17-4.43-3.18-10.26-2.88-15.48q.42-7.17,1.16-14.3a18,18,0,0,1,.48-3C1084.53,51,1096.49,46.23,1105.07,51.79Z"
       class="cls-18" />
    <path
       id="path459"
       d="M1084.29,159.92s-.54,3.43.44,3.74a2.92,2.92,0,0,0,.85-3.74Z"
       class="cls-79" />
    <path
       id="path461"
       d="M1110.82,162.13s-.11,3.34.87,3.65a4.37,4.37,0,0,0,.84-3.65Z"
       class="cls-79" />
    <path
       id="path463"
       d="M1121.66,137.55c.66,5,7.12,59.74-1.24,84.2"
       class="cls-80" />
    <path
       id="path465"
       d="M1074.23,139.22c-1.56,7.94,12.2,41.42,22.8.31"
       class="cls-80" />
    <path
       id="path467"
       d="M1098.73,141.93c-.73,9.72,19.07,41.72,22.18-4.38"
       class="cls-80" />
    <path
       id="path469"
       d="M1093.64,76s-.71,2.29,1.17,2.51"
       class="cls-80" />
    <path
       id="path471"
       d="M1104.26,69.8c0,.35-.78.64-1.75.64s-1.75-.29-1.75-.64.78,0,1.75,0S1104.26,69.44,1104.26,69.8Z"
       class="cls-79" />
    <path
       id="path473"
       d="M1089.71,69.8c0,.35-.78.64-1.75.64s-1.75-.29-1.75-.64.78,0,1.75,0S1089.71,69.44,1089.71,69.8Z"
       class="cls-79" />
    <path
       id="path475"
       d="M1095,87.49c0,.4-.64.74-1.14.74s-1.08-.34-1.08-.74.88-.1,1.11-.1S1095,87.08,1095,87.49Z"
       class="cls-81" />
    <path
       id="path477"
       d="M1074.11,141.68c0,9.39.11,18.21.11,26.81,0,15.32,0,30.88,4.25,45.61"
       class="cls-80" />
    <path
       id="path479"
       d="M1084.52,59.45c1.67,1.18,1.75,3.2,3.44,4.21a4.57,4.57,0,0,0,5.23,0c.52-.32,1-.76,1.51-1,1.83-.89,3.92.38,5.85,1.08s4.91,0,4.72-2a6.92,6.92,0,0,0,5.46,4.8c-.86,2.72,1.67,5.91,4.58,5.77a4.38,4.38,0,0,0,.11,4c.75,1.16.62,4.24,3.6.72a4.94,4.94,0,0,0,.82-1.38,31.42,31.42,0,0,0,2.1-12.43,13.49,13.49,0,0,0-1.66-6.61,6.61,6.61,0,0,0-5.77-3.32,8.13,8.13,0,0,0,.2-4.23,3,3,0,0,0-3.28-2.15,3.81,3.81,0,0,0-2.35-4.69c-.71-.23-1.46-.25-2.18-.44a13.08,13.08,0,0,1-3.8-2.2,5.7,5.7,0,0,0-4.1-1.29c-1.45.28-2.62,2-1.82,3.22a10.81,10.81,0,0,0-10.32-5.24l-.49,4a3.22,3.22,0,0,0-3.8.61,3.05,3.05,0,0,0-.18,3.77c-1.48-.57-3.1-1.15-4.62-.7s-2.59,2.46-1.53,3.62c-2.77-.09-4.88,3.4-3.47,5.74a3.23,3.23,0,0,0-5,1.16,3.17,3.17,0,0,0,3.1,4c-2,1-1.87,4.25-.1,5.67s4.39,1.3,6.51.49c-3,.45-4,5.14-1.46,6.76a2.68,2.68,0,0,0-2.46,2.91,2.74,2.74,0,0,0,3.18,2.16c1.76-.38,2.62-2.38,2.72-4.14s-.24-3.6.32-5.28a5,5,0,0,0,1.34,2.27c.7.57,3,.82,3.72-1,1.46-3.65.34-4.71-.2-8.8"
       class="cls-82" />
    <path
       id="path481"
       d="M1067.42,369.59c12.69,1.19,25.79-.38,38.48-2.33,13.56-2.09,21-9.82,22.15-23.14a256.53,256.53,0,0,0-5.3-78.68c-1.84-8.19-6.7-10.15-10.78-16.54-3.48-5.45-.83-12.51,1-18.72a64.26,64.26,0,0,0,.77-32.64c-6-25.15-32.7-5.68-35.76,10.54-2.14,11.39-1.39,20.13-10.25,28.56-15.26,14.52-19.45,31.71-21.33,51.69-2.2,23.37-6.28,44.64,1.18,67.76C1051.4,368,1056.54,368.58,1067.42,369.59Z"
       class="cls-83" />
    <path
       id="path483"
       d="M1064.4,269.17s-13.71,35.94-3.52,80.63"
       class="cls-84" />
    <path
       id="path485"
       d="M1111,287.84s4.88,49,1.74,64.12"
       class="cls-84" />
    <path
       id="path487"
       d="M1064.4,270.44s-2.45,20.1,2.48,31.24c4.63,10.46,17.65,6.88,20.16-11.87"
       class="cls-84" />
    <path
       id="path489"
       d="M1109.11,274.62s7.92,33.94-7.73,35.37c0,0-12.13,0-12.13-22.15"
       class="cls-84" />
    <path
       id="path491"
       d="M1069.91,302.28c-1.43-1.43-2.43-3.32-.55-5a4.67,4.67,0,0,1,7,.88,3.22,3.22,0,0,1,.29,3.49A4.22,4.22,0,0,1,1069.91,302.28Z"
       class="cls-84" />
    <path
       id="path493"
       d="M1100.75,305a4,4,0,0,1-3.77-3.07c-.43-2.1-.43-4.62,3.3-4.62C1105.41,297.31,1105.41,303.61,1100.75,305Z"
       class="cls-84" />
    <path
       id="path495"
       d="M1073.37,300.15a4.45,4.45,0,0,1,0,2.31c-.1,1.05-.12,2.43-1.28,2.67-1.59.22-1.52-.88-1.48-1.79C1070.79,299.65,1072.41,298.34,1073.37,300.15Z"
       class="cls-85" />
    <path
       id="path497"
       d="M1102.36,305c0,.64,0,1.68-.82,1.84a1.85,1.85,0,0,1-2.26-1.24,8.31,8.31,0,0,1,.79-4.45s.71-1.82,1.74-.45C1102.43,301.51,1102.38,304.69,1102.36,305Z"
       class="cls-85" />
    <path
       id="path499"
       d="M1090.5,205.12c.58,1.42,3.12,1.42,3.57.76"
       class="cls-86" />
    <path
       id="path501"
       d="M1103.69,206.72a2.45,2.45,0,0,0,3.54.48"
       class="cls-86" />
    <path
       id="path503"
       d="M1096,222.86a2.18,2.18,0,0,0,2.86.32"
       class="cls-86" />
    <path
       id="path505"
       d="M1098.56,213.44a1.58,1.58,0,0,1-.16,1"
       class="cls-84" />
    <path
       id="path507"
       d="M1103.07,191.66a12,12,0,0,0,4,2.38,8.84,8.84,0,0,1,5.25,5c1.89,4.26,1.76,10.21.59,14.63-2.2,8.35-7.88,14.74-11.71,22.27-1.64,3.22-2.33,7.33-.27,10.29a12,12,0,0,0,5.19,3.7c3.71,1.66,7.74,3,11.79,2.6,11.85-1,12.25-14.32,9.15-23.16-.65-1.84-1.49-3.62-2-5.5-.92-3.15-1-6.47-1.31-9.73-.67-5.31-2.19-10.52-3.32-15.78a37.66,37.66,0,0,0-2-7c-3.85-9-14.9-13.89-24.11-11.21a17.86,17.86,0,0,0-8.93,5.21,79.8,79.8,0,0,0-5.15,6.47,54.79,54.79,0,0,0-4.22,6.85c-3.61,7.11-5.2,15.21-9.54,21.9-3.29,5.07-5.54,9.77-5.7,16a14.81,14.81,0,0,0,.23,3.39,11.42,11.42,0,0,0,6.13,7.48c4.81,2.47,15.63,2.17,18-3.82a14,14,0,0,0,.52-6.47c-.29-2.94-.78-5.87-1.26-8.78s-1.85-5.89-2.08-8.72c-.3-3.68.49-7.42,1.17-11a81.94,81.94,0,0,1,2.23-10.13,7.3,7.3,0,0,1,4.47-4.18,62.89,62.89,0,0,1,6.1-1.62,22.27,22.27,0,0,0,5.83-2.55A4.44,4.44,0,0,0,1103.07,191.66Z"
       class="cls-87" />
    <path
       id="path509"
       d="M912.66,224.89c-7.81-.3-16,1.64-23.8,2.09a148.83,148.83,0,0,1-24.05-.74c-6.95-.76-14.22-3.51-17.91-9.44-5-8.06-4.08-18.64-4-27.7q.11-15.87,1.75-31.67c.81-7.83,1.94-15.72,4.8-23.06a40.26,40.26,0,0,1,8.09-13.14c3.93-4.13,9.39-5.82,14.09-9s9.48-8.35,4.27-13.15c-2-1.82-2.65-4.61-3.14-7.24A103.77,103.77,0,0,1,871.08,77c-.21-5.43-.47-13.16,2.62-17.86a19.57,19.57,0,0,1,33.41,1.13c2.45,4.33,3.16,9.43,3.35,14.4a112.69,112.69,0,0,1-1.06,18.63c-.68,5.33-2.71,10.88-.33,16,2.83,6,10,9.83,14.55,14.49,6,6.06,9.06,13.75,9.93,22.24,1.19,11.56,1.18,23.49,1.54,35.13,0,1.25.08,2.51.11,3.77.2,7.3.29,14.74-1.76,21.74C930.51,216.62,923.15,223.91,912.66,224.89Z"
       class="cls-88" />
    <path
       id="path511"
       d="M921.46,155s.5,22.69-6.24,60.24"
       class="cls-89" />
    <path
       id="path513"
       d="M862.36,136.77c.17,3.76-2.26,4.45-2.42,14.72,0,0-2.09,18.64,14.33,17.41,0,0,15.86-.05,16.53-21.47"
       class="cls-89" />
    <path
       id="path515"
       d="M890.8,147.43s-1,11.76,4.37,17.88c5.08,5.82,14,7.32,19.8,4.31,12.48-6.46,4-25.05,3.22-30.66"
       class="cls-89" />
    <path
       id="path517"
       d="M866.12,164.05s-4-5.57.18-8.77c0,0,4.84-3.63,8.46,1.23,0,0,2.8,5.72-1.56,8.35C873.2,164.86,868.47,166.86,866.12,164.05Z"
       class="cls-89" />
    <path
       id="path519"
       d="M869,161.17l-.59-.24a1.28,1.28,0,0,0-1.54.48,5.36,5.36,0,0,0-1,3.65,1.25,1.25,0,0,0,2.08.88,7.08,7.08,0,0,0,1.86-3.29A1.28,1.28,0,0,0,869,161.17Z"
       class="cls-90" />
    <path
       id="path521"
       d="M862.14,163.62c-.68,5.43-1.37,10.86-1.68,16.32-.82,14.06.79,28.14,2.4,42.13"
       class="cls-89" />
    <path
       id="path523"
       d="M865.3,111.91a10,10,0,0,0,4.77-1.35c.19,3.79,4.9,5.87,7.95,3.81a9.12,9.12,0,0,0,4.16-6.52,6.37,6.37,0,0,0-3.72-6.46c1.68-1.4,1.84-3.92,1.42-6.07-.73-3.75-3-5.55-4.8-8.61-1.36-2.34-.93-.89.28-3.34a10.62,10.62,0,0,0,1.38-3.54,16,16,0,0,0-.81-6.16,4.55,4.55,0,0,1-.26-1.74,5.62,5.62,0,0,1,1.08-2.19,10.78,10.78,0,0,0,1.45-3.51c.25-1.12-.31-2.31-.07-3.4.32-1.48.59-1.12,2-1.07a8.84,8.84,0,0,0,6.6-2.38,13.17,13.17,0,0,0,2.74,1.2c2.14.43,5.12,0,6.65-1.69a3.76,3.76,0,0,0,2.15,3.32c1.4.72,3.8.07,4.61,1.66.43.86.23,2.54.38,3.51a33.66,33.66,0,0,0,.78,3.72,5.46,5.46,0,0,0,.68,1.7c.85,1.23,1.67.71,1,2.38-.41,1-1.24,1.78-1.7,2.75-.68,1.46-.91,3.34.16,4.56.27.31.64.71.42,1.06a.81.81,0,0,1-.31.27,4.63,4.63,0,0,0-1.92,3.78c0,1.5,1.14,2.79,1.13,4.16s-1.47,2.4-1.5,3.94a4.68,4.68,0,0,0,2.59,4.21,9.78,9.78,0,0,0-4.2,6.46c-1,5.87,3.38,9.89,9,9.84a2.08,2.08,0,0,0,.78-.11c.49-.2,6.75-2.33,4.38-3.71a4.6,4.6,0,0,0,6.85-4.68,3.78,3.78,0,0,0,3.63-1.23,3.82,3.82,0,0,0,.6-3.79,4.81,4.81,0,0,0,0-7.59,2.29,2.29,0,0,1-.86-.77,1.72,1.72,0,0,1,0-.93,17.14,17.14,0,0,0,.27-4.89c-.34-2.25-1.83-2.54-2.89-4.12-.92-1.38-.91-3.27-2.1-4.53a.72.72,0,0,1-.23-.35c0-.25.24-.43.43-.61a2.24,2.24,0,0,0,.59-1.19,10.58,10.58,0,0,0-1.72-8.49c-1-1.45-2.68-2.69-3.34-4.38s0-3.46-.22-5.21c-.42-2.76-1.9-6.57-5.07-7.2-1.07-.21-2.46-.21-2.89-1.2a3.34,3.34,0,0,1-.17-.89c-.3-2-2.23-3.47-4.24-4-2.32-.65-5.56.35-7.16-1.54-1.81-2.13-7.08-1.68-9.29-.39-1.94,1.14-4.46,0-6.74.38-2.88.45-5.9,2.3-6.2,5.14a2.93,2.93,0,0,1-.17,1,2.52,2.52,0,0,1-1,.94,12.92,12.92,0,0,0-4.39,4.64,7.56,7.56,0,0,0-1,3.42c0,1.23.67,2.08-.23,3s-2.2,1.1-3.06,2a11,11,0,0,0-2,3.37c-1,2.56-.75,5.39-1.56,8s-3.7,3.73-4.74,6.33a10.17,10.17,0,0,0-.47,1.72L854.69,86c-.45,2.12-.24,3.91,1.86,4.94-1.47,2.13-2.9,3.64-3,6.54a8.73,8.73,0,0,0,1.18,5c1.08,1.66,3,1.31,4,2.35s.67,3.23,1.62,4.69A5.79,5.79,0,0,0,865,111.9Z"
       class="cls-91" />
    <path
       id="path525"
       d="M911.65,163.24c.35.55.72,1.08,1.09,1.61a4.56,4.56,0,0,0,.73.85,1.44,1.44,0,0,0,1,.37,1.53,1.53,0,0,0,.68-.26.8.8,0,0,0,.41-.46.78.78,0,0,0,0-.4,4.62,4.62,0,0,0-1.06-1.84,2.43,2.43,0,0,0-1.56-1,1.58,1.58,0,0,0-.9.29,1,1,0,0,0-.38.4.49.49,0,0,0,.07.54"
       class="cls-90" />
    <path
       id="path527"
       d="M910.73,154.63l-.11,0c-1.94.44-3.23,1-3.81,2.73a6.61,6.61,0,0,0-.22,3.27c.27,1.66.77,2.9,2.28,3.63a5.61,5.61,0,0,0,5.26.11,3.65,3.65,0,0,0,2-2.61,7.22,7.22,0,0,0-.14-4,4,4,0,0,0-3.76-3.25Z"
       class="cls-89" />
    <path
       id="path529"
       d="M880.19,71.9a6.22,6.22,0,0,0,4.11.3"
       class="cls-92" />
    <path
       id="path531"
       d="M895,72.84a6,6,0,0,0,4.57-.35"
       class="cls-92" />
    <path
       id="path533"
       d="M889.39,78.31l-.06,3.19,1.15.13"
       class="cls-92" />
    <path
       id="path535"
       d="M887.14,90.74a2.14,2.14,0,0,0,3.46.09"
       class="cls-92" />
    <path
       id="path537"
       d="M945.79,210c-2.53-9.26-3.18-18.59-3.46-28.31-.35-11.79-.11-23.73,1.94-35.37a68.49,68.49,0,0,1,4.19-15c2.69-6.31,7.6-10.22,12.57-15a35.19,35.19,0,0,0,4.89-5.33,32.89,32.89,0,0,0,4.1-9.82c3.1-10.81,5.76-21.61,8.31-32.54,1.33-5.69,3.1-12,8.26-15,6.55-3.82,13.67-4.3,18.39,2.47,2.5,3.6,3.39,8,3.67,12.37.84,13-3.14,27,3,38.66,3.6,6.84,10.15,11.66,15.86,17,8.23,7.67,12.11,18.27,12.67,29.11.73,14.15,1.69,28.25.84,42.47-.4,6.63-.81,16.92-5.5,22.2a13.71,13.71,0,0,1-4.23,3c-10.48,5.24-20.34,3.31-31.5,3.61-11.83.32-23.61,1.71-35.45,1.75-4.1,0-8.52-.11-11.76-2.61-2.51-1.94-3.87-5-5-8C946.91,213.83,946.31,211.92,945.79,210Z"
       class="cls-93" />
    <path
       id="path539"
       d="M989.26,70.09a19.14,19.14,0,0,1-4.73.65,2.73,2.73,0,0,0,1.59.88s.45.33,1.36-.77"
       class="cls-94" />
    <path
       id="path541"
       d="M998.29,69.54a8.68,8.68,0,0,0,4.19,0,2.73,2.73,0,0,1-3.68.55"
       class="cls-95" />
    <path
       id="path543"
       d="M993.83,78.09s-.84-.88,0-1.1S994.8,78.09,993.83,78.09Z"
       class="cls-96" />
    <path
       id="path545"
       d="M993.64,85s-.22-1.09,1.22-1.09c0,0,1.21.33.31,1.09C995.17,85,994.6,86,993.64,85Z"
       class="cls-96" />
    <path
       id="path547"
       d="M960.07,171.76s-1.4,44.53,0,49.69"
       class="cls-97" />
    <path
       id="path549"
       d="M1026.3,166.34s-.46,47.84-2.84,54.53"
       class="cls-97" />
    <path
       id="path551"
       d="M964.55,143.1s-.46,1.29-2.12,6.89c0,0-6,16.18-2.36,21.77,0,0,2.49,5.38,7.62,7.35,0,0,15.42,6.68,22.09-12.89"
       class="cls-98" />
    <path
       id="path553"
       d="M995.28,167.72s5.15,9.87,12.19,10c0,0,21.52,3.84,19.26-20.84,0,0-1-10.05-2.21-14.29"
       class="cls-98" />
    <path
       id="path555"
       d="M967,169.42a5,5,0,0,1-1.68-7.12,5.81,5.81,0,0,1,3-2.55,5.57,5.57,0,0,1,5.21.54,5.73,5.73,0,0,1,2.2,3.22c.53,1.85.73,4.66-2,6.39C973.72,169.9,969.84,171.76,967,169.42Z"
       class="cls-98" />
    <path
       id="path557"
       d="M1011,160.24c2-.92,4.43-.12,6.24,1.3s3.41,3.65,1.2,6.37c0,0-2.82,5.73-8.25,1.67a5.43,5.43,0,0,1-2.2-4.33A5.34,5.34,0,0,1,1011,160.24Z"
       class="cls-98" />
    <path
       id="path559"
       d="M1015.81,168.08l1.48-1.18s4,1.13,1.89,2.48C1019.18,169.38,1017.68,171.29,1015.81,168.08Z"
       class="cls-99" />
    <path
       id="path561"
       d="M968.87,167.51l-1.49-1.17s-4.61,1-2.46,2.36C964.92,168.7,966.16,170.05,968.87,167.51Z"
       class="cls-99" />
    <path
       id="path563"
       d="M949,130.15a39.38,39.38,0,0,1,0-8.7c.72-7.1,5.25-13.15,9.61-18.8,5.15-6.68,7.85-13,10.25-21.1,2.36-8,4-16.12,6.24-24.12a18.32,18.32,0,0,1,2.17-4.5,18.77,18.77,0,0,1,14.57-8.73c14.91-.92,22.21,15.15,22.8,27.8.27,5.76-.62,11.91,1.11,17.5a56.71,56.71,0,0,0,7.21,14.41c.29.43.6.83.92,1.24,7.58,9.54,15.75,24.2,14.9,36.49-3-1.75-5.23-7.07-7.89-9.79a41.72,41.72,0,0,0-9.75-7.44,62.23,62.23,0,0,1-7-3.94c-9-6.54-9.16-16.61-7.67-26.66a142.56,142.56,0,0,0,2-22.77,9.5,9.5,0,0,0-2.39-7c-1-1.31-4.94-4.69-4.59-6.55-.38,2-2.38,3.38-4.39,3.77a22.07,22.07,0,0,1-6.12-.17,35.56,35.56,0,0,0-8.5.24c-5,.75-4.2,13.36-3.47,17.05.92,4.63,3.41,8.81,4.56,13.39a23.8,23.8,0,0,1-.76,13.85c-1.37,3.73-3.66,7-5.24,10.69s-2.37,7.27-4,10.72c-2.63,5.57-9.39,10.86-15.53,11.77S949.6,135.29,949,130.15Z"
       class="cls-100" />
    <path
       id="path565"
       d="M867.5,366.2c-7.16-.08-14.29-1.05-18.7-5.9-12.58-13.83-9.55-36.22-9-53.63.39-13.3.06-33.53,9.9-44,7.13-7.62,14.07-11.24,16-12.79,3.06-2.42,8.63-3.75,8.08-8.7-.62-5.57-6-10.6-8.41-15.52-2.88-6-2-13-1.1-19.63a19.1,19.1,0,0,1,1.54-6.08,13.6,13.6,0,0,1,3.27-4c8.78-7.69,28.75-9.33,33.14,4.37a24.25,24.25,0,0,1,.77,3.79c.21,1.37.42,2.74.61,4.12,1,7.39,2,15.2-2.76,21.65-1.28,1.74-2.93,3.21-4.13,5-2.7,4.06-.83,9.2,2,12.7,2.6,3.16,6,5.56,8.92,8.47,5.82,5.83,9.34,13.56,11.28,21.49,5.57,22.64,4.27,47.39,1.92,70.38-1.82,17.72-27.06,18.41-40.37,18.09C876.63,365.93,872.06,366.25,867.5,366.2Z"
       class="cls-101" />
    <path
       id="path567"
       d="M905.53,301.13s-.62,54.61.81,59.69"
       class="cls-102" />
    <path
       id="path569"
       d="M859.55,280.79l-.15.63a7.26,7.26,0,0,1-1.73,3.33c-2.13,2.31-4,7-2.7,13.85,0,0,1.56,6,5.86,7.78s8.75,1.71,10.77,1c3.64-1.28,6.5-2.86,7.81-7.16"
       class="cls-102" />
    <path
       id="path571"
       d="M902.71,280.06a12.34,12.34,0,0,0,2,5.15c.22.3,8,14-4,19.4a16,16,0,0,1-9.36,1.36c-3.6-.65-8.2-2.42-10.17-7.16"
       class="cls-102" />
    <ellipse
       id="ellipse573"
       transform="translate(104.4 815.45) rotate(-50.97)"
       ry="1.41"
       rx="0.67"
       cy="298.21"
       cx="907.64"
       class="cls-103" />
    <path
       id="path575"
       d="M888.42,217.11s.22,1.66-.95,1.92"
       class="cls-102" />
    <path
       id="path577"
       d="M884.59,227a3.26,3.26,0,0,0,2.4.67"
       class="cls-102" />
    <path
       id="path579"
       d="M855.83,300.83c-.66,1.42,1.73,48,2.59,59.07"
       class="cls-102" />
    <ellipse
       id="ellipse581"
       transform="translate(114.58 821.74) rotate(-54.51)"
       ry="0.93"
       rx="1.68"
       cy="299.65"
       cx="854.92"
       class="cls-104" />
    <path
       id="path583"
       d="M871.26,230.26a58.16,58.16,0,0,1-4.69-8.2,26,26,0,0,1-.93-17.66c.8-2.64,1.44-4.67,3.9-5.61.14-.06,5.54-.46,5-.93a5.55,5.55,0,0,0,7.09,0c.22,1,1.56,1.43,2.67,1.4,1.4,0,2.35-.69,3.62-1,1.57-.42,2.2.45,3.83.42,1.43,0,2.69-1,4.06-1a7.84,7.84,0,0,1,5.56,3,26.13,26.13,0,0,0,1.85,2.32c.81-1.41-.22-3.06-.73-4.58-1.08-3.19-2.2-6.46-4.41-9.07-7.22-8.52-22.3-7.73-30.29-.78-14,12.16-5.81,33.64.48,47.27,1.85,4,3.73,8.09,4.42,12.45a35.94,35.94,0,0,1-1.12,14.39c-.54,2.1-10.66,25.81-5.29,25,2-.31,4.78-6.9,5.6-8.48a59.8,59.8,0,0,0,6.16-19c1-6.86-.1-14.4-2.19-21A38.65,38.65,0,0,0,871.26,230.26Z"
       class="cls-105" />
    <path
       id="path585"
       d="M875.78,209.73a2.75,2.75,0,0,0,3.6-.07"
       class="cls-106" />
    <path
       id="path587"
       d="M892.38,209.1a2.74,2.74,0,0,0,3.6,0"
       class="cls-106" />
    <path
       id="path589"
       d="M996.75,188.73c-20.72-16.38-35.24,21.56-27.49,37,1.69,3.35,4.81,6.26,4.79,10,0,5.22-5.79,9-9.34,11.83-12.73,10.21-20,26-23.05,42-3.38,17.81-5,41.44.59,59,2.38,7.48,7.35,14.46,14.69,17.67,8.13,3.56,17.52,1.49,26.1,1.59,15.43.18,43.41,2.92,45.79-18.36,1.41-12.57,2.81-25.22,2-37.84-.88-14.11-3.85-29.27-10.49-41.89-4-7.55-10-12.07-15.93-17.78-5-4.77-13.2-11.86-8.4-19.47a49.39,49.39,0,0,0,7-33.11A16.53,16.53,0,0,0,996.75,188.73Z"
       class="cls-107" />
    <path
       id="path591"
       d="M968.77,212.26s-2.75,4.87-1.71,6.48a1.62,1.62,0,0,0-.25,2.29s-1.73.62-.15,2.69c0,0-1.79,1.52-.07,2.86a1.84,1.84,0,0,0-.2,2.82,1.45,1.45,0,0,0,0,2.52,2.07,2.07,0,0,0-.06,3.14,1.75,1.75,0,0,0,0,2.72s-1.26,1.93.43,2.88c0,0-1.65,1.14-.14,3.13,0,0-.42,1.36.54,1.51,0,0,1.17.76.76-1.56a2.59,2.59,0,0,0,.41-3.15,2.34,2.34,0,0,0,0-3.07,2.13,2.13,0,0,0-.14-2.8s1.57-.75.13-2.84c0,0,1-1.72-.36-2.45a2.29,2.29,0,0,0,.11-2.55,2.32,2.32,0,0,0,.06-2.67,2.08,2.08,0,0,0,.24-2.9s1.4-1.66.33-2.57a1.63,1.63,0,0,0,0-2.46,1.88,1.88,0,0,0,.48-2.56S969.9,211.84,968.77,212.26Z"
       class="cls-108" />
    <path
       id="path593"
       d="M989.83,181.59s2.49-1.29,4,.47c0,0,2.66-.48,2.79,1.32v.11s3.8,1.65,2.14,3.81c0,0,1.92,1.12.58,2.31,0,0,2.55.65,1.44,2.19,0,0,1.89.43,1.45,1.39,0,0,2,.81,1,2.42,0,0,2,1,.89,1.83,0,0,2,1.05.65,2,0,0,2.47,1,.72,2.19,0,0,2.36,1.85.17,2.84,0,0,2.87,1.36.85,2.7,0,0,2.81,1.65.56,3.09,0,0,2.83,1.66.46,2.92l-.07,0s1.51,1.66.35,2.64c0,0,1.93,1.36.36,2.54,0,0,1.93,2-.2,3a1.35,1.35,0,0,1-.38,2.23s1.38,1.52-.14,2.32c0,0,1.13.73,0,2.3a1.88,1.88,0,0,1-.44,2.74s1,1.67-.28,2.58a1.71,1.71,0,0,1-.45,2.41,1.73,1.73,0,0,1-.51,2.44s1.37,1.9-.13,2.89a1.9,1.9,0,0,1,.38,2.82,1.65,1.65,0,0,1,.13,2.71s.55,2.16-1.19,2.3c0,0-1.57-.26-.88-2.39a1.53,1.53,0,0,1-.28-2.59,2,2,0,0,1-.15-3,1.93,1.93,0,0,1,0-2.85,1.77,1.77,0,0,1,.43-2.73,1.52,1.52,0,0,1,.61-2.24s-1.25-2.14.84-2.66c0,0-2-1.56-.3-2.86,0,0-1.16-1.82.29-2.67,0,0-1.38-.94-.05-2.52,0,0-1.65-1.55.07-2.52a1.69,1.69,0,0,1-.39-2.45s-1.38-1,0-2.77a1.49,1.49,0,0,1,.47-2.68s-2.23-1.29-.39-2.29c0,0-2.59-1.51-.65-2.67,0,0-3.26-1.64-.85-3.11,0,0-2.71-1.48-.45-3.26,0,0-2.84-.89-1-2.74,0,0-2.63-1.38-1.48-2.94,0,0-2.49-.73-1.34-2.28,0,0-2.13-.27-1.78-1.87,0,0-3-1.56-1.65-3.29,0,0-1.73-.26-1.32-2.53,0,0-1.85.09-1.63-1.53,0,0-4.93,0-3.3-2.24"
       class="cls-109" />
    <path
       id="path595"
       d="M975.36,189.68s-3.15.22-2.68,2c0,0-2.69,1.15-1.38,2.53,0,0-2.65.89-1.37,2.48,0,0-2.93,1.33-1.12,2.5,0,0-2.68,1.54-.61,2.74,0,0-2.61,2.23-.24,3.52,0,0-2.61,1.06-.91,2.68,0,0-2.69,1.67-1,2.85,0,0-2.28,1.57-1.18,2.69,0,0-2.51,1.63-1.13,2.94,0,0-2.35,2.5-.92,3.37,0,0-2.54,2.07-1,3,0,0-1.85,1.58-.29,2.56,0,0-2.3,1.48-.67,2.65a1.45,1.45,0,0,0-.46,2.42s-2,1.51-1.09,2.44a.47.47,0,0,0,.1.1v0a1.26,1.26,0,0,0,2.28.93c.36-.52.63-1,.54-1.09a4.59,4.59,0,0,0-.18-2s1.8-1.25.93-2.89a2,2,0,0,0,.92-2.83,2.13,2.13,0,0,0,.52-3,2.79,2.79,0,0,0,1-3.1s2.12-1.08,1.32-2.76c0,0,1.63-1.23,1-2.51,0,0,1.59-1.15.79-2.4,0,0,1.89-1.42.88-2.94,0,0,2.51-1,1.2-2.74,0,0,2.38-1.71.78-3.56a2.37,2.37,0,0,0,.21-2.73s1.89-1.77.66-3.35c0,0,1.9-.18,1.25-1.4,0,0,1.62-.85,1.09-1.76,0,0,1.94-.4,1.77-1.73C976.39,191.29,977.48,190.39,975.36,189.68Z"
       class="cls-108" />
    <path
       id="path597"
       d="M990.92,183.18s-4.15-1.77-5.46-.48c0,0-3.53-1-4.57,1.06a3.27,3.27,0,0,0-4,.45s-3.55.26-3.48,1.88c0,0-3.47-.45-3.52,2.58,0,0-3.76-.07-4,2.45,0,0-3.8,1-2.24,3.4,0,0-4.15.89-2.64,3.54,0,0-4.26,1.41-2.27,3.91,0,0-3.81.88-2.15,3.69,0,0-2,1.51-1,2.75,0,0-2.37,1.18-.76,2.44,0,0-2.27,1.19-1.17,2.39,0,0-2.09,1.14-.7,2.26,0,0-2.67.5-1.58,2.6,0,0-1.64.78-.19,1.85,0,0-1.74.66-.86,1.78,0,0-2.2.82-.76,2,0,0-2.46,0-1.57,1.68,0,0-1.68,1.12-.42,2,0,0-1.59,1-.5,1.6s.12,0,.12,0-1.3,1.16-.18,1.52c0,0-1.74,1-1,2,0,0-1.47,1.24-1.26,2.58,0,0,.09,1.3,2,.9,0,0,1.48-1,.74-2.3,0,0,1.42-.44,1.48-2.64,0,0,1.63-1.29.36-2,0,0,2-.67.73-1.66a.82.82,0,0,0,.08-1.47s2.15-.78,1.36-1.67c0,0,2.06-.88,1.07-1.66,0,0,1.79-1,.57-2.06,0,0,1.91-.6,1-2.14,0,0,2.07-1.19,1.07-2.4,0,0,2.23-.4,1-2.12,0,0,2.21-.81,1.72-2.38,0,0,2.28-1.05,1.57-2.45,0,0,2.47-1.23,1.66-2.46,0,0,3.46-1.4,2-4,0,0,2.94-2.47,2.21-4.06,0,0,3.77-2,2.87-3.49,0,0,3.21-.91,2.74-2.8,0,0,2.39-.77,2.56-2.05,0,0,2.8-.44,3.35-1.93,0,0,3-.23,3.77-1.34,0,0,3.32.51,3.79-1,0,0,2.56.93,3.66-.43C988.12,185.62,992.3,186.23,990.92,183.18Z"
       class="cls-108" />
    <path
       id="path599"
       d="M992.9,181.47s3.12-1.4,4.3,1c.62,1.26-.05.15-.05.15s2.75-1,3.18,1.13c0,0,2.18.19,1.83,2,0,0,1.57.55.92,1.9,0,0,2.24.69,1.55,1.53,0,0,2.19,1.49,1.26,2.85,0,0,1.88,1.42.74,2.24a1.9,1.9,0,0,1,.55,2.57s2.46,1.91,1.52,3.22c0,0,1.45,1.85.27,3a1.94,1.94,0,0,1,.25,2.21,1.69,1.69,0,0,1,.49,2.4,1.61,1.61,0,0,1,.45,2s1.24,1.56.27,2.34c0,0,2,1.8.93,3,0,0,1.18,2.07.69,2.76,0,0,.86,1.64,0,2.4,0,0,1.37,1.87.27,2.62,0,0,2.54,1.37.74,2.81,0,0,1.23,2.28-.57,2.79,0,0,1.35,1.91.32,3,0,0,1.39,2.67,0,3.63,0,0,1.32,4.14-.32,4.61,0,0,.24,2.74-1.07,3.6a2.08,2.08,0,0,1-.88,3.17s-.05,2.67-1.56,2.57c0,0-2.88.64-2.51-1.44a2.45,2.45,0,0,1,.77-2.51,2.31,2.31,0,0,1,.38-3.4s-2.17-2.64.48-4.45c0,0-2.16-1.83-.09-4.47,0,0-1.47-2.36.66-3.57a2.29,2.29,0,0,1,.06-3.51,2.49,2.49,0,0,1,.66-3.9s-1.8-1.43.06-3.48c0,0-2.92-1.89-.73-4.26,0,0-3.88-.69-1.42-4.14,0,0-3.2-2.48-.91-4.93,0,0-2.48-1.79-.3-3,0,0-2.16-2-.36-3.37,0,0-1.81-.6-.84-1.67,0,0-1.77-.55-.51-2.23a1.86,1.86,0,0,1-1.12-3,2.06,2.06,0,0,1-1.67-2.06,2.24,2.24,0,0,1-1.64-2.33l0-.21s-2.49-.25-2.42-1.4c0,0-2.55.23-2.48-1.55,0,0-2.6,0-2.59-1C992.43,182.9,991.42,181.94,992.9,181.47Z"
       class="cls-109" />
    <path
       id="path601"
       d="M980.47,220.16a7.43,7.43,0,0,0,5.18.63"
       class="cls-110" />
    <path
       id="path603"
       d="M991.34,185.25s.93,1.43,4.31,2.2a3.12,3.12,0,0,0,2.13,2.43s-.09,3.08,2.59,4.11c0,0-1.1,2.7,1,4.09,0,0-1.15,2.14,1.8,3.9a2,2,0,0,0,.39,3s-.43,2,1,2.48c0,0-1.24,2.06-.27,2.76,0,0-1,2.06.12,3.16a1.23,1.23,0,0,0,.39,1.81s-1.15,1.27.06,2.24a1.59,1.59,0,0,0,.18,2.3s-1.44,1.25,0,2.29a1.68,1.68,0,0,0-.66,2.68s-1.77.46-.81,2.43c0,0-1.92.76-1,2.19,0,0-1.39.41-.72,2.3a1.25,1.25,0,0,0-.58,1.76s-1.5,1.14-.46,2.22c0,0-1.38.22-.58,1.73,0,0-1.34.56-.85,1.66,0,0-1.17.94-.57,1.92a1.33,1.33,0,0,0-.53,1.71s-1.31.61-.33,1.58c0,0-.82.82-.18,1.47,0,0-.66,1.14.41,1.65a1.06,1.06,0,0,0,.86,1.16s.34.19,1-.18a1.35,1.35,0,0,0,0-1.46,1.76,1.76,0,0,0-.48-1.27.94.94,0,0,0,0-1.35.92.92,0,0,0,.32-1.41s1.47-.73.67-1.84c0,0,1.22-.41.45-1.69a1.14,1.14,0,0,0,.9-1.73,1.29,1.29,0,0,0,.38-1.91,1.43,1.43,0,0,0,.39-1.86s1.35-.7.51-1.8c0,0,1.38-.42.66-2a1.57,1.57,0,0,0,1.13-2.2s1.23.82.7.18c0,0,1.27-1.07.47-1.91a1.53,1.53,0,0,0,.78-2.37,1.21,1.21,0,0,0-.13-2.11s1.52-.47.91-1.8a2,2,0,0,0-.31-2.27s1.48-1.71-.15-2.27c0,0,1.34-1,.41-1.93a1.85,1.85,0,0,0-.27-2.35s1.3-.93-.54-1.43c0,0,1.2-1.07.33-1.78,0,0,1-1.78,0-2,0,0,.52-1.63-.33-1.94,0,0,1.2-1.22-.13-2.1,0,0,.8-1.26-1.21-2,0,0,1.29-2.29-.78-2.77,0,0,.66-2.4-.85-2.75,0,0,.43-1.52-1.48-1.9,0,0,.53-1.35-.51-1.59,0,0-.09-1.46-1.2-1.75a1.46,1.46,0,0,0-1.08-1.24,2.2,2.2,0,0,0-2.26-1.45,2.36,2.36,0,0,0-2.24-1.35s-4.83-2-3.85.53"
       class="cls-108" />
    <path
       id="path605"
       d="M988.86,189.61a8.59,8.59,0,0,0,4.11.94,3.16,3.16,0,0,0,2.44,3.06s-.85,3.21.5,3.57c0,0-.54,1.56.74,1.95,0,0-.84,2.24.5,3,0,0-1.27,2,.23,2.82,0,0-1.09,1.39.37,2,0,0-.87.94.23,1.4,0,0-.81,1.1.27,1.63,0,0-.62.57.36,1.32,0,0-1,1.25-.08,2a1.13,1.13,0,0,0-.22,1.63s-1.43.56-.19,1.95c0,0-1.54.44-.81,2.45,0,0-1,.5-.12,1.81,0,0-2.19.57-1.35,3.29,0,0-1.57.52-.63,2.66a1.39,1.39,0,0,0-.25,2.32,1.56,1.56,0,0,0-.25,2.37s-1.22.39-.21,1.58c0,0-1.41.33-.57,1.73a1.23,1.23,0,0,0-.07,2,1.13,1.13,0,0,0-.52,1.52s-1.25,1.14-.05,2.09c0,0-1.2.54-.24,1.8,0,0-1.26.15-.55,1.65a.88.88,0,0,0,.06,1.51.59.59,0,0,0,.12,1.08s-.73.85-.12,1.23c0,0,.3.25,1.34-.15,0,0,.17-.3,0-1.28,0,0,1-.59.52-1a1.6,1.6,0,0,0-.4-1.8s.73.1.27-1.12c0,0,1-.72.34-1.61a1.59,1.59,0,0,0,.48-2.14s1.08-.93.25-1.85a1.21,1.21,0,0,0,0-2,1.13,1.13,0,0,0,.74-1.6,1.4,1.4,0,0,0,.18-2,1.3,1.3,0,0,0,.2-1.8s2-.91.76-2.53a1.42,1.42,0,0,0,.36-2.18,2.49,2.49,0,0,0,1.1-3.34,1.69,1.69,0,0,0,.9-2.45s1.32-.58.3-2.12c0,0,1.07-1.14.29-2.16,0,0,1.26-.68.29-1.5a1.49,1.49,0,0,0-.23-1.79,1.1,1.1,0,0,0,.06-1.86s.27-1.41-.51-1.73a1.33,1.33,0,0,0-.44-1.36,1.29,1.29,0,0,0-.1-1.88,1.9,1.9,0,0,0-.49-2.76s1.81-2.14,0-3.26c0,0,1.22-1.39-.48-1.84,0,0,1.93-2.08,0-2.79,0,0,.85-2-.92-2.59,0,0,.6-2-2-2.27a6.2,6.2,0,0,0-3.4-.81s-2-.86-2.36,0c0,0-1.48.25-.85,1.25"
       class="cls-108" />
    <path
       id="path607"
       d="M994.21,185s-2.78-1.47-5.05-.06c0,0-1.86-.75-2.86.48,0,0-1.83-1.12-2.82-.19,0,0-3.05-.86-3.29.74,0,0-2.32-.74-2.69.33,0,0-2.29-.22-2.29,1.46,0,0-2.52-.9-3,.7,0,0-1.52,1-1.32,2.19,0,0-2.66-.07-2.58,1.38a1.08,1.08,0,0,0-.21,1.8s-2,.75-1.51,2.59c0,0-2.52.78-2.17,2.1,0,0-1.76.23-1.41,1.34s.22.05.22.05-2.54,1.07-2,3.29c0,0-1.46-.36-1.91,1.63a2.23,2.23,0,0,0-1.72,2.17,1.76,1.76,0,0,0-2,1.6s-1.87,0-1.32,2.18c0,0-2-.15-1.42,1.92a1.38,1.38,0,0,0-1,2.05,1.92,1.92,0,0,0-1.23,2.49s-1.6,1.09-.71,2.37a1.37,1.37,0,0,0-.77,1.91s-1.75-.21-1.33,1.65c0,0-1.67.84-.59,2.12a1.3,1.3,0,0,0-1,1.88,1.09,1.09,0,0,0-.8,1.7,1.29,1.29,0,0,0-.85,1.86s-1.43.31-.73,1.46c0,0-1.13.1-.69,1.43,0,0-1.12.86-.44,1.86,0,0,0,.22.61.36a.86.86,0,0,0,.82-.45,1.86,1.86,0,0,0,.36-1.44,1.31,1.31,0,0,0,.51-1.39s1.3-.43.88-1.52a1.57,1.57,0,0,0,.87-1.81,1,1,0,0,0,.89-1.58,1.34,1.34,0,0,0,.83-2,1.23,1.23,0,0,0,.8-1.88s1.64.25,1.34-1.22a1.58,1.58,0,0,0,.84-2.11,1,1,0,0,0,.94-1.31s1.53-.77.8-2c0,0,1.3-.32.28-1.57a1.29,1.29,0,0,0,1.17-1.86s1.36-.12.8-1.71c0,0,2,.09,1.49-1.65,0,0,1.08-.28,1.05-1.85,0,0,1.7-.24,1.77-1.58a1.59,1.59,0,0,0,1.65-1.73s2.16-.22,1.83-1.78c0,0,2.49-.87,2.12-2.89,0,0,2.11-.22,1.72-1.76,0,0,1.94-.63,1.41-1.91,0,0,2.47-.47,2.07-1.8,0,0,2.19-.49,1.5-1.64,0,0,1.13-.06,1.15-1.82,0,0,2.45.18,2.62-1.5,0,0,1.78.1,2.13-1,0,0,2.49.6,2.67-.54a2.91,2.91,0,0,0,2.71-.66s2.21.95,2.87,0c0,0,2.16.56,2.79-.37,0,0,3.34.87,3.77-.14C992.76,187.31,994.64,187.65,994.21,185Z"
       class="cls-108" />
    <path
       id="path609"
       d="M978.45,184.86s-3.26-.15-3.19.93c0,0-2.08-.08-2.38,1.35,0,0-1.78.25-1.5,1.55,0,0-1.83-.05-1.94,1.59,0,0-1.41.4-1,1.65,0,0-1.89,1.36-1.38,2.54a1.84,1.84,0,0,0-1.8,2.2,1.82,1.82,0,0,0-1,2.66s-2.22,1.17-1.37,2.37a1.58,1.58,0,0,0-1.55,2.27s-2.1-.07-1.3,2.38c0,0-1.75.08-1.17,2,0,0-1.36.29-.83,2a1.43,1.43,0,0,0-1,2.09c0,.07-2.18.15-1.53,2a1.24,1.24,0,0,0-.91,1.81S953.3,217,954,218c0,0-1.42.47-.77,1.41a1.17,1.17,0,0,0-.8,1.59s-1.28.49-1,1.65c0,0-1.11.3-.73,1.69a1,1,0,0,0-.29,1.67s-1.26,1-.69,1.91c0,0-1.08.32-.43,1.59,0,0-1.26,1.14-.43,1.77a1.3,1.3,0,0,0-.25,1.8s-.72,1.34,0,2.16a1.21,1.21,0,0,0,1.64.05,1.49,1.49,0,0,0,.39-1.69,1.6,1.6,0,0,0,.19-1.93,1.18,1.18,0,0,0,0-1.65,2.45,2.45,0,0,0,.28-1.62s1.12-.86.55-1.78a1.05,1.05,0,0,0,.5-1.55s1.24-.9.79-1.8c0,0,1.1-.45,1-1.33,0,0,1.27-1.05.7-1.76,0,0,1.07-.66.78-1.44,0,0,1.33-.95.62-1.92,0,0,1.24-.73.89-1.76,0,0,1.6-.78,1.4-1.94,0,0,1.43-.9.94-2,0,0,1.29-1.13,1-1.8,0,0,1.8-.28,1.46-1.7,0,0,1.41-.78,1.27-2.08,0,0,2.27-.47,1.8-1.85,0,0,1.86-1.25,1.29-2.34,0,0,1.89-.21,1.35-1.69,0,0,2-1.31,1.09-2.73,0,0,1.62-.81,1.26-2.32,0,0,1.55-.39,1.25-1.81,0,0,2-.7,1.52-2,0,0,1.62-1,1.19-2.19,0,0,1.77.63,1.81-.31,0,0,1.91,0,1.66-1.13,0,0,2.09-.5,1.76-1.12C978.89,186.09,979.44,185.57,978.45,184.86Z"
       class="cls-109" />
    <path
       id="path611"
       d="M991.11,184a1.25,1.25,0,0,0-.24-2.31,3.9,3.9,0,0,0-3,.31l-.14.08a3.06,3.06,0,0,0-4.25,1,1.9,1.9,0,0,0-3.06.69s-2.43-1.55-3.34,1c0,0-2.35-.56-2.5,1.72,0,0-3.25-1.45-3.36,2,0,0-3.26-.78-3.33,2.52,0,0-2.29-1-2.67,2a2.26,2.26,0,0,0-2.27,3.22s-3.4-.62-3.06,2.72a2.35,2.35,0,0,0-2.3,3.35s-3.55-.88-3,3.2c0,0-3.13,0-2.45,2.8,0,0-2.39-.66-2,2.52,0,0-2.64-.07-1.85,2.84,0,0-2.84-.48-2.3,3.05,0,0-3.18-.76-2.92,3.22,0,0-1.47-.88-2.23,0s.26,2.28-.41,2.28a1.83,1.83,0,0,0-1.9,2.55,1.55,1.55,0,0,0-2,1.83s-2.39.22-2.39,1.61a1.57,1.57,0,0,0,2.07,1.34s1.74-.71,1.75-2.07c0,0,2,0,2-1.28,0,0,2.53-.15,2-2.45,0,0,2.74.44,2.17-1.79,0,0,2.08.26,1.53-1.9a2.16,2.16,0,0,0,1.76-2.68,3.18,3.18,0,0,0,3-2.42s2-1.45,2.17-2.83c0,0,2-.74,1.85-2.51,0,0,2.41-1.15,2.17-2.8,0,0,3.13-1.33,2.86-3a2.87,2.87,0,0,0,2-3.52s3.41.52,3-2.74c0,0,3.37-.4,2.49-2.75,0,0,3.15-.18,2.42-2.7,0,0,2.92.84,3.28-1.82,0,0,3.17-.2,2.9-2.46,0,0,2.4,1.22,2.79-.87,0,0,2.68.61,2.76-1,0,0,2.69.84,3.1-1,0,0,2.67,1.32,3.54-.76a5.23,5.23,0,0,0,3.25-.14Z"
       class="cls-108" />
    <path
       id="path613"
       d="M962.24,284s-6.75,43.57.44,82.3"
       class="cls-111" />
    <path
       id="path615"
       d="M1008,275.3s6.39,56.58,1.92,90.95"
       class="cls-111" />
    <path
       id="path617"
       d="M966.15,274.35s-6.51,8.8-7,17.06c-.36,5.63,4.56,9.59,10.2,9.45,7.2-.17,13.16-3.25,13.15-11.12"
       class="cls-108" />
    <path
       id="path619"
       d="M1008,275.3c2.26,6,11.11,22-1.63,25.61a24.73,24.73,0,0,1-4-.08c-3.46-.25-12.34-2.63-14.47-12.16"
       class="cls-108" />
    <path
       id="path621"
       d="M1008.06,293.83c-.33,1.05-.77,4.06,2.3,5.08a5.45,5.45,0,0,0,2.63-4.38,2.22,2.22,0,0,0-1.43-2.38c-.31-.1-.67-.19-1.07-.28C1009.46,291.63,1008.43,292.68,1008.06,293.83Z"
       class="cls-112" />
    <path
       id="path623"
       d="M1011.51,297s0-2.1,1-1.92c1.23.21,2.31,1,1.9,2.17S1011.67,297.64,1011.51,297Z"
       class="cls-112" />
    <path
       id="path625"
       d="M995.48,183.29s2.38-.63,2.62,1.29c0,0,2.08.2,2.36,1.76,0,0,2.61-.51,2.43,1.26,0,0,2.88.5,2.36,2.74,0,0,2.35,1,1.21,2.88a1.71,1.71,0,0,1,1.42,2.27s1.84.55,1.47,2c0,0,1.44.48.86,1.77,0,0,1.33.55.79,1.71,0,0,2,1.52.47,3.28,0,0,2.41,1.26.81,3a2,2,0,0,1,1.51,1.3,1.54,1.54,0,0,1-.87,1.87c.28.36,1.45,2.19.22,3a1.7,1.7,0,0,1,.5,2.62s1.85,1.61.05,2.8c0,0,1.66,1.59.16,2.46,0,0,2.08,2.38.08,3.4a1.39,1.39,0,0,1-.37,2.22s1.27,1.48-.16,2.31c0,0,2,1.1,0,2.29,0,0,1.51,1.75.06,2.74,0,0,1.13,2.47-.35,2.91,0,0,1.25,1.87-.09,2.84,0,0,.92,1.52-.27,2.09,0,0,1,1.65-.59,2.35,0,0,1.86,2.07.09,3,0,0,1.65,2.55-.21,2.56,0,0,1.54,2.14-.09,2.33,0,0-2.78.74-2.32-2.4a1.79,1.79,0,0,1-.17-2.8s-1.27-1,.28-2.71c0,0-1.55-1.55,0-2.83a1.82,1.82,0,0,1,.42-2.73,1.59,1.59,0,0,1,.59-2.25s-1.18-2.25.8-2.66c0,0-1.83-1.5-.26-2.85,0,0-1.07-1.76.3-2.65,0,0-1.29-.9,0-2.51,0,0-1.54-1.5.08-2.51a1.35,1.35,0,0,1-.17-2.12s-1.55-1.7,0-2.6c0,0-1.86-2,0-2.95a1.41,1.41,0,0,1,0-2.46,1.58,1.58,0,0,1-.6-2.64s-2.34-1.15-.77-3.07c0,0-2.4-1.68-.4-3.23,0,0-2.32-1-.89-2.7a2,2,0,0,1-1.36-2.89,1.48,1.48,0,0,1-1.24-2.23s-2-.2-1.66-1.8a2.17,2.17,0,0,1-1.52-3.23s-3.11.23-3.1-2c0-.38-.5-.49-1-.58a2.65,2.65,0,0,1-1.89-1.46l-.26-1c-2.51.75-2.59-1.43-2.59-1.43-2,.88-3.47-1.09-3.29-1.84C991.39,181.15,994.17,181.56,995.48,183.29Z"
       class="cls-108" />
    <path
       id="path627"
       d="M992,187.44s-1.67-2-3.63-.83c0,0-2.1-1.3-2.86.35,0,0,0,.07,0,.11a3,3,0,0,0-2.82,3.29,1.3,1.3,0,0,0-1.71,1.58s-1.93-.65-2,1.61c0,0-1.94-.19-2,1.6,0,0-1.77-.64-1.48,1.19,0,0-1.85-.56-1.42,1.43,0,0-2.12.35-1.29,1.7,0,0-2.48.19-1.39,1.82,0,0-2.69,1-1.16,2.61a1.69,1.69,0,0,0-1.7,2.26s-2.15.13-1.6,2.73c0,0-3,.83-1.44,2.59l0,.05s-2.15.38-.94,2.06a1.66,1.66,0,0,0-1.31,2.09,2,2,0,0,0-.81,2.7,2.17,2.17,0,0,0-.79,2.88s-1.4.39-.71,2.22a1.73,1.73,0,0,0-.86,2.15s-2,.52-.75,2.52a1.84,1.84,0,0,0-.73,2.71s-1.44,1.26-.58,2.52a2.08,2.08,0,0,0-.72,2.49s-1.74.42-.83,2.3a1.65,1.65,0,0,0-1.05,2.31s-1.71,1.15-.77,2.45c0,0-1.15,1.7-.29,2.23,0,0,2,.75,2-1.22a1.9,1.9,0,0,0,1-2.63,1.63,1.63,0,0,0,1.32-2.37,2.27,2.27,0,0,0,.49-2.85s2.16-.65,1.18-2.5a1.61,1.61,0,0,0,.29-2.3s1.75-1.33.24-2.75a1.53,1.53,0,0,0,.92-2.33s1.85-1.15.91-2.41a2.09,2.09,0,0,0,1.11-2.81s2-.92.84-2.38a1.78,1.78,0,0,0,1.21-2.17s1.55-.52,1-2.61c0,0,1.49-.35.6-2.12,0,0,1.55-.68,1.14-2.07,0,0,1.94-1.08,1.5-2.8,0,0,3.37-.51,1.84-2.65,0,0,2.67,0,1.38-2.41,0,0,3.57-1.08,2.64-3.41a1.88,1.88,0,0,0,1.83-2.05s2.4.14,2-1.68c0,0,2.25.06,2.31-1.68,0,0,2.52.35,2.32-1.71,0,0,2.21,0,2-2a1.36,1.36,0,0,0,1.95-.92s4.23,1.54,3.64-1.06"
       class="cls-108" />
    <path
       id="path629"
       d="M989,187.69a1.62,1.62,0,0,0,.37-3c-1-.47-2.3-.79-3,.33,0,0-3-1.18-3.87,1.23a1.89,1.89,0,0,0-2.61,1.25s-2.68-.54-3.19,1.73c0,0-3.42-.68-3.62,2.31a3.44,3.44,0,0,0-2.77,2.89s-3.49-.08-2.76,3.14c0,0-3.46.2-2.38,3.61,0,0-3,1.8-1.53,4.19,0,0-3.35.76-2.11,3.47,0,0-2.17,1.31-1,2.78,0,0-2,.27-1.1,2.43a1.6,1.6,0,0,0-1.09,2.41,1.37,1.37,0,0,0-.7,2.27,1.51,1.51,0,0,0-1.23,2.4,1.35,1.35,0,0,0-.82,2.06,1.22,1.22,0,0,0-.46,1.79,1.35,1.35,0,0,0-.75,2.05s-2.05.06-1.39,1.71c0,0-1.46,1.18-.46,2,0,0-1,.28-.49,1.6l.09,0s-1.14,1.2-.22,1.51c0,0-1.5,1-.94,2,0,0-1.34,1.3-.7,1.82,0,0-.18.53,1.3.53,0,0,1.48-1.54,1.05-2.37a1,1,0,0,0,.86-1.54,1.31,1.31,0,0,0,.4-1.95s1.66-.74.69-1.67a.9.9,0,0,0,.15-1.45s1.87-.3,1.22-1.71c0,0,1.41-.41.71-2,0,0,1.71-.34.85-1.74,0,0,1.82-.63,1-2.15a1.66,1.66,0,0,0,1-2.42s1.88-.49.93-2.13c0,0,1.88-.89,1.55-2.42,0,0,2-.6.91-2.85a2.39,2.39,0,0,0,1.44-2.43s2.05-.62,1.34-3.24a3.87,3.87,0,0,0,2.22-4.47s3.29-.83,2.49-3.2c0,0,2.76-.88,2.46-2.73,0,0,3-.61,2.73-2.51,0,0,2.69.37,2.9-2.19,0,0,3.08.85,3.75-1.55,0,0,2.74.37,3.21-1.13,0,0,2.08.82,3.07-.57A3.76,3.76,0,0,0,989,187.69Z"
       class="cls-108" />
    <path
       id="path631"
       d="M990,187a1.3,1.3,0,0,1,1.14-.52c1.82-.13,3.14-.1,3.14,1.85,0,0,2.74-.08,2.29,2.14a2.2,2.2,0,0,1,2.69,2.43s3.42.64,2.89,3.42c0,0,3.1,1.8,1.33,4.41,0,0,2.26,1.13.79,3.06,0,0,2,2.27-.2,3.54,0,0,2.51,1.5-.23,4.53a2.83,2.83,0,0,1-.33,4.4s.89,3.15-1.28,4.44c0,0,1.28,2.38-.69,3,0,0,.69,1.66-.58,2.24,0,0,.81,2.51-.66,2.82a1.5,1.5,0,0,1-.25,2.31,1.82,1.82,0,0,1-.93,2.58s1,1.36-.4,2c0,0,.88,1.71-.43,1.9,0,0,.83,1.51-.65,2.08a1.23,1.23,0,0,1-.34,2s.93,1.39-.37,2a1.08,1.08,0,0,1-.58,1.59s.8,1.51-.66,1.78c0,0,.56,1.46-.67,1.7a1.8,1.8,0,0,1-.9,1.74s-1.3-.14-.28-2c0,0-1.15-1.81.81-2.26,0,0-.72-1.68.41-1.59a1.29,1.29,0,0,1,.43-1.9s-.64-1.28.4-1.4c0,0-.56-1.45.43-2,0,0-.72-1.33.35-2,0,0-.93-1.23.21-1.92,0,0-.74-2,.51-2.28,0,0-.83-1.93.64-2.53,0,0-1.14-1.82.53-2.24a2.18,2.18,0,0,1,.56-2.59s-.94-1.86.48-2.54c0,0-.81-2.24.53-2.93,0,0-1.77-2.62.83-4.18a2.8,2.8,0,0,1,.53-4.3s-2.12-2.67.28-4.27c0,0-2.65-1.56-1.32-4.17a2,2,0,0,1,0-2.49s-1.54-1.73-1.1-3.24c0,0-3.45-.5-2-3.29,0,0-3.49.85-3.2-2.32,0,0-3,.29-2.46-2C991.73,190.09,988.73,189.34,990,187Z"
       class="cls-108" />
    <path
       id="path633"
       d="M964.45,293.36c.17,1.75,2.57,2.45,4.26,2.92a1.34,1.34,0,0,0,1.65-.78c.51-1.53-1-3.08-2.11-4.18C968.25,291.32,963.9,287.67,964.45,293.36Z"
       class="cls-113" />
    <path
       id="path635"
       d="M965.62,295.27a2,2,0,0,0-2.46,0,1.51,1.51,0,0,0-.45,2.18c.86.92,2.36,0,3.23-.93a1,1,0,0,0-.32-1.28"
       class="cls-113" />
    <path
       id="path637"
       d="M984.1,209.43a7.3,7.3,0,0,1-.3.79c-.09.21-.46.76-.35.89a.56.56,0,0,0,.95,0"
       class="cls-114" />
    <path
       id="path639"
       d="M976.41,203a2.32,2.32,0,0,0,4,0"
       class="cls-114" />
    <path
       id="path641"
       d="M989.34,202.91a3.5,3.5,0,0,0,4.34.87"
       class="cls-114" />
  </g>
</svg>
