<svg id="Layer_1" data-name="Layer 1" xmlns="http://www.w3.org/2000/svg" viewBox="0 0 556.05 812.91"><defs><style>.cls-1,.cls-100,.cls-103,.cls-106,.cls-108,.cls-112,.cls-114,.cls-117,.cls-13,.cls-15,.cls-16,.cls-19,.cls-22,.cls-24,.cls-29,.cls-33,.cls-37,.cls-4,.cls-43,.cls-44,.cls-48,.cls-5,.cls-51,.cls-53,.cls-54,.cls-59,.cls-61,.cls-64,.cls-65,.cls-68,.cls-72,.cls-73,.cls-78,.cls-8,.cls-84,.cls-87,.cls-89,.cls-90,.cls-95{fill:none;}.cls-1{stroke:#5d7367;}.cls-1,.cls-100,.cls-101,.cls-103,.cls-108,.cls-114,.cls-115,.cls-117,.cls-12,.cls-17,.cls-22,.cls-24,.cls-25,.cls-29,.cls-30,.cls-33,.cls-34,.cls-35,.cls-37,.cls-38,.cls-39,.cls-4,.cls-42,.cls-43,.cls-48,.cls-49,.cls-5,.cls-51,.cls-54,.cls-55,.cls-56,.cls-6,.cls-61,.cls-65,.cls-66,.cls-70,.cls-71,.cls-73,.cls-76,.cls-79,.cls-83,.cls-87,.cls-89,.cls-95,.cls-96{stroke-miterlimit:10;}.cls-2{fill:#5d7367;}.cls-3,.cls-6{fill:#ec828f;}.cls-4,.cls-6{stroke:#ec828f;}.cls-5{stroke:#f18e9a;}.cls-7{fill:#7d5f9d;}.cls-8,.cls-9{stroke:#d998ab;}.cls-106,.cls-107,.cls-110,.cls-112,.cls-113,.cls-13,.cls-19,.cls-20,.cls-41,.cls-44,.cls-45,.cls-53,.cls-59,.cls-62,.cls-64,.cls-72,.cls-74,.cls-75,.cls-77,.cls-78,.cls-8,.cls-81,.cls-82,.cls-84,.cls-85,.cls-86,.cls-9,.cls-90,.cls-91,.cls-92{stroke-linecap:round;}.cls-106,.cls-107,.cls-110,.cls-112,.cls-113,.cls-13,.cls-15,.cls-16,.cls-19,.cls-20,.cls-27,.cls-41,.cls-44,.cls-45,.cls-53,.cls-59,.cls-62,.cls-64,.cls-68,.cls-72,.cls-74,.cls-75,.cls-77,.cls-78,.cls-8,.cls-81,.cls-82,.cls-84,.cls-85,.cls-86,.cls-9,.cls-90,.cls-91,.cls-92{stroke-linejoin:round;}.cls-10,.cls-9{fill:#d998ab;}.cls-11{fill:#8ca75c;}.cls-12{fill:#94b871;stroke:#e47a26;}.cls-13,.cls-15,.cls-16,.cls-17{stroke:#fbe293;}.cls-14,.cls-17{fill:#fbe293;}.cls-15,.cls-82{stroke-width:0.75px;}.cls-18{fill:#798c8b;}.cls-19{stroke:#d1b1c1;}.cls-20,.cls-21{fill:#d1b1c1;}.cls-20{stroke:#d0b1c1;}.cls-22{stroke:#51658d;}.cls-23{fill:#51658d;}.cls-24,.cls-25,.cls-27{stroke:#f39f63;}.cls-25,.cls-26,.cls-27{fill:#f39f63;}.cls-28{fill:#7d4850;}.cls-29,.cls-30{stroke:#d1562d;}.cls-30,.cls-31{fill:#d1562d;}.cls-32{fill:#e0b876;}.cls-33,.cls-34,.cls-35{stroke:#b88869;}.cls-34{fill:#42b38d;}.cls-35,.cls-36{fill:#b88869;}.cls-37,.cls-38,.cls-39{stroke:#d85c53;}.cls-38{fill:#e32b27;}.cls-39{fill:#d85c53;}.cls-40{fill:#cda99e;}.cls-41,.cls-42{fill:#a454a1;}.cls-41,.cls-42,.cls-43,.cls-44{stroke:#956c9b;}.cls-45,.cls-46{fill:#956c9b;}.cls-45{stroke:#956d9b;}.cls-47{fill:#529ea2;}.cls-48,.cls-49{stroke:#ffc84a;}.cls-49,.cls-50{fill:#ffc84a;}.cls-51{stroke:#8c9cb6;}.cls-52,.cls-55{fill:#8c9cb6;}.cls-53,.cls-54,.cls-55,.cls-56{stroke:#f7a3a8;}.cls-56,.cls-57{fill:#f7a3a8;}.cls-58{fill:#dabdba;}.cls-59,.cls-61,.cls-62{stroke:#cd6e69;}.cls-60{fill:#cd6e69;}.cls-62{fill:#ce6e6a;stroke-width:0.5px;}.cls-63{fill:#8b674e;}.cls-64,.cls-65,.cls-66,.cls-68{stroke:#ee956f;}.cls-66,.cls-67{fill:#ee956f;}.cls-69{fill:#f69890;}.cls-70,.cls-75{fill:#f39d1f;}.cls-70,.cls-71,.cls-72,.cls-73,.cls-74,.cls-75,.cls-76{stroke:#f6c154;}.cls-71,.cls-74{fill:#f6c154;}.cls-76{fill:#fff;}.cls-141,.cls-77,.cls-79{fill:#f8d0b8;}.cls-77{stroke:#f7d0b8;}.cls-78,.cls-79{stroke:#f8d0b8;}.cls-80,.cls-81,.cls-82{fill:#ced3c5;}.cls-81,.cls-82,.cls-83,.cls-84,.cls-85{stroke:#8675a4;}.cls-83{fill:#8abee7;}.cls-85,.cls-86{fill:#8676a5;}.cls-86,.cls-87{stroke:#8676a5;}.cls-88,.cls-91{fill:#abcabf;}.cls-89,.cls-90,.cls-91{stroke:#6f998c;}.cls-92,.cls-93{fill:#6f998c;}.cls-92{stroke:#6e998c;}.cls-94{fill:#e8b99f;}.cls-95,.cls-96{stroke:#a0706d;}.cls-96,.cls-97{fill:#a0706d;}.cls-101,.cls-98{fill:#f6d9ce;}.cls-99{fill:#faa74d;}.cls-100,.cls-101{stroke:#f6d9ce;}.cls-102{fill:#6e6b86;}.cls-103{stroke:#8ea451;}.cls-104{fill:#8ea451;}.cls-105{fill:#a77056;}.cls-106,.cls-108,.cls-110{stroke:#ed6e60;}.cls-107{fill:#ed6d60;stroke:#ed6c60;}.cls-109,.cls-110{fill:#ed6e60;}.cls-110{stroke-width:0.25px;}.cls-111{fill:#5c6d3e;}.cls-112,.cls-113,.cls-117{stroke:#c6c9a8;}.cls-113,.cls-115,.cls-116{fill:#c6c9a8;}.cls-114{stroke:#d3d9ab;}.cls-115{stroke:#c5c9a7;}.cls-118,.cls-133{font-size:26.57px;fill:#994472;}.cls-118{font-family:Karla-Bold, Karla;font-weight:700;letter-spacing:-0.02em;}.cls-119{letter-spacing:0em;}.cls-120{letter-spacing:0.01em;}.cls-121{letter-spacing:0em;}.cls-122{letter-spacing:0em;}.cls-123{letter-spacing:-0.01em;}.cls-124{letter-spacing:0.01em;}.cls-125{letter-spacing:0.03em;}.cls-126{letter-spacing:0.01em;}.cls-127{letter-spacing:0em;}.cls-128{letter-spacing:0em;}.cls-129{letter-spacing:0.02em;}.cls-130{letter-spacing:0.01em;}.cls-131{letter-spacing:0em;}.cls-132{letter-spacing:0.03em;}.cls-133{font-family:Timeless-Normal, Timeless;letter-spacing:0.09em;}.cls-134{letter-spacing:0.1em;}.cls-135{letter-spacing:0.08em;}.cls-136{letter-spacing:0.11em;}.cls-137{letter-spacing:0.12em;}.cls-138{letter-spacing:0.09em;}.cls-139{letter-spacing:0.1em;}.cls-140{letter-spacing:0.11em;}</style></defs><title>donnine</title><path class="cls-1" d="M127.06,265.17" transform="translate(-15.2 -23.51)"/><path class="cls-2" d="M125,266c-4.79-8.12-5.6-26.61-5.67-32.74-.63-10.38.17-31.36.27-40.4.07-6.65-1.62-19.56,4.23-31l9.45-14.84a49.32,49.32,0,0,1,3.3-4.81c7.87-10.06,8.77-17.26,9.79-29.05C147.94,95.4,154,80,161.49,77.69c0,0,11.94-15.19,21.93,4.58,0,0,12.48,60.12,20.6,70.94,0,0,10.19,18.72,11,38.07s1.08,66.37-1.87,75.1c-1.38,4.49-3.42,6.19-7.05,8s-7.79,2.33-11.86,2.6c-18.48,1.22-28.91,3.45-47.22.69-5.58-.84-18.88-6.09-22.29-12.16" transform="translate(-15.2 -23.51)"/><path class="cls-3" d="M130.55,120A190.85,190.85,0,0,1,142,93c2.69-5.08,7-13.91,9.37-17.61,0,0,5.89-13.33,24.1-10.77,6.56.92,13,9.07,14.94,14.28,4,10.65,6.36,13.48,6.89,23.24a32.21,32.21,0,0,0,3,11.11c7.34,14,12.17,21.62,14.42,27.91a25.11,25.11,0,0,1-.49,17.15c-4.94,8.24-15.67,11.12-21.92,3.53a30.85,30.85,0,0,1-2.57-3.67A14.57,14.57,0,0,1,188,154c-1.09-4.57,2.79-6.32,2.38-8.81s-5-2.79-6.87-4.28c-6.37-5-6.69-16.11-1.38-40.32a5.64,5.64,0,0,0-2.51-6,21.51,21.51,0,0,1-10.5-18.42s-.92,9-8.15,11.22c0,0-6.37,1.77-8.44,8.18-.43,1.33-1.85,12.75-.28,28.41.31,3.13,1.9,12.82,7,18.24,6.32,6.72,11.27,11.66,8.58,15.63-7,10.3-26.54,7.2-31.61,3.53C128.63,155.91,120.6,144.31,130.55,120Z" transform="translate(-15.2 -23.51)"/><path class="cls-4" d="M156.6,97.26s3.15,2,5.69-.25" transform="translate(-15.2 -23.51)"/><path class="cls-4" d="M171.11,97c.16.06,2.12,1.6,5.87,0" transform="translate(-15.2 -23.51)"/><path class="cls-3" d="M166.86,115.22s1.78-2.21,2.13,0c0,0,0,1.23-2.13,2.49,0,0-2.77,0-2.61-1.74C164.25,116,164.25,114,166.86,115.22Z" transform="translate(-15.2 -23.51)"/><ellipse class="cls-3" cx="151.42" cy="82.06" rx="0.72" ry="1.17"/><path class="cls-5" d="M195.28,188.41a25.88,25.88,0,0,0,4.46,13.17,13.51,13.51,0,0,1,2.2,6c.54,5.11-.06,13.72-9.31,16.85a14.25,14.25,0,0,1-15.45-6.21" transform="translate(-15.2 -23.51)"/><path class="cls-4" d="M197.15,222.65s3,27.64.78,43.38" transform="translate(-15.2 -23.51)"/><path class="cls-5" d="M197.15,218.83s-9.21,4.52-6.09-4.91c0,0,4.76-7.49,9.28-4C200.35,209.94,203.47,214.23,197.15,218.83Z" transform="translate(-15.2 -23.51)"/><path class="cls-6" d="M196,214.38s-2,.39-.55,1.64a19.39,19.39,0,0,0,2.65.62s1.48-.71.39-1.56C198.48,215.08,196.73,214.09,196,214.38Z" transform="translate(-15.2 -23.51)"/><path class="cls-4" d="M142.18,189.28c2.19,3.77,1.07,8.52-.25,12.68s-2.79,8.71-1.13,12.74,6.09,6.33,10.38,7.27c6.14,1.34,13.46.2,17.06-5" transform="translate(-15.2 -23.51)"/><path class="cls-4" d="M140.8,213.83A479,479,0,0,0,144.4,265" transform="translate(-15.2 -23.51)"/><path class="cls-5" d="M144.52,210.44a6.37,6.37,0,0,0,1.82,4.62,6.76,6.76,0,0,0,4.27,2.58,2.84,2.84,0,0,0,2.38-.58,2.46,2.46,0,0,0,.59-1c.7-2-.54-4.23-2-5.86a8.4,8.4,0,0,0-2.43-2,3.78,3.78,0,0,0-3.09-.25C145.11,208.33,144.84,209,144.52,210.44Z" transform="translate(-15.2 -23.51)"/><path class="cls-6" d="M147.78,212.65a5,5,0,0,0-2.07,3.68,1.93,1.93,0,0,0,.17,1.08,1.62,1.62,0,0,0,2.23.37,4.15,4.15,0,0,0,1.43-2,4.78,4.78,0,0,0,.42-1.52,1.87,1.87,0,0,0-.49-1.45,1.18,1.18,0,0,0-1.45-.18Z" transform="translate(-15.2 -23.51)"/><path class="cls-7" d="M23.32,268.18c1,3.68,2,7.48,4.39,10.45,3.6,4.49,9.57,6.24,15.21,7.39,28.13,5.72,64.87,5.25,86.2-10a5.82,5.82,0,0,0,2.11-2.85c8.2-23.86.29-104.52.29-104.52-.11-15.48-22.68-41.52-22.68-41.52-8.35-12.22-7.71-19.27-7.71-19.27,15-.61,12.78-35.29,12.78-35.29C104.37,72.17,100,60.21,100,60.21c-9.54,7.55-16.39,9.9-16.39,9.9C86.59,105.33,68,118,59.73,126.7c-4.5,4.73-5.42,5.68-6.35,6.89C13.31,185.84,23.32,268.18,23.32,268.18Z" transform="translate(-15.2 -23.51)"/><path class="cls-8" d="M55.58,157.35S49.56,189.3,47,211c0,0-5.73,47.6-2.08,62.81" transform="translate(-15.2 -23.51)"/><path class="cls-8" d="M61.07,158.57S58.79,168.76,56.81,173a96.93,96.93,0,0,1-3.65,9.13s-5,13.23-3.51,17.34h0A15.8,15.8,0,0,0,52.35,205a6.94,6.94,0,0,0,6.34,2.44c4.91-.64,14.63-4.89,21.55-27" transform="translate(-15.2 -23.51)"/><path class="cls-8" d="M81.68,185.64s2.82,10,4.34,19c0,0,2.43,18.6,17,15.86,0,0,11.44-2.1,8.17-35.51a186,186,0,0,1-1.13-18.69" transform="translate(-15.2 -23.51)"/><path class="cls-9" d="M50,200.34s4.59-1.46,1.84,3.85Z" transform="translate(-15.2 -23.51)"/><path class="cls-9" d="M103.05,220.47s0-4.72,4.54-4.87C107.59,215.6,107.16,218.49,103.05,220.47Z" transform="translate(-15.2 -23.51)"/><ellipse class="cls-10" cx="50.56" cy="202.89" rx="1.52" ry="0.9" transform="translate(-152.94 88.49) rotate(-50.24)"/><ellipse class="cls-10" cx="91.12" cy="195.44" rx="1.08" ry="1.06"/><path class="cls-8" d="M93.32,76.58s3.65,1.52,6.08,0" transform="translate(-15.2 -23.51)"/><path class="cls-8" d="M103.05,94.38s.58.15,2.27-1.06" transform="translate(-15.2 -23.51)"/><path class="cls-10" d="M85.51,71.57a1.25,1.25,0,0,0,0,.81c2.29,9.86-.25,29.23-7.75,31.85,0,0-2.77,0-4.19-3.86,0,0-15.81-42,10.55-50.29,0,0,20.28-7.91,29.2,10.55,0,0,2.34,7.71.72,13,0,0-14.61,1.44-14-13.18C100,60.41,95.2,73.39,85.51,71.57Z" transform="translate(-15.2 -23.51)"/><path class="cls-8" d="M108.75,76a7,7,0,0,0,5.21-.13" transform="translate(-15.2 -23.51)"/><path class="cls-8" d="M113.16,178.28s2.64,80.77-1.94,94.92" transform="translate(-15.2 -23.51)"/><path class="cls-8" d="M105,80.81l.12,1.74a2.55,2.55,0,0,1-.15,1.35.88.88,0,0,1-1.15.44" transform="translate(-15.2 -23.51)"/><path class="cls-11" d="M33.49,426.28c.94,3.22,4.17,5.4,6.71,7,3.85,2.37,8.44,3.14,12.91,3.77,12.27,1.7,24.86,2.59,37,0S118,422,122,416.4s2.66-47.53,2.66-47.53c.19-36.64-3.28-47.89-8.34-57.07-4.61-8.35-18.49-17.25-18.49-17.25-6.19-2.82,1-14.78,1-14.78,7.77-1,1.73-12.41,1.73-12.41s5.09-4.38,5.78-6.7c1.66-5.63-1.44-13.93-1.44-13.93-4,1.79-9.27,0-9.27,0a45.17,45.17,0,0,1-9.41-12.87L68.83,242.5c3,4,5.34,12.71,5.34,12.71a27.24,27.24,0,0,0-.78,5.46,5.66,5.66,0,0,1-1.61,3.38c-1.78,4.93-1.87,6.3-1.87,6.3-.75,7.17-1.26,13-1.26,13-2.39,3.74-10.19,5.35-10.19,5.35-26.86,6.8-31,27.39-31,27.39-12.23,57.24,6.28,111,6.28,111" transform="translate(-15.2 -23.51)"/><path class="cls-12" d="M33.78,427.17" transform="translate(-15.2 -23.51)"/><path class="cls-13" d="M50,311.81S34.85,359.35,46.1,418.47" transform="translate(-15.2 -23.51)"/><path class="cls-13" d="M101.38,331s5.38,62.36,1.91,81.65" transform="translate(-15.2 -23.51)"/><path class="cls-13" d="M50,311.81s-2.7,22.18,2.74,34.47c5.11,11.55,19.48,7.6,22.24-13.09" transform="translate(-15.2 -23.51)"/><path class="cls-13" d="M99.33,316.43s8.74,37.45-8.54,39c0,0-13.39,0-13.39-24.45" transform="translate(-15.2 -23.51)"/><path class="cls-13" d="M56.07,346.94c-1.58-1.58-2.68-3.66-.61-5.57a5.15,5.15,0,0,1,7.67,1,3.54,3.54,0,0,1,.32,3.84C62,348.89,58.24,349.11,56.07,346.94Z" transform="translate(-15.2 -23.51)"/><path class="cls-13" d="M90.11,350s-3.49-.06-4.17-3.38c-.47-2.32-.47-5.11,3.64-5.11C95.24,341.46,95.24,348.41,90.11,350Z" transform="translate(-15.2 -23.51)"/><path class="cls-14" d="M59.88,344.6a4.86,4.86,0,0,1,0,2.54c-.11,1.17-.13,2.69-1.41,3-1.75.24-1.67-1-1.63-2C57,344,58.82,342.6,59.88,344.6Z" transform="translate(-15.2 -23.51)"/><path class="cls-14" d="M91.87,350c-.05.71,0,1.86-.9,2a2.05,2.05,0,0,1-2.5-1.37c-.34-1,.31-4,.88-4.91,0,0,.77-2,1.92-.51C92,346.09,91.9,349.61,91.87,350Z" transform="translate(-15.2 -23.51)"/><path class="cls-15" d="M80.76,259.43c.65,1.56,3.44,1.56,3.94.84" transform="translate(-15.2 -23.51)"/><path class="cls-15" d="M92.05,261.4a2.71,2.71,0,0,0,3.91.52" transform="translate(-15.2 -23.51)"/><path class="cls-15" d="M83.59,275.59a2.42,2.42,0,0,0,3.16.32" transform="translate(-15.2 -23.51)"/><path class="cls-16" d="M87.89,267.24a1.82,1.82,0,0,1-.18,1.11" transform="translate(-15.2 -23.51)"/><path class="cls-17" d="M89.62,252.19c2.37.18,10.52,0,11.55-2.16-3.25,11.06-.51,11.11-1.2,17.35a19,19,0,0,1-.88,4.72c-.39,1-3.18,7.6-3.12,11.11.15,8.64-3,8.76-8.19,15.67a5.53,5.53,0,0,0-1.34,2.48c-.34,2.7,3.5,3.79,6.16,3.21s5.86-1.62,7.78.31a13.75,13.75,0,0,1,1.76,3.16c.6,1.06,1.79,2,2.93,1.61a3.29,3.29,0,0,0,1.36-1.17c2.06-2.57,3.92-.93,5.39-2.44,10-10.33-4.51-48.31-4.22-51,2.23-20.35-26.56-31.71-38.76-15.66-6.69,8.8-6,18.81-6.69,26.91-.28,3.15-5.67,7.95-6.56,11-1.8,6.11-4.05,7.37-5.57,13.55a11.34,11.34,0,0,1,5.11-1.05c1.74.19,3.5,1.47,3.61,3.22.12,2-1.77,3.51-2.15,5.44-.54,2.71,2.18,5.2,4.94,5.47s5.4-1,7.87-2.25A14.1,14.1,0,0,0,77,288.52c-.09-5.6-9.34-11-5.76-15.31a13.44,13.44,0,0,0,2.86-10.74c-.36-3.55,1-6,.9-9.55-.15-6.37-1.47-6.61,2.68-4.4C77.65,248.51,83.78,251.74,89.62,252.19Z" transform="translate(-15.2 -23.51)"/><path class="cls-18" d="M22.77,543.22c.39-16.18,3.55-35,3.45-52.58-.15-26.71,7.39-35.52,18.43-42.4,8.53-5.32,12.28-9.42,25.88-16.84,11.29-6.16,15.2-13.19,13.54-16.3-4.9-9.18-12.61-29.34-.61-42.58,2.25-2.48,9.29-4.08,11.26-4.21a17.48,17.48,0,0,1,18.14,14.47c.17,1,.31,1.92.39,2.81,0,0,3.79,22.49-6.66,30.71-7.3,5.74-.38,15,4.31,20,3.77,4,6.75,6.29,9.69,9.49,7.92,8.63,19.61,21.13,20.34,30.27C144,514.65,148.5,554,142.48,579c-4.22,17.51-27.28,19.17-62.43,19.17L42,596.43c-9.7-1.87-13.82-5.74-15.77-9.62C22.31,579,22.19,567.32,22.77,543.22Z" transform="translate(-15.2 -23.51)"/><path class="cls-19" d="M47,487s-.76,91.45-2.38,107.47" transform="translate(-15.2 -23.51)"/><path class="cls-19" d="M47,495.33s-.24,25.21,15.36,31.9c0,0,13.47,7.11,22.23-16.22" transform="translate(-15.2 -23.51)"/><path class="cls-19" d="M70.5,518.1c.27-3.59-1.29-6.77-3.44-7s-5.42,2.07-5.77,5.65,1.1,6.75,3.26,6.87S70.27,521.13,70.5,518.1Z" transform="translate(-15.2 -23.51)"/><ellipse class="cls-20" cx="50.65" cy="494.83" rx="0.89" ry="1.58"/><path class="cls-19" d="M93,392.95s1.32,1.85,3.45,0" transform="translate(-15.2 -23.51)"/><path class="cls-19" d="M104.54,393.58a2.7,2.7,0,0,0,3.6,0" transform="translate(-15.2 -23.51)"/><path class="cls-19" d="M95.67,412.25s2.7,1.1,3.55-.44" transform="translate(-15.2 -23.51)"/><path class="cls-19" d="M100.78,401c.09,1.31,1.15,1.59.63,2.6a2.31,2.31,0,0,1-1.68.57" transform="translate(-15.2 -23.51)"/><path class="cls-20" d="M108.82,516.48c-.52.06-1,.75-1.15,1.25a4.34,4.34,0,0,0-.17,1.56,1.55,1.55,0,0,0,.16.82,1,1,0,0,0,1.15.32,2,2,0,0,0,1-.84,4.24,4.24,0,0,0,.67-1.91,1.27,1.27,0,0,0-.05-.6c-.26-.64-.73-.72-1.57-.61" transform="translate(-15.2 -23.51)"/><path class="cls-19" d="M107.86,514.14a9.07,9.07,0,0,0-2.61,3.74,4.81,4.81,0,0,0-.33,2.41,3.25,3.25,0,0,0,5.08,2.13,5,5,0,0,0,.79-.72,10.39,10.39,0,0,0,2.57-5.3,3.57,3.57,0,0,0-.13-2,2.63,2.63,0,0,0-2.62-1.4,4.21,4.21,0,0,0-2.76,1.17" transform="translate(-15.2 -23.51)"/><path class="cls-19" d="M123.23,485.19q2.15,54.25,1.5,108.56" transform="translate(-15.2 -23.51)"/><path class="cls-19" d="M85.64,511.57a18.91,18.91,0,0,0,7.65,13.3,19.87,19.87,0,0,0,18,3.39c8.17-2.53,9.7-8.33,11.2-14.33.93-3.76,1.19-11.66,1.19-15.59" transform="translate(-15.2 -23.51)"/><path class="cls-21" d="M81.68,393.94c-.72-5.13,1.33-6.45,2.55-6.38,4.15.22-.83-.06,0,0a89.11,89.11,0,0,0,27.19-2.08,1.28,1.28,0,0,1,1,.06,1.26,1.26,0,0,1,.38.69,27.76,27.76,0,0,1,1.07,7.72,59.45,59.45,0,0,1-.72,9.54,23.85,23.85,0,0,1-3.63,9.6c-1.65,2.84-5.75,4.61-6,7.89-.09,1.13,1.51,2.75,2.51,3.3a9.91,9.91,0,0,0,2.54.75c2.18.26,2.18.26,3.55.36a6.94,6.94,0,0,0,3-.48c2-1,2.46-3.84,2.73-6.33.85-7.86,1.49-15.81.49-23.66s-3.76-15.64-9-21.55a13.19,13.19,0,0,0-3.08-2.82c-4.86-2.82-11.5-2.82-17.62-1a19.06,19.06,0,0,0-6,3,18.09,18.09,0,0,0-4.37,4.4c-1.72,2.32-2.58,5.93-3.19,9.23a80.45,80.45,0,0,0-.88,8.57c-.33,3.77-.62,6.18-.94,9.95-.36,4.24-2.9,8.83-.92,14.19.62,1.68,2.39,2.22,3.24,2.55a13,13,0,0,0,6.7.54c3.49-.43,6.13-1.39,6.13-4.52C88.38,407.71,82.58,400.38,81.68,393.94Z" transform="translate(-15.2 -23.51)"/><path class="cls-22" d="M450,271.15" transform="translate(-15.2 -23.51)"/><path class="cls-22" d="M455,260.22" transform="translate(-15.2 -23.51)"/><path class="cls-23" d="M450.57,271.15c8.9,19.49,36.57,15.51,71.44,11.05a104.53,104.53,0,0,0,14.86-3,37.06,37.06,0,0,0,26.86-32.67c2-24.16-1.55-55.86-1.55-55.86.61-34.2-19.25-52.63-19.25-52.63-5.73-7.37-10.88-39-10.88-39-.51-46.9-24.58-40-24.58-40-19.08.41-27.41,71.74-27.41,71.74-11.88,5-23.14,28.41-23.14,28.41-9.83,20.69-6.35,112-6.35,112" transform="translate(-15.2 -23.51)"/><path class="cls-24" d="M470.33,178.68s-.92,77.31,1,91" transform="translate(-15.2 -23.51)"/><path class="cls-24" d="M544,176.32s5.12,77.72,0,92.88" transform="translate(-15.2 -23.51)"/><path class="cls-24" d="M476.17,174.09s-6.45,41.45,11.78,39.92c0,0,9.75,2.46,19.21-13" transform="translate(-15.2 -23.51)"/><path class="cls-24" d="M516,201.31s19-5.84,21.08-17.31" transform="translate(-15.2 -23.51)"/><path class="cls-24" d="M517.23,198.34s1.47,3.48,1.76,4.71" transform="translate(-15.2 -23.51)"/><path class="cls-24" d="M518.84,197.91s1.82,2.46,1.66,3.94" transform="translate(-15.2 -23.51)"/><path class="cls-24" d="M521.38,196.86a4.14,4.14,0,0,1,1.92,3" transform="translate(-15.2 -23.51)"/><path class="cls-24" d="M523.84,195.65s2.74,1.66,2.18,3.71" transform="translate(-15.2 -23.51)"/><path class="cls-24" d="M526.22,194.65s2.25.9,2,2.74" transform="translate(-15.2 -23.51)"/><path class="cls-24" d="M529,192.84" transform="translate(-15.2 -23.51)"/><path class="cls-24" d="M528.21,193.71s1.79.77,1.61,2.32" transform="translate(-15.2 -23.51)"/><path class="cls-24" d="M529.84,192.07s2.47.23,2.19,2.25" transform="translate(-15.2 -23.51)"/><path class="cls-24" d="M531.08,190.51s2.94.08,2.3,2" transform="translate(-15.2 -23.51)"/><path class="cls-24" d="M533.08,188.74s3.28.05,2.59,1.77" transform="translate(-15.2 -23.51)"/><path class="cls-24" d="M534.42,187.05s2.93-.74,3,.69" transform="translate(-15.2 -23.51)"/><path class="cls-24" d="M535.76,184.7s1.9-.44,2,.64" transform="translate(-15.2 -23.51)"/><path class="cls-25" d="M481.62,209s-7.3-6.14-1.89-6c0,0,8.06,7.17,3.48,7.14C483.21,210.19,482.57,210.6,481.62,209Z" transform="translate(-15.2 -23.51)"/><path class="cls-26" d="M477.12,209.3s1.25-2.58,2-2.66c0,0,2.52,1.57,1.82,2.58l-.07.09c-.92,1-.62,1.71-2.91,1.66C478,211,476.58,211.07,477.12,209.3Z" transform="translate(-15.2 -23.51)"/><path class="cls-24" d="M500.46,90.1a4,4,0,0,0,5.45-.28" transform="translate(-15.2 -23.51)"/><path class="cls-24" d="M514.8,89.72s2.88,2.46,5.76.1" transform="translate(-15.2 -23.51)"/><path class="cls-24" d="M507.22,110.89s2.39,1.85,4.35-.29" transform="translate(-15.2 -23.51)"/><path class="cls-24" d="M517.31,118.6" transform="translate(-15.2 -23.51)"/><path class="cls-24" d="M523.15,113.19" transform="translate(-15.2 -23.51)"/><path class="cls-27" d="M508.78,101c0,.3-.07.54-.17.54s-.17-.24-.17-.54a7.44,7.44,0,0,1,.33-1.78A11.48,11.48,0,0,1,508.78,101Z" transform="translate(-15.2 -23.51)"/><path class="cls-26" d="M463,149.29a13.88,13.88,0,0,1,.48-11.59,22.73,22.73,0,0,1,1.26-2.14c4.51-6.76,6.35-9.35,8.81-16.25,0,0,2.59-4.78,4.23-14.81A248,248,0,0,1,487,74.2s7-21,27.84-20c0,0,17.48,4.53,18.28,27,0,0,7.79,28.38,7.29,40.57,0,0,6.48,22,0,27.55a9.49,9.49,0,0,1-4.24,2.25,28.21,28.21,0,0,0-.14-8.6s-10-3.16-11.28-12.23a420.55,420.55,0,0,1,3.49-43s-17.94-2.89-18.46-24.19c0,0-11.6,24.14-16.72,26,0,0,7.51,60.65-7.45,60.24,0,0-5.53-1.23-5.53-17.82,0,0-2.25-.82-6.76,4.1C473.3,136,463.16,146,463,149.29Z" transform="translate(-15.2 -23.51)"/><path class="cls-28" d="M366.07,278.75c8.57,11,25.17,12.36,38,13a189.68,189.68,0,0,0,30.48-.95c5.38-.61,10.9-1.47,15.56-4.23,3.76-2.23,7-3,8.77-7h0S464.78,175,438.1,151.81c0,0-19.35-15.88-16.09-32.58,0,0,8.23-34.67-4.81-48.32,0,0-13.52-17.26-24.31,3.72a37.78,37.78,0,0,0-4.28,24.81,7.6,7.6,0,0,1,.12,1.93,26.3,26.3,0,0,0,6.84,19,7.81,7.81,0,0,1,1.78,3.58,16.9,16.9,0,0,1-1.6,11.33s-10.59,16.29-16.7,22c0,0-12,11-12.83,34.62v87.66" transform="translate(-15.2 -23.51)"/><path class="cls-28" d="M366.22,279.58" transform="translate(-15.2 -23.51)"/><path class="cls-29" d="M385.26,218.57s-3.51,58.22-1.53,60.31" transform="translate(-15.2 -23.51)"/><path class="cls-29" d="M438,198s16.19,14.66,11.61,17.72c0,0-15.73,11.46-32.61-9.77" transform="translate(-15.2 -23.51)"/><path class="cls-29" d="M411.53,199.66s2.14,10.63-9,17.1c0,0-10.39,7.91-22.53-5a26.59,26.59,0,0,1,0-4.46s1.3-2.75,5.88-2.6a4.66,4.66,0,0,0,2.29-2.25s-1.37-6.67,0-8.16" transform="translate(-15.2 -23.51)"/><ellipse class="cls-30" cx="363.03" cy="184.93" rx="1.46" ry="0.92"/><ellipse class="cls-30" cx="383.12" cy="83.7" rx="0.54" ry="0.77"/><path class="cls-29" d="M401.37,94s-.85,1.86,0,2.31" transform="translate(-15.2 -23.51)"/><path class="cls-29" d="M399.77,87.45a3.11,3.11,0,0,1-4-1.53" transform="translate(-15.2 -23.51)"/><path class="cls-29" d="M412.75,89.46s-3.05.13-4.27-2" transform="translate(-15.2 -23.51)"/><path class="cls-31" d="M424.49,93.47s.55-22.26-1.27-31.14c0,0-8.54-38.62-11.6-38.82h-9s-9.71,40.92-1.55,42.2C410.61,65.09,422.67,70.43,424.49,93.47Z" transform="translate(-15.2 -23.51)"/><path class="cls-29" d="M441.21,221.1s-2.15,53.48-3.66,57.52" transform="translate(-15.2 -23.51)"/><ellipse class="cls-30" cx="436.93" cy="190.56" rx="1.3" ry="0.69"/><path class="cls-32" d="M287,197c.46,12.38,0,24.86,0,37.25,0,10.06,1.75,46.8-4.53,49.92-20.1,10-40.44,11.06-61.09,8.65-15-1.75-29.22-6.58-29.72-22.8-.37-12.12-.3-24.26.32-36.37,1.15-22.54,1.82-59.29,21.21-75,0,0,19.62-17.18,19.62-34.5,0,0-16.77-26.74,0-42.38,0,0,16.3-16.64,29.57,2.38,0,0,6.17,8.06,4,23.9,0,0-2.9,19.06-11.73,21.66,0,0-1.89,6,2.09,13.17,0,0,10.87,15.58,17.15,21C273.83,163.87,286.17,174.38,287,197Z" transform="translate(-15.2 -23.51)"/><path class="cls-33" d="M267.45,220.23s4,48.19,0,58.47" transform="translate(-15.2 -23.51)"/><path class="cls-33" d="M213.34,202.81s-16.62,14-11.92,16.94c0,0,16.15,11,33.48-9.35" transform="translate(-15.2 -23.51)"/><path class="cls-33" d="M240.48,204.36s-2.2,10.16,9.25,16.35c0,0,10.67,7.56,23.13-4.73a23.67,23.67,0,0,0,0-4.26s-1.33-2.63-6-2.48a4.69,4.69,0,0,1-2.35-2.15s1.41-6.37,0-7.81" transform="translate(-15.2 -23.51)"/><ellipse class="cls-34" cx="257.77" cy="189.24" rx="1.5" ry="0.88"/><ellipse class="cls-35" cx="238.85" cy="92.47" rx="0.55" ry="0.74"/><path class="cls-33" d="M253.49,116.71" transform="translate(-15.2 -23.51)"/><path class="cls-33" d="M250.91,103.37s.87,1.78,0,2.2" transform="translate(-15.2 -23.51)"/><path class="cls-33" d="M252.55,97.09s2.84,1,4.09-1.46" transform="translate(-15.2 -23.51)"/><path class="cls-33" d="M239.23,99s3.13.12,4.39-1.92" transform="translate(-15.2 -23.51)"/><path class="cls-36" d="M230,117.71c-2.71-6.25-3.13-11.66-2.86-17.53.36-7.75,1.2-10.92,5.72-16.55a14.67,14.67,0,0,1,12.18-5.35c6.22.16,11.56,3.05,14.15,7.65,5.28,9.36,7.89,16.65,5.39,29.36-.38,2,3.64-2.85,3.92-6.17s-.77-4.44-.77-4.44c5.28,3.33,8.69-5.21,2.61-8,1-.37,5.65.92,7.71-2.31,3.81-6-5.67-7.45-5.49-7.57,1.25-.82,3.84.91,4.15-2.69.6-7-6.14-4.67-7.28-4.1,1.28-1.19,2.9-2.11,3.5-3.68.32-.83,1.84-2.4-.25-4.73s-5.89.28-7.16,1.51a3.73,3.73,0,0,0,1-5.06,5.44,5.44,0,0,0-5.26-2.15,7.17,7.17,0,0,0-4.84,3.15c1.63-1.75,2-4.26,1-5.81a5.51,5.51,0,0,0-5.1-2.14c-1.92.2-5.51,2.3-4.9,4-1-2.19-.9-4.66-3-6.44-1.92-1.63-5.29-1.11-7.53.06s-5.16,4.51-4.18,6.72c-2.8-7.49-16-4.32-10.06,4.33-4.12-3.13-11-3.13-11.95,5.2-.16,1.46,1.94,4.51,3.28,5.28-1.13-.91-2.76-.43-4.2-.15-2.35.47-3.9,3-4.06,5.8-.18,3.33,4.59,6.52,5.56,5.27-4.46-.22-6.77,2.65-7,5.84s3.45,6.23,6.69,5.19a8.53,8.53,0,0,0-5.45,5.13,6,6,0,0,0,2.17,6.73,5.82,5.82,0,0,0,7.27-.57,10,10,0,0,0-6,6.92,5,5,0,0,0,.11,2.95c.75,1.86,3.09,2.86,5.21,2.65a9.34,9.34,0,0,0,5.45-2.86,13.84,13.84,0,0,0-1.47,4.36,8.56,8.56,0,0,0,1.31,5.86A3.9,3.9,0,0,0,221.5,135c4.86,2.11,7.49.62,9-1.32,2.84-3.77,2.58-6.84,2.36-9.57Z" transform="translate(-15.2 -23.51)"/><path class="cls-33" d="M207.6,222.24s-.5,51.22,1.38,55.46" transform="translate(-15.2 -23.51)"/><ellipse class="cls-35" cx="184.37" cy="193.39" rx="1.33" ry="0.66"/><path class="cls-26" d="M151.73,298.6a60.2,60.2,0,0,0,14.79-24c2.2-6.74,3.22-13.89,6.25-20.3s8.78-12.23,15.86-12.56c8.26-.38,15.12,6.82,18,14.56s3.11,16.21,5.08,24.24a55.7,55.7,0,0,0,12.91,24.16c5.28,5.78,11.76,10.4,16.81,16.38,7.24,8.57,11.16,19.42,14.13,30.24,7,25.63,9.46,53,3.07,78.81-2.26,9.14-15,22.16-22.72,25.43-16.95,7.19-39.07,8.77-57.48,8.76-14.27,0-39-5.41-48.22-16.28-3-3.58-7.2-18.79-8.54-25-2.56-12-.16-48.74-.87-57.71-2.1-26.68,11.6-54,34.24-68.3" transform="translate(-15.2 -23.51)"/><path class="cls-37" d="M156,324.3s-12,35.05-5.55,112" transform="translate(-15.2 -23.51)"/><path class="cls-37" d="M217.24,320.52s13.8,17,8.91,111.45" transform="translate(-15.2 -23.51)"/><path class="cls-37" d="M153.29,335.42s-10.31,37.09,14.22,39c0,0,20.6,0,22.1-17.49,0,0,3.91,19.28,21.9,17.48,0,0,21.21-7.11,10.44-41.26" transform="translate(-15.2 -23.51)"/><ellipse class="cls-38" cx="152.59" cy="327.24" rx="1.15" ry="1.74"/><ellipse class="cls-38" cx="200.61" cy="332.62" rx="0.86" ry="1.95"/><path class="cls-37" d="M187.55,262.45" transform="translate(-15.2 -23.51)"/><path class="cls-37" d="M189.6,262.45" transform="translate(-15.2 -23.51)"/><path class="cls-39" d="M166.63,292s6.29,12.24-8.82,14.82c0,0-15.33.37-11.33-12.34a10.18,10.18,0,0,1-3.88-6.82c-1.09-8.95,5.59-8.13,4.44-9.94-6.23-9.77,6.11-13,4.1-13.85S145.7,251.44,157,252c0,0-4.71-14.09,8.84-14.09,0,0,2-13.13,12.44-7,0,0,4.42-9.62,11.34-2.76,0,0,6.57-5.44,10,1.57,0,0,8.69-.09,8,8.24,0,0,7.83,2.82,3.83,9.17,0,0,7.05,2.81,4.22,6.62-1.63,2.2,4.12-.43,3.07,6.83,0,0,5.29,1.9,2.18,6.08,0,0,4.76.84,4.15,6.56a2.21,2.21,0,0,1-2.19,3s8.24,2.55,4.4,8.64c0,0,4.62-.24,6.21,3.84,0,0,6.9,10.33-6.21,14,0,0-5,11-15.23,1.75,0,0-12.52-3.13-4.44-13.63,0,0-8-3.22-2.38-18.42,0,0-5.57-3.11-3.08-9.89,0,0,1.51-2.38-2.52-10.43,0,0-3-12.86-13-7.68,0,0-7.67-3.34-8.38,5.63a5.45,5.45,0,0,0-3.92,3.48,6.4,6.4,0,0,0,.33,5.4c1.43,2.68,3.12,7.75-1.66,11.51,0,0,.62,4.77,1.37,9.95C175.31,287.27,170.89,291.14,166.63,292Z" transform="translate(-15.2 -23.51)"/><path class="cls-37" d="M175.76,259a8.53,8.53,0,0,0,7.33.39" transform="translate(-15.2 -23.51)"/><path class="cls-37" d="M192.11,259.8a4.68,4.68,0,0,0,3.66.86,14.12,14.12,0,0,0,3.65-1.27" transform="translate(-15.2 -23.51)"/><path class="cls-37" d="M183.09,278.73a3,3,0,0,0,4.51-.15" transform="translate(-15.2 -23.51)"/><path class="cls-37" d="M187.14,266.82l-.18,1.66" transform="translate(-15.2 -23.51)"/><path class="cls-40" d="M124.64,593.22c-2.75-24.75-6.41-76.69,7.81-99.83,0,0,1.57,13.83,14.7,10.2,0,0,25.42-9.51,25.42-23.52,0,0-6.05-32-7.61-40.64,0,0,1.56-19,2.08-19.89,0,0,17.29,1,21.1-11.93a10.57,10.57,0,0,1,4.32,9.51s2.77,21.1,1.73,28.53c0,0,0,22,4.5,29.92,0,0,21.1,26.29,31.65,32.51,0,0,2.77.17,3.8,11.07,0,0,4.15,39,4.2,66.06a26.08,26.08,0,0,1-25.84,26.1l-77.13-1C127.59,610.38,125.5,601,124.64,593.22Z" transform="translate(-15.2 -23.51)"/><path class="cls-41" d="M177.39,425.88a21,21,0,0,1-5.42.78,3.08,3.08,0,0,0,1.82,1s.52.39,1.56-.91" transform="translate(-15.2 -23.51)"/><path class="cls-41" d="M186.38,425.24a9.66,9.66,0,0,0,4.8,0,3.07,3.07,0,0,1-4.22.65" transform="translate(-15.2 -23.51)"/><path class="cls-42" d="M181.26,433.93s-1-1,0-1.3S182.37,433.93,181.26,433.93Z" transform="translate(-15.2 -23.51)"/><path class="cls-42" d="M182.42,440.67s-.26-1.3,1.39-1.3c0,0,1.39.39.36,1.3C184.17,440.67,183.52,441.84,182.42,440.67Z" transform="translate(-15.2 -23.51)"/><path class="cls-43" d="M145.44,547.55s-1.6,52.66,0,58.76" transform="translate(-15.2 -23.51)"/><path class="cls-43" d="M218.49,541.13s-.53,56.57-3.26,64.49" transform="translate(-15.2 -23.51)"/><path class="cls-44" d="M150.58,513.65s-.53,1.52-2.44,8.15c0,0-6.94,19.13-2.7,25.75,0,0,2.86,6.36,8.73,8.69,0,0,17.68,7.89,25.33-15.25" transform="translate(-15.2 -23.51)"/><path class="cls-44" d="M182.92,542.77s5.91,11.67,14,11.8c0,0,24.67,4.54,22.08-24.64,0,0-1.17-11.89-2.53-16.9" transform="translate(-15.2 -23.51)"/><path class="cls-44" d="M153.34,544.78a6.07,6.07,0,0,1-1.93-8.42,6.65,6.65,0,0,1,3.43-3,6.19,6.19,0,0,1,6,.63,6.78,6.78,0,0,1,2.53,3.81c.6,2.19.83,5.52-2.26,7.56C161.08,545.34,156.64,547.55,153.34,544.78Z" transform="translate(-15.2 -23.51)"/><path class="cls-44" d="M201,533.92c2.32-1.08,5.08-.15,7.15,1.54s3.91,4.32,1.38,7.53c0,0-3.24,6.78-9.46,2a6.49,6.49,0,0,1-2.52-5.12A6.34,6.34,0,0,1,201,533.92Z" transform="translate(-15.2 -23.51)"/><path class="cls-45" d="M206.45,543.19l1.71-1.39s4.62,1.34,2.16,2.94C210.32,544.73,208.6,547,206.45,543.19Z" transform="translate(-15.2 -23.51)"/><path class="cls-45" d="M155.53,542.52l-1.71-1.39s-5.29,1.2-2.83,2.8C151,543.93,152.42,545.52,155.53,542.52Z" transform="translate(-15.2 -23.51)"/><path class="cls-46" d="M129.86,498.33s5.28-19.46,13.24-33.59c0,0,6.57-11.7,8.82-19.83,0,0,2.16-20.14,7.87-34.21A24,24,0,0,1,179,395.8c5.26-.63,11.11,0,14.67,4.34,0,0,10.6,13,10.69,37.09a41.54,41.54,0,0,0,2.82,15,85.09,85.09,0,0,0,7.43,15c.33.5.68,1,1.05,1.46,2.65,3.44,16,21.76,17.33,43.76,0,0-19.19-14.18-30.77-27.32,0,0-12.8-14.87-12.11-33.29,0,0,.52-11.15,1.9-20.84,0,0,1.27-15.62-4.09-19.42,0,0-2,9.93-20,9.93,0,0-3.28,5-1,16.06,5.82,28.64,5.36,28.39,5.36,35.28,0,0,2.12,13.34-3.64,18-7,5.71-10.92,8.81-16.14,11.91q-2.1,1.25-4.07,2.69C143.36,509.27,130.82,513.54,129.86,498.33Z" transform="translate(-15.2 -23.51)"/><path class="cls-47" d="M171.18,616.56c-3.55,6.43-9.38,9.11-12.35,11.36-2.11,1.59-4,3.46-6.1,5.06-12.35,9.35-15,22.66-17.76,36.06-5.72,27.69-7.51,52.68-3.51,80.66,4.29,30,91.6,15.24,91.6,15.24a11.61,11.61,0,0,0,11-10.26c2.28-20.19,2.44-60.82,2.44-60.82s.24-7-.24-18.18c-.51-11.82-4.78-22.45-8.46-29.53A33.2,33.2,0,0,0,215,632.67c-9.08-5.24-24.63-20.21-17.39-29.72,12.08-15.85,8.84-28.87,8.13-37.2a18.79,18.79,0,0,0-18.22-16.45c-7.15-.38-14.52,4.68-17.6,11.9-5,11.64-4.9,24.63-4.38,31.56a21.75,21.75,0,0,0,5.06,12.39c1.84,2.18,3.41,4,3.12,6a14.69,14.69,0,0,1-1.89,4" transform="translate(-15.2 -23.51)"/><path class="cls-48" d="M173.21,575.87s3.41,1,5.12-1.79" transform="translate(-15.2 -23.51)"/><path class="cls-48" d="M188,574.08s-.34,1.45,6.4.51" transform="translate(-15.2 -23.51)"/><path class="cls-49" d="M181.66,591.16s1.28-2,1.54,0c0,0-.51.85-1.54,2.22,0,0-2.56-.19-1.88-1.55C179.78,591.83,179.78,590,181.66,591.16Z" transform="translate(-15.2 -23.51)"/><ellipse class="cls-50" cx="167.19" cy="558.94" rx="0.47" ry="0.77"/><path class="cls-48" d="M205.9,672.43s-.09,8.28,6.49,16.65c0,0,5.38,17.76-9.39,22.75a15.6,15.6,0,0,1-16.9-6.8" transform="translate(-15.2 -23.51)"/><path class="cls-48" d="M212.86,700.94s4.65,38.76,2,58.55" transform="translate(-15.2 -23.51)"/><path class="cls-48" d="M208,705.72s-10.07,5-6.66-5.38c0,0,5.21-8.2,10.16-4.35C211.45,696,214.87,700.69,208,705.72Z" transform="translate(-15.2 -23.51)"/><path class="cls-49" d="M206.52,700.21s-2.22.43-.6,1.79a21.22,21.22,0,0,0,2.9.68s1.62-.78.43-1.71C209.25,701,207.34,699.89,206.52,700.21Z" transform="translate(-15.2 -23.51)"/><path class="cls-48" d="M155.16,672.86a18.85,18.85,0,0,1,.33,12.93c-.73,2.15-1.85,4.15-2.53,6.32a16.46,16.46,0,0,0,29,14.66" transform="translate(-15.2 -23.51)"/><path class="cls-48" d="M155.38,708.27A445.47,445.47,0,0,0,152,759.38" transform="translate(-15.2 -23.51)"/><path class="cls-48" d="M157.77,704.2c1.66,3.48,2,3.79,6.16,4.48a2.48,2.48,0,0,0,3-2.55.86.86,0,0,1,0-.15c.62-3.11-.22-4.8-1.87-7.5-.91-1.48-2.34-2.87-4.08-2.82a4.16,4.16,0,0,0-3.59,3.34,10.74,10.74,0,0,0,.41,5.2" transform="translate(-15.2 -23.51)"/><path class="cls-48" d="M161.49,701.5l-.43.44a2.25,2.25,0,0,0-.76,1.22c-.06.49.39,1,.86.9a1.13,1.13,0,0,0,.56-.53l.4-.63a2.07,2.07,0,0,0,.35-.74.7.7,0,0,0-.27-.72.44.44,0,0,0-.65.26" transform="translate(-15.2 -23.51)"/><path class="cls-51" d="M264.58,280.31" transform="translate(-15.2 -23.51)"/><path class="cls-52" d="M373,281.56c-8.81,5.77-20.29,5.86-30.75,7.1-5.61.67-9,1.44-14.66,1.7-4.77.22-15.4-.07-20.17,0-16.3.09-17.78.78-32.21-.85a16.21,16.21,0,0,1-14.44-15.12q0-.16,0-.33c-.6-15.73-3.38-96.15,9-114.33a19.78,19.78,0,0,1,7.89-6.94,2.73,2.73,0,0,1,2.18,0c2.53,1.08,9.74,3.6,16.86.84,0,0,13.16-4,13.25-22,0-.12,0-.24,0-.35,2.28-31.6,3.23-52.3,12.55-58.64,1.76-1.2,3.33-2.48,4.65-.81l0,.06a2.54,2.54,0,0,1,.53,2.2c-.31,1.21.11,2.53,4.89.46a2.63,2.63,0,0,1,1.34-.22,9.36,9.36,0,0,1,4.55,2.11,2.54,2.54,0,0,0,1.66.52A34.27,34.27,0,0,1,344,77a2.74,2.74,0,0,1,1.9,1c1.14,1.38,3.06,4.2,2.76,7.23,0,0-.84,12.35-.3,16.85a1.76,1.76,0,0,1,0,.19c0,1.59.51,23.18,2.54,29.37a2.16,2.16,0,0,1,.13.93c-.3,2.59,3.38,10.89,2.21,12.42,0,0,.61,3.3-.09,4.7s-6.11-1.77-4.48-1.35c2.47.64,7.88,3.33,13.84.86,1.33-.55,0,0,2.67,5.5,3.08,6.34,11.17,19.81,11.94,31.24C377,186.18,384.39,273.5,373,281.56Z" transform="translate(-15.2 -23.51)"/><path class="cls-53" d="M294.25,169.36s-4.42,51.2-6.84,61.57c0,0-1.71,36.71-.71,42.27" transform="translate(-15.2 -23.51)"/><path class="cls-54" d="M357.73,196.84s1.89,73.52.32,83.2" transform="translate(-15.2 -23.51)"/><path class="cls-55" d="M297.78,168.22s-.69,12.26-2.11,13.68c0,0-7.83,7.3-1.42,16.32,0,0,12.11,17.14,34-10.2" transform="translate(-15.2 -23.51)"/><path class="cls-53" d="M357,168.22s.38,10.11,1.42,12.25c0,0,5.35,9.46,0,15.64a10.1,10.1,0,0,1-.71.74c-6.51,6.13-16.34,10.83-27.88-5" transform="translate(-15.2 -23.51)"/><ellipse class="cls-56" cx="290.32" cy="193.54" rx="2.87" ry="0.78" transform="matrix(0.84, -0.54, 0.54, 0.84, -73.77, 165.42)"/><ellipse class="cls-56" cx="362.52" cy="191.2" rx="0.39" ry="1.77" transform="translate(56.81 456.79) rotate(-72.67)"/><path class="cls-57" d="M268.16,155.84c.12-3.86.18-7.85.18-7.85,0-10,2.91-14.9,7.43-20.24a35,35,0,0,1,12.13-9,32.8,32.8,0,0,0,14.34-12.31A100.75,100.75,0,0,0,310,90.2c2.66-8.09,2.14-12.82,9.71-24.26,4.86-7.35,16.59-8.28,22.27-6.39,6.27,2.09,11.36,6.84,12.33,15.92,0,0,6.5,23.55,7.29,30.11.9,7.49,7.15,12.94,8.44,20.86.45,2.79,3.15,7,4.05,11.42.37,1.8,1.73,10.69.92,13.69-1.08,4,3.11,16.67-3.05,16.67-8.16,0-7.42-7.66-9.64-9.36-3.21-2.45-6.54,0-9.63-2-13.9-9.08-6.49-25.4-7.36-27.6-4.51-11.49,4.31-15.6,2-20.74-3.07-6.89-1.62-15.74.52-21.47a7.43,7.43,0,0,0,0-5.55c-.72-1.66-2.13-3-4.9-1.67-.72.34-3.31,1.26-5.12-2.89-.82-1.89-3.75-2-6.06.08-3.09,2.75-7.3-2.36-7.3-2.36-.72-.9-2,0-2.74.9a23.33,23.33,0,0,0-3.07,6.4c-6.69,22.41-4.86,38.66-4.86,38.69-.24,5.47-.6,19.09-3.37,23,0,0-3.77,12.73-22.85,12.39a14.39,14.39,0,0,1-4.69-.91,24.82,24.82,0,0,0-2.48-.78c-2.4-.6-4.53.69-6.6,2a12.63,12.63,0,0,0-1.62,1.33A2.43,2.43,0,0,1,268.16,155.84Z" transform="translate(-15.2 -23.51)"/><path class="cls-54" d="M323.9,83.92a.73.73,0,0,0,.19.91,2.13,2.13,0,0,0,.92.4c1.17.31,2.56.57,3.48-.22" transform="translate(-15.2 -23.51)"/><path class="cls-54" d="M337.62,85.22a6,6,0,0,0,6.16,1.5" transform="translate(-15.2 -23.51)"/><path class="cls-54" d="M331.17,91.46a19,19,0,0,1-.16,2.37c0,.8.55,1.72,1.34,1.64" transform="translate(-15.2 -23.51)"/><path class="cls-54" d="M328.06,104.3a4,4,0,0,0,4.55,1" transform="translate(-15.2 -23.51)"/><path class="cls-58" d="M247.8,438.81c-.7-19.47-1.56-55.87.47-81.12A56.65,56.65,0,0,1,266,321c13-12.21,32-30.94,37.68-41.17a13.68,13.68,0,0,0,1.69-5.9c.49-8.34,3.26-39.26,17.39-35.69,0,0,15-1.9,17,48a14.14,14.14,0,0,0,1.17,5.13c4.26,9.71,19.86,45.82,22.11,59.17a13.74,13.74,0,0,1,.18,2.59l-1.89,86.09c-.14,6.41-1.1,17.8-15.1,23.72a34.15,34.15,0,0,1-15.56,2.45l-42.77-2.83C254.6,456.33,248.07,446.35,247.8,438.81Z" transform="translate(-15.2 -23.51)"/><path class="cls-59" d="M263.71,356.58s-4.64,25.66,21.88,19c0,0,10.39-3.06,14.59-10.61" transform="translate(-15.2 -23.51)"/><path class="cls-59" d="M302.84,332.73s-5,40.91,17.74,42.75c0,0,23.89,2.94,24.55-27.64" transform="translate(-15.2 -23.51)"/><path class="cls-59" d="M317.57,358.82a5.25,5.25,0,0,1,4.79-4.27s6-.66,5.89,5.28c0,0,.12,4.79-5.43,3.86C322.83,363.68,317.55,364,317.57,358.82Z" transform="translate(-15.2 -23.51)"/><ellipse class="cls-60" cx="307.64" cy="336.31" rx="2.03" ry="1.03"/><path class="cls-59" d="M271.13,375.48s-3,56.2-1.79,75.79" transform="translate(-15.2 -23.51)"/><path class="cls-59" d="M343.51,359.16s-3.69,78.11-6.49,92.11" transform="translate(-15.2 -23.51)"/><path class="cls-60" d="M246.56,363.73c-7.6,1.7-14.79-4.69-13.63-12.38,1.54-10.23,15.43-29,41.27-54.74a121.73,121.73,0,0,0,10.93-15.28c3.86-7.07,6.06-11.26,15-27.35,3.62-6.48,5.6-11.74,10.7-16,6-5.05,20.16-9.93,27.7,15.42a164.14,164.14,0,0,1,5,31.36s-.29,6.7,6.68,21.9a16.65,16.65,0,0,0,1,1.83c2.32,3.73,11.61,20.12,12,43.55,0,0-5.33-22.6-16.08-42.83,0,0-10-18.86-12.38-39.89,0,0-1-23-7.86-26.13a9.11,9.11,0,0,0-3.05-.7,10.1,10.1,0,0,0-10.14,7.17c-1.74,5.5-4.53,17.91-7.44,35.18,0,0-4.13,32.42-15.52,45.78C290.74,330.57,274.46,357.49,246.56,363.73Z" transform="translate(-15.2 -23.51)"/><path class="cls-61" d="M310.89,258.08s4,1.24,7.2,0" transform="translate(-15.2 -23.51)"/><path class="cls-61" d="M324.87,258.08s5.62,1.46,8.23,0" transform="translate(-15.2 -23.51)"/><path class="cls-61" d="M322.88,265.39s.29,2.14-.59,2.14" transform="translate(-15.2 -23.51)"/><path class="cls-62" d="M323.63,275.92s1.24-2.06.8,0c0,0-.12,1.55-.8,2.06,0,0-1.63,0-1.78-1.49C321.85,276.5,322,273.71,323.63,275.92Z" transform="translate(-15.2 -23.51)"/><path class="cls-59" d="M268.15,364.91a10.93,10.93,0,0,0,11.1,5.18" transform="translate(-15.2 -23.51)"/><path class="cls-63" d="M451.71,467.86c-18.6-19.49-4-81.77,1.64-115.52a38.66,38.66,0,0,1,12.48-22.52c3.68-3.26,7.91-6.94,11.35-9.73a4.31,4.31,0,0,1,1.84-.87c2.56-.54,9.34-2.24,12-5.46a3.85,3.85,0,0,0,.64-1.23c.78-2.3-3.83-7.38-5.18-11.09,0,0,0-15.56-2.12-20.59-.3-.69-1.77-24.23,3.2-18.27,0,0-3,.16-2.13-.71,1.7-1.78,10.77-6.62,13.56-9.68,2.36-2.59,12.39.83,13.41,4.17.89,2.88,1.54,5.07,3.48,6.14h0c.09.38,2.67,2.09,2.83,2.45.47,1,4.45,1.11,5.35,3.15.35.79-.81,9.19,0,8.89,7.8-2.89-2.93,4-2,5.21,0,0,2.81,11.77,0,15.78a67.64,67.64,0,0,0-.66,7.19,13.32,13.32,0,0,0,0,7.57c.21.8-.58-.59,0,0,2.2,2.23,17,10.8,20.4,13.4,8.6,6.59,17.25,20.21,17,38.41,0,0,1.27,41,.73,78.35-.28,19.3-25.36,24.68-38.2,26.34C521.3,469.23,464.52,481.28,451.71,467.86Z" transform="translate(-15.2 -23.51)"/><path class="cls-64" d="M473.71,359.5s-4.22,19.53,7.66,28.45a9.24,9.24,0,0,0,8.54,1.44c4.45-1.54,10.76-6.16,13.52-19.77" transform="translate(-15.2 -23.51)"/><path class="cls-64" d="M505.36,367.76s2.2,16.76,15,20.25a10.7,10.7,0,0,0,10.59-2.7c3.59-3.76,7.18-11.79,6.17-28.92" transform="translate(-15.2 -23.51)"/><path class="cls-65" d="M482.88,385.22a2.34,2.34,0,0,1-1.6-1.8c-.15-1.35,0-3.57,2.32-4.17l.4-.09c1.71-.3,3.44.64,3.54,2v0s0,.09,0,.13C487.58,382.82,486.56,386.65,482.88,385.22Z" transform="translate(-15.2 -23.51)"/><path class="cls-65" d="M522.81,381a4.6,4.6,0,0,1-.58-4,3.42,3.42,0,0,1,2.88-2.24,3.79,3.79,0,0,1,4.45,5.12,3.15,3.15,0,0,1-1.37,1.56C526.85,382.29,524.23,383.38,522.81,381Z" transform="translate(-15.2 -23.51)"/><path class="cls-66" d="M483.6,383.63s-.69-1.1,0-1.82c.42-.43,1-.17,1.49.09a1.41,1.41,0,0,1,.13,1.71C485,384,484.41,384.19,483.6,383.63Z" transform="translate(-15.2 -23.51)"/><path class="cls-66" d="M524.58,379.44s-.23-1.56,1.27-1.15.8,1.56.8,1.56-.23.81-1.38.58A1.1,1.1,0,0,1,524.58,379.44Z" transform="translate(-15.2 -23.51)"/><path class="cls-64" d="M474.14,354.89s-8.93,90.14-.78,115.05" transform="translate(-15.2 -23.51)"/><path class="cls-64" d="M536.71,371.63s3.48,69.42.78,88.76" transform="translate(-15.2 -23.51)"/><path class="cls-67" d="M502.58,258.68c0,7.28,14.14,13.6,19.86,11-2.55.59-6.77.4-6.44,3s2.76,6.94,5.38,6.86c-4.15,1.87-4.74,7.81-.26,12.41A8.46,8.46,0,0,0,519,305c-5.06.18-6.32,12.45.44,13.38,0,0-1,10.82,9.86,7.46,0,0,7.6,1.69,9.29-1.79,3.22-6.62-3.64-11.19-3.64-11.19,3.85-1.2,3.49-9.86.36-10.46,3.27-2.93,4.14-7.58.24-11.42,6.42-6.35-.52-12-.52-12,3.89-6-2-9.68-2-9.68,3.85-3.79.24-10-4.45-9-2.42.55,2.41-3.22-1-6.23-2.17-1.94-7-1.19-7.58,1.68.9-3.12,1.56-7.23-3.49-10.1-3.78-2.15-10.44,1.63-9.39,4.93-6.11-11.67-16.14-2-15.51,1.2-3.73-3.07-16.59-.43-12.6,17.05-9.86-3.73-11.44,12.42-6.4,15.24-3.24,1-6.25,4.75-2.54,9.92-3.59,4.32-4.32,9.26,1.92,13.11-3.23-.24-4.89,9.14-.68,10.22-4.84-1.8-5.23,12.66-1.24,8.81,0,0,5.54,7.19,11.13-.75,0,0,9.57,1,6.32-7.46,8.3-4.57,1.77-12.1,1.77-12.1,3.41-3.77,1.72-12.43-2.85-12,0,0,5.05-8.66-2.12-13,0,0,5.49-3.72,4.17-13.15,7.91.89,14.35-6.16,14.88-13.78" transform="translate(-15.2 -23.51)"/><path class="cls-68" d="M493,280.5a5.53,5.53,0,0,0,5.77.06" transform="translate(-15.2 -23.51)"/><path class="cls-68" d="M507.8,280.4c3.41,2.09,4.85.5,5.77.06" transform="translate(-15.2 -23.51)"/><path class="cls-68" d="M503.47,288.46a3.21,3.21,0,0,1,0,2.18" transform="translate(-15.2 -23.51)"/><path class="cls-68" d="M500.65,299.78c2.19.94,4.14.3,5.77-.12" transform="translate(-15.2 -23.51)"/><path class="cls-69" d="M349.31,451.84c-.44-19.48-1.61-96.61,6.61-116.16a4,4,0,0,0,.21-.62c.53-2.18,1.6-10.76,6.13-18.86.25-.44,3.87-4.09,4.27-4.4,2.17-1.7,8.46-5.71,26.14-16.81,8.08-5.07,12.24-13.67,12.44-24a62.36,62.36,0,0,1,3.46-19.17,4.62,4.62,0,0,1,5-2.92,23.94,23.94,0,0,0,5.22.06l5.27-.36a4.46,4.46,0,0,1,4.75,3.41,4.15,4.15,0,0,1,.07.62c.1,2.55,1,14.48.82,18.76,0,0-.31,11.83-1.12,12.65a13,13,0,0,0-1.79,1.45,4.54,4.54,0,0,0-1.4,3.89c.56,4.51,2.85,14.69,12.16,21.28,0,0,12.24,9.28,15.4,20.19s6.1,15.16,6.52,29c0,.1,0,.2,0,.3-.12,3.55,4.26,73.81-2.52,91.55-9.57,25-91.74,23.59-104.72,3.48C351,453.38,349.33,452.59,349.31,451.84Z" transform="translate(-15.2 -23.51)"/><path class="cls-70" d="M415.91,277.4s3.37-3.44,4.28,0C420.2,277.4,419.74,279.62,415.91,277.4Z" transform="translate(-15.2 -23.51)"/><path class="cls-71" d="M411.63,248.8s-4.79,8.36-4.59,15.4c0,0,0,9.69,1,11.63,0,0,1.62,9.89-1,10.5,0,0-10.29-1-12.13-8.36,0,0-2.41-4.12-.06-18.93l.06-.35c2.45-15.09,4.28-32.63,19.58-32.63,0,0,15.09-2.75,24.78,18.87,0,0,11.52,37.22,9.89,40.69,0,0,1,7-10.81,10.4,0,0-9.38,5-11.32-.61,0,0,.92-1.53,2-14,0,0,.2-21.42-.2-25.19,0,0,.61-5.91-3.47-6.93h-6.12C417.14,249.31,414.18,248.8,411.63,248.8Z" transform="translate(-15.2 -23.51)"/><path class="cls-72" d="M373,356.89s-.7,7.56-2.76,23.05c-.09.69-1.3,14.1-1.33,14.84-1.17,27.07,1.65,49,2,58.63" transform="translate(-15.2 -23.51)"/><path class="cls-73" d="M437.33,358.33s1.44,86.12-1,96.68" transform="translate(-15.2 -23.51)"/><path class="cls-72" d="M382.57,337.74s-19.58,20-2.75,23.82c-.36.06,14-1,16.83-3.23" transform="translate(-15.2 -23.51)"/><path class="cls-72" d="M434.58,339.36s5.57,11.07,2.66,19a10.8,10.8,0,0,1-1.13,2.25c-5.2,7.84-17.74,2-24.17-2.25" transform="translate(-15.2 -23.51)"/><path class="cls-73" d="M373.32,355.56s-1-9.91,5.84-2.59c0,0,5.65,8.58.65,8.58A6.75,6.75,0,0,1,373.32,355.56Z" transform="translate(-15.2 -23.51)"/><path class="cls-73" d="M427,363.74s-2.17-7.25,2.42-9.43a5,5,0,0,1,5,.57c1.5,1.05,3.15,2.75,2.45,4.84a15.44,15.44,0,0,1-3.47,4C429.11,365.73,427,363.74,427,363.74Z" transform="translate(-15.2 -23.51)"/><ellipse class="cls-70" cx="416.6" cy="334.98" rx="0.54" ry="0.87"/><ellipse class="cls-70" cx="360.84" cy="331.75" rx="0.54" ry="0.87"/><polygon class="cls-74" points="402.48 245.25 402.94 244.49 402.94 245.25 402.48 245.25"/><polygon class="cls-75" points="404.16 244.49 404.16 245.25 405 245.25 404.16 244.49"/><path class="cls-70" d="M410.87,258.82a4.93,4.93,0,0,1,1.68-.38c.54.08.61.31,1,.76A1.68,1.68,0,0,1,410.87,258.82Z" transform="translate(-15.2 -23.51)"/><path class="cls-70" d="M423.49,259.74s1.85-.92,2.6.09C426.09,259.83,424.39,260.78,423.49,259.74Z" transform="translate(-15.2 -23.51)"/><path class="cls-76" d="M461.81,455" transform="translate(-15.2 -23.51)"/><path class="cls-31" d="M456,509.79c2.49-8.1,5-17.19,29.28-28.3,2.93-1.34,11.49-11,5.64-16.35-7.19-6.52-20.61-52.72,5.85-56.68,13.9-2.08,16.73-2.47,25.13,9.46,5.35,7.6,10.94,26.75,1.22,46.08a25,25,0,0,0-1.82,5.24c-.89,3.58-3.27,9.16-1.29,10.94,13,11.69,32,22.41,35,41.08,3.13,19.19,7.85,62.71,1.23,105.86-4.27,27.82-84.21,10.2-94.83,1.5C455.33,623.61,452.77,520.26,456,509.79Z" transform="translate(-15.2 -23.51)"/><path class="cls-77" d="M488.5,548.67s-.67,4.32.57,4.71a3.69,3.69,0,0,0,1.06-4.71Z" transform="translate(-15.2 -23.51)"/><path class="cls-77" d="M521.91,551.45s-.14,4.21,1.09,4.6a5.54,5.54,0,0,0,1.06-4.6Z" transform="translate(-15.2 -23.51)"/><path class="cls-78" d="M535.55,520.5c.84,6.28,9,75.21-1.56,106" transform="translate(-15.2 -23.51)"/><path class="cls-78" d="M475.83,522.61c-2,10,15.36,52.15,28.7.39" transform="translate(-15.2 -23.51)"/><path class="cls-78" d="M506.68,526c-.91,12.23,24,52.52,27.93-5.52" transform="translate(-15.2 -23.51)"/><path class="cls-78" d="M500.28,443s-.9,2.89,1.47,3.16" transform="translate(-15.2 -23.51)"/><path class="cls-78" d="M513.65,435.2c0,.45-1,.81-2.21.81s-2.21-.36-2.21-.81,1,0,2.21,0S513.65,434.75,513.65,435.2Z" transform="translate(-15.2 -23.51)"/><path class="cls-78" d="M495.33,435.2c0,.45-1,.81-2.21.81s-2.21-.36-2.21-.81,1,0,2.21,0S495.33,434.75,495.33,435.2Z" transform="translate(-15.2 -23.51)"/><path class="cls-79" d="M506.32,457.47c0,.51-.81.93-1.43.93s-1.36-.42-1.36-.93,1.1-.12,1.4-.12S506.32,457,506.32,457.47Z" transform="translate(-15.2 -23.51)"/><path class="cls-78" d="M475.68,525.7c0,11.82.15,22.93.14,33.75,0,19.29,0,38.88,5.35,57.43" transform="translate(-15.2 -23.51)"/><path class="cls-80" d="M425,405.37c-7.17-4.43-14.79-2.59-21.36.7-5.59,2.8-6.94,5.82-8.83,13.15-2.56,9.9-3.89,30.91,4.59,38.89,4.4,4.14,7,11.16,0,14.65-14.09,7.09-27.53,21.76-30.83,35.09-5.51,22.24-1.46,38.88-.64,49.7,0,.42,0,.82,0,1.24-.05,4.78-.39,36.19-.16,55.33A14,14,0,0,0,381.73,628l71.46.85a14,14,0,0,0,14.2-13.91c.19-23.23.77-64.62-1.25-98.67-.05-.91-.7-7.58-.94-8.46-1.69-6.44-9.15-24.73-32.09-34.82-4.31-1.9-12.62-12.71-6.43-25.23,2.23-4.51,6.74-7.2,8.15-16.76C434.89,430.55,436.71,412.6,425,405.37Z" transform="translate(-15.2 -23.51)"/><path class="cls-81" d="M392.61,432.47s-3.47,6.13-2.15,8.16a2.06,2.06,0,0,0-.32,2.89s-2.17.78-.18,3.39c0,0-2.26,1.91-.09,3.59a2.33,2.33,0,0,0-.24,3.55,1.83,1.83,0,0,0,0,3.17s-2.05,1.61-.07,4a2.2,2.2,0,0,0,.06,3.42s-1.59,2.43.54,3.63c0,0-2.08,1.43-.18,3.93,0,0-.52,1.72.68,1.91,0,0,1.47,1,1-2,0,0,1.67-1.35.51-4,0,0,1.71-2.12,0-3.86a2.68,2.68,0,0,0-.18-3.52s2-1,.17-3.58c0,0,1.21-2.18-.45-3.1a2.85,2.85,0,0,0,.13-3.2,2.91,2.91,0,0,0,.08-3.37,2.61,2.61,0,0,0,.3-3.65s1.77-2.1.42-3.24a2,2,0,0,0,0-3.09,2.37,2.37,0,0,0,.61-3.22S394,431.95,392.61,432.47Z" transform="translate(-15.2 -23.51)"/><path class="cls-82" d="M419.12,393.86s3.13-1.62,5.08.59c0,0,3.35-.61,3.51,1.66q0,.07,0,.14s4.78,2.08,2.69,4.8c0,0,2.42,1.41.74,2.9,0,0,3.21.83,1.8,2.77,0,0,2.39.53,1.83,1.74,0,0,2.57,1,1.3,3.05,0,0,2.45,1.21,1.13,2.3,0,0,2.55,1.33.82,2.55,0,0,3.11,1.31.9,2.75,0,0,3,2.33.21,3.57,0,0,3.62,1.72,1.07,3.4,0,0,3.55,2.09.72,3.9,0,0,3.55,2.08.58,3.67l-.09,0s1.9,2.09.44,3.32c0,0,2.42,1.71.45,3.2,0,0,2.43,2.57-.25,3.78a1.7,1.7,0,0,1-.48,2.81s1.73,1.92-.18,2.92c0,0,1.43.92,0,2.9a2.36,2.36,0,0,1-.56,3.45s1.32,2.11-.35,3.25a2.14,2.14,0,0,1-.56,3s1.22,2-.64,3.08c0,0,1.73,2.39-.16,3.64a2.4,2.4,0,0,1,.47,3.55s2.21,1.66.17,3.41c0,0,.69,2.72-1.5,2.9,0,0-2-.33-1.1-3,0,0-2.35-1.39-.36-3.26a2.54,2.54,0,0,1-.19-3.78,2.41,2.41,0,0,1-.06-3.58s-1.63-1.69.54-3.44a1.91,1.91,0,0,1,.76-2.83s-1.58-2.69,1.05-3.34c0,0-2.48-2-.38-3.61,0,0-1.46-2.28.37-3.35,0,0-1.73-1.18-.06-3.18,0,0-2.08-1.95.08-3.17,0,0-1.88-1.39-.49-3.08,0,0-1.73-1.29,0-3.49,0,0-2.28-2,.59-3.37,0,0-2.81-1.62-.49-2.88,0,0-3.26-1.91-.83-3.37,0,0-4.1-2.07-1.06-3.92,0,0-3.41-1.85-.57-4.1,0,0-3.57-1.12-1.22-3.44,0,0-3.31-1.74-1.86-3.71,0,0-3.13-.92-1.69-2.87,0,0-2.68-.33-2.24-2.35,0,0-3.75-2-2.08-4.15,0,0-2.18-.33-1.65-3.19,0,0-2.33.12-2.06-1.92,0,0-6.2,0-4.16-2.83" transform="translate(-15.2 -23.51)"/><path class="cls-81" d="M400.9,404s-4,.28-3.37,2.57c0,0-3.39,1.45-1.74,3.2,0,0-3.33,1.12-1.73,3.12,0,0-3.68,1.66-1.4,3.14,0,0-3.38,1.94-.78,3.46,0,0-3.28,2.81-.3,4.43,0,0-3.28,1.34-1.15,3.37,0,0-3.38,2.11-1.23,3.6,0,0-2.87,2-1.48,3.39,0,0-3.17,2-1.42,3.69,0,0-3,3.15-1.17,4.25,0,0-3.2,2.6-1.22,3.72,0,0-2.34,2-.37,3.22,0,0-2.89,1.86-.84,3.34a1.82,1.82,0,0,0-.58,3s-2.56,1.9-1.38,3.08l.13.12v0a1.59,1.59,0,0,0,2.88,1.17c.45-.66.79-1.25.67-1.37a5.81,5.81,0,0,0-.22-2.57s2.26-1.58,1.16-3.64a2.47,2.47,0,0,0,1.17-3.56,2.69,2.69,0,0,0,.65-3.77,3.49,3.49,0,0,0,1.28-3.9s2.67-1.36,1.66-3.48c0,0,2.06-1.55,1.2-3.16,0,0,2-1.45,1-3,0,0,2.37-1.79,1.11-3.7,0,0,3.17-1.21,1.51-3.45,0,0,3-2.15,1-4.47a3,3,0,0,0,.26-3.44s2.38-2.23.83-4.22c0,0,2.39-.23,1.58-1.76,0,0,2-1.06,1.37-2.21,0,0,2.45-.51,2.23-2.19C402.2,406.07,403.57,404.94,400.9,404Z" transform="translate(-15.2 -23.51)"/><path class="cls-81" d="M420.49,395.86s-5.22-2.23-6.87-.6c0,0-4.45-1.26-5.76,1.33a4.11,4.11,0,0,0-5,.57s-4.48.32-4.38,2.36c0,0-4.37-.57-4.44,3.24,0,0-4.73-.09-5.08,3.09,0,0-4.79,1.3-2.83,4.28,0,0-5.22,1.12-3.31,4.46,0,0-5.36,1.77-2.87,4.91,0,0-4.79,1.11-2.71,4.65,0,0-2.49,1.9-1.21,3.46,0,0-3,1.49-1,3.07,0,0-2.86,1.5-1.46,3,0,0-2.63,1.45-.89,2.85,0,0-3.36.63-2,3.27,0,0-2.07,1-.24,2.33,0,0-2.18.83-1.07,2.24,0,0-2.78,1-1,2.57,0,0-3.1,0-2,2.11,0,0-2.12,1.41-.53,2.51,0,0-2,1.26-.63,2s.15,0,.15,0-1.64,1.46-.22,1.92c0,0-2.19,1.21-1.26,2.5,0,0-1.86,1.56-1.59,3.24,0,0,.11,1.64,2.47,1.14,0,0,1.86-1.26.93-2.9,0,0,1.79-.55,1.86-3.32,0,0,2.06-1.62.45-2.47,0,0,2.46-.84.92-2.09a1,1,0,0,0,.11-1.85s2.7-1,1.71-2.1c0,0,2.59-1.11,1.35-2.1,0,0,2.26-1.3.72-2.59,0,0,2.41-.76,1.3-2.69,0,0,2.61-1.5,1.35-3,0,0,2.8-.51,1.23-2.67,0,0,2.78-1,2.16-3,0,0,2.87-1.32,2-3.09,0,0,3.11-1.55,2.09-3.09,0,0,4.37-1.76,2.56-5,0,0,3.71-3.11,2.78-5.12,0,0,4.75-2.56,3.61-4.39,0,0,4-1.14,3.45-3.52,0,0,3-1,3.23-2.59,0,0,3.52-.55,4.21-2.43,0,0,3.81-.29,4.75-1.69,0,0,4.18.64,4.77-1.25,0,0,3.22,1.17,4.6-.54C417,398.93,422.23,399.7,420.49,395.86Z" transform="translate(-15.2 -23.51)"/><path class="cls-82" d="M423,393.71s3.93-1.76,5.42,1.21c.79,1.58-.06.19-.06.19s3.46-1.29,4,1.42c0,0,2.75.23,2.3,2.46,0,0,2,.69,1.16,2.4,0,0,2.82.86,2,1.93,0,0,2.75,1.88,1.58,3.58,0,0,2.36,1.79.92,2.83A2.39,2.39,0,0,1,441,413s3.1,2.41,1.91,4.06c0,0,1.83,2.33.34,3.71a2.48,2.48,0,0,1,.32,2.79,2.12,2.12,0,0,1,.61,3s1.39,1.17.57,2.5c0,0,1.56,2,.33,2.95,0,0,2.5,2.27,1.17,3.74,0,0,1.48,2.6.87,3.47,0,0,1.08,2.06,0,3,0,0,1.73,2.35.33,3.3,0,0,3.21,1.73.93,3.54,0,0,1.55,2.87-.72,3.52,0,0,1.7,2.4.41,3.77,0,0,1.75,3.37-.07,4.57,0,0,1.67,5.21-.41,5.81,0,0,.3,3.44-1.35,4.54a2.62,2.62,0,0,1-1.11,4s-.06,3.36-2,3.24c0,0-3.63.8-3.16-1.82a3.08,3.08,0,0,1,1-3.16s-2-2.46.49-4.28c0,0-2.73-3.33.6-5.61,0,0-2.72-2.31-.11-5.62,0,0-1.86-3,.82-4.5a2.89,2.89,0,0,1,.08-4.42,3.13,3.13,0,0,1,.82-4.91s-2.26-1.8.08-4.39c0,0-3.67-2.37-.92-5.36,0,0-4.88-.86-1.79-5.21,0,0-4-3.13-1.15-6.21,0,0-3.12-2.26-.38-3.76,0,0-2.71-2.5-.45-4.23,0,0-2.28-.76-1.06-2.1,0,0-2.23-.7-.64-2.81a2.34,2.34,0,0,1-1.42-3.8,2.59,2.59,0,0,1-2.1-2.6,2.82,2.82,0,0,1-2.07-2.93q0-.13,0-.26s-3.13-.32-3-1.77c0,0-3.2.29-3.12-2,0,0-3.28,0-3.26-1.26C422.39,395.51,421.12,394.3,423,393.71Z" transform="translate(-15.2 -23.51)"/><path class="cls-83" d="M401.63,443.52A9.23,9.23,0,0,0,408,445" transform="translate(-15.2 -23.51)"/><path class="cls-81" d="M421,398.46s1.17,1.8,5.43,2.77a3.93,3.93,0,0,0,2.68,3.07s-.12,3.87,3.25,5.17c0,0-1.38,3.4,1.29,5.15,0,0-1.44,2.69,2.27,4.91a2.57,2.57,0,0,0,.49,3.75s-.54,2.56,1.21,3.12c0,0-1.56,2.59-.34,3.48,0,0-1.22,2.59.14,4a1.55,1.55,0,0,0,.5,2.28s-1.46,1.6.07,2.82c0,0-1.37,1.69.23,2.9,0,0-1.82,1.57,0,2.89a2.12,2.12,0,0,0-.83,3.37s-2.23.58-1,3.06c0,0-2.43,1-1.33,2.76,0,0-1.75.51-.9,2.9a1.58,1.58,0,0,0-.74,2.22s-1.88,1.42-.57,2.78c0,0-1.73.28-.72,2.18,0,0-1.69.71-1.08,2.09,0,0-1.47,1.18-.71,2.42a1.68,1.68,0,0,0-.67,2.16s-1.65.76-.42,2c0,0-1,1-.23,1.85,0,0-.83,1.44.52,2.08a1.33,1.33,0,0,0,1.08,1.45s.43.24,1.25-.22a1.71,1.71,0,0,0,0-1.84,2.21,2.21,0,0,0-.61-1.59s.87-.94,0-1.7a1.16,1.16,0,0,0,.41-1.77s1.84-.92.84-2.32c0,0,1.53-.51.56-2.12a1.45,1.45,0,0,0,1.13-2.19,1.61,1.61,0,0,0,.48-2.4,1.8,1.8,0,0,0,.48-2.35s1.7-.88.64-2.26c0,0,1.74-.53.83-2.58,0,0,2.36-.62,1.43-2.76,0,0,1.55,1,.88.23,0,0,1.59-1.35.59-2.41,0,0,2.35-.94,1-3a1.51,1.51,0,0,0-.15-2.65s1.91-.59,1.14-2.26a2.56,2.56,0,0,0-.39-2.86s1.86-2.15-.19-2.86c0,0,1.69-1.23.52-2.42a2.33,2.33,0,0,0-.34-3s1.63-1.17-.69-1.81c0,0,1.51-1.35.42-2.24,0,0,1.29-2.24,0-2.54,0,0,.65-2.05-.42-2.44,0,0,1.51-1.55-.17-2.65,0,0,1-1.59-1.52-2.54,0,0,1.62-2.88-1-3.48,0,0,.83-3-1.07-3.46,0,0,.55-1.91-1.85-2.39,0,0,.66-1.7-.64-2,0,0-.11-1.84-1.51-2.2a1.82,1.82,0,0,0-1.35-1.56,2.78,2.78,0,0,0-2.85-1.83,3,3,0,0,0-2.83-1.71s-6.08-2.49-4.84.67" transform="translate(-15.2 -23.51)"/><path class="cls-81" d="M417.9,403.95a10.74,10.74,0,0,0,5.18,1.19,4,4,0,0,0,3.08,3.86s-1.07,4,.62,4.5c0,0-.67,2,.94,2.45,0,0-1.07,2.82.62,3.78,0,0-1.59,2.51.29,3.55,0,0-1.37,1.75.47,2.49,0,0-1.1,1.19.28,1.77,0,0-1,1.39.35,2,0,0-.78.72.44,1.66,0,0-1.22,1.58-.09,2.47a1.43,1.43,0,0,0-.28,2.06s-1.8.71-.25,2.46c0,0-1.93.55-1,3.08,0,0-1.32.63-.16,2.27,0,0-2.76.72-1.7,4.14,0,0-2,.66-.79,3.35a1.75,1.75,0,0,0-.32,2.92,2,2,0,0,0-.32,3s-1.54.49-.25,2c0,0-1.77.41-.72,2.18a1.55,1.55,0,0,0-.09,2.55,1.42,1.42,0,0,0-.65,1.91s-1.57,1.44-.06,2.64c0,0-1.51.68-.3,2.26,0,0-1.59.2-.69,2.08a1.11,1.11,0,0,0,.07,1.91.75.75,0,0,0,.15,1.36s-.91,1.06-.15,1.54c0,0,.38.32,1.69-.18a2.78,2.78,0,0,0,0-1.62s1.26-.74.66-1.22a2,2,0,0,0-.51-2.27s.92.12.34-1.41c0,0,1.3-.92.42-2a2,2,0,0,0,.61-2.7s1.36-1.17.31-2.33a1.51,1.51,0,0,0,.06-2.46,1.42,1.42,0,0,0,.94-2,1.76,1.76,0,0,0,.23-2.47,1.65,1.65,0,0,0,.25-2.27s2.45-1.14,1-3.18a1.79,1.79,0,0,0,.45-2.74s2.46-1.07,1.38-4.21a2.13,2.13,0,0,0,1.14-3.08s1.66-.73.37-2.67c0,0,1.35-1.44.36-2.72,0,0,1.59-.85.37-1.89a1.88,1.88,0,0,0-.28-2.26,1.38,1.38,0,0,0,.07-2.33s.34-1.78-.65-2.18a1.67,1.67,0,0,0-.55-1.72,1.62,1.62,0,0,0-.12-2.37,2.38,2.38,0,0,0-.61-3.47s2.27-2.7-.06-4.11c0,0,1.54-1.75-.61-2.31,0,0,2.43-2.62,0-3.51,0,0,1.07-2.47-1.16-3.27,0,0,.76-2.46-2.47-2.86a7.78,7.78,0,0,0-4.28-1s-2.57-1.09-3,0c0,0-1.85.31-1.07,1.57" transform="translate(-15.2 -23.51)"/><path class="cls-81" d="M424.63,398.17s-3.49-1.85-6.36-.07c0,0-2.34-1-3.6.6,0,0-2.31-1.41-3.55-.24,0,0-3.84-1.09-4.14.93,0,0-2.92-.94-3.38.42,0,0-2.89-.29-2.89,1.83,0,0-3.17-1.13-3.8.89,0,0-1.91,1.19-1.66,2.75,0,0-3.35-.09-3.26,1.74a1.36,1.36,0,0,0-.26,2.26s-2.5.94-1.9,3.26c0,0-3.16,1-2.73,2.65,0,0-2.22.29-1.77,1.69s.27.07.27.07-3.2,1.34-2.54,4.14c0,0-1.84-.45-2.4,2.05,0,0-2.31.58-2.17,2.73a2.23,2.23,0,0,0-2.54,2s-2.35,0-1.66,2.75c0,0-2.51-.19-1.78,2.41a1.74,1.74,0,0,0-1.3,2.58,2.42,2.42,0,0,0-1.54,3.14s-2,1.37-.9,3a1.72,1.72,0,0,0-1,2.4s-2.2-.26-1.67,2.07c0,0-2.1,1.06-.74,2.67a1.64,1.64,0,0,0-1.21,2.37,1.37,1.37,0,0,0-1,2.14,1.61,1.61,0,0,0-1.06,2.34s-1.81.39-.92,1.84c0,0-1.43.12-.88,1.8,0,0-1.4,1.08-.55,2.35,0,0,0,.28.76.45a1.06,1.06,0,0,0,1-.56,2.33,2.33,0,0,0,.45-1.82,1.64,1.64,0,0,0,.64-1.75s1.63-.54,1.11-1.9a2,2,0,0,0,1.09-2.29,1.3,1.3,0,0,0,1.12-2,1.69,1.69,0,0,0,1-2.55,1.55,1.55,0,0,0,1-2.36s2.07.3,1.69-1.54a2,2,0,0,0,1.06-2.66,1.27,1.27,0,0,0,1.17-1.66s1.93-1,1-2.49c0,0,1.64-.41.34-2a1.62,1.62,0,0,0,1.47-2.33s1.72-.16,1-2.16c0,0,2.55.12,1.87-2.08,0,0,1.37-.35,1.32-2.33,0,0,2.15-.31,2.23-2a2,2,0,0,0,2.07-2.18s2.72-.27,2.31-2.23c0,0,3.13-1.1,2.67-3.64,0,0,2.66-.29,2.16-2.22,0,0,2.45-.8,1.78-2.41,0,0,3.12-.59,2.61-2.26,0,0,2.76-.62,1.89-2.07,0,0,1.41-.07,1.44-2.28,0,0,3.08.23,3.3-1.89,0,0,2.23.13,2.68-1.31,0,0,3.14.76,3.37-.68a3.66,3.66,0,0,0,3.41-.83s2.78,1.19,3.61-.06c0,0,2.71.7,3.52-.47,0,0,4.2,1.1,4.74-.16C422.81,401.07,425.17,401.48,424.63,398.17Z" transform="translate(-15.2 -23.51)"/><path class="cls-82" d="M404.79,398s-4.1-.19-4,1.16c0,0-2.62-.09-3,1.7,0,0-2.25.31-1.9,2,0,0-2.3-.07-2.44,2,0,0-1.78.51-1.25,2.08,0,0-2.37,1.72-1.73,3.2a2.32,2.32,0,0,0-2.27,2.78A2.28,2.28,0,0,0,387,416.2s-2.8,1.46-1.73,3a2,2,0,0,0-1.95,2.87s-2.65-.09-1.63,3c0,0-2.21.11-1.48,2.49,0,0-1.72.36-1,2.53a1.81,1.81,0,0,0-1.2,2.64c0,.08-2.75.19-1.93,2.52a1.55,1.55,0,0,0-1.14,2.27s-1.74.95-.86,2.24c0,0-1.79.59-1,1.78a1.47,1.47,0,0,0-1,2s-1.61.61-1.31,2.07c0,0-1.39.38-.91,2.13a1.27,1.27,0,0,0-.37,2.1s-1.59,1.24-.87,2.4c0,0-1.35.4-.54,2,0,0-1.58,1.43-.54,2.23a1.63,1.63,0,0,0-.31,2.26s-.91,1.7,0,2.72a1.5,1.5,0,0,0,2.06.06,1.89,1.89,0,0,0,.49-2.13,2,2,0,0,0,.25-2.42,1.49,1.49,0,0,0,0-2.08,3.08,3.08,0,0,0,.35-2s1.41-1.09.69-2.24a1.33,1.33,0,0,0,.63-2s1.56-1.14,1-2.27c0,0,1.39-.57,1.2-1.68,0,0,1.6-1.32.88-2.21,0,0,1.35-.83,1-1.82,0,0,1.67-1.19.78-2.41,0,0,1.56-.91,1.12-2.21,0,0,2-1,1.76-2.45,0,0,1.81-1.14,1.19-2.5,0,0,1.63-1.43,1.23-2.27,0,0,2.26-.35,1.83-2.13,0,0,1.77-1,1.6-2.62,0,0,2.85-.6,2.27-2.33,0,0,2.34-1.57,1.63-3,0,0,2.37-.26,1.7-2.12,0,0,2.57-1.65,1.37-3.44,0,0,2-1,1.58-2.92,0,0,2-.49,1.57-2.28,0,0,2.53-.89,1.92-2.51,0,0,2-1.22,1.5-2.75,0,0,2.22.8,2.27-.39,0,0,2.41,0,2.1-1.43,0,0,2.63-.63,2.21-1.41C405.34,399.53,406,398.86,404.79,398Z" transform="translate(-15.2 -23.51)"/><path class="cls-81" d="M420.72,396.93a1.57,1.57,0,0,0-.3-2.92,4.92,4.92,0,0,0-3.76.39l-.17.1a3.85,3.85,0,0,0-5.35,1.25,2.4,2.4,0,0,0-3.86.86s-3.06-1.94-4.2,1.26c0,0-3-.71-3.15,2.16,0,0-4.09-1.83-4.22,2.57,0,0-4.11-1-4.19,3.17,0,0-2.88-1.29-3.36,2.53,0,0-4.15,0-2.86,4.05,0,0-4.28-.78-3.86,3.43,0,0-4.15,0-2.9,4.21,0,0-4.47-1.11-3.82,4,0,0-3.94,0-3.08,3.53,0,0-3-.83-2.53,3.18,0,0-3.32-.09-2.32,3.58,0,0-3.58-.61-2.9,3.84,0,0-4-1-3.68,4.05,0,0-1.84-1.11-2.81,0s.33,2.86-.51,2.86c-1.66,0-3.15,1.26-2.4,3.22a2,2,0,0,0-2.49,2.3s-3,.28-3,2c0,0,.37,2.39,2.6,1.68,0,0,2.19-.88,2.21-2.6,0,0,2.53,0,2.52-1.61,0,0,3.18-.19,2.58-3.09,0,0,3.44.55,2.73-2.25,0,0,2.61.32,1.93-2.4a2.71,2.71,0,0,0,2.21-3.37,4,4,0,0,0,3.77-3.06s2.59-1.82,2.74-3.56c0,0,2.54-.93,2.33-3.16,0,0,3-1.45,2.72-3.52,0,0,3.95-1.68,3.61-3.83a3.61,3.61,0,0,0,2.46-4.43s4.29.65,3.78-3.45c0,0,4.24-.51,3.13-3.45,0,0,4-.23,3-3.41,0,0,3.68,1.06,4.14-2.29,0,0,4-.25,3.64-3.1,0,0,3,1.54,3.51-1.09,0,0,3.38.77,3.48-1.3,0,0,3.39,1.06,3.91-1.2,0,0,3.35,1.66,4.45-1a6.57,6.57,0,0,0,4.1-.18Z" transform="translate(-15.2 -23.51)"/><path class="cls-84" d="M388.65,513.34s-8.44,64.25.61,113" transform="translate(-15.2 -23.51)"/><path class="cls-84" d="M446.35,496s8,87.11,2.42,130.39" transform="translate(-15.2 -23.51)"/><path class="cls-81" d="M393.64,494.77s-8.2,11.08-8.88,21.48c-.46,7.09,5.73,12.07,12.83,11.91,9.07-.22,16.58-4.09,16.56-14" transform="translate(-15.2 -23.51)"/><path class="cls-81" d="M446.35,496c2.85,7.56,14,27.68-2,32.24a31.4,31.4,0,0,1-5.07-.1c-4.36-.32-15.54-3.31-18.22-15.31" transform="translate(-15.2 -23.51)"/><path class="cls-83" d="M388.59,513.2" transform="translate(-15.2 -23.51)"/><path class="cls-85" d="M446.4,519.3c-.41,1.32-1,5.11,2.9,6.4a6.87,6.87,0,0,0,3.31-5.52,2.82,2.82,0,0,0-1.8-3c-.39-.12-.84-.24-1.35-.35C448.16,516.53,446.86,517.85,446.4,519.3Z" transform="translate(-15.2 -23.51)"/><path class="cls-85" d="M450.74,523.33s0-2.65,1.24-2.43c1.55.27,2.91,1.25,2.39,2.74C453.93,525,450.94,524.1,450.74,523.33Z" transform="translate(-15.2 -23.51)"/><path class="cls-81" d="M426.24,396s3-.8,3.29,1.63c0,0,2.61.24,3,2.21,0,0,3.29-.64,3.06,1.59,0,0,3.63.63,3,3.45,0,0,3,1.24,1.52,3.62a2.17,2.17,0,0,1,1.79,2.87s2.31.69,1.85,2.5c0,0,1.81.61,1.08,2.23,0,0,1.68.69,1,2.15,0,0,2.53,1.91.6,4.13,0,0,3,1.58,1,3.75a2.56,2.56,0,0,1,1.9,1.64,2,2,0,0,1-1.11,2.35c.36.46,1.83,2.75.28,3.78a2.14,2.14,0,0,1,.64,3.3s2.32,2,.06,3.53c0,0,2.08,2,.19,3.1,0,0,2.62,3,.1,4.27a1.75,1.75,0,0,1-.47,2.8s1.61,1.86-.19,2.91c0,0,2.51,1.38,0,2.88,0,0,1.9,2.2.07,3.45,0,0,1.43,3.1-.44,3.66,0,0,1.58,2.36-.11,3.58,0,0,1.16,1.91-.33,2.62,0,0,1.27,2.08-.75,3,0,0,2.34,2.61.11,3.84,0,0,2.07,3.2-.26,3.22,0,0,1.94,2.69-.11,2.93,0,0-3.5.94-2.93-3a2.26,2.26,0,0,1-.21-3.53s-1.59-1.3.35-3.4c0,0-1.95-2,0-3.57,0,0-1.52-1.63.53-3.44a2,2,0,0,1,.74-2.83s-1.49-2.84,1-3.35c0,0-2.31-1.89-.33-3.58,0,0-1.35-2.23.37-3.35,0,0-1.62-1.13,0-3.16,0,0-1.94-1.88.1-3.15,0,0-1.53-1-.22-2.67,0,0-2-2.14,0-3.27,0,0-2.35-2.49,0-3.72,0,0-2.17-1.51,0-3.09,0,0-2.62-1.18-.75-3.33,0,0-2.95-1.45-1-3.87,0,0-3-2.11-.5-4.06,0,0-2.93-1.32-1.12-3.39a2.52,2.52,0,0,1-1.72-3.64,1.87,1.87,0,0,1-1.56-2.81s-2.51-.25-2.08-2.27a2.74,2.74,0,0,1-1.92-4.07s-3.91.3-3.9-2.51c0-.48-.63-.62-1.21-.73a3.35,3.35,0,0,1-2.38-1.84L427.9,400c-3.16,1-3.27-1.8-3.27-1.8-2.47,1.11-4.36-1.36-4.14-2.32C421.09,393.31,424.58,393.81,426.24,396Z" transform="translate(-15.2 -23.51)"/><path class="cls-81" d="M421.88,401.22s-2.1-2.51-4.56-1.05c0,0-2.65-1.63-3.6.45l-.06.13s-3.87.28-3.54,4.15c0,0-2.49-.64-2.16,2,0,0-2.43-.82-2.54,2,0,0-2.45-.24-2.54,2,0,0-2.22-.81-1.86,1.49,0,0-2.33-.71-1.79,1.8,0,0-2.66.44-1.62,2.14,0,0-3.13.25-1.76,2.3,0,0-3.38,1.24-1.46,3.28a2.13,2.13,0,0,0-2.14,2.85s-2.71.16-2,3.43c0,0-3.75,1-1.81,3.26l.06.07s-2.71.48-1.18,2.59a2.1,2.1,0,0,0-1.66,2.63,2.46,2.46,0,0,0-1,3.41s-2,1-1,3.62c0,0-1.77.49-.89,2.8a2.18,2.18,0,0,0-1.08,2.7s-2.52.66-.94,3.18c0,0-2.14.93-.92,3.41,0,0-1.82,1.59-.74,3.18a2.6,2.6,0,0,0-.9,3.13s-2.19.53-1,2.9A2.07,2.07,0,0,0,375.8,468s-2.15,1.45-1,3.09c0,0-1.45,2.14-.37,2.81,0,0,2.58.94,2.52-1.54a2.4,2.4,0,0,0,1.29-3.32,2,2,0,0,0,1.66-3,2.86,2.86,0,0,0,.62-3.59s2.73-.82,1.49-3.15a2,2,0,0,0,.36-2.89s2.2-1.67.3-3.47a1.92,1.92,0,0,0,1.16-2.93s2.33-1.45,1.15-3a2.62,2.62,0,0,0,1.39-3.53s2.48-1.17,1.07-3a2.27,2.27,0,0,0,1.53-2.74s1.95-.66,1.24-3.28c0,0,1.87-.44.76-2.67,0,0,1.94-.85,1.43-2.6,0,0,2.44-1.36,1.88-3.52,0,0,4.25-.64,2.32-3.34,0,0,3.37,0,1.75-3,0,0,4.49-1.36,3.32-4.28a2.37,2.37,0,0,0,2.31-2.58s3,.17,2.48-2.12c0,0,2.83.07,2.9-2.12,0,0,3.18.44,2.93-2.15,0,0,2.79,0,2.56-2.47a1.7,1.7,0,0,0,2.45-1.15s5.32,1.94,4.58-1.34" transform="translate(-15.2 -23.51)"/><path class="cls-81" d="M418.11,401.53a2,2,0,0,0,.47-3.82c-1.24-.59-2.9-1-3.81.41,0,0-3.76-1.48-4.87,1.55a2.38,2.38,0,0,0-3.29,1.58s-3.38-.68-4,2.18c0,0-4.3-.86-4.55,2.91a4.35,4.35,0,0,0-3.5,3.63s-4.39-.09-3.47,4c0,0-4.35.25-3,4.54,0,0-3.84,2.27-1.93,5.27,0,0-4.21,1-2.66,4.37,0,0-2.73,1.65-1.32,3.5,0,0-2.58.34-1.38,3.06a2,2,0,0,0-1.38,3s-2.39.82-.89,2.85c0,0-3,.35-1.55,3a1.7,1.7,0,0,0-1,2.59,1.54,1.54,0,0,0-.58,2.25,1.69,1.69,0,0,0-.93,2.58s-2.58.08-1.75,2.16c0,0-1.84,1.48-.58,2.5,0,0-1.31.35-.63,2l.12,0s-1.44,1.51-.29,1.9c0,0-1.89,1.28-1.18,2.52,0,0-1.69,1.64-.89,2.29,0,0-.22.67,1.64.67,0,0,1.87-1.94,1.32-3a1.29,1.29,0,0,0,1.09-1.93,1.64,1.64,0,0,0,.5-2.46s2.09-.93.87-2.1a1.14,1.14,0,0,0,.19-1.83s2.36-.37,1.53-2.15a1.67,1.67,0,0,0,.9-2.52s2.15-.43,1.06-2.19c0,0,2.3-.79,1.22-2.71a2.09,2.09,0,0,0,1.28-3s2.36-.61,1.16-2.68c0,0,2.37-1.12,2-3,0,0,2.54-.75,1.14-3.58a3,3,0,0,0,1.81-3.07s2.58-.77,1.69-4.07a4.88,4.88,0,0,0,2.79-5.63s4.15-1,3.13-4c0,0,3.47-1.11,3.1-3.44,0,0,3.71-.77,3.44-3.16,0,0,3.39.47,3.65-2.76,0,0,3.87,1.07,4.72-1.94,0,0,3.45.47,4-1.42,0,0,2.62,1,3.86-.72A4.11,4.11,0,0,0,418.11,401.53Z" transform="translate(-15.2 -23.51)"/><path class="cls-81" d="M419.32,400.69a1.61,1.61,0,0,1,1.43-.65c2.3-.17,4-.13,4,2.32,0,0,3.45-.1,2.88,2.7,0,0,3.57-.59,3.39,3.05,0,0,4.31.81,3.64,4.31,0,0,3.89,2.27,1.67,5.55,0,0,2.85,1.43,1,3.86,0,0,2.46,2.86-.25,4.45,0,0,3.16,1.9-.3,5.71a3.56,3.56,0,0,1-.41,5.54s1.12,4-1.61,5.59c0,0,1.61,3-.86,3.82,0,0,.86,2.09-.74,2.82,0,0,1,3.16-.83,3.55a1.9,1.9,0,0,1-.31,2.92s1.14,2.33-1.18,3.24c0,0,1.21,1.72-.5,2.52,0,0,1.11,2.14-.54,2.39,0,0,1,1.9-.82,2.62a1.55,1.55,0,0,1-.42,2.54s1.17,1.75-.47,2.51a1.35,1.35,0,0,1-.73,2s1,1.91-.83,2.25c0,0,.71,1.84-.83,2.14a2.28,2.28,0,0,1-1.13,2.19s-1.63-.19-.36-2.5c0,0-1.45-2.28,1-2.85,0,0-.9-2.12.52-2a1.63,1.63,0,0,1,.55-2.4s-.82-1.61.5-1.77c0,0-.7-1.82.55-2.47,0,0-.92-1.67.43-2.58,0,0-1.17-1.55.27-2.42,0,0-.93-2.49.64-2.87,0,0-1-2.43.81-3.18,0,0-1.43-2.29.68-2.82a2.74,2.74,0,0,1,.69-3.26s-1.18-2.33.61-3.19c0,0-1-2.82.67-3.68,0,0-2.23-3.31,1-5.27a3.53,3.53,0,0,1,.67-5.41s-2.67-3.36.35-5.37c0,0-3.35-2-1.66-5.25a2.49,2.49,0,0,1,0-3.13s-1.94-2.18-1.38-4.08c0,0-4.35-.62-2.49-4.15,0,0-4.39,1.07-4-2.92,0,0-3.77.37-3.1-2.49C421.51,404.56,417.73,403.61,419.32,400.69Z" transform="translate(-15.2 -23.51)"/><path class="cls-86" d="M387.24,521c.21,2.2,3.24,3.08,5.36,3.68a1.69,1.69,0,0,0,2.08-1c.64-1.92-1.27-3.88-2.65-5.27C392,518.46,386.55,513.87,387.24,521Z" transform="translate(-15.2 -23.51)"/><path class="cls-86" d="M388.71,523.43a2.51,2.51,0,0,0-3.09,0,1.89,1.89,0,0,0-.58,2.74c1.09,1.17,3,0,4.08-1.17a1.22,1.22,0,0,0-.41-1.61" transform="translate(-15.2 -23.51)"/><path class="cls-87" d="M409.1,431.23a8.4,8.4,0,0,1-.39,1c-.1.26-.57,1-.44,1.12a.72.72,0,0,0,1.21.05" transform="translate(-15.2 -23.51)"/><path class="cls-87" d="M400.85,421.69a2.92,2.92,0,0,0,5-.06" transform="translate(-15.2 -23.51)"/><path class="cls-87" d="M417.14,421.58a4.41,4.41,0,0,0,5.46,1.09" transform="translate(-15.2 -23.51)"/><path class="cls-88" d="M238.27,509.53c6.43-12.19,13.7-36.33,42-59.64a38,38,0,0,0,9.44-11.53s4.59-7,5.43-18.29c0,0,1.25-10.36,9.61-16,0,0,4.51-12.06,6.77-13.45,0,0,4,15,14.62,14.62,0,0,0,32.88,4.38,39.51.15.23.32.41.46.58,6.56,8.25,15,17.54,20,25a61.42,61.42,0,0,1,7.81,16,195.17,195.17,0,0,1,8.45,55.65q0,.69,0,1.38c-.13,37,1.75,67,1.63,77.3-.09,7.67-72.37,3.89-109,1.48A23.66,23.66,0,0,1,237.86,600C236.09,570.29,233.71,518.16,238.27,509.53Z" transform="translate(-15.2 -23.51)"/><path class="cls-89" d="M239.23,606.71" transform="translate(-15.2 -23.51)"/><path class="cls-90" d="M262.82,503.6s-1,96.22,0,103.91" transform="translate(-15.2 -23.51)"/><path class="cls-90" d="M344.41,519.64s2.08,61.64-3.18,93.64" transform="translate(-15.2 -23.51)"/><path class="cls-91" d="M267.33,506.94s-15.84,20.13-1.8,32.24a18.3,18.3,0,0,0,9.36,3.62c5.48,0,13.59-.93,23.85-13.14" transform="translate(-15.2 -23.51)"/><path class="cls-90" d="M299.91,529s17,13.56,29.57,12.89c0,0,22.55-.83,12.36-36.08" transform="translate(-15.2 -23.51)"/><path class="cls-90" d="M266.42,525.68a5.52,5.52,0,0,1,2.87,7.68c-.68,1.14-2,2.32-4.78,1.93-3.7-.53-3.41-4.38-3.21-5.58C261.84,526.51,263.82,524.77,266.42,525.68Z" transform="translate(-15.2 -23.51)"/><path class="cls-90" d="M337.87,538.17c-3.3,1.27-6.7-.81-6.08-4.49a6.1,6.1,0,0,1,2.49-4.36c3.07-2.2,6.91-.8,6.89,2.53a8.15,8.15,0,0,1-.91,4.15A5,5,0,0,1,337.87,538.17Z" transform="translate(-15.2 -23.51)"/><ellipse class="cls-92" cx="265.57" cy="530.4" rx="0.84" ry="1.26" transform="translate(-341.81 541.15) rotate(-66.71)"/><ellipse class="cls-92" cx="321.24" cy="510.19" rx="0.84" ry="1.1"/><path class="cls-90" d="M303,407.93s1.44,2.06,4,0" transform="translate(-15.2 -23.51)"/><path class="cls-90" d="M316.45,407a2.83,2.83,0,0,0,3.51,0" transform="translate(-15.2 -23.51)"/><path class="cls-90" d="M310.49,421.75s1.67,1.18,3,0" transform="translate(-15.2 -23.51)"/><path class="cls-93" d="M238.1,516.88s-3.68-1.88-1.52-11.15c0,0,4.78-15.91,10.17-23.68a327.21,327.21,0,0,1,22.43-27.81c5.14-5.39,11-10.9,13.91-21.8,0,0,7.89-25.43,8.9-30.7.86-4.51,9.17-28.72,25-18.5a22.82,22.82,0,0,1,9.82,15c1.08,5.61,2.63,13.31,3.75,17.32,1.88,6.77,12,33.61,6.41,37.15a25.61,25.61,0,0,1-6.46-7.88,39.69,39.69,0,0,1-5.59-18.88s-1.25-20.55-.25-20.55c0,0-9.27-1.13-11.84-9.19a27.56,27.56,0,0,0-1.56-3.47c-2.13.85,1,8.39-12.15,18.54,0,0-4,25.81-13.53,35.58,0,0-10.6,14-17.72,21.76a38.66,38.66,0,0,0-2.48,3,49.23,49.23,0,0,1-6.47,7,47.17,47.17,0,0,0-8.08,9.63c-4.8,7.47-12,19-12.24,21.6C238.6,509.86,237.35,515.25,238.1,516.88Z" transform="translate(-15.2 -23.51)"/><path class="cls-90" d="M312.5,412.61a2.19,2.19,0,0,1-.51,3.25" transform="translate(-15.2 -23.51)"/><path class="cls-94" d="M488.22,676.18s2.12,44.53,2.22,68.57c.05,12.26-5,20.85-21.83,23.09l-55.07,7c-17.61,3-30-13.06-31.63-22.26-2.49-13.62,1.18-33,.36-58.33-.38-11.82-1.21-27.45,2.34-34.9,4.23-8.88,14.84-20.69,32.08-28.75,0,0,6.91,1.93,5.71-8.22-.65-6.38,2.43-7.06-1.88-13.78a26.26,26.26,0,0,1-4.24-15.69c.91-15.34,3.46-33.8,22.61-33.68,0,0,14.6.49,16.94,8.64,0,0,6.94,15.8,2.06,31.65-3,9.81-2.88,11.21-5.12,13.07s-1.88,4.81-.92,10.1c1.19,6.52,1.62,9.16,8.6,10.72a62,62,0,0,1,10.42,4.07c11.32,5.93,15.52,15,17.45,25.39,1,5.35-.52,10.55,0,14.49" transform="translate(-15.2 -23.51)"/><path class="cls-95" d="M403,683.6s5,68.47,6.56,74.68" transform="translate(-15.2 -23.51)"/><path class="cls-95" d="M475.78,684.88s1.64,26.77-4.59,71.42" transform="translate(-15.2 -23.51)"/><path class="cls-95" d="M405.15,666.11c.38,4.43-2.46,5.35-2.17,17.49,0,0-1.61,22.1,17.73,19.89,0,0,18.72-.79,18.52-26.11" transform="translate(-15.2 -23.51)"/><path class="cls-95" d="M439.22,677.38s-.61,13.93,6,20.91c6.26,6.63,16.87,8,23.58,4.18,14.43-8.2,3.6-29.76,2.39-36.36" transform="translate(-15.2 -23.51)"/><path class="cls-95" d="M410.85,698.14s-5-6.4-.19-10.37c0,0,5.55-4.51,10,1.06,0,0,3.57,6.63-1.45,9.93C419.25,698.77,413.75,701.35,410.85,698.14Z" transform="translate(-15.2 -23.51)"/><path class="cls-96" d="M414.16,694.61l-.7-.26a1.5,1.5,0,0,0-1.8.63,6.32,6.32,0,0,0-1.06,4.36,1.47,1.47,0,0,0,2.5.94,8.4,8.4,0,0,0,2-4A1.49,1.49,0,0,0,414.16,694.61Z" transform="translate(-15.2 -23.51)"/><path class="cls-97" d="M425.62,575.59c1-1.4.13-5.75.53-4.89.48,1,2.13,1.64,3.76,1.43a5.63,5.63,0,0,1,3.93.77,4.67,4.67,0,0,0,3.75.7,7.93,7.93,0,0,1,4.47.47,6,6,0,0,0,.68.28c2,.67,6.77,2,6.87,4.08a6.29,6.29,0,0,0,.31,1.72,7.52,7.52,0,0,1,.09,4.51,5.34,5.34,0,0,0-.39,2.44,7.48,7.48,0,0,0,2.2,5,2.14,2.14,0,0,1,.13,2.7,12.24,12.24,0,0,0-2.59,7.27A9.63,9.63,0,0,0,451,607a2.35,2.35,0,0,1-.1,2.62,3.25,3.25,0,0,0-.76,2.43,6.88,6.88,0,0,1-.51,3.58c-1.67,3.73-1.35,6.49.21,7.82,1.2,1.35.35,3.43-.21,4.77-2.15,5.14,2.53,7.09,3.06,7.61s2,1.42,4.95,1.36a4.49,4.49,0,0,1,2,.42c2.18,1,6.69,1.33,11.22-.1,5.12-1.62,5.75-6.67,5.9-7.36a8.94,8.94,0,0,0-1-5.76,4.73,4.73,0,0,1-.27-3.57A19.19,19.19,0,0,0,475,609c-1.05-3.14-3.34-4.47-3.5-7.77-.23-4.83,1.65-4.33.14-10.71-.28-1.19,1.52-1.29-.88-7.5-1.88-4.84-3.23-5.14-4.48-10.18-1.56-6.3-.22-3.92-3.71-9.4-1.89-3-4.94-5.28-7.75-7.39-5.59-4.2-14-5.36-20.64-3.19s-9.24-2-14.2,2.56c-2.92,2.68-1.89,4.47-2.73,5.75s-3.43.79-4.35,1.91c-2.83,3.44-1.8,8.62-3.49,12.74-1.59,3.88-5.55,6.7-6.16,10.85-.29,2,.23,4-.35,5.92-.84,2.71-3.69,4.34-4.79,7-1.26,3,.11,6.51-.45,9.73-.45,2.62-2.12,4.85-3,7.37a6.75,6.75,0,0,0,.86,5.92,4.77,4.77,0,0,1,.83,3.22,5.63,5.63,0,0,0,1.43,4.83,4.73,4.73,0,0,1,1.19,2.46,6.27,6.27,0,0,0,3.74,4.76c3.93,1.65,5.46-2.44,8.64-1.36,4.91,1.66,7.27.84,9.78-2.26a4.55,4.55,0,0,1,1.74-1.31c1.66-.71,4.66-2.53,3.64-6.12-.52-1.84-4.11-5.29-3.6-7.13.57-2.07,3.22-4,3-7.47-.44-6.53-5.8-7.55-6-10.78s3.78-4.24,2.16-10.36c-.75-2.84-2.61-3.66-1.34-5.33a6.33,6.33,0,0,0,1.41-3.77,6.14,6.14,0,0,1,1.81-4.3A15.42,15.42,0,0,0,425.62,575.59Z" transform="translate(-15.2 -23.51)"/><path class="cls-96" d="M464.58,695.09q.66.94,1.36,1.84a5.09,5.09,0,0,0,.9,1,1.71,1.71,0,0,0,1.21.39,1.85,1.85,0,0,0,.79-.34,1,1,0,0,0,.47-.55,1,1,0,0,0,0-.48,5.28,5.28,0,0,0-1.33-2.12,2.85,2.85,0,0,0-1.89-1.13A1.83,1.83,0,0,0,465,694a1.15,1.15,0,0,0-.43.49.61.61,0,0,0,.11.64" transform="translate(-15.2 -23.51)"/><path class="cls-95" d="M463.09,685l-.13,0c-2.27.61-3.76,1.36-4.37,3.4a7.89,7.89,0,0,0-.11,3.87c.4,2,1,3.39,2.87,4.19a6.65,6.65,0,0,0,6.21-.11,4.35,4.35,0,0,0,2.28-3.18,8.55,8.55,0,0,0-.36-4.66c-.78-2.12-1.88-3.44-4.59-3.66Z" transform="translate(-15.2 -23.51)"/><path class="cls-98" d="M335.17,571.27s.05,6,4.06,10c0,0-3.11,6.64.18,9.33,0,0,.82,2.94-1,4.35,0,0-3.63,8.74-.35,10.44,0,0,5.59,6.61,14.12-.87,0,0,9.87-6.28,0-31.71a56.73,56.73,0,0,0-6-9.37,23,23,0,0,0-22.9-8.05,32.31,32.31,0,0,0-4.27,1.22,18.17,18.17,0,0,0-10.93,11.69c-1.28,4-2.77,9.38-2.77,12.28,0,0-2.09,8.38,0,12.86.13.17,7.62,27.51,27.15,19.13,0,0-9-2.84-10.54-6.9,0,0-1.09-1.5-1.52-6.27,0,0-.21-4.36-3.09-7,0,0-3-5.76-.93-9.65C316.47,582.7,332.48,589.07,335.17,571.27Z" transform="translate(-15.2 -23.51)"/><path class="cls-99" d="M387.74,756.13c1.71-20.55,3.63-69.95,3.08-104.62,0,0,.72-13.34-8.57-19.93,0,0-26.74-15-29.13-18.73,0,0-1.35-.6-2.09-7.78,0,0-1,2.54-6.13,2.09,0,0-7.33.9-7.48-3.89,0,0-.15-4.79,1.65-7.18a9.23,9.23,0,0,0-.15-7s-.9-5.83.6-7.18l-4.34-10.62s-1.2,7.33-9.87,10.17c0,0-5.24,1.8-9.27,0,0,0-3.48,6.13-.45,11.16.1.17,1.14,2.53,1.21,2.72a53.47,53.47,0,0,1,1.86,6,10,10,0,0,0,1.51,3.38c1.72,2.46,5.24,6.43,10.53,7.14,0,0-2.39,7.63-6.28,9.72,0,0-6.43,4.64-10.17,10,0,0-8.23,9.42-10.17,28.12,0,0-5.83,45.62-4.49,62.83,0,0,.17,20.48.63,33.07.14,3.94,6.42,10.65,17.72,13.62a41.61,41.61,0,0,0,14.8,1S386.15,775.21,387.74,756.13Z" transform="translate(-15.2 -23.51)"/><path class="cls-100" d="M363.84,646.81s14.77,2.15,6.41,105.78" transform="translate(-15.2 -23.51)"/><path class="cls-100" d="M319.76,677.32s-5.59,46.67-3.39,61.93" transform="translate(-15.2 -23.51)"/><path class="cls-100" d="M371.85,673.06s-9.61,23.79-25.46-3.58" transform="translate(-15.2 -23.51)"/><path class="cls-100" d="M324.55,644.41s-5.28,9.88-7.42,18.58c-1.41,5.73.91,11.94,6.16,14.63,4.75,2.43,12.59,1.07,17.11-12.71" transform="translate(-15.2 -23.51)"/><path class="cls-100" d="M362.28,678.9s2.78-1.75,2.92-4.65c.16-3.35-5-3.83-5.61-.54C359.24,675.55,358.47,678.9,362.28,678.9Z" transform="translate(-15.2 -23.51)"/><path class="cls-100" d="M321.76,671.64s4-5.68-2-8.38C319.76,663.26,316.27,665.66,321.76,671.64Z" transform="translate(-15.2 -23.51)"/><path class="cls-100" d="M336.14,586.08s-.9-2.32-2.92,0C333.22,586.08,334.94,587.65,336.14,586.08Z" transform="translate(-15.2 -23.51)"/><path class="cls-100" d="M322.53,586.77a2.06,2.06,0,0,0-2.77,0A2.29,2.29,0,0,0,322.53,586.77Z" transform="translate(-15.2 -23.51)"/><path class="cls-100" d="M329.41,596l-.75-1.42s-.22-.15,0,.71S329.41,596,329.41,596Z" transform="translate(-15.2 -23.51)"/><path class="cls-100" d="M334.68,603.5h-2.13a2.15,2.15,0,0,0,2.13.67Z" transform="translate(-15.2 -23.51)"/><ellipse class="cls-101" cx="304.56" cy="645.35" rx="0.82" ry="1.94"/><ellipse class="cls-100" cx="348.59" cy="652.56" rx="0.9" ry="1.42"/><path class="cls-102" d="M198.81,755.31c-5.39-18.55-3.19-60.82,12.88-97.7a101.91,101.91,0,0,1,26.84-35.92,59.61,59.61,0,0,0,20.27-37.2,12,12,0,0,1,5.75-8.73c.17-.1,3.38-5.42,3.55-5.52,4.31-2.68,7.67.2,11.62,3.39a26.6,26.6,0,0,0,2.41,1.46c3.35,2,4.17,7.35,4.48,11.21.64,7.87.44,19.76-5.53,25.37-4.47,4.21-5.37,11-1.6,15.82a42.24,42.24,0,0,0,4.63,5,58.06,58.06,0,0,1,15.21,22.63c2.07,5.7,3.87,11.85,4.23,16.79,0,0,4.91,57.63.37,84.28a12,12,0,0,1-11.81,9.93S206.45,781.58,198.81,755.31Z" transform="translate(-15.2 -23.51)"/><path class="cls-103" d="M266.56,582.75s3.38,1.41,5.64,0" transform="translate(-15.2 -23.51)"/><path class="cls-103" d="M275.57,599.24s.54.14,2.1-1" transform="translate(-15.2 -23.51)"/><path class="cls-104" d="M259.33,582.43s.43,2.53.46,3c.49,9.67-.64,37.81-5.34,41,0,0-13-9.79-14.31-13.92,0,0-6.54-42.29,17.88-50,0,0,18.78-7.33,27,9.77,0,0,1.31,2.31,1.22,9.57,0,0-12.11,1-13.49-9.76C272.79,572.1,266.46,582.62,259.33,582.43Z" transform="translate(-15.2 -23.51)"/><path class="cls-103" d="M227,661.54a114.48,114.48,0,0,0-8.57,47.74c.23,6.14.95,12.26,1.67,18.36l3.83,32.43" transform="translate(-15.2 -23.51)"/><path class="cls-103" d="M282.28,654.93A265.79,265.79,0,0,1,279.73,764" transform="translate(-15.2 -23.51)"/><path class="cls-103" d="M283.81,663.14" transform="translate(-15.2 -23.51)"/><path class="cls-103" d="M225.1,666.94c-1,4.59-2.71,9-3.3,13.67s.22,9.84,3.63,13.06c3,2.8,7.3,3.58,11.38,3.81a21.16,21.16,0,0,0,4.55-.12,14.68,14.68,0,0,0,8.5-4.84,20.09,20.09,0,0,0,4.39-8.85,9.31,9.31,0,0,0,2.8,5.94,19.16,19.16,0,0,0,5.55,3.72,25.3,25.3,0,0,0,8.91,2.61,12.49,12.49,0,0,0,6.8-1.21,12.72,12.72,0,0,0,5.77-7.59c1-3.11,1.19-11,.68-15.21" transform="translate(-15.2 -23.51)"/><path class="cls-103" d="M281,582.74s2.34,2,4.68.25" transform="translate(-15.2 -23.51)"/><path class="cls-103" d="M278.56,588.57a2.39,2.39,0,0,1-.53,3.69" transform="translate(-15.2 -23.51)"/><path class="cls-104" d="M229.28,683a4.85,4.85,0,0,0-1.27,4.39,6.53,6.53,0,0,0,1.1,2.32,9.45,9.45,0,0,0,5.93,3.86,7.72,7.72,0,0,0,2.35-.06,5.74,5.74,0,0,0,3.21-2.11c1.71-2.47.82-6-1.55-8.34s-7.09-2.77-9.77-.06" transform="translate(-15.2 -23.51)"/><path class="cls-104" d="M273.55,682.41c-2.48.23-3.48.78-4.28,1.82a4.55,4.55,0,0,0-1.07,3.34,4.73,4.73,0,0,0,2.63,3.53,8.31,8.31,0,0,0,7.12.4c2.15-.89,4-3.16,3.42-5.42a4.76,4.76,0,0,0-3.31-3.12,11.4,11.4,0,0,0-4.51-.55" transform="translate(-15.2 -23.51)"/><path class="cls-104" d="M232.49,689a3.44,3.44,0,0,0-2.17,3.38,2.6,2.6,0,0,0,3.07,2.23,3.31,3.31,0,0,0,2-3,2.94,2.94,0,0,0-.69-2.41,1.82,1.82,0,0,0-2.25-.19" transform="translate(-15.2 -23.51)"/><path class="cls-104" d="M275.19,688.05a2.34,2.34,0,0,0-1.24,1.14,3.24,3.24,0,0,0-.33,1.57,3.17,3.17,0,0,0,1.93,3,2.33,2.33,0,0,0,3-2.71,4.47,4.47,0,0,0-.28-.8,5.6,5.6,0,0,0-.54-1,3,3,0,0,0-1.71-1.16,1.44,1.44,0,0,0-.91,0" transform="translate(-15.2 -23.51)"/><path class="cls-104" d="M273.48,615.05a20.17,20.17,0,0,0,6,7.25,3.47,3.47,0,0,0,3,.92,3.18,3.18,0,0,0,1.35-1c3.11-3.59,3.41-8.75,3.56-13.5.31-9.72.62-19.56-1.56-29,0,6.49.06,13.06-1.62,19.33s-5.29,12.29-11,15.44a2.44,2.44,0,0,0,1.56,1.62" transform="translate(-15.2 -23.51)"/><path class="cls-105" d="M109,766.39a23.07,23.07,0,0,0,24.5-21.32c2.18-29.49,4.61-78.76-2-92.68,0,0-11-23-22.67-27.83,0,0-8.16-69.87-26.85-70.28,0,0-20.1-6.42-20.6,39.52,0,0-8.52,30.7-14.14,37.92,0,0-19.46,18.06-18.86,51.56,0,0-5,45,.44,67.93a14.16,14.16,0,0,0,13.76,10.91Z" transform="translate(-15.2 -23.51)"/><path class="cls-106" d="M117.36,669.24s1.85,78-.05,91.49" transform="translate(-15.2 -23.51)"/><path class="cls-106" d="M49,669.24s-5,76.14,0,91" transform="translate(-15.2 -23.51)"/><path class="cls-106" d="M117.31,667.71s1.6,33.62-12.94,40.82a11.12,11.12,0,0,1-8.28.47c-4.37-1.39-11.2-5.2-13.85-15.58" transform="translate(-15.2 -23.51)"/><path class="cls-106" d="M108.07,704.22s4.9-4.76,1-6.25c-3.57-1.35-7.91,6.6-3.32,7.34A2.11,2.11,0,0,0,108.07,704.22Z" transform="translate(-15.2 -23.51)"/><path class="cls-107" d="M110.19,703.29a4.19,4.19,0,0,0-1.37-.78s-1.52.95-1.09,1.55l0,.05c.71,1,1.78,1.86,2.79,1.24C110.56,705.36,111,704.65,110.19,703.29Z" transform="translate(-15.2 -23.51)"/><path class="cls-108" d="M88.8,584.77a4,4,0,0,1-5.34-.28" transform="translate(-15.2 -23.51)"/><path class="cls-108" d="M74.75,584.4a4.71,4.71,0,0,1-5.64.1" transform="translate(-15.2 -23.51)"/><path class="cls-108" d="M81.23,604.72a1.74,1.74,0,0,1-2.66-.43" transform="translate(-15.2 -23.51)"/><path class="cls-108" d="M72.29,612.69" transform="translate(-15.2 -23.51)"/><ellipse class="cls-106" cx="64.42" cy="570.52" rx="0.43" ry="0.53"/><path class="cls-109" d="M137.64,719.09c-.12,4,5.8-19.13.45-63.94-2.58-21.6-19.91-36.82-24.63-51-1.75-5.26-8.57-23-13.38-35.62,0,0-3.6-17-16.72-16.45,0,0-12.53-.55-18.93,11.14a24.87,24.87,0,0,0-1.71,4.07c-1.83,5.45-8.46,24.7-19.49,51-6.46,15.41-26.77,44.32-27.89,62.24-1.51,24.28,10.11,46,10.89,42.58,0,0-.27-17.59,6.43-66.58,1.62-11.84,25.66-21.8,31.65-30.14,8.5-11.83,3-29.5,1-44.13,0,0,11.15-2.85,14.36-17.89,0,0,4.81,11.64,14.94,11.64,0,0-8.49,24.18,5.24,43.63C138.49,674.48,137.8,714,137.64,719.09Z" transform="translate(-15.2 -23.51)"/><path class="cls-106" d="M48.77,673.21c-.87,8.13-.27,13.46.86,20.41.83,5.09,3.54,11.47,7.59,14.65,3.87,3,10.78,3,15,.54s7.2-4.72,8-13" transform="translate(-15.2 -23.51)"/><path class="cls-108" d="M54.57,702c1,2,2.29,3.88,4.69,4.35a2,2,0,0,0,2.35-1.88c.07-1.9-1.17-3.46-2.45-4.77a3,3,0,0,0-3.65-.62A2.12,2.12,0,0,0,54.57,702Z" transform="translate(-15.2 -23.51)"/><path class="cls-110" d="M57.44,701.95c-1.11-.79-3.34.78-3.07,3.16.16,1.39,2.43,1.66,3.36.63a2.87,2.87,0,0,0-.3-3.79" transform="translate(-15.2 -23.51)"/><path class="cls-111" d="M509.74,777.12a25.15,25.15,0,0,1-28.19-16.22,12.4,12.4,0,0,1-.69-2.73c-2.43-26.26-5.61-86.64,9.06-102.62,7.95-8.66,15.67-12.78,17.85-14.54,4.42-3.57,12.21-4.65,10.07-13.2-2.81-11.25-13.4-32.34-1.3-48.85,0,0,5.45-2.11,9.95-4.43,3-1.56,8-2.42,11.18-.93a21.21,21.21,0,0,1,9.42,8.51s3.84,4.9,3.6,14.15c-.06,2.28,0,8.8-.45,11-.81,3.86-.9,8.21-5.08,12.25-2.28,2.21-3.49,2.72-3.76,5.79-1,11.88,5,14.5,10.61,20.27,1.76,1.8,12.42,11.15,13.56,17.3,6.1,27.26,7.22,53.82,3.62,89.65-.66,6.55-5,14.34-14,16.55Z" transform="translate(-15.2 -23.51)"/><path class="cls-112" d="M552.12,699.31s-.69,62.11.9,67.89" transform="translate(-15.2 -23.51)"/><path class="cls-112" d="M500.92,676.18l-.16.72a8.37,8.37,0,0,1-1.92,3.78c-2.38,2.63-4.44,8-3,15.75,0,0,1.73,6.85,6.52,8.85s9.74,1.94,12,1.14c4.05-1.45,7.23-3.25,8.69-8.13" transform="translate(-15.2 -23.51)"/><path class="cls-112" d="M549,675.35a14.23,14.23,0,0,0,2.2,5.85c.25.34,8.94,16-4.43,22.07a17.44,17.44,0,0,1-10.42,1.54c-4-.74-9.14-2.75-11.33-8.13" transform="translate(-15.2 -23.51)"/><path class="cls-113" d="M555,695.44c.66.57,1,1.28.67,1.59s-1.06.09-1.73-.49-1-1.28-.67-1.59S554.33,694.86,555,695.44Z" transform="translate(-15.2 -23.51)"/><path class="cls-112" d="M534.52,605.2s.24,1.89-1.06,2.19" transform="translate(-15.2 -23.51)"/><path class="cls-112" d="M528.8,616.47a3.58,3.58,0,0,0,2.67.76" transform="translate(-15.2 -23.51)"/><path class="cls-114" d="M541.66,583.7" transform="translate(-15.2 -23.51)"/><path class="cls-112" d="M496.78,699c-.73,1.62,1.93,54.58,2.89,67.18" transform="translate(-15.2 -23.51)"/><path class="cls-115" d="M496.69,698.14c-.57.88-1.44,1.37-1.95,1.09s-.46-1.22.1-2.1,1.44-1.37,1.95-1.09S497.26,697.25,496.69,698.14Z" transform="translate(-15.2 -23.51)"/><path class="cls-116" d="M518.71,622.33c-4.68-13.44-5.43-16.8-5.16-24.11.06-1.5-.51-3.36,1.33-6.71,2-3.66,1.2-4.65,2.33-8,1.07,3.92,5.18,3.26,7,2.78a8.27,8.27,0,0,0,4.44-3.2c1.48,6,10.19,5.49,12.5,1.7.61,2.65,1.41,3.9,5.6,5.22,1.2.38,2.07,3,2.28,4.23,1,5.93,1.47,15-1,19.81-5,9.75-6.39,6.82-6.64,11.33,5.16-4.8,6-6.7,8.36-11.94,2.61-5.88,2.64-10,2.25-24.18,0-9.1-8.07-20.88-20.27-20.88a19.88,19.88,0,0,0-19.92,15.51c-2.2,11.28-1.07,28.1,3.57,41.58,1.31,5.89,5.35,14.1,4.76,21.11-.45,5.38-4.06,27.43-7.45,38.5-.51,1.66-1.15,3.46-.38,5.06a2.47,2.47,0,0,0,3.06,1.32,2,2,0,0,0,1.12-1.64c.77-3.24,1.62-6.45,2.31-9.71,2.18-10.2,5.23-26.76,5.34-34.74.06-4.59-.61-7-2-11.66C521.2,630.55,520.16,628.32,518.71,622.33Z" transform="translate(-15.2 -23.51)"/><path class="cls-95" d="M425.55,584.81a5.68,5.68,0,0,0,3.74.12" transform="translate(-15.2 -23.51)"/><path class="cls-95" d="M439.16,584.88a3.18,3.18,0,0,0,4.2-.16" transform="translate(-15.2 -23.51)"/><path class="cls-95" d="M434.19,594.31l.06,2.9,1,.08" transform="translate(-15.2 -23.51)"/><path class="cls-95" d="M434.1,606.35a2,2,0,0,0,3.15,0" transform="translate(-15.2 -23.51)"/><path class="cls-117" d="M522.74,598.25a3.12,3.12,0,0,0,4.09-.08" transform="translate(-15.2 -23.51)"/><path class="cls-117" d="M538.11,597.91a3.1,3.1,0,0,0,4.09,0" transform="translate(-15.2 -23.51)"/><text class="cls-118" transform="translate(157.73 782.2)">V<tspan class="cls-119" x="15.49" y="0">a</tspan><tspan class="cls-120" x="31.11" y="0">le</tspan><tspan class="cls-121" x="53.86" y="0">n</tspan><tspan class="cls-122" x="70.48" y="0">t</tspan><tspan class="cls-123" x="81" y="0">i</tspan><tspan class="cls-124" x="89.5" y="0">n</tspan><tspan class="cls-125" x="106.3" y="0">a </tspan><tspan class="cls-126" x="129.87" y="0">M</tspan><tspan class="cls-127" x="153.3" y="0">a</tspan><tspan class="cls-128" x="168.73" y="0">i</tspan><tspan class="cls-129" x="177.4" y="0">s</tspan><tspan class="cls-130" x="191.82" y="0">t</tspan><tspan class="cls-131" x="202.47" y="0">r</tspan><tspan class="cls-132" x="213.52" y="0">i</tspan></text><text class="cls-133" transform="translate(205.65 806.59) scale(1.1 1.03)">o<tspan class="cls-134" x="16.46" y="0">s</tspan><tspan x="29.33" y="0">t</tspan><tspan class="cls-135" x="39.78" y="0">e</tspan><tspan class="cls-136" x="54.42" y="0">t</tspan><tspan class="cls-137" x="65.29" y="0">r</tspan><tspan class="cls-138" x="77.06" y="0">i</tspan><tspan class="cls-139" x="86.06" y="0">c</tspan><tspan class="cls-140" x="100.62" y="0">a</tspan></text><path class="cls-141" d="M487.51,418c2.1,1.48,2.2,4,4.33,5.3a5.78,5.78,0,0,0,6.58.05,21.83,21.83,0,0,1,1.9-1.3c2.31-1.12,4.94.48,7.36,1.36s6.19.05,5.94-2.47a8.72,8.72,0,0,0,6.88,6c-1.08,3.43,2.11,7.45,5.77,7.27a5.53,5.53,0,0,0,.14,5c.94,1.46.78,5.34,4.53.91a6.12,6.12,0,0,0,1-1.74,39.29,39.29,0,0,0,2.64-15.64,16.88,16.88,0,0,0-2.09-8.33,8.33,8.33,0,0,0-7.25-4.18,10.34,10.34,0,0,0,.25-5.32c-.54-1.72-2.36-3.2-4.13-2.72a4.8,4.8,0,0,0-3-5.9c-.88-.29-1.84-.32-2.74-.56-1.8-.47-3.26-1.72-4.78-2.77s-3.35-2-5.17-1.62-3.3,2.52-2.28,4.05a13.63,13.63,0,0,0-13-6.6l-.62,5.1a4,4,0,0,0-4.78.77,3.84,3.84,0,0,0-.23,4.75c-1.86-.72-3.9-1.45-5.82-.89s-3.26,3.09-1.93,4.56c-3.48-.12-6.14,4.28-4.37,7.23a4.07,4.07,0,0,0-6.24,1.46,4,4,0,0,0,3.89,5c-2.54,1.3-2.35,5.36-.12,7.14s5.53,1.65,8.2.62c-3.77.58-5,6.47-1.84,8.51a3.38,3.38,0,0,0-3.1,3.67,3.45,3.45,0,0,0,4,2.73c2.22-.48,3.3-3,3.43-5.22s-.31-4.53.41-6.64A6.27,6.27,0,0,0,483,430.5c.88.71,3.77,1,4.68-1.23,1.84-4.6.43-5.93-.25-11.08" transform="translate(-15.2 -23.51)"/></svg>