<svg id="Layer_1" data-name="Layer 1" xmlns="http://www.w3.org/2000/svg" viewBox="0 0 1080 1080"><defs><style>.cls-1{fill:#f39f63;}.cls-2{font-size:103.73px;fill:#994472;stroke:#994472;font-family:Timeless-Bold, Timeless;font-weight:700;}.cls-2,.cls-30{stroke-miterlimit:10;}.cls-3{letter-spacing:-0.03em;}.cls-4{letter-spacing:-0.02em;}.cls-5{letter-spacing:-0.04em;}.cls-6{letter-spacing:-0.02em;}.cls-7{letter-spacing:-0.02em;}.cls-8{letter-spacing:0em;}.cls-9{letter-spacing:-0.02em;}.cls-10{letter-spacing:-0.07em;}.cls-11{letter-spacing:-0.02em;}.cls-12{letter-spacing:-0.01em;}.cls-13{letter-spacing:-0.05em;}.cls-14{letter-spacing:-0.04em;}.cls-15{letter-spacing:0em;}.cls-16{letter-spacing:-0.01em;}.cls-17{letter-spacing:-0.02em;}.cls-18{letter-spacing:-0.02em;}.cls-19{letter-spacing:-0.01em;}.cls-20{letter-spacing:-0.03em;}.cls-21{fill:#b88869;}.cls-22{fill:#f5dbb1;}.cls-23{fill:#31558c;}.cls-24{fill:#b0c6d6;}.cls-25{fill:#ced3c5;}.cls-26{fill:#f7a3a8;}.cls-27{fill:#cd6e69;}.cls-28{fill:#7d4850;}.cls-29{fill:#798c8b;}.cls-30{fill:#a38e81;stroke:#a38e81;}</style></defs><title>iconesito</title><path class="cls-1" d="M236.18,984C112.29,858.73,42.59,684.66,46.87,511.23c.73-29.77,3.57-59.62,11-88.51,12.22-47.26,36.46-90.66,61.2-133.08,22.8-39.12,46.72-78.5,80.54-109.24,18.87-17.16,40.44-31.25,61.9-45.27,48-31.34,97.47-63.31,154-75.39,47.48-10.15,96.83-5.55,145.21-.91l194,18.62c25.17,2.41,50.45,4.85,75,10.78,91.46,22.11,167.41,96.09,189.74,184.81,4.44,17.63,6.9,35.67,9.35,53.66,11.42,83.86,22.87,168.39,17,252.78s-30.17,169.7-83.74,236.5c-90.27,112.55-244,153.53-386.84,187.85-31.43,7.55-62.94,15.11-95,19.15-84,10.55-171.09-3.88-246.66-40.87"/><text class="cls-2" transform="translate(343.53 260.11)"><tspan class="cls-3">C</tspan><tspan class="cls-4" x="64.99" y="0">u</tspan><tspan class="cls-5" x="121.04" y="0">r</tspan><tspan x="159.93" y="0">a </tspan><tspan class="cls-6" x="245.2" y="0">d</tspan><tspan class="cls-7" x="301.96" y="0">e</tspan><tspan class="cls-8" x="351.04" y="0">l </tspan><tspan class="cls-9" x="-199.58" y="96.36">p</tspan><tspan class="cls-10" x="-143.12" y="96.36">a</tspan><tspan class="cls-11" x="-95.94" y="96.36">v</tspan><tspan class="cls-12" x="-39.73" y="96.36">i</tspan><tspan class="cls-7" x="-15.86" y="96.36">me</tspan><tspan class="cls-13" x="118.5" y="96.36">n</tspan><tspan class="cls-14" x="171.69" y="96.36">t</tspan><tspan class="cls-15" x="207.6" y="96.36">o </tspan><tspan class="cls-16" x="295.98" y="96.36">p</tspan><tspan class="cls-7" x="353.43" y="96.36">e</tspan><tspan class="cls-17" x="402.51" y="96.36">l</tspan><tspan class="cls-18" x="424.82" y="96.36">v</tspan><tspan class="cls-19" x="481.03" y="96.36">i</tspan><tspan class="cls-20" x="504.37" y="96.36">c</tspan><tspan x="549.48" y="96.36">o</tspan></text><path class="cls-21" d="M332.91,879.11a299.38,299.38,0,0,1-44.86-46.68A180,180,0,0,1,270,805.06c-8.53-16.5-13-34.61-17.45-52.55a276.33,276.33,0,0,1-6.77-94.25c2.23-22.22,6.11-44.73,16.76-64.83A168.2,168.2,0,0,1,278.87,569c33-42.41,79.33-86.47,134.84-101.22,7.48-2,38.66-7.59,41.65-15-13.11,33.41-29.19,66.38-34.91,101.51C414.52,590.7,408,627,404.8,663.7c-3.54,40.43,1.1,78.93,14.72,116.73,6.26,17.46,11.11,35.3,16.42,53,3.85,12.88,15.14,21,24.43,29.92,17.17,16.38,27.92,43.48,29.51,66.69a8,8,0,0,1-.67,4.69c-1.41,2.33-4.6,2.65-7.32,2.64-33.2,0-68.95-10.48-98.59-25.19A258.14,258.14,0,0,1,332.91,879.11Z"/><path class="cls-21" d="M334.68,877.35c-30.47-25.56-59.33-57.74-71.75-96.13-13-40.28-18.91-82.5-14.5-124.71,2.12-20.33,5.81-41,15-59.42,8.44-16.91,21-31.81,33.4-46,23.57-26.85,50.92-51.25,82.93-67.57,14.78-7.53,30.07-12.29,46.13-16.05a156,156,0,0,0,20-5.7c4.06-1.55,9.59-3.53,11.63-7.75L453,452.15c-8.41,21.35-17.89,42.31-25.26,64.08-7.56,22.37-11,45.38-14.79,68.61-7.38,45.21-15.35,91.45-9.79,137.31,2.7,22.24,8.68,43.25,15.9,64.37,3.71,10.87,7,21.89,10.19,32.91,2.85,9.72,4.93,19.54,11.25,27.69,5.57,7.18,12.8,12.67,19.2,19a89.07,89.07,0,0,1,16.54,23.59,113.07,113.07,0,0,1,9.49,27.88c.39,2,.74,3.91,1,5.88s1.29,6.14.74,8.17c-1.45,5.26-11.88,3.13-15.93,2.87-50.07-3.17-98.51-25.47-136.83-57.2-2.47-2-6,1.48-3.54,3.53,34.52,28.59,76.05,49,120.45,56.36,10.28,1.69,21.25,3.3,31.69,2.62,9.84-.64,9.49-8.31,8.44-16.22-2.51-18.84-9.74-37.57-21.31-52.71-5.64-7.39-12.72-13.12-19.34-19.56a57.52,57.52,0,0,1-9.23-11c-3.17-5.15-4.52-11.06-6.2-16.81-3.51-11.94-6.95-23.89-10.89-35.69-3.73-11.16-7.71-22.15-10.6-33.57a266.34,266.34,0,0,1-7.94-70.29c.47-24.94,4.06-49.87,7.8-74.49,4.13-27.13,7.29-55.1,15.14-81.45,7.61-25.57,18.86-49.86,28.62-74.64,1-2.63-3.33-4.47-4.56-1.93-1.94,4-8.92,5.64-12.73,6.87-6.05,2-12.25,3.45-18.44,4.86a190.69,190.69,0,0,0-41.18,14.18c-32.7,15.85-60.84,40.27-84.94,67.2-12.28,13.73-24.66,28.26-33.81,44.31-9.86,17.29-14.66,36.75-17.34,56.34a290,290,0,0,0-2,63.22c1.75,21.06,6.19,41.65,11.76,62,6.16,22.49,15.51,42.4,29.67,61a307.06,307.06,0,0,0,46.92,49.36C333.59,882.94,337.14,879.42,334.68,877.35Z"/><path class="cls-22" d="M553,544.19c-6.32-28.48-14.93-61.06-37-78.19-4.63-3.6-10.25-6.59-16.26-6.51s-11.64,3.33-15.59,7.57-6.51,9.41-9,14.51c-9.57,19.34-19.07,38-25.47,58.28-6.63,21-9.84,42.62-15.55,63.85-2.28,8.49-4.56,17-6.26,25.62-2.74,13.91-3.95,28.07-4.8,42.22-1.94,32.48-2,65.25,3,97.59,5.23,33.51,21.82,62.47,42.32,90.5,9.66,13.21,23.8,31.7,41.31,36.45,3.84,1,22-1.69,22.52-3.72,13.38-51.28,30.89-104,40-155.68,9.92-56.31-.43-113.54-14-169C556.5,560.56,554.84,552.55,553,544.19Z"/><path class="cls-21" d="M643.29,879.11a299.9,299.9,0,0,0,44.87-46.68,180.63,180.63,0,0,0,18.07-27.37c8.53-16.5,13-34.61,17.45-52.55a276.33,276.33,0,0,0,6.77-94.25c-2.23-22.22-6.11-44.73-16.76-64.83A168.94,168.94,0,0,0,697.34,569c-33-42.41-79.34-86.47-134.84-101.22-7.49-2-38.67-7.59-41.66-15C534,486.22,550,519.19,555.75,554.32,561.68,590.7,568.19,627,571.4,663.7c3.54,40.43-1.1,78.93-14.72,116.73-6.26,17.46-11.11,35.3-16.42,53-3.85,12.88-15.14,21-24.43,29.92-17.17,16.38-27.92,43.48-29.5,66.69a7.87,7.87,0,0,0,.67,4.69c1.4,2.33,4.59,2.65,7.31,2.64,33.2,0,68.95-10.48,98.59-25.19A258.14,258.14,0,0,0,643.29,879.11Z"/><path class="cls-21" d="M645.06,880.88c30.09-25.24,59-57.27,71.9-94.94,13.78-40.16,20.14-83.39,16.18-125.74-1.83-19.62-4.92-39.43-12.48-57.74-7.26-17.58-19.06-32.66-31.16-47.14-23.11-27.64-49.94-53-81.32-71.06-15.59-9-32.38-16.08-49.94-20.06-6.64-1.5-13.29-3-19.81-4.94-4.43-1.32-13.19-3.07-15.43-7.71-1.22-2.52-5.62-.73-4.57,1.93,8.75,22.21,18.66,44,26.13,66.71,7.69,23.36,11,47.63,14.87,71.82,7.77,48.15,15.23,97,6.3,145.54-4.29,23.29-12.94,45.12-19.75,67.71-1.75,5.8-3.44,11.62-5.15,17.43s-3,11.85-6.09,17.09c-5,8.51-13.07,14.61-20.14,21.31-13.8,13.1-22.82,31-27.54,49.28a113,113,0,0,0-2.58,13.27c-.49,3.75-1.75,8.91.36,12.37,1.72,2.83,5,3.66,8.08,3.85a112.37,112.37,0,0,0,17-.72c49.69-4.59,97-26.64,135.14-58.26,2.48-2-1.07-5.57-3.53-3.53-34.31,28.41-75.84,48.45-120,55.35-5.29.82-10.62,1.42-16,1.79-3.93.27-15.56,2.62-16.79-2.81-.93-4,.94-10,1.75-14a116.34,116.34,0,0,1,3.78-14.07,106.48,106.48,0,0,1,13.13-26.44c5.36-7.76,12.2-13.74,19-20.13,6.36-5.93,12.34-12.44,15.46-20.7,4.07-10.79,6.6-22.33,10-33.36,6.72-21.95,14.93-43.13,19-65.83,8-45,2.2-90-4.76-134.72-4-25.83-7.12-52.29-14.77-77.36s-18.55-48.66-28.09-72.87l-4.57,1.92c1.77,3.66,6.23,5.54,9.75,7a120.27,120.27,0,0,0,17,5.28c12.81,3.21,25.39,6,37.68,11.06,33.55,13.9,62.46,37.49,87.16,63.76,12.66,13.47,25,27.81,35.15,43.29,11.13,17,17.07,36.11,20.25,56a284.61,284.61,0,0,1,3.06,63.21c-1.39,21.4-5.72,42.22-11.23,62.89-2.93,11-6.29,22-11.09,32.36a159.15,159.15,0,0,1-17.67,28.57,302.37,302.37,0,0,1-47.24,49.82C639.06,879.42,642.61,882.94,645.06,880.88Z"/><path class="cls-23" d="M298.35,699.16c-12.4-.79-24.76-2-37-3.75-3.53-.49-7.17-1-10.18-2.93-5.89-3.71-7.71-11.42-8.08-18.37-.65-12.17,5-15.47,9.51-24.8,5.48-11.27,7-24.12,13.43-35.44,5.23-9.28,11.71-17.8,18.17-26.28,11.45-15.06,22.83-30.19,34.37-45.19,9.18-11.93,21.32-19.72,33.05-29.36,19.27-15.83,41.84-27.61,65.35-35.75,6.89-2.39,57.26-23.23,58.55-8.92a6,6,0,0,1-1.33,3.59c-12.3,19.17-22.12,40.29-33.3,60.26-2.32,4.15-4.68,8.41-5.38,13.06-.54,3.58-.06,7.23-.12,10.86-.24,14.92-9.36,28.2-14.21,42.38-8.8,25.71-3.34,53.73-5.58,80.71-.61,7.29-2.89,15.87-10.31,18.27-3.07,1-6.45.67-9.7.28-7.23,0-12.89-1-20.08.19a173.17,173.17,0,0,1-24.69,2.2C333.44,700.54,315.85,700.28,298.35,699.16Z"/><path class="cls-23" d="M522.14,467.12c38.94,57.5,49,127.54,50.17,195.06.25,14.56,1.4,31.52,14.31,40s32.26,4.78,46.64,3.32c21-2.14,41.84-3.87,63-3.86,9.88,0,20.32.16,28.89-4.75a12.89,12.89,0,0,0,5.37-5.15,16.65,16.65,0,0,0,1.23-6.88c1-27.14-4.17-57.87-18.2-81.49a183.5,183.5,0,0,0-13.75-19.21c-22.12-28.24-46.63-65.41-78.49-83.25C586.53,481.42,550.71,462.8,514,447c-5.77,6.09,1.5,13.6,4.83,18.91s8.69,16.63,15.77,18.2"/><path class="cls-24" d="M570.32,782l-2,10.59A193.58,193.58,0,0,1,564,812.08c-5,16.93-18.1,33.77-29.92,46.74a135.89,135.89,0,0,1-18.56,16.92,28.49,28.49,0,0,0-5.24,4.61c-10.45,13.1,11,49.54-21.44,49.54-29,0-6.85-38.32-21.15-51.53-18-16.65-37.56-33.46-45.82-56.62-17.93-50.23-25.63-102.91-21.73-156.41,4.66-63.86,19.88-130.21,54.48-186.14,9-14.48,28.13-42.15,49.5-29.19,23.19,14.06,36.67,51.22,45.51,74.25,14.62,38.09,26.49,80,29.38,120.89,1.78,25.07,1,50.25-.67,75.31-1,15.41-2.16,30.67-5,45.85ZM455.75,519.39c-2.65,8.37-4.7,15.35-6.2,18.67-2.39,5.29-5.77,10.12-7.73,15.58A66.08,66.08,0,0,0,439,566.88c-5.26,37.8-14.74,77-16.13,114.9a361.22,361.22,0,0,0,15.58,119.09c5.27,17.17,12.23,34.57,25.36,46.82s33.89,17.92,49.5,9c12.76-7.25,19.13-21.94,23.63-35.92,19.57-60.77,19-124.37,15.47-187.5.11-42.72-15.74-87.36-32-126.54A199.59,199.59,0,0,0,510.31,485a101.55,101.55,0,0,0-6.89-10.59,20.1,20.1,0,0,0-6.15-6C477,457.13,463.68,494.42,455.75,519.39Z"/><path class="cls-24" d="M563.08,780c-1.89,10-3.39,20.29-6.36,30.09-2.77,9.14-7.69,17.45-13.15,25.22A174.25,174.25,0,0,1,525,857.43a135.26,135.26,0,0,1-10.62,9.68c-3.76,3.07-8.06,5.65-10.85,9.73-5.68,8.32-3.87,19.32-3.42,28.76.24,4.88.55,8.95-1.09,12.83.39-.93-.65,1.08-.94,1.48.82-1.13-1.56,1.13-.52.45a13.16,13.16,0,0,1-6.28,1.95,18,18,0,0,1-7.52-.66c.81.29-1.91-1.16-.81-.35-1.35-1-.77-.37-1.5-1.87-.44-.91-.16,0-.58-1.71a20.25,20.25,0,0,0-.44-2,53.83,53.83,0,0,1-.22-8c.21-10.24,1.78-22.05-4.3-31.05-4.37-6.46-11.56-11.4-17.16-16.76a166.35,166.35,0,0,1-18.29-19.8c-11.92-15.81-17-35.48-21.9-54.37-20.12-77.53-14-162.16,11.94-237.69a327,327,0,0,1,23.89-53.77c6.93-12.36,14.62-26.22,26-35,4.43-3.42,10-6.14,15.64-4.6,6.44,1.74,11.92,7.54,16.16,12.41,10,11.47,16.73,25.94,22.51,39.88,14.78,35.64,27.1,72.72,33.44,110.85,7,42.39,5.13,87,.36,129.53-1.24,11-3.44,21.84-5.49,32.71-1.77,9.43,12.68,13.47,14.47,4,8.67-46,12.41-93.87,8.78-140.66-3.41-43.9-16.1-86.18-31.82-127.09-6-15.58-12.27-31.29-21.14-45.51-8.1-13-20.42-28.86-36.63-31.21s-29.69,10-39,21.9c-11.1,14.29-19.79,30.6-27.38,47-17.72,38.22-28.36,79.24-34,120.9-5.94,43.82-6.41,87.64,1.37,131.28,3.9,21.89,9.44,43.91,17.4,64.69,7,18.35,20.13,33,34.19,46.37,3.32,3.14,6.7,6.24,10.06,9.33a32.15,32.15,0,0,1,4.05,3.86c-.67-.89,1.14,2.41.76,1.46,1.78,4.45,1.42,9.53,1.25,14.8-.33,10.61-1.57,23.71,7.49,31.31,9.59,8,28.29,6.76,36.49-2.79,7.61-8.85,5.74-21.32,5.23-32.05a64.91,64.91,0,0,1,0-7.64,24.68,24.68,0,0,1,.94-4c2.08-3.39,6.38-5.64,9.42-8.13a135.27,135.27,0,0,0,11.87-11c14-14.56,27.52-31.72,33.82-51.14,3.33-10.24,4.86-21.08,6.85-31.64C579.33,774.54,564.87,770.5,563.08,780Z"/><path class="cls-24" d="M448.52,517.4c-1.81,5.73-3.58,12.68-5.82,17.66-3.12,7-7.47,13.12-9.3,20.64-1.92,7.87-2.57,16.13-3.86,24.13-1.32,8.18-2.75,16.33-4.17,24.49-5.78,33.18-11,66.3-10.1,100.08a368.36,368.36,0,0,0,16,98.47c8.2,26.7,21.9,55.14,50.88,63.61,12.67,3.7,27.1,2.57,38-5.24,11.18-8,17.53-20.19,22.11-32.83,11.18-30.81,16.16-64.11,18.34-96.7,1.12-16.66,1.39-33.37,1.15-50.07s-1.53-33.41-1.84-50.11c-.61-32.56-8.79-64.25-19.78-94.73-5.45-15.12-11.37-30.19-18-44.84-5.32-11.77-13-28.62-26.61-32.36-23.18-6.37-35.41,25.12-41.52,41.57-2,5.35-3.77,10.78-5.51,16.23-2.93,9.22,11.54,13.17,14.47,4,3.31-10.41,6.75-20.89,11.68-30.67,3-5.87,8-16,14.76-16.91,1.76-.24,4.8,1.16,6.91,3.63,4.88,5.71,8.53,12.82,11.71,19.57,6.17,13.09,11.39,26.75,16.39,40.32,10.07,27.38,18.54,56,20.21,85.26,1.7,30,2.85,60.23,1.9,90.27-1,30.79-4.48,61.51-12.49,91.32-5.58,20.73-13.92,52.15-41.39,49.21-26.15-2.81-38.89-29.23-46-51.39a349.44,349.44,0,0,1-16.05-88.18c-1.8-34.4,2.66-67.91,8.53-101.72,2.93-16.84,4.82-34.05,8.32-50.76,1.56-7.46,5.86-13.39,8.87-20.26,2.77-6.34,4.55-13.11,6.63-19.69C465.9,512.16,451.43,508.21,448.52,517.4Z"/><path class="cls-25" d="M511.15,443.13c6.84,12,18.66,25.46,21.89,37.94,16.65,64.29,10.81,127.89-1.68,187.84-3.14,15-8.27,31.05-23.85,37.68a14.27,14.27,0,0,1-7.91,1.28c-2.88-.46-5.57-2.08-8-3.75-29.45-20.09-41.08-52.2-47-81.22-2.76-13.42-1.12-120.18,2.58-131.81,5-15.57,26.66-34.16,34.5-48.47,2.07-3.78,4.6-7.67,9.29-9.16,8.88-2.83,22.15,6.92,20.35,15"/><path class="cls-26" d="M251.81,688.24c13.33.43,26.39,2.9,39.68,3.14,16.18.29,32.37.13,48.54,0q42.93-.33,85.84-1.84c26.86-.94,53.71.88,80.68,1.27,38.91.57,77.83.58,116.74,1.43,36.87.8,73.73.38,110.57-2,2.23,9.1.87,18.65-.5,27.93-1.52,10.36-11.69,11.51-20.44,10.61-20.64-2.13-41.92.4-62.68.09-27.22-.4-54.41-2.06-81.63-2.57-21-.39-42-.09-63,.21l-56.11.81c-21.39.3-42.62,2.57-64,2.67-22,0-44.08.22-66.12.32-12.48.06-25,.67-37.45.72-8.61,0-36.53,4.43-38.71-8.38-1.37-8.08-9.75-34.27,2.67-34.51C247.87,688.16,249.84,688.18,251.81,688.24Z"/><path class="cls-26" d="M251.81,689.49c8.86.35,17.63,1.48,26.45,2.31s17.86.93,26.82,1c18.64.09,37.28-.1,55.92-.37,37-.53,74-2.46,111.07-1.3,37.21,1.17,74.42,1.34,111.65,1.76,36.9.42,73.76,1.54,110.66.48q14.32-.4,28.63-1.17l5.92-.33c3.83-.22,4.21.09,4.62,4a65.09,65.09,0,0,1-.31,14c-1,8.69-2,16.41-12,17.76-7.33,1-15.07-.68-22.44-.82-17.84-.34-35.65,1.19-53.5.83-18.92-.39-37.82-1.31-56.74-2-36.66-1.24-73.33-.46-110,.06s-73,3-109.55,3.13c-32,.12-64.19-.31-96.17,1.49-7.45.42-23.73,2.39-27.78-6-1.62-3.35-2-8.09-2.72-11.71-1-4.91-2.07-10-1.85-15.06.1-2.12.34-4.91,1.86-6.57,2.27-2.46,6.53-1.57,9.5-1.5a1.25,1.25,0,0,0,0-2.5c-5-.12-10.31-.78-12.7,4.55-2.16,4.84-1.13,11-.31,16a152.85,152.85,0,0,0,3.3,15.86c1.2,4.37,4.66,6.74,8.83,8,11.56,3.63,25,1,36.92.79,23.48-.37,46.94-.76,70.43-.89s46.55-.7,69.88-2,46.48-1.16,69.71-1.5c23.58-.33,47.16-.76,70.74-.32,24.23.45,48.44,1.82,72.67,2.4,13.15.31,26.24-.1,39.39-.53,12.06-.39,23.87.59,35.88.84,6.42.14,13.78-1.37,16.81-7.72,2-4.3,2.14-10,2.57-14.65a58,58,0,0,0-.86-18,1.26,1.26,0,0,0-1.21-.92c-63.18,3.94-126.47,1.52-189.72.94-30.92-.28-61.81-1.45-92.72-1.89-31.79-.45-63.63,1.47-95.41,1.88-17.62.22-35.25.4-52.87.28-17.23-.11-34.15-2.59-51.33-3.27C250.2,686.93,250.2,689.43,251.81,689.49Z"/><path class="cls-27" d="M522.05,445c-.27-.17-.54-.33-.82-.47"/><path class="cls-27" d="M523.31,442.87c-.27-.17-.54-.32-.82-.47a2.5,2.5,0,1,0-2.52,4.32c.27.15.55.3.82.47a2.5,2.5,0,0,0,2.52-4.32Z"/><path class="cls-28" d="M491.3,739.09c9.36,2.42,14.41,18.83,15.87,26.79.81,4.4,1.06,8.91,2.33,13.21,4.32,14.57,15.09,23.2,15.45,38.9.34,14.16-3.47,27-14.92,36.62-10.79,9-27.6,8.23-38.94.55-12-8.13-17.47-19.7-16.34-33.51.93-11.32,4.57-18.76,9.95-28.21,5.57-9.78,5.95-16.25,7.32-28.08.94-8.08,5-24.88,15.42-26.46A9.74,9.74,0,0,1,491.3,739.09Zm-6.12,64.71c-9.42,4.49-11.72,21-9.37,29.76a19.46,19.46,0,0,0,1.94,4.83,14.47,14.47,0,0,0,10.72,6.9c9.08,1,15.06-6.93,16.15-15.39.43-3.31-.21-6.65-.86-9.92l-1-5C501.25,807.16,493.08,800,485.18,803.8Z"/><path class="cls-28" d="M489.3,746.32c5.63,1.77,8.21,11.75,9.56,16.8,2.44,9.14,2.81,18.08,6.89,26.83,3.7,7.94,9.58,15.14,11.27,23.91a39.73,39.73,0,0,1-4.68,26.75c-4.57,7.61-11.81,12.88-20.85,13a29.84,29.84,0,0,1-23.32-11c-5.64-6.78-6.91-15.55-5.54-24.06,1.61-10,7.32-17.78,11.31-26.86,4.13-9.38,4.25-19.93,6.05-29,.73-3.62,3.53-17.47,9.31-16.38,9.44,1.78,13.48-12.67,4-14.46-11.92-2.25-20.13,5.68-24.45,16-4,9.6-3.88,19.61-6,29.63-2.56,12.1-11.17,21.77-14,33.9-2.79,11.82-2.31,24.62,4,35.27,12.48,21.12,42.9,29.75,62.54,13.22,9.5-8,15-19.39,16.54-31.58,1.62-12.57-.91-23.58-7-34.61-3-5.39-6.39-10.65-8.11-16.63-1.81-6.22-1.94-12.78-3.71-19-3-10.57-8.43-22.65-19.74-26.2C484.06,729,480.11,743.43,489.3,746.32Z"/><path class="cls-28" d="M481.39,797.32c-10.7,5.72-14.59,19.75-13.87,31.12.89,14,11.58,27.5,27,23.92,30.25-7,18.13-67.64-11.34-55.79-3.74,1.5-6.42,5-5.24,9.22,1,3.56,5.44,6.77,9.23,5.24,7.5-3,8.86,7.44,9.68,12.59.78,4.91-.09,14.24-7,14.25-11.79,0-8.34-23.63-.92-27.6C497.48,805.72,489.91,792.77,481.39,797.32Z"/><path class="cls-29" d="M482.79,586.19c1.08-2.57,2.58-4.65,4.54-5.16s4.32.28,6.16,1.37a18.34,18.34,0,0,1,8,9.69c1.33,3.89,1.2,8.06,1.06,12.14L502.1,617c-.34,9.93-9.71,30.68-20.19,13.39-2-3.33-2.81-7.15-3.57-10.89a10.32,10.32,0,0,1-.17-5.14c.49-1.57,1.75-3.09,1.26-4.67-.25-.83-1-1.52-1-2.37-.08-1,.83-1.89,1.4-2.79,1.35-2.1.91-4.75.8-7.21A30,30,0,0,1,482.79,586.19Z"/><path class="cls-29" d="M485,587.45c1.92-4,4.59-4.87,8.49-2.1a15.77,15.77,0,0,1,5.62,7.41c1.94,5.53.95,12.09.76,17.84-.25,7.39-.56,17.2-6.75,22.52-4,3.42-7.57-1.24-9.4-4.75a28.85,28.85,0,0,1-2.75-8.76,14.13,14.13,0,0,1,.41-6.35,18.17,18.17,0,0,0,.59-1.76c.24-1.69-.81-3.26-.59-4.85s1.7-3,1.88-4.88c.51-5.3,0-9.73,2-14.91,1.14-3-3.69-4.32-4.82-1.33a32.49,32.49,0,0,0-2.27,10.75c-.06,2.36.57,4.67-.46,7-.56,1.26-1.5,1.92-1.65,3.39-.13,1.22.58,2,.69,3.12.15,1.52-.62,2.53-.93,3.91-.83,3.7.25,7.71,1.26,11.28,2.64,9.39,12.41,20.69,21.07,10.07a31.61,31.61,0,0,0,6.14-14.61,98.32,98.32,0,0,0,.76-23.18A21.41,21.41,0,0,0,496,581c-6.28-4.32-12.11-2.9-15.34,3.9C479.26,587.82,483.57,590.36,485,587.45Z"/><path class="cls-29" d="M492.94,537.09a11.3,11.3,0,0,0-9.38,6.92c-1.51,3.7-.89,8.65,2.66,11,4.42,2.93,8.36-1.32,10.75-4.77,2.69-3.87,2.69-9.18-1.68-11.79-2.77-1.66-5.29,2.66-2.52,4.32,2.27,1.36.63,4-.57,5.55s-3.26,4.12-4.27.89,1.87-6.73,5-7.13,3.18-5.4,0-5Z"/><path class="cls-29" d="M482,478.84c-2,7.76-3.55,19.64,6.24,23,7,2.42,14.87-3.19,15.27-10.45.18-3.22-4.82-3.21-5,0-.27,5-7,7.79-10.66,4.46-4.34-3.89-2.28-10.91-1-15.67.82-3.12-4-4.45-4.82-1.33Z"/><path class="cls-27" d="M272,645.27a111.25,111.25,0,0,0-8,9.6c-5.19,7.12-7.37,15.23-12.74,22.31-7.31,9.63-10.05,4.6-10.5-5.65a99.27,99.27,0,0,1,1.15-17.67c2.13-15.67,7.17-30.68,12.71-45.24,11.95-31.46,29.21-62.83,53.41-87,23.26-23.26,51-42,80-57.34a416.32,416.32,0,0,1,43.76-20.6c14.7-5.74,29-11.65,44.92-11.65a15.7,15.7,0,0,1,6.23.85c1.93.83,3.56,2.71,3.41,4.81s-1.76,3.57-3.38,4.77c-4.12,3-8.91,5-13.65,6.94-5.61,2.29-11.56,4-16.18,7.89-5,4.2-9.71,8.83-14.86,12.91-15.85,12.63-31.53,25.81-43.81,42-5.67,7.22-10.79,14.88-16.26,22.25-16.79,22.59-36.88,42.34-56.89,62L283,634C279.29,637.71,275.53,641.4,272,645.27Z"/><path class="cls-27" d="M270.2,643.5a94.3,94.3,0,0,0-9.83,12.28c-3.23,5-5.35,10.65-8.39,15.78a28.44,28.44,0,0,1-4.66,6.41c-2.08,2-2.41,2.62-3.28-.27-1.59-5.21-.94-11.49-.46-16.82,2.18-24.17,11-47.85,21-69.81,9.14-20.13,20.47-39.46,34.77-56.37,14.93-17.65,33.08-32.61,52.12-45.6a443,443,0,0,1,61.06-34.44c10.89-5.13,22.07-9.7,33.4-13.78a126.87,126.87,0,0,1,15.37-4.61,72.21,72.21,0,0,1,9.93-1.55c1.2-.1,2.41-.17,3.62-.2s2.29,0,3.43,0q3.38-.79,3.28,2.71c1.11,3.39,0,3.24-2.72,4.92-1,.59-2,1.12-3,1.63-2.83,1.44-5.8,2.63-8.76,3.79-4.77,1.88-9.74,3.52-14,6.53-4,2.85-7.51,6.44-11.18,9.68-4.41,3.88-9.07,7.45-13.6,11.18a264.22,264.22,0,0,0-25,22.89c-7.71,8.2-14.36,17.26-20.88,26.41-32,44.85-75,79.18-112.29,119.25-2.19,2.36,1.34,5.9,3.54,3.54,36.7-39.42,79.35-73.22,110.93-117.27,7.7-10.75,15.38-21.42,24.64-30.9a310.55,310.55,0,0,1,28-24.77c5.1-4.11,9.94-8.45,14.87-12.76,5.39-4.71,11.25-6.93,17.79-9.57,6-2.41,22.77-8,18.07-17.45-4.33-8.64-20.87-4.47-28.06-2.87-12.49,2.78-24.61,7.87-36.37,12.83a434.43,434.43,0,0,0-68.78,36.58c-20.64,13.49-40.45,29.12-56.76,47.7s-28.89,39.9-38.85,62.32a314.72,314.72,0,0,0-14.92,40.19c-3.84,13.32-7,28.08-6,42,.51,6.6,3.88,16,11.55,9.35,4.76-4.13,7.59-10.39,10.33-15.91A83.45,83.45,0,0,1,273.74,647C275.9,644.66,272.37,641.12,270.2,643.5Z"/><path class="cls-27" d="M703.48,644.85a108.86,108.86,0,0,1,7.89,9.39c5.15,7,7.36,14.83,12.68,21.75,7.24,9.41,9.86,4.56,10.19-5.37A95.56,95.56,0,0,0,733,653.47c-2.25-15.2-7.32-29.81-12.88-44-12-30.62-29.16-61.2-53.05-84.92-23-22.79-50.25-41.18-78.72-56.39-25.58-13.68-51.26-25.71-79.67-32.44-3.48-.83-7.13-1.59-10.62-.77-2.2.51-5.22,2.12-6.07,4.39-1.3,3.47.14,3.3,2.74,4.69,5.48,2.91,11.36,4.78,16.73,8.16,10.43,6.58,19.75,14.73,29.44,22.32,15.18,11.91,29.61,24.94,41.64,40.08,5.62,7,10.69,14.53,16.12,21.73,16.62,22.07,36.44,41.42,56.19,60.68l37.76,36.83C696.25,637.44,700,641.06,703.48,644.85Z"/><path class="cls-27" d="M701.72,646.61a77.51,77.51,0,0,1,11.88,16.08c2.73,5.14,5.06,10.47,8.68,15.07s10.5,9.1,13.3,1.12c3.59-10.25.48-24-1.7-34.22-2.72-12.83-7.17-25.24-12-37.4-8.91-22.4-20.14-44-34.71-63.29s-32.46-35.36-51.86-49.51c-20.35-14.85-42.38-27.28-65-38.34a347.11,347.11,0,0,0-35.11-15.05c-5.64-2-11.35-3.87-17.12-5.48s-12.21-3.93-18.32-3.42c-5.21.44-15.83,7.76-8.59,12.89,4.22,3,9.85,4.51,14.48,6.82,5.93,2.95,11.32,7,16.57,11,20.47,15.7,41.07,32,57.39,52.13,9.15,11.27,17.06,23.46,26.37,34.63s19.59,22,30,32.37c21.69,21.71,44.71,42.26,65.74,64.61,2.21,2.35,5.74-1.19,3.53-3.53C672.06,607.79,633.73,577.22,603.74,539c-7.06-9-13.36-18.6-20.58-27.49a216.51,216.51,0,0,0-23.06-24c-8.39-7.58-17.34-14.49-26.14-21.58s-17.73-14.6-28.08-19.35c-2.29-1.06-4.63-2-6.92-3.1s-6.73-1.85-3.23-4.72c4.75-3.91,14.11-.14,19.28,1.27a264.16,264.16,0,0,1,32.21,11.14,449.77,449.77,0,0,1,61.28,31.51c19.67,12,38.32,25.8,54.86,41.89,16.11,15.67,29.14,34.11,39.71,53.9,11.8,22.09,22.14,46.5,26.71,71.23a97,97,0,0,1,2,21c0,1.22.12,7.18-1.53,8-.9.42-4.76-4.86-5-5.24-3.55-5-5.77-10.8-8.87-16.09a84.86,84.86,0,0,0-11.06-14.16C703.07,640.7,699.54,644.25,701.72,646.61Z"/><path class="cls-30" d="M537.29,559.87a195.53,195.53,0,0,1-3.76,31.54c-2,10.15-6,19.8-9.32,29.57a167.28,167.28,0,0,1-13,29.06c-3.74,6.61-8.25,12.56-12.45,18.85-3,4.47-9.59,10.27-8,16.15,1.83,6.66,12,5.17,17.14,4.75A48.37,48.37,0,0,0,531,681.92c11.9-8.06,17.85-19.63,22.81-30.78,3.7-8.31,7.11-16.75,10.16-25.31,20.57-57.65,27.42-133.29-21.69-178.74-8.17-7.57-18-13.7-28.91-16.4-8.12-2-19.4.31-22.27,9.43-2.37,7.55,20.71,28.06,24.94,35.23A154.14,154.14,0,0,1,537.29,559.87Z"/><path class="cls-30" d="M446.19,560c.17,3.89.37,7.77.47,11.69A126.13,126.13,0,0,0,453,607.9c1.65,5,3.6,9.85,5.56,14.71,3.88,9.66,7.78,19.36,12.62,28.59,5,9.51,11.43,17.94,16.78,27.25,1.06,1.86,2.17,3.9,1.87,6-.35,2.44-2.54,4.28-4.89,5-7.28,2.17-19.81-1.58-25.66-6a95.53,95.53,0,0,1-13.38-12.6,133.38,133.38,0,0,1-20-30.86c-10.49-21.87-16.52-46.09-19.74-69.88-4.24-31.28-1.51-63.52,11.17-92.65,7.19-16.53,18.21-32.81,37.2-42.59,10.85-5.59,31.31-8,35.56,5.24,2.4,7.49-20,28.22-24.14,35.43a155.71,155.71,0,0,0-19.7,64.6A164.88,164.88,0,0,0,446.19,560Z"/></svg>