<svg xmlns="http://www.w3.org/2000/svg" viewBox="0 0 1080 1080"><defs><style>.cls-1{fill:#f29f64;}.cls-2{fill:#b8876a;}.cls-3{fill:#f3dab1;}.cls-4{fill:#32558d;}.cls-5{fill:#afc5d4;}.cls-6{fill:#cdd2c5;}.cls-7{fill:#f7a2a7;}.cls-8{fill:#ce6f6b;}.cls-9{fill:#7e4851;}.cls-10{fill:#788a8a;}.cls-11{fill:#a38d80;stroke:#a38d80;stroke-miterlimit:10;stroke-width:0.25px;}</style></defs><title>iconesito</title><g id="Layer_2" data-name="Layer 2"><path class="cls-1" d="M223.35,974.08C100.08,849.44,30.72,676.25,35,503.68c.73-29.63,3.56-59.33,11-88.07,12.16-47,36.28-90.22,60.89-132.42,22.7-38.93,46.49-78.11,80.14-108.7,18.78-17.07,40.24-31.09,61.6-45,47.75-31.18,97-63,153.22-75,47.24-10.09,96.34-5.52,144.48-.9l193,18.52c25,2.41,50.19,4.83,74.61,10.73,91,22,166.57,95.61,188.79,183.89,4.42,17.55,6.86,35.49,9.3,53.4,11.37,83.44,22.76,167.54,17,251.52s-30,168.86-83.33,235.32c-89.82,112-242.82,152.77-384.91,186.91-31.28,7.51-62.63,15-94.58,19.06-83.55,10.5-170.24-3.87-245.44-40.66"/><path class="cls-2" d="M305.22,850a433.58,433.58,0,0,1-64.79-67.42c-9.71-12.53-18.87-25.53-26.1-39.53-12.32-23.83-18.81-50-25.2-75.88a398.61,398.61,0,0,1-9.78-136.12c3.22-32.08,8.82-64.59,24.2-93.62,6.58-12.43,14.87-24,23.62-35.28C274.86,340.92,341.75,277.3,421.9,256c10.81-2.87,55.84-11,60.16-21.61-18.94,48.24-42.16,95.86-50.43,146.6-8.56,52.52-18,105-22.59,157.94-5.11,58.4,1.58,114,21.26,168.58,9,25.21,16.05,51,23.71,76.57,5.57,18.6,21.86,30.41,35.28,43.21,24.79,23.66,40.33,62.79,42.61,96.3.16,2.32.23,4.8-1,6.78-2,3.36-6.64,3.82-10.57,3.82C472.43,934.1,420.79,919,378,897.8A373.69,373.69,0,0,1,305.22,850Z"/><path class="cls-2" d="M305.66,849.57a435.82,435.82,0,0,1-60.36-61.79c-19.2-24-34.61-49.22-44.09-78.57-18.76-58.07-27.33-119.06-21.06-179.92,3.06-29.65,8.31-59.64,21.47-86.65,11.89-24.43,29.86-45.9,47.59-66.29,34.19-39.33,74-75.17,120.48-99.26,21.46-11.12,43.79-18.52,67.24-23.94,9.94-2.29,19.93-4.7,29.52-8.22,5.39-2,13.54-4.56,16.15-10.24l-1.14-.48c-12.13,30.8-25.8,61-36.43,92.39-10.82,32-15.78,64.79-21.21,98-10.82,66.19-22.47,133.83-14,201a380.46,380.46,0,0,0,8.93,46.75c4.14,16.12,9.8,31.65,15.06,47.41,5.47,16.38,10.27,33,15.12,49.54,3.95,13.48,7.43,25.51,16.8,36.29,8.81,10.14,19.79,18.07,28.75,28.05a138.73,138.73,0,0,1,22.7,35.58,165.1,165.1,0,0,1,12.42,40.69c.6,3.6,1.08,7.21,1.41,10.85.46,5.18.93,10.64-5.5,12.39-6.79,1.86-15.51.31-22.44-.19-63.57-4.57-126-30.25-177.26-67.58-6.9-5-13.62-10.29-20.19-15.75-.62-.51-1.51.37-.89.89,49,40.68,108.09,69.61,171.1,80.35,15,2.56,30.62,4.58,45.82,4,4.14-.16,8.86-1.12,10.42-5.49,1.75-4.89-.06-11.82-.8-16.81-4-27-14.8-53.92-32-75.2-8.64-10.69-19.65-18.92-29.13-28.79a70.53,70.53,0,0,1-12.57-17.06c-3.78-7.59-5.6-16.29-8-24.4-5-17.19-10.05-34.41-15.83-51.37-5.53-16.24-11.1-32.33-15.13-49a388.35,388.35,0,0,1-10.51-101.51c1-35.86,6.19-71.69,11.6-107.1,2.74-17.86,5.69-35.69,8.63-53.52,2.84-17.15,5.39-34.31,9.83-51.14,8.68-32.87,22.15-64.21,35.06-95.58q4.77-11.58,9.38-23.23c.26-.65-.84-1.12-1.14-.48-2.95,6.41-13.54,9.12-19.55,11.1-8.65,2.84-17.52,5-26.38,7-20.54,4.71-40.26,11-59.29,20.21-46.86,22.62-87.12,57.48-121.69,96-17.8,19.81-35.67,40.79-48.94,64-14.18,24.75-21,52.7-24.84,80.75a416.17,416.17,0,0,0-2.71,91.23c2.56,30.41,9.07,60.17,17.2,89.54,4.23,15.25,9.18,30.35,16,44.65,7.1,14.84,16.35,28.49,26.31,41.54a439.55,439.55,0,0,0,67.11,70.44C305.39,851,306.28,850.09,305.66,849.57Z"/><path class="cls-3" d="M623,366.34c-9.13-41.13-21.55-88.17-53.41-112.91-6.7-5.2-14.82-9.52-23.48-9.41s-16.82,4.82-22.52,10.94-9.41,13.59-13.05,21c-13.81,27.94-27.53,54.83-36.78,84.16-9.57,30.36-14.21,61.56-22.45,92.21-3.29,12.27-6.59,24.55-9,37-4,20.1-5.71,40.55-6.93,61-2.81,46.9-2.92,94.23,4.37,140.93,7.56,48.4,31.52,90.22,61.12,130.69,13.95,19.08,34.36,45.79,59.65,52.64,5.55,1.5,31.77-2.44,32.53-5.36,19.32-74.07,44.6-150.23,57.74-224.82,14.31-81.33-.64-164-20.15-244C628.11,390,625.71,378.42,623,366.34Z"/><path class="cls-2" d="M753.45,850a433.58,433.58,0,0,0,64.79-67.42c9.72-12.53,18.87-25.53,26.1-39.53,12.32-23.83,18.81-50,25.21-75.88a398.86,398.86,0,0,0,9.77-136.12c-3.22-32.08-8.82-64.59-24.2-93.62-6.58-12.43-14.87-24-23.62-35.28C783.81,340.92,716.92,277.3,636.77,256c-10.81-2.87-55.84-11-60.16-21.61C595.55,282.62,618.77,330.24,627,381c8.56,52.52,18,105,22.59,157.94,5.11,58.4-1.58,114-21.25,168.58-9,25.21-16,51-23.72,76.57-5.56,18.6-21.86,30.41-35.28,43.21-24.79,23.66-40.32,62.79-42.61,96.3-.15,2.32-.23,4.8,1,6.78,2,3.36,6.64,3.82,10.57,3.82,47.93-.08,99.57-15.14,142.37-36.38A373.39,373.39,0,0,0,753.45,850Z"/><path class="cls-2" d="M753.9,850.46a436.26,436.26,0,0,0,61.47-63.2c18-22.72,32.87-46.65,42.16-74.26,19.42-57.7,28.4-119.27,22.61-180-2.69-28.14-7.2-56.57-18.26-82.76-10.64-25.18-27.93-46.88-45.42-67.64-33.58-39.85-72.59-76.42-118.29-102a260.07,260.07,0,0,0-69.43-27.16c-9.65-2.17-19.31-4.37-28.78-7.27-6.79-2.08-19.47-4.89-22.81-12.13-.29-.63-1.4-.18-1.14.48,12.46,31.66,26.57,62.7,37.31,95,10.94,32.94,15.73,67,21.28,101.19,11.36,70,22.68,141.1,10.41,211.74a383.09,383.09,0,0,1-11.89,49c-5.18,16.53-11.26,32.75-16.31,49.34-2.65,8.73-5.21,17.48-7.77,26.23-2.37,8.11-4.18,16.81-8,24.4-6.34,12.71-17.52,22-27.81,31.39-20.41,18.67-34.09,42.95-41.57,69.49a161.24,161.24,0,0,0-4.33,20.17c-.74,5-2.55,11.89-.8,16.81,1.56,4.37,6.28,5.33,10.42,5.49a179.28,179.28,0,0,0,22.93-1c63.49-5.65,125.46-31.67,176.41-69.5q9-6.67,17.58-13.84c.62-.52-.27-1.4-.89-.89-49.3,40.91-108.86,69.9-172.29,80.33-8.34,1.37-16.73,2.39-25.16,3q-5.61.4-11.24.56c-3.51.1-7.78.66-11.2-.37-5.86-1.76-6-6.6-5.56-11.67.33-3.88.83-7.74,1.47-11.57a165.16,165.16,0,0,1,22.42-59.33c7.47-11.86,16.8-21.46,27.11-30.82,9.49-8.63,19.23-17.73,24.55-29.66,2.94-6.61,4.56-13.87,6.59-20.8,2.47-8.44,4.93-16.88,7.47-25.3,9.64-32,21.86-62.83,28.07-95.74a396.67,396.67,0,0,0,6-96.14c-2-33.89-6.93-67.68-12.15-101.2-2.73-17.53-5.65-35-8.54-52.54-2.72-16.44-5.39-32.76-9.82-48.85-8.7-31.59-21.65-61.79-34.1-92-3.18-7.72-6.33-15.46-9.39-23.23l-1.14.48c2.24,4.85,8.63,7.26,13.23,9.12,8.4,3.39,17.25,5.69,26,7.83,19.73,4.81,38.89,9.53,57.6,17.77,47.6,20.95,88.61,54.92,123.79,92.77,18.18,19.56,36,40.35,50.42,62.89,15.74,24.64,24,52.49,28.46,81.2a415.39,415.39,0,0,1,4.14,92.27c-2.17,31.09-8.56,61.4-16.65,91.44-4.24,15.76-9.16,31.41-16.08,46.22s-16.08,28.63-26,41.73a437.8,437.8,0,0,1-68,71.64C752.4,850.09,753.28,851,753.9,850.46Z"/><path class="cls-4" d="M255.31,590.14c-17.91-1.15-35.76-2.91-53.41-5.41-5.09-.72-10.35-1.5-14.7-4.24-8.5-5.35-11.13-16.49-11.66-26.53-.94-17.57,7.17-22.34,13.72-35.82,7.92-16.26,10.18-34.83,19.4-51.17,7.56-13.41,16.92-25.71,26.24-38,16.54-21.75,33-43.59,49.64-65.25,13.26-17.24,30.79-28.48,47.73-42.4,27.82-22.86,60.43-39.88,94.37-51.64,9.95-3.44,82.7-33.54,84.55-12.88.17,1.86-.89,3.59-1.91,5.19-17.77,27.69-31.94,58.18-48.09,87-3.36,6-6.77,12.14-7.78,18.86-.77,5.17-.09,10.45-.17,15.68-.35,21.56-13.52,40.73-20.52,61.2-12.7,37.14-4.82,77.6-8.06,116.56-.87,10.54-4.17,22.92-14.88,26.39-4.44,1.43-9.32,1-14,.4-10.44,0-18.61-1.43-29,.29a250.39,250.39,0,0,1-35.65,3.17C306,592.13,280.58,591.75,255.31,590.14Z"/><path class="cls-4" d="M578.49,255c56.24,83,70.81,184.19,72.46,281.69.36,21,2,45.52,20.66,57.71s46.6,6.91,67.36,4.79c30.3-3.09,60.41-5.58,90.9-5.57,14.27,0,29.34.23,41.72-6.86,3.15-1.81,6.14-4.17,7.75-7.43,1.51-3,1.66-6.55,1.79-10,1.48-39.19-6-83.56-26.28-117.67C849,442,842,433,835,424,803,383.23,767.64,329.54,721.63,303.78c-50.14-28.08-101.88-55-154.87-77.77-8.34,8.79,2.15,19.65,7,27.31s12.55,24,22.77,26.29"/><path class="cls-5" d="M648.07,709.74,645.18,725a280.8,280.8,0,0,1-6.31,28.16c-7.26,24.46-26.14,48.78-43.2,67.51a197.15,197.15,0,0,1-26.81,24.44,40.38,40.38,0,0,0-7.56,6.65c-15.09,18.92,15.88,71.54-31,71.54-41.87,0-9.89-55.33-30.54-74.42-26-24-54.24-48.31-66.17-81.75-25.89-72.56-37-148.63-31.38-225.88,6.73-92.23,28.7-188,78.68-268.81,12.94-20.92,40.61-60.88,71.48-42.16,33.48,20.31,53,74,65.73,107.23,21.11,55,38.24,115.6,42.42,174.57,2.57,36.21,1.41,72.58-1,108.77-1.46,22.25-3.12,44.28-7.25,66.21ZM482.62,330.53c-3.83,12.08-6.79,22.16-9,27-3.45,7.63-8.32,14.61-11.16,22.5-2.21,6.14-3.12,12.66-4,19.12-7.6,54.59-21.29,111.25-23.31,165.93a521.84,521.84,0,0,0,22.51,172c7.6,24.79,17.66,49.91,36.62,67.6s48.94,25.88,71.49,13.07c18.43-10.48,27.63-31.7,34.12-51.88,28.26-87.77,27.44-179.61,22.34-270.78.16-61.69-22.72-126.15-46.26-182.74-4.44-10.65-8.88-21.34-14.58-31.44a150.44,150.44,0,0,0-9.94-15.3c-2.47-3.32-5.17-6.63-8.89-8.69C513.33,240.62,494.07,294.46,482.62,330.53Z"/><path class="cls-5" d="M646.26,709.24c-2.93,15.54-5.13,31.56-10.18,46.59-4.54,13.49-12,25.9-20.3,37.41a262.55,262.55,0,0,1-29,34,194.41,194.41,0,0,1-16.37,14.38c-4.2,3.29-9.06,6.26-11.9,10.93-6.86,11.25-3,27.11-2.7,39.47.17,6.77.07,14.37-3.59,20.34-4.33,7.06-12.84,8.93-20.58,9.1s-16.07-1.54-19.83-9.12c-3.07-6.19-2.94-13.7-2.81-20.44.24-13.26,3.19-30.17-5.45-41.58-3-3.93-7.15-7.06-10.76-10.38-5.18-4.78-10.36-9.58-15.41-14.5-9.5-9.26-18.66-19-26.4-29.78-16.89-23.59-24.33-53.08-31.38-80.86a552.71,552.71,0,0,1-14.82-182c4.71-56.74,15.16-113.29,34.08-167.08a481.42,481.42,0,0,1,35.65-78.77c10.61-18.62,22.53-39.21,40.36-51.85,8.72-6.19,19.25-9.8,29.79-6.33,10.2,3.35,18.86,11.74,25.77,19.65,15.5,17.75,25.86,39.79,34.81,61.39,21.41,51.67,39.32,105.4,48.47,160.69,5.2,31.43,6.78,63.21,6.35,95a943.28,943.28,0,0,1-5.82,96.38c-1.86,15.92-5,31.6-8,47.34-.45,2.36,3.17,3.37,3.61,1,3-15.75,6.11-31.45,8-47.37C659.88,646,661,629,662,612c2-33.54,2.81-67.25.35-100.79C657.8,449.07,639.82,389,617.65,331.07,609.41,309.56,600.87,288,589,268.14c-5.92-9.94-12.71-19.52-20.93-27.7-7.13-7.09-15.92-14.25-26-16.24-20.67-4.06-38,13.25-49.58,28.09-15.76,20.25-28,43.62-38.77,66.82C428.9,372.67,414,430.41,405.89,488.76c-8.46,61-9.53,122.46.84,183.34A567.14,567.14,0,0,0,430.87,765c9.12,26,26.62,46.52,46.2,65.34,4.89,4.69,9.87,9.29,14.86,13.88,3.66,3.37,7.91,6.47,10.29,10.94,3.6,6.75,3.59,15,3.47,22.47-.21,12.79-3.76,31.2,6.3,41.38,5.4,5.47,13.58,6.47,20.91,6.14,7.49-.34,15.45-2.24,20.54-8.14,9.18-10.65,5.92-27.59,5.29-40.35-.33-6.85-.81-14.71,2.35-21,2.63-5.27,8.22-8.4,12.7-11.95A195.6,195.6,0,0,0,591.36,828c19.8-20,39.26-44.16,48.33-71.14,5.06-15,7.26-31,10.18-46.58C650.32,707.88,646.7,706.87,646.26,709.24Z"/><path class="cls-5" d="M480.81,330c-2.78,8.81-5.05,18-8.77,26.51-4.42,10.1-10.81,18.86-13.31,29.78s-3.5,22.58-5.31,33.79c-1.88,11.65-3.92,23.27-5.94,34.9-8.17,46.85-15.5,93.56-14.4,141.28a524.16,524.16,0,0,0,22,138.52c10.78,35.84,27.91,75.75,66.75,87.93,16.2,5.08,34.44,4.1,48.67-5.77,14.78-10.25,23-27.1,28.88-43.59,15.39-43.2,22.58-89.5,25.71-135.11,3.22-47.14,1.36-94.21-.82-141.34-.53-11.52-.68-22.95-2-34.43-1.29-11.15-3.16-22.23-5.48-33.21a532.19,532.19,0,0,0-19.1-66.3q-11.32-32.12-25-63.39a183,183,0,0,0-15.86-29.76c-4.6-6.8-9.41-13.65-17.46-16.51-11.74-4.17-22.18,2.85-29.35,11.76-9.8,12.17-15.91,27.22-21.28,41.74-2.84,7.66-5.4,15.42-7.88,23.2-.73,2.31,2.89,3.29,3.62,1,4.9-15.41,10.07-30.87,17.26-45.39,5.38-10.84,13.13-25.65,25.77-29.23,6.77-1.92,13.88.77,18.71,5.66,7.57,7.66,13.14,18.26,17.88,27.82,9.6,19.37,17.34,39.91,24.9,60.14,15.35,41.06,28.14,83.92,30.9,127.88,1.38,22,2,44.17,2.71,66.21s.83,44,.13,66c-1.42,44.6-6.46,89.22-17.91,132.43-9,34-22.89,81.78-66.7,79.44-41.35-2.22-63.85-41.17-75.62-76.15-14.24-42.35-22.34-87-24.9-131.56-2.6-45,1.87-89.26,9.3-133.63,3.74-22.35,7.89-44.63,11.36-67,1.61-10.42,2.28-21.36,5.52-31.44,3-9.3,9-17.18,12.58-26.23,3.19-8.11,5.48-16.61,8.11-24.91C485.16,328.72,481.54,327.74,480.81,330Z"/><path class="cls-6" d="M562.62,220.4c9.88,17.38,26.94,36.76,31.61,54.79,24,92.83,15.62,184.68-2.42,271.26-4.53,21.71-11.95,44.84-34.45,54.41a20.48,20.48,0,0,1-11.42,1.86c-4.16-.67-8.05-3-11.58-5.42-42.53-29-59.33-75.38-67.94-117.29-4-19.39-1.61-173.55,3.74-190.35,7.15-22.49,38.49-49.34,49.81-70,3-5.46,6.66-11.08,13.43-13.23,12.81-4.09,32,10,29.38,21.59"/><path class="cls-7" d="M188.1,574.37c19.25.62,38.11,4.18,57.31,4.53,23.35.42,46.74.19,70.1,0q62-.46,124-2.65c38.8-1.36,77.57,1.27,116.51,1.84,56.2.82,112.41.83,168.6,2.06,53.24,1.16,106.47.56,159.68-2.81,3.22,13.14,1.26,26.93-.72,40.32-2.21,15-16.89,16.63-29.53,15.32-29.8-3.07-60.53.59-90.51.15-39.32-.59-78.58-3-117.88-3.72-30.33-.56-60.66-.13-91,.31l-81,1.16c-30.88.44-61.54,3.71-92.42,3.86-31.83,0-63.66.31-95.48.47-18,.08-36.06.95-54.09,1-12.44,0-52.76,6.4-55.91-12.1-2-11.67-14.08-49.49,3.86-49.84C182.41,574.25,185.26,574.28,188.1,574.37Z"/><path class="cls-7" d="M188.1,575c13.43.5,26.73,2.31,40.1,3.51,12.85,1.15,25.73,1.19,38.62,1.24,26.73.1,53.46-.17,80.17-.56,53.88-.78,107.64-3.5,161.53-1.78,54.16,1.73,108.32,1.87,162.5,2.51,54,.63,108,2.19,162,.47q20.7-.66,41.39-1.83c2.46-.14,6.8-1.33,8.77.14,2.41,1.81,1.94,7.46,2.08,10.44a114.88,114.88,0,0,1-1.06,19.35c-.73,5.88-.89,12.86-4.87,17.63-2.94,3.52-7.34,5.26-11.74,6-10.61,1.9-22-.69-32.71-.94-26.42-.63-52.81,1.7-79.25,1.15-26.86-.55-53.69-1.85-80.54-2.77-54-1.85-108-.68-162,.1-27,.38-53.89.76-80.83,2.32s-53.91,2.06-81,2.18c-45.91.22-91.78.55-137.64,2.37-11.49.45-33.84,2-37.39-12.59-3-12.39-7.58-27.09-5.43-39.88.49-2.91,1.5-6.09,4.07-7.83,3.55-2.4,9.19-1.38,13.16-1.27a.63.63,0,0,0,0-1.25c-7-.2-14.62-1.22-17.53,6.51-2.66,7.07-1.17,15.64.07,22.85,1.29,7.46,2.54,15.57,4.83,22.8,2,6.24,8.37,9.1,14.28,10.48,8.47,2,17.4,1.75,26,1.34,9.49-.46,18.89-.83,28.39-1q50.6-1,101.2-1.23c16.85-.08,33.73.15,50.57-.39s33.41-1.72,50.11-2.59c33.84-1.75,67.79-1.56,101.66-2,33.62-.48,67.24-1,100.85-.35s67.44,2.56,101.18,3.39c32.81.8,65.81-2.86,98.56-.38,9.52.72,20.67,2.58,29-3.45a16.9,16.9,0,0,0,6.43-9.81c1.63-6.57,2.18-13.85,2.63-20.59a76.84,76.84,0,0,0-1.51-22.08.63.63,0,0,0-.6-.46c-90.83,5.69-181.82,2.2-272.74,1.37-45.53-.41-91-2.17-136.54-2.76-45.26-.58-90.59,2.14-135.85,2.72-25.39.32-50.8.58-76.19.43-12.24-.08-24.44-.25-36.63-1.4-12.73-1.2-25.41-2.86-38.2-3.33C187.3,573.72,187.3,575,188.1,575Z"/><path class="cls-8" d="M578.36,223.14c-.39-.24-.78-.47-1.18-.68"/><path class="cls-8" d="M578.67,222.6c-.38-.24-.78-.47-1.18-.68-.71-.38-1.34.69-.63,1.08.4.21.8.44,1.18.68a.63.63,0,0,0,.63-1.08Z"/><path class="cls-9" d="M534,647.8c13.53,3.5,20.81,27.19,22.93,38.69,1.17,6.35,1.52,12.87,3.36,19.08,6.24,21,21.79,33.51,22.32,56.17.48,20.46-5,39-21.56,52.89-15.58,13.07-39.85,11.89-56.22.8-17.33-11.74-25.24-28.45-23.6-48.4,1.34-16.35,6.59-27.09,14.36-40.73,8-14.13,8.6-23.48,10.57-40.56,1.36-11.67,7.18-35.94,22.27-38.21A14,14,0,0,1,534,647.8Zm-8.84,93.45c-13.59,6.49-16.91,30.34-13.52,43a27.64,27.64,0,0,0,2.8,7,20.88,20.88,0,0,0,15.48,10c13.11,1.42,21.75-10,23.33-22.23.61-4.77-.32-9.6-1.24-14.32l-1.41-7.17C548.32,746.1,536.52,735.8,525.11,741.25Z"/><path class="cls-9" d="M533.46,649.61c11.65,3.48,16.87,19,19.77,29.5,1.76,6.32,2.5,12.75,3.54,19.21A71.55,71.55,0,0,0,563.68,719c6.24,12.51,15,24,16.68,38.26,1.74,14.68-1.24,30.85-9.33,43.31-8.73,13.43-22.35,21.9-38.56,21.59-14.94-.28-29-7.5-38.52-18.87-10.07-12-12.61-27.36-10.15-42.49a79.34,79.34,0,0,1,7-21.74c3.28-6.81,7.5-13.16,10.45-20.12,5.48-13,5.06-26.81,7.9-40.34,2.39-11.37,8.87-32.21,24.29-29,2.35.49,3.36-3.13,1-3.61-13-2.69-21.15,8.64-25.32,19.38-5.1,13.12-4.77,27-7.69,40.6-3.58,16.62-15.14,29.87-19.61,46.24-4,14.55-4.07,30.64,3,44.25C498.7,823,537,836.4,561.76,816.41c12.55-10.14,19.89-24.83,22-40.68,2.12-16.16-1.05-30.1-8.9-44.24-4.5-8.11-9.46-16-12.31-24.93s-3-18.36-5.37-27.36C553.9,667,547.93,650,534.45,646,532.13,645.31,531.14,648.92,533.46,649.61Z"/><path class="cls-9" d="M524.17,739.63c-9.63,5-13.77,16.21-15.15,26.36s-.6,22.82,7.21,30.56c8.6,8.53,22.53,8.78,30.95-.06,10.19-10.71,8.19-24.52,5.53-37.74s-14.47-25.07-28.54-19.12c-2.22.94-.31,4.17,1.89,3.24,7.78-3.29,15.52,1,19.75,7.74,3.7,5.87,4.72,14.36,5.47,21.15,1.44,13-6.92,30.16-22.37,27.39-23.59-4.23-21.1-46.85-2.85-56.28C528.2,741.76,526.31,738.52,524.17,739.63Z"/><path class="cls-10" d="M521.66,427c1.57-3.72,3.74-6.72,6.57-7.45,3-.78,6.24.39,8.88,2a26.49,26.49,0,0,1,11.53,14c1.92,5.61,1.74,11.63,1.54,17.53l-.63,18.39c-.48,14.35-14,44.31-29.16,19.35-2.91-4.81-4-10.33-5.15-15.74-.5-2.46-1-5-.25-7.42s2.53-4.46,1.83-6.75c-.37-1.18-1.39-2.19-1.48-3.41-.12-1.52,1.2-2.73,2-4,1.94-3,1.31-6.86,1.15-10.41A43.49,43.49,0,0,1,521.66,427Z"/><path class="cls-10" d="M522.2,427.31c3-6.51,7.72-9.16,14.6-5.25a25.64,25.64,0,0,1,9.44,9.62c4.84,8.64,3.38,19.24,3.06,28.72-.42,12.36-.73,27.16-10.56,36.36-6.12,5.73-12.36,1.65-16.48-4.24-5-7.2-8.61-19-5.54-27.35,1-2.68.51-3.31.11-5.74-.74-4.49.39-3.7,1.76-7a10.93,10.93,0,0,0,.71-3.14c.35-3.13-.32-6.29-.06-9.44a44.25,44.25,0,0,1,3-12.67c.29-.75-.92-1.07-1.21-.33a47.59,47.59,0,0,0-2.76,10.36c-.58,4,.19,7.94-.3,11.89-.37,2.88-3.42,5.57-3.29,8.39,0,1,.77,1.67,1,2.59,1,3.45-.85,5.11-1.51,8.13s.25,6.42.9,9.47a46.67,46.67,0,0,0,3.89,12c2.31,4.42,6.2,10,11.47,11.17,9.13,1.94,14.75-10.09,17.11-16.88,2.09-6,2.54-11.73,2.76-18,.3-8.85,1.59-18.41-.21-27.16a26.93,26.93,0,0,0-14.1-18.53c-7.12-3.51-11.92-.21-14.94,6.45C520.79,427.41,521.87,428,522.2,427.31Z"/><path class="cls-10" d="M536.32,359.07a13.26,13.26,0,0,0-10.66,7.81c-1.79,4-1.44,9.76,2.47,12.52,4.69,3.31,9-2.32,11.44-5.81,2.94-4.21,3.58-10-1.36-12.95a.63.63,0,0,0-.63,1.08c5.28,3.16,2.78,9-.22,12.71a17.38,17.38,0,0,1-3.34,3.51c-3.5,2.38-6.83-.22-7.82-3.55-2-6.66,3.67-13.25,10.12-14.07.79-.1.8-1.35,0-1.25Z"/><path class="cls-10" d="M523.45,272.76c-2.54,9.63-5.25,25,6.92,29.53,8.14,3,17.91-3.71,18.28-12.22,0-.8-1.22-.8-1.25,0-.38,8.76-11.53,14.86-19,9.82-8.88-6-6-18.24-3.78-26.8a.63.63,0,0,0-1.21-.33Z"/><path class="cls-8" d="M217.21,512.31a159.1,159.1,0,0,0-11.51,13.87c-7.51,10.28-10.65,22-18.41,32.21-10.56,13.91-14.51,6.65-15.16-8.15a142.22,142.22,0,0,1,1.66-25.53c3.08-22.61,10.36-44.29,18.35-65.33,17.27-45.43,42.18-90.73,77.14-125.7,33.58-33.59,73.65-60.57,115.51-82.79,20.57-10.93,41.5-21.29,63.2-29.76,21.23-8.29,41.83-16.83,64.87-16.82,3.06,0,6.21,0,9,1.22s5.13,3.91,4.92,6.95c-.2,2.88-2.54,5.16-4.88,6.89-5.95,4.39-12.87,7.23-19.71,10-8.11,3.31-16.7,5.81-23.37,11.4-7.24,6.06-14,12.75-21.46,18.63-22.89,18.25-45.53,37.29-63.27,60.72-8.19,10.43-15.57,21.49-23.49,32.14-24.24,32.62-53.25,61.14-82.14,89.52L233.2,496.09C227.79,501.4,222.36,506.73,217.21,512.31Z"/><path class="cls-8" d="M216.77,511.87c-5.22,5.72-10.41,11.66-14.46,18.27-4.24,6.92-7.22,14.51-11.31,21.5-2.11,3.61-11.9,19.62-16.17,10.66-3.05-6.4-2.36-15.28-2-22.13,1.91-35.53,14.71-70.31,28.89-102.61,13.31-30.31,30-59.39,51.16-84.92,21.37-25.77,47.52-47.6,75-66.6,27.91-19.32,57.8-35.81,88.42-50.41,16.53-7.89,33.5-14.89,50.72-21.13a182.13,182.13,0,0,1,24.27-7.2c8.41-1.77,18.94-3.84,27.53-2a13,13,0,0,1,2.69.87c3.11,1.4,3.77,2.6,3.85,5.85.1,4.06-1.92,5.6-5.15,7.82a67.31,67.31,0,0,1-10.45,5.7c-7.08,3.23-14.52,5.58-21.58,8.84S475.51,242.74,469.7,248c-6.16,5.54-12.51,10.78-19,16-13,10.5-25.75,21.34-37.48,33.25-11.49,11.68-21.48,24.56-31,37.86a663.75,663.75,0,0,1-68.72,81c-25.66,25.91-51.93,51.25-77.94,76.8-6.36,6.25-12.75,12.48-18.82,19-.55.59.33,1.48.88.89,13.71-14.77,28.54-28.56,42.91-42.68Q281.3,449.71,302,429.32c26.54-26.26,52.31-53.26,74.15-83.62,11.2-15.58,22.21-31.23,35.52-45.12,12.39-12.91,26-24.53,39.94-35.76,7.14-5.77,14.1-11.65,20.94-17.77a73.43,73.43,0,0,1,23.65-14.66c7.62-2.95,15.47-5.82,22.46-10.11,4.16-2.56,10.38-6.69,8.31-12.46-1.84-5.12-7.91-6-12.59-6.13a105.32,105.32,0,0,0-26.1,3c-17.54,4.09-34.57,11.18-51.13,18.16a627.4,627.4,0,0,0-98.23,52.24c-29.55,19.28-57.91,41.58-81.32,68.1-23,26-41,56.22-55.22,87.81-14.71,32.63-27.67,67.59-30.56,103.5-.61,7.62-1.05,15.89.85,23.38.65,2.59,1.89,6.21,5,6.55,4.42.49,8.49-5.5,10.63-8.42,5.18-7,8.44-15.18,12.55-22.84,4.44-8.29,10.44-15.49,16.76-22.41C218.19,512.16,217.31,511.28,216.77,511.87Z"/><path class="cls-8" d="M840.38,511.7a160.21,160.21,0,0,1,11.39,13.56c7.44,10,10.62,21.43,18.31,31.42,10.45,13.59,14.23,6.59,14.72-7.75a138.66,138.66,0,0,0-1.87-24.77c-3.25-22-10.57-43-18.59-63.53C847,416.41,822.22,372.24,787.71,338c-33.14-32.91-72.56-59.47-113.67-81.44-36.94-19.74-74-37.12-115-46.85-5-1.19-10.3-2.29-15.34-1.11-3.18.75-7.54,3.07-8.77,6.35-1.87,5,.21,4.77,4,6.76,7.92,4.22,16.41,6.91,24.17,11.8,15.07,9.5,28.52,21.26,42.51,32.23,21.92,17.2,42.76,36,60.14,57.88,8.11,10.18,15.43,21,23.27,31.39,24,31.87,52.64,59.81,81.15,87.62l54.53,53.19C829.93,501,835.3,506.23,840.38,511.7Z"/><path class="cls-8" d="M839.94,512.14c6.34,6.89,12.34,14.05,16.83,22.31,4.13,7.62,7.49,15.69,12.82,22.61,2,2.66,6.09,8.26,10.25,7.48,3.33-.61,4.3-5,4.82-7.72,3.09-16.34-.82-35-4.71-50.93-4.31-17.67-10.64-34.84-17.51-51.66-12.84-31.49-29.06-61.82-49.83-88.82-21-27.24-47-50.18-74.81-70.2-29.26-21-60.86-38.75-93.26-54.47A487.88,487.88,0,0,0,595.62,220c-8.51-3-17.13-5.77-25.85-8.15-7.64-2.08-16.4-5.28-24.43-4.15-4.36.61-9.25,2.85-11.06,7.12-1.91,4.49.58,5.64,4.24,7.46,8.29,4.13,17.09,7.33,24.94,12.29a273.74,273.74,0,0,1,23.64,17.26c28.36,22.56,56.76,45,79.26,73.72,11.45,14.59,21.71,30,33.51,44.37S724.5,398,737.59,411.36c26.94,27.44,54.85,53.95,82.37,80.8,6.75,6.58,13.54,13.11,20,20,.55.59,1.43-.29.88-.88-24.51-26.16-51.25-50.45-76.89-75.5-24.31-23.77-48.48-47.86-69.52-74.64-10.66-13.59-20.13-28.08-31.12-41.42a318.79,318.79,0,0,0-34.76-35.64c-12.6-11.17-25.95-21.49-39.1-32-12.77-10.21-25.58-19.7-40.59-26.33a98.05,98.05,0,0,1-10.76-5.11c-5.34-3.18-1.88-8,2.47-10.24,8.15-4.14,18.92,0,27.13,2.16a381.61,381.61,0,0,1,47.72,16.39,649.17,649.17,0,0,1,90.67,46.69c28.44,17.5,55.41,37.56,79.31,60.94,23.39,22.89,42.29,49.92,57.59,78.78,15.53,29.33,28.93,61.17,36.42,93.58a199.24,199.24,0,0,1,4.32,26.62c.69,7.53,1.51,16.38-.9,23.69-3.56,10.79-13.69-4.64-16.16-8.71-4.16-6.86-7.17-14.36-11.39-21.19-4-6.56-9.23-12.42-14.44-18.07C840.28,510.67,839.39,511.55,839.94,512.14Z"/><path class="cls-11" d="M600.37,389a282.51,282.51,0,0,1-5.43,45.55c-3,14.65-8.72,28.59-13.46,42.7a240.66,240.66,0,0,1-18.75,42c-5.41,9.54-11.91,18.14-18,27.23-4.32,6.45-13.84,14.82-11.51,23.31,2.65,9.62,17.34,7.47,24.75,6.87,11.6-.94,23.71-4.74,33.35-11.36,17.19-11.65,25.78-28.35,32.94-44.46,5.34-12,10.27-24.18,14.68-36.55,29.7-83.26,39.59-192.49-31.32-258.12-11.81-10.93-26-19.79-41.76-23.69-11.73-2.9-28,.44-32.16,13.62-3.42,10.9,29.91,40.52,36,50.88A222.55,222.55,0,0,1,600.37,389Z"/><path class="cls-11" d="M468.82,389.16c.23,5.61.52,11.22.67,16.88a182.47,182.47,0,0,0,9.14,52.3c2.38,7.19,5.21,14.23,8,21.25,5.61,14,11.23,28,18.23,41.28,7.21,13.74,16.51,25.92,24.22,39.36,1.55,2.68,3.14,5.63,2.71,8.69-.5,3.52-3.66,6.19-7.07,7.21-10.51,3.13-28.6-2.28-37.05-8.73a136.29,136.29,0,0,1-19.32-18.19c-11.77-13.31-21.21-28.57-28.87-44.56-15.15-31.59-23.86-66.57-28.51-100.91-6.12-45.18-2.18-91.75,16.13-133.81,10.39-23.87,26.3-47.38,53.72-61.51,15.68-8.07,45.21-11.59,51.36,7.58,3.47,10.81-29,40.75-34.86,51.16a224.85,224.85,0,0,0-28.46,93.29A237.14,237.14,0,0,0,468.82,389.16Z"/></g></svg>