<?xml version="1.0" encoding="utf-8"?>
<!-- Generator: Adobe Illustrator 21.1.0, SVG Export Plug-In . SVG Version: 6.00 Build 0)  -->
<svg version="1.1" id="Layer_1" xmlns="http://www.w3.org/2000/svg" xmlns:xlink="http://www.w3.org/1999/xlink" x="0px" y="0px"
	 viewBox="0 0 1080 1080" style="enable-background:new 0 0 1080 1080;" xml:space="preserve">
<style type="text/css">
	.st0{fill:#E78AA7;}
	.st1{fill:#994472;stroke:#994472;stroke-miterlimit:10;}
	.st2{fill:#ED6E60;}
	.st3{fill:#F39F63;}
	.st4{font-family:'Timeless-Bold';}
	.st5{font-size:103.7349px;}
	.st6{letter-spacing:1;}
	.st7{fill:#67BDA1;}
	.st8{fill:#994472;stroke:#994472;stroke-width:0.5;stroke-miterlimit:10;}
	.st9{fill:none;stroke:#994472;stroke-width:3;stroke-miterlimit:10;}
	.st10{fill:none;stroke:#994472;stroke-width:2;stroke-miterlimit:10;}
</style>
<g id="XMLID_5_">
	<path class="st3" d="M215.3,989.2C91.4,864,21.7,689.9,25.9,516.5c0.7-29.8,3.6-59.6,11-88.5c12.2-47.3,36.5-90.7,61.2-133.1
		c22.8-39.1,46.7-78.5,80.5-109.2c18.9-17.2,40.4-31.3,61.9-45.3c48-31.3,97.5-63.3,154-75.4c47.5-10.1,96.8-5.6,145.2-0.9
		c64.7,6.2,129.3,12.4,194,18.6c25.2,2.4,50.4,4.8,75,10.8c91.5,22.1,167.4,96.1,189.7,184.8c4.4,17.6,6.9,35.7,9.3,53.7
		c11.4,83.9,22.9,168.4,17,252.8c-5.8,84.4-30.2,169.7-83.7,236.5c-90.3,112.6-244,153.5-386.8,187.8c-31.4,7.6-62.9,15.1-95.1,19.2
		c-84,10.6-171.1-3.9-246.7-40.9"/>
</g>
<g>
	<text transform="matrix(1 0 0 1 293.4048 260.3327)"><tspan x="0" y="0" class="st1 st4 st5 st6">Benessere</tspan><tspan x="0.5" y="96.4" class="st1 st4 st5 st6">femminile</tspan></text>
</g>
<path class="st9" d="M632.9,424c0,0-96.6,331.1-168.4,340.2"/>
<path class="st9" d="M456.6,511c0,0,16.4,274.6-94.9,285.9"/>
<path class="st9" d="M171.8,581c0,0,213.6,63.9,202.3,382"/>
<path class="st9" d="M457.4,650c0,0,5.4,148.6-69.8,146.9"/>
<path class="st9" d="M464.5,696.3c0,0,7.9,100.6-47.5,100.6"/>
<path class="st9" d="M506.3,746.6c0,0-53.6,111.3-31.3,216.4"/>
</svg>
