<svg id="Layer_1" data-name="Layer 1" xmlns="http://www.w3.org/2000/svg" viewBox="0 0 1080 1080"><defs><style>.cls-1{fill:#67bda1;}.cls-2{font-size:103.73px;fill:#994472;stroke:#994472;font-family:Timeless-Bold, Timeless;font-weight:700;}.cls-12,.cls-2{stroke-miterlimit:10;}.cls-3{letter-spacing:-0.01em;}.cls-4{letter-spacing:-0.02em;}.cls-5{letter-spacing:-0.01em;}.cls-6{letter-spacing:-0.02em;}.cls-7{letter-spacing:-0.02em;}.cls-8{letter-spacing:-0.02em;}.cls-9{letter-spacing:-0.03em;}.cls-10{letter-spacing:-0.02em;}.cls-11{letter-spacing:-0.02em;}.cls-12{fill:#fbe293;stroke:#68bda1;stroke-width:1.5px;}</style></defs><title>iconesito</title><path class="cls-1" d="M234.4,985.85C110.51,860.59,40.81,686.52,45.08,513.09c.74-29.77,3.57-59.62,11-88.51,12.23-47.26,36.47-90.66,61.2-133.08,22.81-39.12,46.73-78.49,80.54-109.24C216.74,165.1,238.3,151,259.76,137c48-31.34,97.47-63.31,154-75.39,47.48-10.15,96.82-5.55,145.21-.91L753,79.31c25.17,2.41,50.44,4.85,75,10.78,91.45,22.11,167.41,96.09,189.74,184.81,4.44,17.63,6.9,35.67,9.35,53.66,11.42,83.86,22.86,168.39,17,252.78S1013.9,751,960.33,817.84c-90.28,112.55-244,153.53-386.85,187.85-31.42,7.55-62.94,15.11-95.05,19.15-84,10.55-171.09-3.88-246.66-40.87"/><text class="cls-2" transform="translate(240.22 278.28)"><tspan class="cls-3">D</tspan><tspan class="cls-4" x="71.57" y="0">o</tspan><tspan class="cls-5" x="126.29" y="0">p</tspan><tspan x="183.48" y="0">o </tspan><tspan class="cls-6" x="271.86" y="0">l</tspan><tspan x="295.03" y="0">a </tspan><tspan class="cls-4" x="380.3" y="0">n</tspan><tspan class="cls-7" x="435.85" y="0">a</tspan><tspan class="cls-8" x="488.28" y="0">s</tspan><tspan class="cls-9" x="529.17" y="0">c</tspan><tspan class="cls-10" x="573.88" y="0">i</tspan><tspan class="cls-11" x="596.19" y="0">t</tspan><tspan x="634.73" y="0">a </tspan></text><path class="cls-12" d="M354.55,593.24c-16.87-27-30.68-56.41-35.73-87.83s-.74-65.07,16.31-91.94c17.85-28.12,48.54-46.8,81.11-53.79s66.83-3,98.54,7.18c13.37,4.3,26.67,9.87,37.2,19.18,21.16,18.7,27.49,48.62,32.64,76.39q5.82,31.45,11.66,62.9c3.29,17.74,6.52,36.42.66,53.49C590.29,598.21,573,612,555.05,621.9,489.13,658.25,397.66,662.17,354.55,593.24Z"/><path class="cls-12" d="M499,844.14c-.08.54-1,.46-1.21,0a1.89,1.89,0,0,1,.27-1.55l5.13-10.39a30.25,30.25,0,0,1,4.76-7.64,29.17,29.17,0,0,1,7.95-5.4c7.22-3.79,14.89-7.45,23-7.46,6.16,0,12.11,2.05,17.85,4.28,5,1.93,10,4.1,13.65,8,4.45,4.75,6.16,11.38,7.7,17.71"/><path class="cls-12" d="M390,661.16c6.16-30.76,32.79-55.47,63.34-62.62s63.7,2.05,88.55,21.2,41.77,47.41,50.59,77.51c3.89,13.28,6.3,26.93,8.71,40.55q4.49,25.44,9,50.88c.74,4.19.54,14.57,3.47,18,4.35,5.09,10.39,1.82,16.25,4.07,5.29,2,8.42,8.06,8,13.72-1.38,20.66-20.85,12.1-33.14,15.33-10.81,2.83-15.88-7.73-21.36-17.47-8-14.26-15.89-28.75-20.55-44.42-7.85-26.37-6.3-55.11-16.23-80.77-3.18-8.21-7.69-16.2-14.69-21.55s-15.7-7.55-24.32-9a163.28,163.28,0,0,0-118.52,26.74,44.63,44.63,0,0,1,1.62-35.12C391,660.52,389.77,658.89,390,661.16Z"/><path class="cls-12" d="M320.23,760.12c-13.62,29.61-18.09,64.74-5.62,94.86s44.28,53,76.65,49.17c-21.41-13.26-31.87-40.5-28.68-65.47.72-5.62,2.05-11.23,1.66-16.88-.4-5.86-2.63-11.43-4.83-16.87-6.16-15.27-11.66-31-18.56-46C335.12,746.57,326.35,746.79,320.23,760.12Z"/><path class="cls-12" d="M588,476.78c.52.11-.18,1-.57.61s-.19-1,0-1.5c2.28-5.07,5.06-10.61,10.26-12.55,5.52-2.06,11.93,1,15.46,5.66s4.79,10.72,5.6,16.55c1,7.5,1.49,15.37-1.2,22.45s-9.27,13.15-16.85,13.13"/><path class="cls-12" d="M324.39,545.74c-3.46-1.6-7.74-.2-10.42,2.5s-4,6.44-4.93,10.14a55.91,55.91,0,0,0,3.8,36.75c2,4.25,4.65,8.33,8.38,11.2s8.7,4.39,13.26,3.2c7.08-1.85,11-9.26,13.66-16.1"/><path class="cls-12" d="M482,652.38c-2.63-.24-8-.71-8.69-.76-27.63-2-49.54-2.77-75.55,6.66-34,12.32-60,44.09-66,79.76s8,73.88,35.24,97.71c20.13,17.64,46.94,27.09,73.63,27.07,49.6,0,109.9-24.59,120.55-77.94,6-30.21-2-61.51-13.44-90.1-6.77-16.93-18.3-28.52-34.78-36.2C508.85,656.66,491.44,653.25,482,652.38Z"/><path class="cls-12" d="M386,902c6.66,7.59,14.94,15,25,15.58,8.39.52,16.41-3.88,22.63-9.54,4.83-4.39,9.12-10.23,8.88-16.76-.19-5.17-3.2-9.79-6.29-13.95-10.32-13.92-46.73-63.44-66.61-50C344.57,844.32,372.79,887,386,902Z"/><path class="cls-12" d="M600.25,829.93c7.94,35.1-6.89,70.38-43.6,79.8-24.44,6.28-51-5.71-67.23-25.05-23.47-28-37.4-81.93-11.83-113.07a62.37,62.37,0,0,1,15.76-13.2c18.48-11.38,43.36-16.14,61.51-4.23,8.27,5.44,14.23,13.69,19.72,21.93C585.67,792.74,595.84,810.43,600.25,829.93Z"/><path class="cls-12" d="M515.44,857.26c2.78,3.94,4,8.76,5,13.49,4.41,21.94,3.76,46-7.94,65.09s-36.62,31-57.44,22.81c-7.76-3.06-15-9.74-15.16-18.08-.13-7.22,4.92-13.36,9.69-18.78,7.29-8.27,16.75-16.52,22.7-25.77,5.64-8.76,4.42-15.19,4.35-26C476.5,853.79,504.2,841.34,515.44,857.26Z"/></svg>