<?xml version="1.0" encoding="utf-8"?>
<!-- Generator: Adobe Illustrator 21.1.0, SVG Export Plug-In . SVG Version: 6.00 Build 0)  -->
<svg version="1.1" id="Layer_1" xmlns="http://www.w3.org/2000/svg" xmlns:xlink="http://www.w3.org/1999/xlink" x="0px" y="0px"
	 viewBox="0 0 1080 1080" style="enable-background:new 0 0 1080 1080;" xml:space="preserve">
<style type="text/css">
	.st0{fill:#E78AA7;}
	.st1{fill:#994472;stroke:#994472;stroke-miterlimit:10;}
	.st2{fill:#ED6E60;}
	.st3{fill:#F39F63;}
	.st4{fill:#67BDA1;}
	.st5{fill:#994472;stroke:#994472;stroke-width:0.5;stroke-miterlimit:10;}
	.st6{fill:none;stroke:#994472;stroke-width:3;stroke-miterlimit:10;}
	.st7{font-family:'Timeless-Bold';}
	.st8{font-size:241.2938px;}
	.st9{letter-spacing:22;}
	.st10{fill:none;stroke:#994472;stroke-width:2;stroke-miterlimit:10;}
</style>
<g id="XMLID_1_">
	<path class="st4" d="M263,967.4C139.1,842.1,69.4,668.1,73.7,494.6c0.7-29.8,3.6-59.6,11-88.5c12.2-47.3,36.5-90.7,61.2-133.1
		c22.8-39.1,46.7-78.5,80.5-109.2c18.9-17.2,40.4-31.3,61.9-45.3c48-31.3,97.5-63.3,154-75.4c47.5-10.1,96.8-5.6,145.2-0.9
		c64.7,6.2,129.3,12.4,194,18.6c25.2,2.4,50.4,4.8,75,10.8c91.5,22.1,167.4,96.1,189.7,184.8c4.4,17.6,6.9,35.7,9.3,53.7
		c11.4,83.9,22.9,168.4,17,252.8c-5.8,84.4-30.2,169.7-83.7,236.5c-90.3,112.6-244,153.5-386.8,187.8c-31.4,7.6-62.9,15.1-95.1,19.2
		c-84,10.6-171.1-3.9-246.7-40.9"/>
</g>
<text transform="matrix(1 0 0 1 257.4004 352.0954)" class="st1 st7 st8 st9">+1 </text>
</svg>
