<svg xmlns="http://www.w3.org/2000/svg" viewBox="0 0 1080 1080"><defs><style>.cls-1{fill:#ec6e60;}.cls-2{fill:#68bda1;}.cls-3{fill:#7e4851;}.cls-4{fill:#e689a6;}.cls-5{fill:#afc5d4;}.cls-6{fill:#f3dab1;}.cls-7{fill:#32558d;}</style></defs><title>iconesito</title><g id="Layer_2" data-name="Layer 2"><path class="cls-1" d="M230.68,981.78C107.41,857.14,38.05,683.94,42.3,511.38c.73-29.63,3.56-59.33,11-88.08,12.16-47,36.29-90.21,60.89-132.42,22.7-38.92,46.5-78.1,80.15-108.69,18.77-17.07,40.23-31.1,61.59-45,47.75-31.19,97-63,153.22-75,47.24-10.1,96.34-5.52,144.48-.91l193,18.53c25,2.4,50.19,4.82,74.61,10.73,91,22,166.57,95.61,188.79,183.89,4.42,17.54,6.86,35.49,9.3,53.39,11.37,83.45,22.76,167.55,17,251.53S1006.3,748.14,953,814.6c-89.82,112-242.82,152.78-384.91,186.92-31.28,7.51-62.63,15-94.58,19.06-83.54,10.49-170.24-3.87-245.43-40.67"/><path class="cls-2" d="M821.5,188.3c-4.36,14.93-9,29.78-13.71,44.6q-17.16,54.19-36.26,107.74c-15.72,44-32.4,87.62-51,130.44C703.15,511,684.4,550.82,660.93,587.61c-9.34,14.65-17.9,26.84-29.67,39.14-2.46,2.58-5,5.08-7.68,7.46-1.21,1.08-2.46,2.12-3.71,3.16-.38.31-2.16,1.69-.66.54-.71.55-1.43,1.08-2.17,1.61a67.69,67.69,0,0,1-7.32,4.61c-1.12.61-2.27,1.15-3.42,1.7-1.82.89.83-.28-.33.16-.7.26-1.4.54-2.12.78-1.1.38-2.23.72-3.36,1-.87.21-4.74.85-2.18.51-4,.53-7.5,3.07-7.5,7.5,0,3.64,3.45,8,7.5,7.5,28.78-3.8,49.69-30.8,65.34-52.86,24.6-34.67,43.56-73.39,61.06-112,19.91-44,37.63-88.92,54.21-134.24Q799.86,307,818.43,248.9c5.92-18.45,12.66-37,17.31-55.85.06-.26.15-.51.23-.77,2.71-9.28-11.76-13.25-14.47-4Z"/><path class="cls-3" d="M580,309.37c.73,12.3,1,24.65,1.09,37q.49,44.55-2.43,89.05c-2.46,36.59-6.66,72.5-14.39,108.34-7.31,33.91-17.24,67.48-35,97-7.66,12.73-15.78,23.3-27.41,33.13a90.56,90.56,0,0,1-16.39,10.9q-2.19,1.14-4.44,2.14c-.43.2-.86.39-1.3.57.14,0,1-.4.16-.07s-1.75.69-2.64,1a88.24,88.24,0,0,1-10.3,3.07,79.16,79.16,0,0,1-9.3,1.6c-4,.43-7.5,3.14-7.5,7.5,0,3.73,3.44,7.93,7.5,7.5,31.76-3.35,57.22-21.4,75.86-46.68,20.59-27.94,32.49-62.06,41-95.39,9.41-37,14.65-75.07,17.88-113.07,2.72-32,3.9-64.13,3.84-96.24,0-15.51.09-31.22-1.12-46.71,0-.22,0-.45,0-.67-.57-9.59-15.57-9.66-15,0Z"/><path class="cls-4" d="M195.77,412.48c2.62.79,5.18,1.75,7.73,2.72,1.42.54,2.83,1.09,4.23,1.66l2.22.91a9,9,0,0,1,1.16.49c4,1.74,8,3.55,11.95,5.46a350.23,350.23,0,0,1,30.83,16.9q9.21,5.64,18.08,11.8,4.81,3.33,9.52,6.81c3.88,2.86,6.16,4.61,9.05,6.89a419.08,419.08,0,0,1,81,85.24c30.22,42.45,52.66,90,67.93,139.75,20.43,66.6,28.35,136.42,28.19,205.93q0,15.47-.59,30.93c-.34,9.65,14.66,9.64,15,0,2.55-73.65-3.11-148.14-22-219.54C446,655.4,424.4,604.06,394.29,558.1a435.17,435.17,0,0,0-83.41-94.65,392.7,392.7,0,0,0-73.52-49.34c-11.68-6-24.3-12.62-37.1-15.93l-.5-.16c-9.27-2.78-13.23,11.7-4,14.46Z"/><path class="cls-5" d="M590.81,563a269.17,269.17,0,0,1-.68,44.8c-2.11,23.11-7.31,51.37-22.5,69.24-9,10.66-20.35,16-34.28,16.12-9.64.07-9.67,15.07,0,15,62.65-.47,72.94-79.69,73-127.44,0-5.9-.08-11.83-.53-17.72-.75-9.56-15.75-9.64-15,0Z"/><path class="cls-6" d="M649.05,628c-9.51,19.8-17,40.8-23.67,61.69-15,46.69-24.88,95.38-27.13,144.42A382.18,382.18,0,0,0,605.47,930c2,9.44,16.43,5.45,14.46-4-11-52.62-8.5-107.44,1.47-160A604.35,604.35,0,0,1,654,654.3q1.63-4.09,3.35-8.17c-.7,1.65.72-1.68,1-2.27.42-1,.85-1.94,1.28-2.91.79-1.79,1.59-3.58,2.43-5.34,4.16-8.66-8.77-16.28-13-7.57Z"/><path class="cls-7" d="M581.14,499.59c.79,22.13-.71,44.56-3.37,66.52a325.83,325.83,0,0,1-11.65,56.17c-5.32,17.07-13,34.79-24.23,48-12.88,15.15-29.07,23.18-48.75,22.85-9.65-.16-9.65,14.84,0,15A74.63,74.63,0,0,0,546,687.78c14.45-13.54,23.84-31.7,30.71-50,13.31-35.53,17.88-74.49,19.27-112.21.32-8.64.52-17.31.21-25.95-.34-9.63-15.34-9.67-15,0Z"/></g></svg>