<svg id="Layer_1" data-name="Layer 1" xmlns="http://www.w3.org/2000/svg" viewBox="0 0 1080 1080"><defs><style>.cls-1{fill:#e78aa7;}.cls-2{font-size:117.19px;font-family:Timeless-Bold, Timeless;font-weight:700;}.cls-2,.cls-27{fill:#994472;stroke:#994472;}.cls-18,.cls-19,.cls-2,.cls-23,.cls-27,.cls-28{stroke-miterlimit:10;}.cls-3{letter-spacing:-0.03em;}.cls-4{letter-spacing:-0.02em;}.cls-5{letter-spacing:-0.06em;}.cls-6{letter-spacing:-0.02em;}.cls-7{letter-spacing:-0.04em;}.cls-8{letter-spacing:-0.02em;}.cls-9{letter-spacing:0em;}.cls-10{letter-spacing:-0.02em;}.cls-11{letter-spacing:-0.04em;}.cls-12{letter-spacing:-0.07em;}.cls-13{letter-spacing:-0.02em;}.cls-14{letter-spacing:-0.01em;}.cls-15{letter-spacing:-0.02em;}.cls-16{letter-spacing:-0.02em;}.cls-17{letter-spacing:-0.01em;}.cls-18{fill:#798c8b;stroke:#798c8b;}.cls-19{fill:#b88869;stroke:#b88869;}.cls-20{fill:#f39f63;}.cls-21{fill:#ed6e60;}.cls-22{fill:#b34826;stroke:#b34826;}.cls-22,.cls-24{stroke-linecap:round;stroke-linejoin:round;}.cls-23{fill:#cd6e69;stroke:#cd6e69;}.cls-24{fill:#b0c6d6;stroke:#b0c6d6;}.cls-25{fill:#67bda1;}.cls-26{fill:#31558c;}.cls-27,.cls-28{stroke-width:0.5px;}.cls-28{fill:#f7a3a8;stroke:#f7a3a8;}.cls-29{fill:#f5dbb1;}.cls-30{fill:#ced3c5;}</style></defs><title>iconesito</title><path class="cls-1" d="M213.73,983.45C89.84,858.19,20.14,684.13,24.41,510.7c.74-29.77,3.57-59.63,11-88.51,12.23-47.26,36.47-90.67,61.2-133.09,22.81-39.12,46.73-78.49,80.54-109.23,18.88-17.16,40.44-31.26,61.9-45.27,48-31.34,97.47-63.32,154-75.4,47.48-10.14,96.82-5.55,145.21-.9l194,18.61c25.17,2.42,50.44,4.85,75,10.78C898.72,109.8,974.68,183.79,997,272.5c4.44,17.64,6.9,35.67,9.35,53.67,11.42,83.86,22.86,168.38,17,252.78s-30.17,169.7-83.74,236.49C849.38,928,695.62,969,552.81,1003.29c-31.42,7.55-62.94,15.12-95,19.15-84,10.55-171.09-3.88-246.66-40.86"/><text class="cls-2" transform="translate(263.16 245.52)"><tspan class="cls-3">V</tspan><tspan class="cls-4" x="82.16" y="0">i</tspan><tspan class="cls-5" x="107.37" y="0">v</tspan><tspan class="cls-6" x="165.84" y="0">e</tspan><tspan class="cls-7" x="221.28" y="0">r</tspan><tspan x="265.29" y="0">e </tspan><tspan class="cls-8" x="358.68" y="0">l</tspan><tspan class="cls-9" x="384.85" y="0">a </tspan><tspan class="cls-10" x="-52.25" y="108.85">g</tspan><tspan class="cls-11" x="9.01" y="108.85">r</tspan><tspan class="cls-12" x="52.94" y="108.85">a</tspan><tspan class="cls-13" x="106.24" y="108.85">v</tspan><tspan class="cls-14" x="169.74" y="108.85">i</tspan><tspan class="cls-15" x="196.65" y="108.85">d</tspan><tspan class="cls-16" x="260.46" y="108.85">a</tspan><tspan class="cls-17" x="319.68" y="108.85">n</tspan><tspan class="cls-13" x="383.68" y="108.85">z</tspan><tspan x="437.1" y="108.85">a </tspan></text><path class="cls-18" d="M180,891.36a1.4,1.4,0,0,1-.52-.42c-2-2.52,2.16-10.06,3.22-12.4A143.9,143.9,0,0,1,197.34,853a104.41,104.41,0,0,1,9.47-11.2c3.6-3.68,7.23-5.43,12.13-7.08,12.95-4.39,27.75-4,39.06-11.71a31.84,31.84,0,0,0,7.19-6.76c2.15-2.77,2.6-5.53,4.09-8.58a77,77,0,0,1,13.25-18.52c5.78-6.16,11.73-12.93,15.67-20.46a176.7,176.7,0,0,0,9.89-22.3c1-2.83,1.49-5.72,2.82-8.37,1.76-3.52,3.28-7,4.75-10.69,1.83-4.54,4.14-9.16,8.15-12,7.4-5.22,19.76-1.49,25.13,5.27,3.59,4.51,6.81,12,4.59,17.8-4.6,11.95-19.88,20.53-32.45,17.84-2.64-.57-2.56.2-3.52,2.19-5.82,11.95-12.75,24.89-21.68,34.83-3.8,4.23-8.29,7.12-11.48,12.08a82.44,82.44,0,0,0-7.22,15.21c-3.84,10-13.43,16.2-23.58,18.67-12.4,3-24.78-1.53-36.33,5.59-6.06,3.73-10.94,9.08-15.39,14.63a177.44,177.44,0,0,0-15.7,23C185.23,884.19,182.14,892.27,180,891.36Z"/><path class="cls-19" d="M768.73,667.7l.89-.62c-11.58.65-23-2.66-34.49-4.12-11.7-1.48-23.56-1.05-35.31,0a348.14,348.14,0,0,0-60.53,10.72C626,677.24,612.71,678.17,599,678c-4.09,0-8.18-.14-12.26-.48a12.63,12.63,0,0,1-5.24-1.26c-3.51-2-4.49-6.47-5.64-10.34-1.41-4.72-3.63-6.22-7.58-8.43-4.15-2.32-7.14-5.4-12.21-5.78a17.19,17.19,0,0,0-9.18,2.12,20,20,0,0,0-10.27,12.83,16.13,16.13,0,0,0,4.64,15.47c4,3.57,9.55,4.47,14.75,4.77,6.72.39,13.38,1.32,20,1.87,7.45.62,15.11-.66,22.52-1.32,11.63-1,23.62-.08,34.93-3.13,18.77-5.07,38.33-6.38,57.73-7.66,11.05,0,22.08-2.1,33.12-2,11.8.12,23.6.57,35.35,1.67,4.33.4,8.67.79,13,1A123.3,123.3,0,0,0,786,675.58c4.38-.84,8.7-2,13-3,12.24-1.18,24.48-2.65,36.68-4.31,11.55-.44,23.11-.83,34.34-3.46.87-.21,1.9-.58,2.1-1.46a.67.67,0,0,0-.11-.5l.63-.1c-1.81-1.48-4.34-1.56-6.68-1.58L835.09,661c-15-.09-30.16-.17-45.1,1.77-7,.92-13.58,3.14-20.42,4.27-4.78.79-9.59.27-14.33.83a61.39,61.39,0,0,1-14.15.51,163.78,163.78,0,0,1-17.76-2.87c-3.09-.68-6.17-1.45-9.3-1.84a70,70,0,0,0-10.84-.25q-15.3.5-30.52,2.25c-7.23.83-14.49,1.88-21.34,4.3-4.34,1.53-8.53,3.65-13.05,4.62-3.93.84-8.1,1.26-12.13,1.92l-.12,0"/><path class="cls-20" d="M320.53,895.92c8.43-8.81,16.9-17.59,25.77-25.95a250.84,250.84,0,0,0,18.3-19.84,226.15,226.15,0,0,0,15-20.53c10.56-15.62,28.37-35.09,11-52.79-4.73-4.83-9.4-9.73-14.14-14.55-3.33-3.38-5.56-7.18-3.95-12,1.71-5.12,5.55-7.88,10.81-9,14.17-3,26.32,3.29,32.11,16.77,3,7-.92,14.55-9.3,16.44-4.24,1-5.3,2.52-3.36,6.14,7.54,14,2.21,26.42-5.24,38.29-5.83,9.29-11.63,18.62-17.49,27.9-8.72,13.82-20.1,23.37-33.35,32.63-3.21,2.24-6.47,4.52-8.95,7.55-2,2.39-3.44,5.23-5.82,7.22-2.57,2.16-6,3.11-8.66,5.13-1.34,1-2.48,2.24-3.88,3.14a5.24,5.24,0,0,1-4.74.74,11.33,11.33,0,0,1,2.95-4.26Z"/><path class="cls-21" d="M598.24,893a26.54,26.54,0,0,0-9.71-13.49c-11.3-8.44-17.8-20.5-24.33-32.31-4.32-7.83-10.08-14.13-16.23-20.19q-14.12-13.89-27.31-28.66c-4-4.5-8-9.05-11.9-13.6-3.49-4.09-7.5-6.87-11.71-10.17a33.09,33.09,0,0,1-10.77-13.83c-3.28-8.54-1.57-16.82,6.5-21.42,6.26-3.58,15.07-3.61,20.69,1.25,10.89,9.43,11.92,23.77,2.2,33.66-1.91,1.93-2.29,3.46-.52,5.36,11.11,11.95,20.56,25.4,34.13,35.1,11.74,8.39,19.51,20.26,24.33,33.79a61.49,61.49,0,0,0,19.59,27.73c4.45,3.65,10,8.79,11.71,14.53.79,2.72-.21,6-1.12,8.7-.78,2.32-4,6-4.18,8.14A37.71,37.71,0,0,0,598.24,893Z"/><path class="cls-22" d="M720.8,888.51a15.67,15.67,0,0,1-5.47-1.91,37.55,37.55,0,0,1-7.87-6.6,33.23,33.23,0,0,1-3.18-3.53,22.83,22.83,0,0,1-2.68-5c-2-5-2.23-10.11-4.57-15-2-4.17-4.31-8.14-8-11a53.12,53.12,0,0,0-7.8-4.79c-3.8-2-7.57-4.13-11.39-6.12a58.12,58.12,0,0,1-10.27-7.32,165.28,165.28,0,0,1-18.09-17.41c-4.4-5-7.7-13-14.61-14.87-6.18-1.67-6,5.21-10.89,6.19a16.48,16.48,0,0,1-5.69-.07A28.19,28.19,0,0,1,599,796.37c-6.37-4.33-12.38-11.68-11.86-19.82.5-8,7.38-11.37,14.74-9.27a24.24,24.24,0,0,1,10.53,6.29c3.11,3.16,2.72,8.7,6.63,11.1a17.6,17.6,0,0,0,5.21,1.85,21.94,21.94,0,0,1,5.38,1.66c1.5.9,3.47,2.51,5.12,3.61a110.19,110.19,0,0,1,10.74,8.3c6.92,6,13.36,12.48,20.36,18.36a209.79,209.79,0,0,0,19.54,14.38c5.61,3.71,10.77,6,14.19,12.25,2.73,5,4,10.42,5.8,15.74a54.79,54.79,0,0,0,7.77,15.58,43,43,0,0,0,5.88,6.47c1.93,1.74,4.8,3.14,6.35,5.1A8.27,8.27,0,0,1,720.8,888.51Z"/><path class="cls-23" d="M342.76,492.37l1.44,4.51c3.76,11.66,8.1,23.11,12.13,34.68,4.25,12.22,6.26,23.65,8.1,36.42a5.66,5.66,0,0,0,1.2,3.25,6.68,6.68,0,0,0,2.7,1.35,18.49,18.49,0,0,1,8.29,29c-3.69,4.61-9.35,7.18-15,8.87a20.11,20.11,0,0,1-8.33,1.09c-14.86-1.95-13.88-18-10.28-28.35,1.55-4.46,3.61-8.75,4.88-13.3,6.15-22-6.18-47.13-13.86-67.3A136.4,136.4,0,0,1,328.78,487a133,133,0,0,1-2.39-13.46L322.3,444.9c-.82-5.8-1.31-11.92,1.07-17.43,5.33,12.79,7.95,24.86,11.5,38.18C337.38,474.59,340,483.51,342.76,492.37Z"/><path class="cls-24" d="M611.51,490.84c-10.53,9-21.6,16.68-30.7,27.68-6.75,8.17-14.31,15.52-21.45,23.3-5.64,6.15-13.31,8.6-20.51,11.87-8,3.6-13.63,9.3-16.42,17.39-2.09,6.07-5.12,9.23-11.86,7.7-3.4-.77-5.38,0-4.28,4.39,1.61,6.49-.6,12.64-3.36,18.35-3.69,7.64-12.78,9.68-19.75,5-3.52-2.37-4.77-5.26-4.07-9.58,2.43-15,13.57-20.76,26.14-24.38,5.5-1.59,8.74-4.05,11.1-9.18a31,31,0,0,1,15.95-15.29c15-6.76,23-18,34.64-28.55,3.6-3.27,7.24-6.58,10-10.6,2-3,3.55-6.32,5.73-9.21,3.43-4.52,8.32-7.68,13.15-10.67,12.79-7.9,26.6-15.47,41.63-16a54.1,54.1,0,0,0-19.54,12Q614.75,488.09,611.51,490.84Z"/><path class="cls-25" d="M460.36,892.88c-.68-21.07-2.27-43,3.5-63.08.74-2.61,1.81-5.91-2.72-7.38-12.62-4.09-11.84-25.5-1.76-32.54,4.67-4.66,13.76-5.75,19.88-4.83,3.13.48,6.49,1.06,8.71,3.32a10.75,10.75,0,0,1,2.7,6.46c.86,7.59-2.92,12.84-7.95,17.87-4.66,4.66-8.73,10.82-10.15,17.35-2.22,10.16-5.28,20.57-3.51,31.28a92.5,92.5,0,0,1,.72,22.18c-.24,3.29-1.07,6.7-1.13,9.94,0,3.67,1,7,.09,10.67-.74,3-2.37,5.61-3.26,8.51-1.05,3.4-1.08,7-1.73,10.5s-2.14,7.1-5.17,9L460,916.5c.3-3.41.61-6.83.62-10.26C460.62,901.84,460.51,897.38,460.36,892.88Z"/><path class="cls-26" d="M421,489.44c-3.12,9-2.88,19-.49,28.25,2.31,9,5.41,18.49,11.32,25.78,6.7,8.26,15.47,9.56,16.82,21.74a27.54,27.54,0,0,1,.05,6.48,20.43,20.43,0,0,1-18.34,17.22c-9.18.59-14.56-11.25-11.81-19.17a31.76,31.76,0,0,1,5.27-9.88c3.35-4,3.13-7.64.57-11.55-3.07-4.68-5.61-9.64-9.89-13.57-3.33-3-3-8.08-4.32-12.23-3.28-10.69-5.11-21.12-.9-31.82,3.86-9.82,10-19.81,15.08-29.19,4.88-9,11.68-17.66,21.36-20.93-2.21,9.36-11.11,15.69-14.74,24.59-1.37,3.35-2,7-3.27,10.36-1.38,3.54-3.54,6.72-5.17,10.15A37.25,37.25,0,0,0,421,489.44Z"/><path class="cls-27" d="M472.09,664.71c.16,16-18.7,35-35,35.21-17.73.25-35.3-18.38-35.64-37.81-.33-18.68,15.49-35.8,33.46-36C454.42,625.93,473.31,643.09,472.09,664.71Z"/><path class="cls-28" d="M579.71,608.86c7.68,7.43,7.42,12.79.59,17.84-8.26,6.12-24.35,7.08-32.92,1.83-3.76-2.31-6.84-5.43-6.17-10.23s4.25-6.71,8.68-8c21.08-6.3,42.23-12.41,60.54-25.43a131,131,0,0,0,15.41-12.17c8.38-8.1,19.41-10.49,30.3-12.44a40.08,40.08,0,0,0,17.24-7.34c9.5-7,20.15-12.3,29.2-20.19,3.41-3,9.07-4,13.48-6.81,13.65-8.65,26.75-18.22,41.27-25.44,1.42-.71,3-1.55,4.67-.25.56,2.64-1.86,2.91-3.25,3.77-21.66,13.33-42.87,27.39-64.19,41.21-9.31,6-18.58,12.68-27.77,19.06-3.69,2.56-10.54,2.79-15.9,4.23a38.2,38.2,0,0,0-22.16,15.33c-3.69,5.3-10,6.71-15.14,9.66C603.15,599.48,593.61,607.57,579.71,608.86Z"/><path class="cls-29" d="M569.79,724.8c-5.19-7.83-2.45-19.5,5.26-25.69a20.72,20.72,0,0,1,14-4.46,9.27,9.27,0,0,1,4.11,1,9.45,9.45,0,0,1,3.71,4.85c2.27,5.53,2.17,12.22-1.19,17.16-1.88,2.77-4.63,4.82-7.32,6.82-2.41,1.79-4.83,2.45-1.4,5.12a13.86,13.86,0,0,0,6.19,2.41c2.21.3,4.42-.44,6.7-.2,6.75.72,13.48,2.1,20.13,3.41,13.15,2.61,26.23,5.65,39.53,7.42a95.53,95.53,0,0,0,19,.45C699,741.7,715.94,746.8,727,765.86c7.6,13.14,21.13,16.92,34.92,19.59,4.34.84,11.86,1.57,11,4.93-1.22,4.67-7.55.77-11.52.21-19.9-2.78-35.3-12.61-46.22-29.75-5.24-8.23-13.85-9.69-23-8.73-27.77,2.9-54.62-1.7-81-10.18a82.06,82.06,0,0,0-15.83-3.73,27.29,27.29,0,0,1-11.83-3.89c-2.7-1.83-5.45-2.9-8.29-4.53A15.75,15.75,0,0,1,569.79,724.8Z"/><path class="cls-30" d="M329.42,674.21c-.25,4.83-1.19,10.6-5.81,15-2.71,2.56-6.2,4.32-10,3.26a8.91,8.91,0,0,1-3.72-1.93c-.89-1-.8-3.24-2.25-3.67-.91-.26-1.73.64-2.11,1.51-2.3,5.27-7.9,4.94-12.1,7.92-8.22,5.85-15.37,13.36-23.89,18.27-9.25,5.33-19.82,8.39-31.52,4.38s-19.5-12.78-28.83-19.67c-3.85-2.85-7.26-4.51-12.11-4-5.59.55-11.26.28-16.9.34-3.54,0-5.2-2.26-2-4.48,6.38-4.37,15.43-3.59,22.54-1.76,9,2.31,16.43,8.47,23.42,14.58a36,36,0,0,0,25.43,8.31c9.11-.6,14.32-4.08,20.48-10.53,5.28-5.53,10.34-11.89,17.53-15s13-7.33,16.09-14.71a45.62,45.62,0,0,1,2.71-4.94c3-5.24,5.33-11.62,13.45-9.63C325.51,658.74,329.38,665.29,329.42,674.21Z"/><path class="cls-27" d="M280.07,587.69v2.65c.1,12.12.08,12,11.7,10.7,6.14-.66,11.82-.25,15.36,6.57,1,2,1.73,2.87.91,5.09-7.15,19.32-23.52,22.8-39.9,10.08-6-4.67-4.12-12.66-2.4-18.94,2-7.3,4.76-12.12,3.32-20-2.64-14.35-14.29-24.16-25-33a138.91,138.91,0,0,1-12.91-12.77L213.5,519c-3.89-4.2-8.05-9.24-7.23-14.89a68.6,68.6,0,0,1,9.11,7.58l14.75,13.81,37.3,34.92C276,568.4,280.72,575.73,280.07,587.69Z"/></svg>