<?xml version="1.0" encoding="utf-8"?>
<!-- Generator: Adobe Illustrator 21.1.0, SVG Export Plug-In . SVG Version: 6.00 Build 0)  -->
<svg version="1.1" id="Layer_1" xmlns="http://www.w3.org/2000/svg" xmlns:xlink="http://www.w3.org/1999/xlink" x="0px" y="0px"
	 viewBox="0 0 1080 1080" style="enable-background:new 0 0 1080 1080;" xml:space="preserve">
<style type="text/css">
	.st0{fill:#E78AA7;}
	.st1{fill:#994472;stroke:#994472;stroke-miterlimit:10;}
	.st2{fill:#ED6E60;}
	.st3{font-family:'Timeless-Bold';}
	.st4{font-size:117.188px;}
	.st5{fill:#F39F63;}
	.st6{fill:#67BDA1;}
	.st7{fill:#994472;stroke:#994472;stroke-width:0.5;stroke-miterlimit:10;}
	.st8{fill:none;stroke:#994472;stroke-width:3;stroke-miterlimit:10;}
	.st9{fill:none;stroke:#994472;stroke-width:2;stroke-miterlimit:10;}
</style>
<g id="XMLID_9_">
	<path class="st2" d="M215.3,959.4C91.4,834.2,21.7,660.1,25.9,486.7c0.7-29.8,3.6-59.6,11-88.5c12.2-47.3,36.5-90.7,61.2-133.1
		c22.8-39.1,46.7-78.5,80.5-109.2c18.9-17.2,40.4-31.3,61.9-45.3c48-31.3,97.5-63.3,154-75.4c47.5-10.1,96.8-5.6,145.2-0.9
		c64.7,6.2,129.3,12.4,194,18.6c25.2,2.4,50.4,4.8,75,10.8c91.5,22.1,167.4,96.1,189.7,184.8c4.4,17.6,6.9,35.7,9.3,53.7
		c11.4,83.9,22.9,168.4,17,252.8c-5.8,84.4-30.2,169.7-83.7,236.5c-90.3,112.6-244,153.5-386.8,187.8c-31.4,7.6-62.9,15.1-95.1,19.2
		c-84,10.6-171.1-3.9-246.7-40.9"/>
</g>
<text transform="matrix(1 0 0 1 274.354 232.7067)"><tspan x="0" y="0" class="st1 st3 st4">Vivere la </tspan><tspan x="-53.7" y="108.9" class="st1 st3 st4">gravidanza </tspan></text>
<g>
	<path class="st7" d="M234.8,823.1c4.3-9.8,10.2-18.3,17.6-26c2.2-2.3,3.6-5.5,4.8-8.5c3.1-8.2,8.7-15.1,14.1-21.4
		c3.1-3.6,10.4-5.7,16.8-4.8c8.6,1.1,17.1,2.4,25.7-1.2c6.9-2.9,12-6.7,14.2-14.3c3.1-10.5,9.3-19.4,16.8-27.4
		c6.8-7.3,12.8-14.8,17.6-24c4.2-8,7.5-17.4,13.7-23.6c7.4-7.4,12.7-16.2,19.6-23.8c2.5-2.7,5.8-3,9.1-2c7.3,2.1,13.7,15.5,11,22.6
		c-4.6,11.9-19.9,20.5-32.4,17.8c-2.6-0.6-2.6,0.2-3.5,2.2c-7.5,15.4-16.7,29.8-28.6,42.3c-5,5.3-9.3,11.6-11.3,18.5
		c-4.4,15.3-24.1,22.8-38.4,20.8c-8.1-1.1-16.2-2.4-23.7,2.9c-4.8,3.3-8.4,7.6-11.1,12.5c-4.4,8.1-10.3,15.1-15.1,22.8
		c-2.9,4.7-5.2,9.8-8.2,14.5C240.4,823.1,237.6,823.1,234.8,823.1z"/>
	<path class="st7" d="M909.2,595.9c-20.7,3.2-41.4,5.3-62.3,4.3c-11.1-0.5-21.7,2.1-32.5,4.5c-12.5,2.8-25.6,3.2-38.4,0.7
		c-29.2-5.6-57.5-1-85.4,7.4c-23.5,7.1-47.6,7.7-71.8,6.6c-9.6-0.4-13.8-7.6-11.2-17c3.9-14,14.4-21.2,28.4-19.4
		c6.5,0.8,11.2,4.1,12.2,10.8c1.1,6.8-3.5,10.2-8.9,12.8c-6.6,3.1-13.3,1.9-20,0.5c-1.6-0.3-4.2-1.7-4.6,1.1c-0.4,2.4,2,2.9,4,2.9
		c19.7,0.1,39.4,1.4,58.7-4.2c22.7-6.6,45.5-12.6,69.5-12.6c13,0.1,25.3,4.5,38,6.1c8.8,1.2,17.6,1.2,25.9-0.9
		c20.5-5.3,41.4-4.3,62.1-5.2c12.2-0.5,24.2-3.5,36.5-2.7C909.2,593.1,909.2,594.5,909.2,595.9z"/>
	<path class="st7" d="M380.1,823.1c10.2-9.5,19.7-19.9,30.7-28.4c14.8-11.3,24.7-26.2,34.7-41.2c3.8-5.7,8.6-10.5,11.7-16.7
		c5.4-10.6,4-21.3-4.4-29.8c-4.7-4.8-9.4-9.7-14.1-14.5c-3.3-3.4-5.6-7.2-3.9-12c1.7-5.1,5.5-7.9,10.8-9c14.2-3,26.3,3.3,32.1,16.8
		c3,7-0.9,14.6-9.3,16.4c-4.2,1-5.3,2.5-3.4,6.1c7.5,14,2.2,26.4-5.2,38.3c-5.8,9.3-11.6,18.6-17.5,27.9
		c-6.2,9.7-13.3,18.2-22.5,24.8c-7,5.1-12.5,11.9-20.2,16.2c-1.9,1-3.5,2.7-1.2,5.1C392.3,823.1,386.2,823.1,380.1,823.1z"/>
	<path class="st7" d="M660.9,823.1c-2.2-5.3-5.5-10-10.1-13.4c-11.3-8.4-17.8-20.5-24.3-32.3c-4.3-7.8-10.1-14.1-16.2-20.2
		c-22-21.6-42.2-44.6-60.2-69.7c-2.9-4.1-3.5-8.1-0.8-12.4c5.2-8.6,19-10.9,26.5-4.3c10.9,9.4,11.9,23.8,2.2,33.7
		c-1.9,1.9-2.3,3.5-0.5,5.4c11.1,11.9,20.6,25.4,34.1,35.1c11.7,8.4,19.5,20.3,24.3,33.8c4,11.2,10.3,20.1,19.6,27.7
		c5.2,4.3,10.3,9.7,12.4,16.7C665.6,823.1,663.2,823.1,660.9,823.1z"/>
	<path class="st7" d="M782.2,823.1c-2.7-5.1-8.1-7.7-11.3-12.5c-4.9-7.3-8.9-15-10.6-23.5c-1.6-8-7.2-11.8-13.5-13.9
		c-25.1-8.4-41-27-54.6-48.3c-0.6-1-1.3-1.9-2.2-3.4c-3.2,3.1-4.5,7.5-8.8,9.1c-13,4.8-32.7-9.8-31.9-23.8
		c0.5-8.6,6.9-11.7,14.3-7.7c5.1,2.8,9.4,6,12.5,10.9c2.3,3.6,5.2,4.9,9.5,2c4.3-2.9,8.3-1.3,10.7,3c7.5,13.7,18.6,23.5,30.8,33
		c10.5,8.3,21.6,15.7,32,24.1c5,4,8.4,9.3,8.8,15.5c1,14,8.7,23.3,20,30.4c2.1,1.3,4.9,2,5.5,5C789.7,823.1,785.9,823.1,782.2,823.1
		z"/>
	<path class="st7" d="M405.5,422.4c2.3,11,6.5,21.5,10.5,31.9c3.8,9.8,7,19.8,9.8,30c1.3,4.8-0.8,8.9-2.7,12.8
		c-1.5,3.1-1,5.7-0.6,9.4c5.2-4.1,9.4-9,16.5-5.3c5.6,2.9,7.8,7.2,5.9,13.3c-5,16-21.1,25.5-37.6,22.2c-7.8-1.6-10.7-8-6.2-14.8
		c5.6-8.5,9.2-17.9,13.8-26.9c2.5-4.9,1.4-10.1-0.1-14.4c-5.6-15.9-12.1-31.6-18.6-47.2c-1.5-3.6-0.6-7.4-2-10.9
		C398,422.4,401.7,422.4,405.5,422.4z"/>
	<path class="st7" d="M675,422.4c-0.9,3.1-3.7,4.4-6.3,5.2c-11.6,3.4-18.5,12.5-25.6,21.1c-6.8,8.2-14.3,15.5-21.4,23.3
		c-5.6,6.2-13.3,8.6-20.5,11.9c-7.9,3.6-13.6,9.3-16.4,17.4c-2.1,6.1-5.1,9.2-11.9,7.7c-3.4-0.8-5.4,0-4.3,4.4
		c1.6,6.5-0.6,12.6-3.4,18.3c-3.7,7.6-12.8,9.7-19.7,5c-3.5-2.4-4.8-5.3-4.1-9.6c2.4-15,13.6-20.8,26.1-24.4c5.5-1.6,8.7-4,11.1-9.2
		c3.2-7,8.8-12.1,15.9-15.3c10.1-4.6,18.8-10.5,26.1-19.4c8.9-10.8,19.6-20.2,28.2-31.3c1.3-1.7,2.4-3.5,3.5-5.2
		C659.9,422.4,667.4,422.4,675,422.4z"/>
	<path class="st7" d="M522.6,823.1c0.8-21-2.4-42.3,3.5-63.1c0.7-2.6,1.8-5.9-2.7-7.4c-12.6-4.1-11.8-25.5-1.8-32.5
		c8.4-5.9,17.7-6.4,26.9-3.4c9.5,3,11.1,14.2,3,20.7c-7.7,6.2-14.7,13.4-16.8,22.9c-2.2,10.2-5.3,20.6-3.5,31.3
		c1.7,10.5,1.1,21-0.3,31.5C528.2,823.1,525.4,823.1,522.6,823.1z"/>
	<path class="st7" d="M480.3,422.4c-1.6,6.2-5.8,12-2.4,18.8c6.4,12.8,13.5,25.1,24.2,35c2.4,2.2,5.4,2.4,8.5,2.8
		c10.9,1.2,12.8,5.6,7.8,14.9c-2.4,4.5-2.4,10-4.8,14.7c-3.6,7.1-7.8,9.8-13.6,8.2c-6.3-1.8-10.8-8.3-9.7-15.3
		c0.6-3.7,1.6-7.5,3.4-10.7c2.6-4.5,1.7-8.1-1.6-11.5c-3.9-4-7.3-8.4-12.2-11.5c-3.8-2.4-4.5-7.4-6.5-11.2
		c-5.6-10.7-10.2-21.7-5.8-34.1C471.8,422.4,476,422.4,480.3,422.4z"/>
	<path class="st7" d="M534.4,594.9c0.2,16-18.7,35-35,35.2c-17.7,0.3-35.3-18.4-35.6-37.8c-0.3-18.7,15.5-35.8,33.5-36
		C516.7,556.1,535.6,573.3,534.4,594.9z"/>
	<path class="st7" d="M642,539.1c7.7,7.4,7.4,12.8,0.6,17.8c-8.3,6.1-24.4,7.1-32.9,1.8c-3.8-2.3-6.8-5.4-6.2-10.2
		c0.7-4.8,4.2-6.7,8.7-8c21.1-6.3,42.2-12.4,60.5-25.4c5.4-3.8,10.6-7.6,15.4-12.2c8.4-8.1,19.4-10.5,30.3-12.4
		c6.5-1.2,12.1-3.5,17.2-7.3c9.5-7,20.2-12.3,29.2-20.2c3.4-3,9.1-4,13.5-6.8c13.7-8.6,26.7-18.2,41.3-25.4c1.4-0.7,3-1.5,4.7-0.2
		c0.6,2.6-1.9,2.9-3.2,3.8c-21.7,13.3-42.9,27.4-64.2,41.2c-9.3,6-18.6,12.7-27.8,19.1c-3.7,2.6-10.5,2.8-15.9,4.2
		c-9.2,2.5-16.7,7.5-22.2,15.3c-3.7,5.3-10,6.7-15.1,9.7C665.4,529.7,655.9,537.8,642,539.1z"/>
	<path class="st7" d="M635.1,652.1c-0.7-13.7,11.2-25.1,24.8-23.5c4.5,0.5,8,2.9,9.4,7.4c1.5,4.9-1,8.1-4.8,10.6
		c-5.3,3.6-10.9,6.5-16.9,8.5c-1.7,0.6-4.2,0.4-4,3.1c0.2,2.5,2.5,2.5,4.3,2.6c25.2,1.1,49.2,8.8,74,12.1c6.2,0.8,12.7,0.9,19,0.5
		c20.5-1.4,37.4,3.7,48.5,22.7c7.6,13.1,21.1,16.9,34.9,19.6c4.3,0.8,11.9,1.6,11,4.9c-1.2,4.7-7.6,0.8-11.5,0.2
		c-19.9-2.8-35.3-12.6-46.2-29.8c-5.2-8.2-13.9-9.7-23-8.7c-27.8,2.9-54.6-1.7-81-10.2c-7-2.2-13.9-4.1-21.3-4
		C638.1,668.2,635.7,665.9,635.1,652.1z"/>
	<path class="st7" d="M391.7,604.4c-0.2,4.8-1.2,10.6-5.8,15c-4.3,4-9.1,5.1-13.8,1c-2.4-2.1-3.5-2.2-5.5,0.3
		c-2.6,3.3-7.3,3.2-10.8,5.7c-8.2,5.8-15.4,13.4-23.9,18.3c-9.3,5.3-19.8,8.4-31.5,4.4c-11.7-4-19.5-12.8-28.8-19.7
		c-3.9-2.8-7.3-4.5-12.1-4c-5.6,0.6-11.3,0.3-16.9,0.3c-2,0-3.8-0.3-4.1-2.8c-0.2-1.9-0.4-3.9,1.6-5c2.1-1.2,3.3-1,4.3,1.9
		c0.7,1.9,3.1,0.8,4.6-0.8c2.5-2.7,2.6-2.2,6.3-0.5c2.4,1.1,5.5,1.3,8.3,1.2c5.4-0.2,10.1,0.8,13.9,5.1c1.7,1.9,4,3.2,6.5,4
		c1.9,0.6,5.2,0.6,3.8,4.4c-0.2,0.5,0.6,1.7,1.2,2.3c7.5,6.7,24.2,8.8,33.2,4.3c3.3-1.6,6.4-3.8,7.8-6.9
		c4.1-8.9,11.7-13.3,20.1-16.1c7.7-2.6,12.9-7.3,16-14.6c0.7-1.7,1.8-3.3,2.7-4.9c3-5.2,5.3-11.6,13.5-9.6
		C387.8,588.9,391.6,595.5,391.7,604.4z"/>
	<path class="st7" d="M342.3,469.7c0,2.2,0,2.4,0,2.7c0.1,12.1,0.1,12,11.7,10.7c6.1-0.7,11.8-0.2,15.4,6.6c1,2,1.7,2.9,0.9,5.1
		c-7.1,19.3-24.2,23.7-39.9,10.1c-1-0.9-2.2-3.7-3.1,0.5c-0.3,1.1-1.9-1.7-1.6-2.8c1-4.1,2.3-8.1,3.7-12.1
		c3.1-8.9,3.8-18.2,5.1-27.4c0.4-3.2-0.9-6.3-3.9-8.6c-7.4-5.8-14.6-11.8-21.7-17.9c-1.9-1.6-4.5-3.5-3.9-6.3
		c0.6-2.8,3.9-3.1,6.1-4.3c1.7-0.9,3.3-1.4,3.4,1.9c0.1,2.3,2.7,3.7,4.8,4.9c3.6,2.1,6.7,4.4,7.4,8.8c0.3,1.7,1.3,3.1,2.9,3.8
		C341.4,450.4,342.8,460.5,342.3,469.7z"/>
</g>
</svg>
