<svg id="Layer_1" data-name="Layer 1" xmlns="http://www.w3.org/2000/svg" viewBox="0 0 1080 1080"><defs><style>.cls-1{fill:#ed6e60;}.cls-2{font-size:103.73px;fill:#994472;stroke:#994472;stroke-miterlimit:10;font-family:Timeless-Bold, Timeless;font-weight:700;letter-spacing:0em;}.cls-3{letter-spacing:-0.01em;}.cls-4{letter-spacing:-0.01em;}.cls-5{letter-spacing:-0.01em;}.cls-6{letter-spacing:0em;}.cls-7{letter-spacing:-0.01em;}.cls-8{letter-spacing:-0.01em;}.cls-9{letter-spacing:-0.03em;}.cls-10{letter-spacing:0.01em;}.cls-11{letter-spacing:-0.05em;}.cls-12{letter-spacing:-0.01em;}.cls-13{letter-spacing:-0.01em;}.cls-14{letter-spacing:0em;}.cls-15{letter-spacing:0em;}.cls-16{letter-spacing:0em;}.cls-17{letter-spacing:0.01em;}.cls-18{fill:#67bda1;}.cls-19{fill:#7d4850;}.cls-20{fill:#e78aa7;}.cls-21{fill:#b0c6d6;}.cls-22{fill:#f5dbb1;}.cls-23{fill:#31558c;}</style></defs><title>iconesito</title><path class="cls-1" d="M215.26,989.21C91.37,864,21.67,689.89,25.94,516.46,26.68,486.69,29.52,456.83,37,428c12.22-47.26,36.46-90.67,61.19-133.09,22.81-39.11,46.73-78.49,80.55-109.23,18.87-17.16,40.43-31.26,61.89-45.27C288.61,109,338.1,77,394.61,65c47.48-10.15,96.83-5.56,145.21-.91l194,18.61c25.17,2.42,50.44,4.85,75,10.78,91.45,22.12,167.41,96.1,189.74,184.81,4.44,17.64,6.9,35.67,9.35,53.67,11.42,83.86,22.87,168.38,17,252.78s-30.17,169.7-83.74,236.49c-90.28,112.56-244,153.54-386.84,187.85-31.43,7.55-62.94,15.12-95.06,19.15-84,10.56-171.08-3.88-246.66-40.86"/><text class="cls-2" transform="translate(302.1 260.33)">B<tspan class="cls-3" x="63.37" y="0">e</tspan><tspan class="cls-4" x="113.48" y="0">n</tspan><tspan class="cls-5" x="170.36" y="0">e</tspan><tspan class="cls-6" x="221.28" y="0">s</tspan><tspan class="cls-7" x="263.64" y="0">s</tspan><tspan class="cls-8" x="305.46" y="0">e</tspan><tspan class="cls-9" x="355.58" y="0">r</tspan><tspan class="cls-10" x="395.56" y="0">e</tspan><tspan class="cls-11"><tspan x="0.2" y="96.36">f</tspan><tspan class="cls-3" x="39.15" y="96.36">e</tspan><tspan class="cls-12" x="89.27" y="96.36">m</tspan><tspan class="cls-13" x="176.39" y="96.36">m</tspan><tspan class="cls-14" x="263.47" y="96.36">i</tspan><tspan class="cls-15" x="288.37" y="96.36">n</tspan><tspan class="cls-16" x="346.01" y="96.36">il</tspan><tspan class="cls-17" x="395.36" y="96.36">e</tspan></tspan></text><path class="cls-18" d="M594,425.35c-3.19,10.92-6.59,21.78-10,32.63q-12.48,39.39-26.36,78.32c-11.49,32.17-23.69,64.14-37.32,95.47-12.64,29.06-26.29,58-43.34,84.76C470,727.47,464,736,455.25,745.11q-2.64,2.76-5.49,5.3c-.85.76-1.74,1.5-2.62,2.23-.56.47-1.25,1-.22.19-.5.38-1,.76-1.52,1.12a51.57,51.57,0,0,1-5.38,3.37c-.84.46-1.7.86-2.56,1.27-1.25.59,1.37-.5.09-.05-.5.18-1,.37-1.48.53a28.65,28.65,0,0,1-5.24,1.21c-4,.54-6.22,5.7-5.24,9.23,1.22,4.33,5.18,5.78,9.23,5.24,20.62-2.78,36.4-23.72,47.5-39.37,17.9-25.22,31.7-53.38,44.44-81.46,14.67-32.34,27.72-65.41,39.92-98.74Q582,513.3,595.59,470.82c4.34-13.49,9.36-27.11,12.69-40.91,0-.19.11-.38.17-.57,2.71-9.28-11.76-13.25-14.47-4Z"/><path class="cls-19" d="M417.41,514.37c1.81,30.42,1.08,61.19-.94,91.57-1.77,26.58-4.78,52.5-10.34,78.53-5.3,24.75-12.44,49.11-25.29,70.63-5.78,9.68-13.63,19.53-21.75,25.69a68.13,68.13,0,0,1-6.77,4.52c-1.22.71-2.46,1.39-3.72,2l-1.58.77-1.29.58c.6-.24.66-.26.17-.06a61.42,61.42,0,0,1-8.13,2.69c-1.41.37-2.83.68-4.26,1a27.66,27.66,0,0,1-3.53.53c-4,.43-7.5,3.14-7.5,7.5,0,3.72,3.45,7.93,7.5,7.5,52.24-5.6,75.68-59.9,87.17-104.66,12.82-49.94,16.2-102.5,16.11-153.91,0-11.61-.16-23.26-.85-34.85-.56-9.6-15.57-9.66-15,0Z"/><path class="cls-20" d="M138.13,591.67c1.89.56,3.74,1.25,5.58,2,1,.38,2,.78,3,1.18l1.59.65c2.17.88-1.05-.48.48.2,2.89,1.28,5.77,2.56,8.62,3.94A254.45,254.45,0,0,1,180.1,612q6.66,4.08,13.08,8.53,3.54,2.44,7,5c1.12.82,2.22,1.65,3.33,2.49,1.88,1.42.84.62,2.88,2.23A305.49,305.49,0,0,1,265.22,692c22.08,31,38.47,65.6,49.61,101.91,14.86,48.44,20.61,99.17,20.52,149.73q0,11.4-.43,22.78c-.34,9.66,14.66,9.65,15,0,1.84-53.78-2.27-108.19-16-160.35-10.33-39.18-26.25-77.17-48.51-111.1a319.62,319.62,0,0,0-61-69.28,288.91,288.91,0,0,0-54.32-36.52c-8.66-4.44-18.06-9.42-27.57-11.84l-.37-.12c-9.27-2.78-13.23,11.7-4,14.47Z"/><path class="cls-21" d="M425.33,699.71a195.66,195.66,0,0,1-.43,31.93c-1.43,16.38-5.21,37.11-15.7,49.72-6.38,7.66-14,11.34-23.84,11.44s-9.67,15.1,0,15c47-.48,55.25-58.59,55.35-94.75,0-4.45,0-8.91-.38-13.34-.75-9.57-15.75-9.65-15,0Z"/><path class="cls-22" d="M468.16,746.22c-7.1,14.81-12.69,30.5-17.68,46.12-10.83,33.93-18,69.31-19.69,104.93a283.07,283.07,0,0,0,5.32,71.14c2,9.44,16.43,5.45,14.46-4-13.61-65.53.28-135.71,24.74-197.1l1.35-3.35,1-2.34s1.19-2.77,1.71-3.94,1.16-2.61,1.78-3.9c4.15-8.66-8.78-16.28-13-7.57Z"/><path class="cls-23" d="M418.26,653.37a312.74,312.74,0,0,1-2.39,48c-2.93,24.6-9.14,55.64-25.33,74.9-9.29,11-20.4,16.74-34.56,16.54-9.66-.14-9.66,14.86,0,15,32.19.47,52.2-24.56,62.74-52.29,10-26.26,13.35-55.19,14.39-83.12.23-6.32.38-12.68.15-19-.34-9.62-15.34-9.67-15,0Z"/></svg>