<svg xmlns="http://www.w3.org/2000/svg" viewBox="0 0 1080 1080"><defs><style>.cls-1{fill:#e689a6;}.cls-2{fill:#788a8a;stroke:#788a8a;}.cls-11,.cls-12,.cls-2,.cls-3,.cls-7{stroke-miterlimit:10;}.cls-11,.cls-12,.cls-2,.cls-3,.cls-6,.cls-7,.cls-8{stroke-width:0.25px;}.cls-3{fill:#b8876a;stroke:#b8876a;}.cls-4{fill:#f29f64;}.cls-5{fill:#ec6e60;}.cls-6{fill:#b34826;stroke:#b34826;}.cls-6,.cls-8{stroke-linecap:round;stroke-linejoin:round;}.cls-7{fill:#ce6f6b;stroke:#ce6f6b;}.cls-8{fill:#afc5d4;stroke:#afc5d4;}.cls-9{fill:#68bda1;}.cls-10{fill:#32558d;}.cls-11{fill:#994472;stroke:#994472;}.cls-12{fill:#f7a2a7;stroke:#f7a2a7;}.cls-13{fill:#f3dab1;}.cls-14{fill:#cdd2c5;}</style></defs><title>iconesito</title><g id="Layer_2" data-name="Layer 2"><path class="cls-1" d="M230.68,993.68C107.41,869.05,38.05,695.85,42.3,523.28c.73-29.62,3.56-59.33,11-88.07,12.16-47,36.29-90.21,60.89-132.42,22.7-38.92,46.5-78.1,80.15-108.69,18.77-17.08,40.23-31.1,61.59-45,47.75-31.18,97-63,153.22-75,47.24-10.09,96.34-5.52,144.48-.9l193,18.52c25,2.41,50.19,4.83,74.61,10.73,91,22,166.57,95.62,188.79,183.89,4.42,17.55,6.86,35.49,9.3,53.4,11.37,83.44,22.76,167.54,17,251.52s-30,168.86-83.33,235.32c-89.82,112-242.82,152.77-384.91,186.91-31.28,7.52-62.63,15.05-94.58,19.06-83.54,10.5-170.24-3.86-245.43-40.66"/><path class="cls-2" d="M78.91,867.47a2,2,0,0,1-.72-.58c-2.8-3.49,3-13.94,4.46-17.18A198.49,198.49,0,0,1,103,814.36a145.18,145.18,0,0,1,13.12-15.53c5-5.09,10-7.51,16.81-9.81,17.94-6.07,38.45-5.55,54.12-16.21a44.32,44.32,0,0,0,10-9.37c3-3.84,3.61-7.67,5.68-11.9,4.64-9.49,11.16-18,18.36-25.66,8-8.54,16.24-17.92,21.71-28.35a242.53,242.53,0,0,0,13.69-30.9c1.41-3.92,2.07-7.92,3.92-11.6,2.44-4.87,4.54-9.74,6.58-14.8,2.53-6.3,5.74-12.7,11.29-16.61,10.26-7.24,27.39-2.06,34.83,7.3,5,6.26,9.43,16.69,6.35,24.67-6.37,16.56-27.54,28.45-45,24.72-3.66-.79-3.54.27-4.88,3-8.06,16.56-17.66,34.49-30,48.26-5.27,5.86-11.48,9.87-15.9,16.74-4.22,6.56-7.23,13.82-10,21.07C208.29,783.33,195,791.86,181,795.29c-17.19,4.18-34.35-2.12-50.35,7.74-8.39,5.17-15.15,12.59-21.32,20.27a245.51,245.51,0,0,0-21.76,31.93C86.2,857.53,81.92,868.73,78.91,867.47Z"/><path class="cls-3" d="M894.75,557.55l1.23-.86c-16.05.9-31.84-3.68-47.79-5.7-16.21-2.06-32.65-1.47-48.93,0a483.17,483.17,0,0,0-83.88,14.86c-18.41,5-36.83,6.26-55.86,6.05-5.67-.06-11.35-.19-17-.66a17.63,17.63,0,0,1-7.26-1.75c-4.87-2.76-6.22-9-7.81-14.32-2-6.55-5-8.62-10.51-11.68-5.74-3.22-9.89-7.49-16.92-8a23.89,23.89,0,0,0-12.71,2.93c-6.93,3.64-12.47,10.15-14.24,17.78s.57,16.25,6.44,21.44c5.59,4.95,13.23,6.19,20.43,6.61,9.32.54,18.54,1.84,27.7,2.6,10.32.85,20.94-.92,31.2-1.83,16.12-1.43,32.73-.11,48.41-4.35,26-7,53.11-8.83,80-10.61,15.31,0,30.6-2.91,45.9-2.75,16.35.18,32.7.8,49,2.32,6,.56,12,1.1,18,1.4a173.51,173.51,0,0,0,18.53-2.49c6.07-1.17,12.06-2.71,18.07-4.15,17-1.63,33.91-3.66,50.82-6,16-.62,32-1.15,47.58-4.8,1.22-.29,2.65-.8,2.91-2a1,1,0,0,0-.14-.7l.86-.13c-2.5-2.06-6-2.17-9.24-2.19l-42.85-.25c-20.84-.12-41.79-.23-62.5,2.47-9.69,1.26-18.82,4.34-28.29,5.91-6.63,1.1-13.29.38-19.86,1.15-6.76.79-12.73,1.42-19.6.7a222.59,222.59,0,0,1-24.62-4c-4.28-.94-8.54-2-12.88-2.54a96.55,96.55,0,0,0-15-.35q-21.2.71-42.3,3.12c-10,1.15-20.06,2.61-29.57,6-6,2.12-11.81,5.06-18.08,6.4-5.44,1.17-11.22,1.75-16.8,2.67l-.17,0"/><path class="cls-4" d="M273.69,873.79c11.67-12.21,23.41-24.38,35.71-36,9-8.5,17.29-18.07,25.36-27.49,7.64-8.94,14.25-18.71,20.85-28.45,14.64-21.64,39.31-48.62,15.26-73.15-6.57-6.69-13-13.48-19.6-20.16-4.61-4.68-7.7-10-5.47-16.66,2.37-7.08,7.69-10.92,15-12.47,19.64-4.16,36.48,4.56,44.51,23.23,4.18,9.74-1.28,20.17-12.9,22.79-5.87,1.33-7.34,3.49-4.65,8.51,10.45,19.47,3.06,36.61-7.26,53.06-8.09,12.87-16.12,25.8-24.23,38.65-12.09,19.16-27.87,32.4-46.21,45.21-4.46,3.11-9,6.28-12.42,10.47-2.72,3.32-4.76,7.24-8.05,10-3.57,3-8.28,4.32-12,7.11-1.85,1.39-3.43,3.11-5.38,4.35s-4.44,1.95-6.56,1c.7-2.31,2.42-4.15,4.09-5.9Z"/><path class="cls-5" d="M658.51,869.73A36.86,36.86,0,0,0,645,851c-15.65-11.69-24.66-28.4-33.71-44.77-6-10.84-14-19.58-22.49-28Q569.28,759,551,738.57c-5.54-6.23-11.12-12.54-16.49-18.84-4.83-5.66-10.39-9.52-16.22-14.09-6.45-5.06-12-11.51-14.93-19.16-4.54-11.83-2.17-23.31,9-29.69,8.69-4.95,20.89-5,28.68,1.74,15.09,13.06,16.51,32.93,3.05,46.63-2.64,2.69-3.17,4.8-.73,7.43,15.4,16.56,28.5,35.2,47.31,48.64,16.26,11.63,27,28.07,33.71,46.82a85.17,85.17,0,0,0,27.14,38.43c6.16,5.06,13.89,12.18,16.22,20.14,1.1,3.76-.29,8.32-1.54,12-1.08,3.22-5.55,8.28-5.8,11.28A52.39,52.39,0,0,0,658.51,869.73Z"/><path class="cls-6" d="M828.34,863.52a21.81,21.81,0,0,1-7.59-2.65c-4.14-2.34-7.55-5.76-10.9-9.14a45.49,45.49,0,0,1-4.41-4.9,31.14,31.14,0,0,1-3.71-7c-2.8-6.93-3.1-14-6.34-20.73-2.78-5.78-6-11.27-11.1-15.3a74.09,74.09,0,0,0-10.8-6.63c-5.27-2.83-10.5-5.72-15.79-8.49a80.41,80.41,0,0,1-14.23-10.14,228.42,228.42,0,0,1-25.06-24.12c-6.1-7-10.67-18-20.25-20.61-8.57-2.31-8.3,7.23-15.09,8.58a23.17,23.17,0,0,1-7.88-.09,39.1,39.1,0,0,1-15.71-6.5c-8.82-6-17.15-16.19-16.43-27.47.7-11,10.23-15.76,20.42-12.85a33.54,33.54,0,0,1,14.59,8.72c4.31,4.38,3.78,12.06,9.2,15.39a24.51,24.51,0,0,0,7.21,2.56c2.52.61,5.61,1.19,7.45,2.3,2.09,1.25,4.82,3.47,7.1,5A153.13,153.13,0,0,1,723.9,741c9.6,8.27,18.52,17.3,28.21,25.45a291.46,291.46,0,0,0,27.08,19.93c7.77,5.14,14.93,8.36,19.67,17,3.78,6.88,5.6,14.44,8,21.81a76.31,76.31,0,0,0,10.76,21.59,59.76,59.76,0,0,0,8.16,9c2.68,2.41,6.65,4.35,8.79,7.08A11.43,11.43,0,0,1,828.34,863.52Z"/><path class="cls-7" d="M304.5,314.6c.65,2.09,1.32,4.17,2,6.25,5.21,16.16,11.22,32,16.8,48,5.9,16.93,8.67,32.77,11.23,50.48.24,1.61.52,3.33,1.66,4.5a9.23,9.23,0,0,0,3.74,1.87,25.62,25.62,0,0,1,11.5,40.18c-5.12,6.39-13,10-20.81,12.29-3.75,1.12-7.67,2-11.55,1.51-20.58-2.71-19.22-25-14.24-39.29,2.15-6.18,5-12.12,6.77-18.42,8.52-30.53-8.57-65.31-19.21-93.25a190.74,190.74,0,0,1-7.26-21.59,183.79,183.79,0,0,1-3.31-18.65l-5.66-39.71c-1.15-8-1.82-16.51,1.47-24.15,7.39,17.73,11,34.45,15.94,52.9C297,290,300.64,302.32,304.5,314.6Z"/><path class="cls-8" d="M676.89,312.48C662.3,325,647,335.6,634.35,350.84c-9.35,11.32-19.83,21.5-29.72,32.28-7.82,8.53-18.45,11.92-28.43,16.44-11,5-18.88,12.9-22.74,24.1-2.89,8.41-7.1,12.8-16.44,10.68-4.71-1.07-7.45,0-5.93,6.09,2.23,9-.84,17.5-4.66,25.41-5.11,10.59-17.71,13.42-27.36,7-4.88-3.27-6.61-7.29-5.64-13.27,3.36-20.75,18.8-28.77,36.22-33.79,7.63-2.2,12.12-5.6,15.39-12.71,4.47-9.73,12.26-16.75,22.09-21.2,20.71-9.35,31.85-24.89,48-39.55,5-4.54,10-9.12,13.83-14.69,2.82-4.14,4.91-8.76,7.94-12.76,4.75-6.27,11.52-10.65,18.22-14.78,17.73-11,36.86-21.44,57.69-22.13a75.21,75.21,0,0,0-27.08,16.59C682.84,307.29,679.88,309.93,676.89,312.48Z"/><path class="cls-9" d="M467.45,869.58c-.95-29.2-3.15-59.56,4.84-87.41,1-3.62,2.52-8.19-3.77-10.22-17.48-5.67-16.4-35.34-2.43-45.1,6.46-6.46,19.07-8,27.54-6.68,4.34.65,9,1.46,12.07,4.58,2.32,2.35,3.38,5.68,3.75,9,1.19,10.51-4.05,17.8-11,24.76-6.45,6.46-12.09,15-14.06,24-3.08,14.08-7.33,28.51-4.87,43.35a128.55,128.55,0,0,1,1,30.74c-.34,4.56-1.49,9.27-1.56,13.77-.08,5.08,1.41,9.63.12,14.78-1,4.09-3.28,7.77-4.53,11.8-1.45,4.7-1.48,9.71-2.39,14.54s-3,9.84-7.16,12.4l1.93-21.58c.43-4.73.85-9.47.87-14.22C467.8,882,467.66,875.81,467.45,869.58Z"/><path class="cls-10" d="M412.89,310.54c-4.32,12.43-4,26.33-.68,39.15,3.2,12.42,7.5,25.62,15.69,35.72,9.28,11.45,21.44,13.25,23.31,30.12a38,38,0,0,1,.06,9c-1.6,12.49-12.84,23-25.4,23.86-12.73.82-20.18-15.58-16.37-26.56a44.07,44.07,0,0,1,7.3-13.7c4.64-5.52,4.34-10.57.79-16-4.25-6.47-7.77-13.35-13.71-18.79-4.61-4.22-4.21-11.2-6-16.95-4.55-14.82-7.08-29.28-1.25-44.09,5.35-13.61,13.83-27.46,20.9-40.45,6.76-12.43,16.19-24.48,29.59-29-3.05,13-15.38,21.73-20.42,34.06-1.9,4.65-2.7,9.69-4.53,14.36-1.91,4.91-4.91,9.31-7.16,14.06A51.26,51.26,0,0,0,412.89,310.54Z"/><path class="cls-11" d="M483.69,553.41c.22,22.21-25.9,48.45-48.56,48.78-24.57.36-48.91-25.46-49.38-52.38-.45-25.89,21.47-49.62,46.37-49.87C459.21,499.67,485.38,523.44,483.69,553.41Z"/><path class="cls-12" d="M632.83,476c10.64,10.3,10.27,17.72.82,24.72-11.45,8.48-33.75,9.8-45.62,2.53-5.21-3.2-9.49-7.52-8.55-14.17s5.88-9.3,12-11.13c29.21-8.73,58.52-17.2,83.9-35.24,7.43-5.28,14.76-10.49,21.35-16.86,11.61-11.22,26.9-14.54,42-17.24a55.43,55.43,0,0,0,23.88-10.16c13.16-9.77,27.93-17.06,40.46-28,4.73-4.13,12.57-5.58,18.68-9.45,18.92-12,37.06-25.23,57.19-35.24,2-1,4.13-2.15,6.46-.34.78,3.66-2.57,4-4.5,5.21-30,18.48-59.39,37.95-88.94,57.11-12.89,8.36-25.74,17.57-38.48,26.41-5.11,3.55-14.6,3.86-22,5.86-12.72,3.41-23.12,10.35-30.71,21.25-5.11,7.34-13.87,9.29-21,13.38C665.3,463,652.08,474.23,632.83,476Z"/><path class="cls-13" d="M619.08,636.67c-7.19-10.84-3.4-27,7.29-35.59a28.66,28.66,0,0,1,19.4-6.18,12.82,12.82,0,0,1,5.69,1.43c2.49,1.44,4.06,4.07,5.15,6.73,3.13,7.65,3,16.93-1.65,23.77-2.62,3.84-6.42,6.69-10.15,9.46-3.34,2.47-6.68,3.38-1.94,7.09a19.14,19.14,0,0,0,8.58,3.34c3.06.41,6.12-.62,9.29-.28,9.35,1,18.67,2.91,27.89,4.73,18.22,3.61,36.34,7.83,54.77,10.27a131.44,131.44,0,0,0,26.31.63c28.37-2,51.89,5.09,67.17,31.5,10.53,18.2,29.28,23.45,48.38,27.14,6,1.16,16.44,2.19,15.23,6.84-1.68,6.47-10.46,1.06-16,.29-27.59-3.85-48.92-17.48-64-41.23-7.27-11.4-19.19-13.43-31.92-12.1-38.49,4-75.7-2.35-112.2-14.11a114.15,114.15,0,0,0-21.94-5.16c-5.52-.63-11.72-2.23-16.39-5.39-3.75-2.53-7.56-4-11.49-6.28A21.79,21.79,0,0,1,619.08,636.67Z"/><path class="cls-14" d="M286,566.58c-.33,6.69-1.65,14.69-8,20.73-3.75,3.54-8.6,6-13.81,4.51a12.48,12.48,0,0,1-5.17-2.67c-1.23-1.35-1.1-4.5-3.12-5.08-1.25-.37-2.39.88-2.91,2.08-3.2,7.31-11,6.85-16.77,11-11.4,8.11-21.3,18.52-33.1,25.32-12.82,7.39-27.48,11.63-43.69,6.08s-27-17.72-39.94-27.27c-5.34-3.94-10.06-6.25-16.79-5.58-7.74.77-15.6.39-23.41.47-4.91.06-7.21-3.12-2.73-6.2,8.84-6.07,21.38-5,31.23-2.45,12.46,3.21,22.77,11.75,32.46,20.21,9.42,8.23,22.81,12.34,35.23,11.52,12.63-.84,19.84-5.66,28.38-14.6,7.32-7.66,14.33-16.48,24.29-20.83s18-10.16,22.3-20.38a64.09,64.09,0,0,1,3.75-6.84c4.2-7.26,7.39-16.11,18.64-13.35C280.6,545.13,285.94,554.21,286,566.58Z"/><path class="cls-11" d="M217.62,446.68v3.67c.14,16.8.12,16.58,16.22,14.83,8.5-.92,16.37-.34,21.28,9.11,1.45,2.79,2.39,4,1.26,7-9.9,26.78-32.59,31.59-55.29,14-8.32-6.46-5.7-17.54-3.32-26.24,2.77-10.11,6.6-16.79,4.59-27.69-3.66-19.9-19.8-33.48-34.57-45.72-6.47-5.36-12.19-11.54-17.9-17.7l-24.51-26.48c-5.39-5.81-11.16-12.79-10-20.63A94.43,94.43,0,0,1,128,341.35l20.44,19.14,51.69,48.38C212,420,218.53,430.11,217.62,446.68Z"/></g></svg>