<?xml version="1.0" encoding="utf-8"?>
<!-- Generator: Adobe Illustrator 21.1.0, SVG Export Plug-In . SVG Version: 6.00 Build 0)  -->
<svg version="1.1" id="Layer_1" xmlns="http://www.w3.org/2000/svg" xmlns:xlink="http://www.w3.org/1999/xlink" x="0px" y="0px"
	 viewBox="0 0 1080 1080" style="enable-background:new 0 0 1080 1080;" xml:space="preserve">
<style type="text/css">
	.st0{fill:#E78AA7;}
	.st1{fill:#994472;stroke:#994472;stroke-miterlimit:10;}
	.st2{font-family:'Timeless-Bold';}
	.st3{font-size:103.7349px;}
	.st4{fill:#ED6E60;}
	.st5{fill:#F39F63;}
	.st6{fill:#67BDA1;}
	.st7{fill:#994472;stroke:#994472;stroke-width:0.5;stroke-miterlimit:10;}
	.st8{fill:none;stroke:#994472;stroke-width:3;stroke-miterlimit:10;}
	.st9{fill:none;stroke:#994472;stroke-width:2;stroke-miterlimit:10;}
</style>
<g id="XMLID_11_">
	<path class="st0" d="M261.4,958.8C137.5,833.5,67.8,659.4,72.1,486c0.7-29.8,3.6-59.6,11-88.5c12.2-47.3,36.5-90.7,61.2-133.1
		c22.8-39.1,46.7-78.5,80.5-109.2c18.9-17.2,40.4-31.3,61.9-45.3c48-31.3,97.5-63.3,154-75.4c47.5-10.1,96.8-5.6,145.2-0.9
		c64.7,6.2,129.3,12.4,194,18.6c25.2,2.4,50.4,4.8,75,10.8c91.5,22.1,167.4,96.1,189.7,184.8c4.4,17.6,6.9,35.7,9.3,53.7
		c11.4,83.9,22.9,168.4,17,252.8c-5.8,84.4-30.2,169.7-83.7,236.5c-90.3,112.6-244,153.5-386.8,187.8c-31.4,7.6-62.9,15.1-95.1,19.2
		c-84,10.6-171.1-3.9-246.7-40.9"/>
</g>
<text transform="matrix(1 0 0 1 361.876 234.8825)"><tspan x="0" y="0" class="st1 st2 st3">Cura del </tspan><tspan x="-211.6" y="96.4" class="st1 st2 st3">pavimento pelvico</tspan></text>
<path class="st9" d="M337.4,561.8c-1.4-27.6-1.6-57.5-0.3-89.8"/>
<path class="st9" d="M374.2,743c-19.3-45.7-32.9-104.9-36.9-181.2"/>
<path class="st9" d="M419.8,478.7c38.7,31.1,99.4,89.6,143.7,171.9"/>
<line class="st9" x1="357.6" y1="460.7" x2="380.9" y2="451.8"/>
<path class="st9" d="M531,678.4c-10.2-19.8-23.7-44.3-35.4-63.7"/>
<path class="st9" d="M420,772.3c36.6,64.2,90.4,115.4,175.6,115.4"/>
<path class="st9" d="M382.6,684.6c5.7,17.2,12.3,34.4,20.1,51"/>
<path class="st9" d="M228.4,745.4c0,0-0.8-83.6,33.1-152.9c29-59.4,52.8-112.3,86.9-127.9c4.5-1,88.3-43,156.1-28.9
	c0,0,82.1,9,185.8,79.4c0,0-92,142-212.6,191.8C477.7,706.9,361.6,763.9,228.4,745.4z"/>
<path class="st9" d="M595.6,887.6c-5.9-2.1-9.9-3.5-9.9-3.5c-116.4-0.9-114.6-118.2-114.6-118.2c-0.3-4.8-5.9-10-8.9-11.1"/>
<path class="st9" d="M395,781.9C308.4,806.3,237,783,237,783c69,91.1,147.7,127.2,147.7,127.2c182.6,65.8,258.8,0,258.8,0
	c-3.3-5.9-32.2-17-47.8-22.7"/>
<path class="st9" d="M422.8,772.8c-9.3,3.6-18.6,6.6-27.8,9.2"/>
<path class="st9" d="M456.2,757.6c-11.2,5.9-22.3,10.9-33.4,15.1"/>
<path class="st9" d="M512.6,734c-1.5-1.1-2.3-2.3-2.2-3.7"/>
<path class="st9" d="M580.9,685.9c54.9-38.6,111.6-90.3,132.9-149.1c0,0,132.1,205.7-39.7,359c0,0-38.3,9.9-55.5-27.1
	c0,0,23.5-26.1-26.6-91.6c-23.4-30.6-68.9-35.5-79.4-43.1"/>
<path class="st9" d="M546.2,708.8c11.2-7,22.9-14.7,34.7-22.9"/>
<path class="st9" d="M455.8,757.9c0,0,40.8-18,90.4-49c0,0,20.9,29.1,26.6,50.8"/>
<path class="st9" d="M228.4,745.4c0,0,79-70.4,108.9-183.7"/>
<path class="st9" d="M690.3,515.2c0,0-198.2,0-326.7-57.3"/>
<path class="st9" d="M518.6,813c0,0-30.7-62.7,29.7-29c0,0,31.7,13.5,34.6,53.9c0,0,6.4,27.3-36.1,10.4
	C546.9,848.2,529.5,843.6,518.6,813z"/>
<path class="st9" d="M398.4,597.5c0,0-10.7-17.7-1.1-23.9c0,0,12.5-4.1,18.5,4.6c0,0,9.5,7.7,11.2,18c0,0,7.7,12.1,5.7,20.4
	c0,0,6.1,10.3,4.9,20c0,0,5.1,6.3,4.5,10.6c-0.6,4.3,10.4,13.4,0.9,18.5c0,0-4.5,11.4-21.5-12.9c0,0-9.1-0.4-9.6-19.6
	c0,0-12.5-2.9-8.2-22C403.7,611.1,394.6,608.5,398.4,597.5z"/>
<ellipse transform="matrix(0.838 -0.5456 0.5456 0.838 -235.4593 300.0218)" class="st9" cx="387.6" cy="546.6" rx="6" ry="10.7"/>
<path class="st9" d="M348.5,465.2c0,0-14.5,5.8-15,12.4c-3.2,42.9-8.7,212.5,110.2,244.6c4.1,1.1,21.3-11.1,26.8-11.6
	c0.1,0,0.2-0.1,0.1-0.2c-8-3-82-39.9-103.9-108.8C348.9,545.6,357.1,463.2,348.5,465.2z"/>
<path class="st9" d="M348.5,465.2l15.1-7.3c0,0,160.3,69.8,133,240.4l-26,12.1C470.6,710.4,450.9,525.2,348.5,465.2z"/>
<path class="st9" d="M360.2,478.7c0,0-12.1,46.6,16,39.2c0,0,7.8,0.1,3.2-19.2"/>
<path class="st9" d="M578.4,688.7c0,0,72.9,119.4,54.8,198.9"/>
<path class="st9" d="M387.6,783.9c0,0,51.2,115,234.3,114"/>
</svg>
