<svg xmlns="http://www.w3.org/2000/svg" viewBox="0 0 1080 1080"><defs><style>.cls-1{fill:#68bda1;}.cls-2,.cls-3{fill:#fbe192;stroke:#69bda1;stroke-miterlimit:10;}.cls-2{stroke-width:2px;}</style></defs><title>iconesito</title><g id="Layer_2" data-name="Layer 2"><path class="cls-1" d="M230.68,981.78C107.41,857.14,38.05,683.94,42.3,511.38c.73-29.63,3.56-59.33,11-88.08,12.16-47,36.29-90.21,60.89-132.42,22.7-38.92,46.5-78.1,80.15-108.69,18.77-17.07,40.23-31.1,61.59-45,47.75-31.19,97-63,153.22-75,47.24-10.1,96.34-5.52,144.48-.91l193,18.53c25,2.4,50.19,4.82,74.61,10.73,91,22,166.57,95.61,188.79,183.89,4.42,17.54,6.86,35.49,9.3,53.39,11.37,83.45,22.76,167.55,17,251.53S1006.3,748.14,953,814.6c-89.82,112-242.82,152.78-384.91,186.92-31.28,7.51-62.63,15-94.58,19.06-83.54,10.49-170.24-3.87-245.43-40.67"/><path class="cls-2" d="M367.62,455.73c-23-36.77-41.81-76.88-48.69-119.7s-1-88.68,22.22-125.3c24.33-38.34,66.16-63.79,110.55-73.32s91.08-4.13,134.29,9.78c18.24,5.88,36.35,13.46,50.71,26.15,28.84,25.48,37.46,66.27,44.48,104.11q8,42.87,15.89,85.73c4.48,24.18,8.89,49.64.9,72.9-9.06,26.42-32.62,45.22-57.08,58.71C551,544.34,426.38,549.68,367.62,455.73Z"/><path class="cls-2" d="M564.45,797.68c-.11.74-1.36.63-1.65-.06a2.6,2.6,0,0,1,.37-2.11l7-14.16c1.81-3.68,3.67-7.42,6.49-10.4,3-3.19,7-5.33,10.83-7.37,9.85-5.17,20.3-10.15,31.42-10.17,8.39,0,16.51,2.8,24.33,5.84,6.75,2.63,13.64,5.59,18.59,10.87,6.07,6.48,8.4,15.51,10.51,24.14"/><path class="cls-2" d="M416,548.3c8.39-41.93,44.69-75.6,86.32-85.35s86.83,2.8,120.7,28.89,56.91,64.62,68.94,105.65c5.3,18.09,8.59,36.7,11.86,55.27q6.12,34.66,12.24,69.34c1,5.7.73,19.85,4.73,24.53,5.92,6.94,14.15,2.48,22.13,5.55,7.22,2.78,11.49,11,11,18.69C752,799,725.43,787.36,708.67,791.76,693.94,795.63,687,781.23,679.56,768c-10.91-19.42-21.65-39.18-28-60.54-10.7-35.94-8.58-75.11-22.12-110.08-4.33-11.19-10.48-22.08-20-29.36s-21.4-10.29-33.14-12.23a222.5,222.5,0,0,0-161.54,36.44A60.81,60.81,0,0,1,417,544.32C417.28,547.42,415.63,545.2,416,548.3Z"/><path class="cls-3" d="M320.84,683.16c-18.56,40.36-24.64,88.25-7.65,129.29s60.35,72.27,104.46,67c-29.17-18.07-43.43-55.2-39.08-89.23,1-7.66,2.79-15.3,2.26-23-.55-8-3.59-15.57-6.58-23-8.4-20.8-15.89-42.3-25.31-62.66C341.15,664.7,329.19,665,320.84,683.16Z"/><path class="cls-3" d="M685.72,297c.72.14-.25,1.32-.77.82s-.27-1.37,0-2c3.11-6.9,6.9-14.45,14-17.1,7.52-2.81,16.25,1.31,21.07,7.72s6.52,14.6,7.63,22.55c1.43,10.23,2,20.94-1.64,30.59s-12.63,17.93-22.95,17.9"/><path class="cls-3" d="M326.51,391c-4.7-2.18-10.54-.27-14.2,3.41s-5.5,8.78-6.71,13.82a76.22,76.22,0,0,0,5.17,50.09c2.75,5.79,6.34,11.35,11.42,15.26s11.87,6,18.07,4.36c9.66-2.52,15.06-12.62,18.63-21.94"/><path class="cls-2" d="M541.29,536.33c-3.57-.33-10.88-1-11.84-1-37.65-2.73-67.52-3.76-103,9.08-46.34,16.79-81.78,60.09-89.92,108.7s10.95,100.7,48,133.18c27.44,24,64,36.91,100.34,36.89,67.6,0,149.8-33.51,164.31-106.22,8.21-41.17-2.71-83.83-18.32-122.81-9.23-23.06-24.94-38.86-47.41-49.33C577.91,542.16,554.19,537.51,541.29,536.33Z"/><path class="cls-2" d="M410.46,876.53c9.07,10.34,20.36,20.39,34.09,21.23,11.45.7,22.37-5.29,30.85-13,6.58-6,12.43-14,12.1-22.84-.26-7.06-4.35-13.35-8.56-19-14.08-19-63.7-86.46-90.79-68.1C354,797.92,392.48,856,410.46,876.53Z"/><path class="cls-2" d="M702.48,778.31c10.82,47.84-9.39,95.92-59.42,108.77-33.3,8.55-69.55-7.79-91.63-34.14-32-38.19-51-111.67-16.12-154.12,6-7.25,13.5-13.05,21.48-18,25.19-15.51,59.1-22,83.83-5.76C651.9,682.48,660,693.74,667.5,705,682.62,727.62,696.48,751.73,702.48,778.31Z"/><path class="cls-2" d="M586.89,815.55c3.8,5.38,5.47,12,6.77,18.4,6,29.91,5.13,62.71-10.82,88.71S532.93,965,504.55,953.75c-10.58-4.18-20.46-13.27-20.66-24.65-.18-9.83,6.71-18.21,13.21-25.59C507,892.24,519.93,881,528,868.39c7.69-11.94,6-20.7,5.92-35.49C533.82,810.83,571.58,793.86,586.89,815.55Z"/></g></svg>