<svg id="Layer_1" data-name="Layer 1" xmlns="http://www.w3.org/2000/svg" viewBox="0 0 1080 1080"><defs><style>.cls-1{fill:#e9bda2;}.cls-18,.cls-2,.cls-28,.cls-3,.cls-4{fill:#984371;}.cls-18,.cls-28,.cls-3{stroke:#984371;stroke-miterlimit:10;}.cls-3{stroke-width:0.65px;}.cls-4{font-size:102.27px;font-family:Karla-Bold, Karla;font-weight:700;letter-spacing:-0.04em;}.cls-5{letter-spacing:-0.01em;}.cls-6{letter-spacing:0em;}.cls-7{letter-spacing:-0.01em;}.cls-8{letter-spacing:-0.01em;}.cls-9{letter-spacing:-0.02em;}.cls-10{letter-spacing:-0.01em;}.cls-11{letter-spacing:0.02em;}.cls-12{letter-spacing:-0.01em;}.cls-13{letter-spacing:-0.02em;}.cls-14{letter-spacing:-0.02em;}.cls-15{letter-spacing:0em;}.cls-16{letter-spacing:-0.01em;}.cls-17{letter-spacing:-0.02em;}.cls-18{font-size:92.98px;font-family:Timeless-Normal, Timeless;letter-spacing:0.08em;}.cls-19{letter-spacing:0.08em;}.cls-20{letter-spacing:0.08em;}.cls-21{letter-spacing:0.07em;}.cls-22{letter-spacing:0.1em;}.cls-23{letter-spacing:0.1em;}.cls-24{letter-spacing:0.07em;}.cls-25{letter-spacing:0.09em;}.cls-26{letter-spacing:0.11em;}.cls-27{fill:#ed6f60;}.cls-28{stroke-width:0.75px;}</style></defs><title>LOGO_POST</title><path class="cls-1" d="M340.67,365.85c83.81-52,90.44-24.62,118.63-70.53,22.1-36-12.31-67.67,17.42-129.4,15.84-32.91,35.14-46.62,42.3-51,7.92-4.86,31.68-19.45,58.48-13.69,43.35,9.33,67.41,64.75,69.54,77.9,6,36.91,26.32,65.12-6.79,96.27-.44.41-.44.41,2.72,2.54,2,1.32-4.88,1.49-6.61,3.55-15.15,18-4.52,8.16-21.08,22.78-18.24,16.12-21.24,9.46-22.6,14.2-18.26,63.48,67.44,7.87,128.05,57.83,50,41.2,44.77,78.13,47.44,96,6.44,43-10.24,91.41-13.32,103.9-15.47,62.73-39.33,101.19-71,134.74-16.49,17.44-82.05,79.51-130.5,79.85-56.75.4-140-87.23-188.31-145.11-21.7-26-50.6-59.18-64.32-130.27C296,491,288,398.53,340.67,365.85Z"/><path class="cls-2" d="M522.35,638.63c14.12,1,26.47-6.21,36.95-15A236.1,236.1,0,0,0,592,589.44a244.78,244.78,0,0,0,43.3-84c5.45-19,7.69-38.83,16.44-56.73l-2.88.61c3.87,17.13-6.25,33.82-2.36,51,.19.84,2.49,0,2.77-.43a406.25,406.25,0,0,0,23.7-44.82c7.05-15.66,12.11-32.6,22.4-46.56l-2.5.67c5.49,2.89-1.33,14.51-2.74,18.12-2.65,6.79-5.26,13.6-7.7,20.46a277.71,277.71,0,0,0-11.73,42c-.19,1,2.25.2,2.57-.08,3.88-3.45,5.46-8.86,7.55-13.48l9-19.93,8.58-19,4.49-10c.65-1.43,1.11-3.3,2-4.53.38-1.39,1.44-2.09,3.19-2.1a9,9,0,0,1-.1,2.78c-.55,6.51-3.84,12.36-6.67,18.12-2.95,6-5.65,12.18-8,18.46A210.3,210.3,0,0,0,682.8,498.8c-.18,1,2.55.16,2.88-.44C698,476.07,704,450.78,718.23,429.52l-2.77.43c1.25,7.42-1.39,14.12-4.4,20.77-2.89,6.39-5.72,12.8-8.22,19.36a281.72,281.72,0,0,0-12,40.54c-.12.58.91.5,1.21.45,6.43-1.16,9.35-6.22,12-11.76a161.32,161.32,0,0,1,17.16-28.5l-2.68.57c2.46,3-3.47,11.69-4.8,14.52Q710.88,492,708,498.11,701.47,511.6,694.73,525q-13.29,26.26-27.61,52c-.33.59,2.42.37,2.88-.44q15.24-27.4,29.34-55.44,6.93-13.8,13.57-27.74,3.32-7,6.56-14c1.24-2.67,4-6.3,1.78-9-.49-.61-2.3.06-2.69.57a158.93,158.93,0,0,0-12.19,18.62c-1.86,3.35-3.54,6.78-5.19,10.24-1.79,3.75-3.92,9.14-8.62,10l1.2.45a280.74,280.74,0,0,1,12.62-42.26c2.64-6.8,5.77-13.37,8.65-20.07,2.59-6,4.44-12.08,3.32-18.68-.14-.86-2.49,0-2.78.43-14.33,21.38-20.42,46.78-32.77,69.2l2.88-.44a210.87,210.87,0,0,1,12.84-44.78c2.9-7,6.59-13.6,9.54-20.56,1.1-2.6,5.71-13.15,1.39-15-2.31-1-5.16,1.44-6.35,3.06-2.09,2.86-3.31,7-4.77,10.25l-4.9,10.87L682.8,465.74l-4.9,10.87c-1.89,4.18-3.46,9.67-6.94,12.76l2.57-.08c3-16.19,8-31.89,13.68-47.33,2.85-7.73,5.93-15.37,8.88-23.06,1.36-3.55,3.35-8.73-.92-11a2.63,2.63,0,0,0-2.5.67C683,421.71,678,437.37,671.54,452.15a402.08,402.08,0,0,1-25,47.82l2.78-.42c-3.88-17.13,6.24-33.82,2.36-51-.21-.94-2.62.07-2.88.61-6.94,14.18-9.84,29.65-13.41,44.9A243.05,243.05,0,0,1,572.85,608.3c-12.62,13.07-28.9,30.29-48.67,29-.76,0-3.35,1.27-1.83,1.38Z"/><path class="cls-2" d="M646.49,635c-23.4,10.64-50.37,10.26-75.56,9.48-23.6-.73-47.92-3.89-68.44-16.37-32.88-20-50.71-57.24-60.57-93.08a289.31,289.31,0,0,1-7.16-35.23c-2-13.59-3.93-27.2-9-40.05-.45-1.15-2.62-.39-2.9.53-5.21,16.79,3.58,34.22-1.63,51l2.9-.54A405.94,405.94,0,0,1,403,461.16c-5.35-15.33-9.09-31.42-17.75-45.35-.35-.56-1.49-.3-1.94-.11-4.08,1.76-3.84,6-2.87,9.77,2,8,4.82,15.77,7.08,23.68,4.68,16.43,8.62,33.06,10.45,50.07l2.78-1c-3-3.07-4-7.65-5.41-11.56l-4-11.23-8.75-24.32-4-11.22c-1.39-3.88-2.44-8.83-4.58-12.37-1.36-2.26-3.86-4.19-6.41-2.46-3.66,2.48-1.1,10.37-.12,13.65,2.24,7.5,5.71,14.62,8.16,22.07a210.33,210.33,0,0,1,9.58,46.51l2.9-.77c-10.55-23.33-14.65-49.13-27.26-71.58-.52-.93-2.59-.07-2.8.75-3.27,13,5.1,27,8.79,39.22a280.39,280.39,0,0,1,9.4,43.53l2.31-1.26c-7.7-2-9.7-13.9-12.47-20.16a157.56,157.56,0,0,0-11.44-21.16c-.48-.75-2.06-.2-2.52.28-2,2.11-1,4.29-.1,6.82,1.85,5.15,3.82,10.26,5.77,15.36q5.67,14.88,11.67,29.63,12,29.5,25.28,58.47c.51,1.11,3.36.24,2.9-.78q-12.26-26.76-23.45-54-5.5-13.38-10.73-26.89-2.62-6.75-5.17-13.52c-1-2.66-6.22-11.91-3.8-14.45l-2.52.28a153.85,153.85,0,0,1,13.92,27.26c2.24,5.78,4.2,12.83,10.93,14.6.76.2,2.46-.21,2.32-1.26A281.6,281.6,0,0,0,370.19,476c-1.95-6.61-4.23-13.1-6.57-19.58-2.47-6.83-4.57-13.73-2.74-21l-2.8.75c12.53,22.3,16.56,48,27,71.16.5,1.11,3,.43,2.9-.77a211.27,211.27,0,0,0-7.16-38.64q-2.64-9.24-6.14-18.21c-2.34-6-5.31-12.09-5.86-18.62-.2-2.32-.25-4.76,2.1-2.62,1.13,1,1.43,3.33,1.94,4.76l3.7,10.28,7.07,19.64,7.4,20.58c1.85,5.15,3.08,11.67,7,15.72.71.74,2.91.19,2.78-1a275.68,275.68,0,0,0-8.16-41.84c-1.81-6.73-3.77-13.42-5.77-20.1-1-3.31-7.46-17.22-2.41-19.4l-1.94-.1c8.89,14.29,12.58,31,18.15,46.71a405.44,405.44,0,0,0,20.52,47.8c.55,1.07,2.6.45,2.91-.54,5.21-16.79-3.57-34.22,1.63-51l-2.91.54c9.12,23.1,9.14,48.75,15.46,72.65,5,18.89,11.94,37.41,21.9,54.27,9.72,16.46,22.56,31.27,38.85,41.48,20,12.55,43.79,16.27,67,17.27,27.08,1.16,56.44,1.66,81.61-9.78,1.82-.82.18-2-1.21-1.41Z"/><path class="cls-2" d="M395.17,586c1.82,9.49,8.36,18.19,13.26,26.32q8.43,14,17.38,27.7,18.12,27.74,38.11,54.19c12,15.77,24.84,31.54,41.13,43,13.88,9.81,29.79,16.24,46.36,19.84,19.83,4.3,40.28,4.67,60.46,3.49.94-.06,1.56-1.14.25-1.07-35.23,2.07-72.34-1.15-102.53-21.1-16.33-10.78-29.26-25.92-41.13-41.29-12.71-16.47-24.74-33.51-36.27-50.82q-9.84-14.77-19.11-29.93c-5.79-9.47-13.9-19.81-16-30.88-.12-.65-2-.19-1.88.51Z"/><path class="cls-2" d="M634.34,640.39A299,299,0,0,0,669.9,576c.2-.49-1.65-.29-1.88.28a297.36,297.36,0,0,1-35.42,64.15c-.44.62,1.42.41,1.74,0Z"/><path class="cls-2" d="M643.36,254.69c2.19,14.45-10.07,29.11-19.12,39-8.89,9.69-18.68,18.07-31.51,21.87-9.7,2.87-19.8,1.47-29.6-.39-7.71-1.47-18.94-3-24.87-8.76.53.51-.56,2.71,0,3.25,3.14,3,8,4.41,12,5.65a127.87,127.87,0,0,0,17.73,4c12.37,1.9,23.3,1.48,34.67-4.44,13.19-6.87,24.66-19.64,32.7-32,6.21-9.5,9.67-20.09,8-31.4.16,1.06-.17,2.19,0,3.25Z"/><path class="cls-3" d="M460.42,322.76c-21.34,8.9-22.15-20.23-30.25-27.27-.39-.34,3.59-8.4,4-8.68,2.12-1.38-1.45,10.08-4,8.68-2.93-1.59,0,0-3.33.1-7.91.25-21.51,5.58-27.12,0S387.85,278.69,384,272c-.16-.28-7.94-3.16-7.74-3.42,2.89-3.75,17.74-27,19-31.52a.8.8,0,0,0-1.18-.91c-9,5.31-22.27,2.36-27.86-6.63s-4.62-22.59-13.55-28a.83.83,0,0,1-.4-.77c.59-5.45,4.69-10.06,9.48-12.79s10.58-4,16.08-5.47c14.88-4,29.4-10.14,41.29-19.93,8.51-7,15.46-15.7,23-23.8a227.82,227.82,0,0,1,41.41-35.17c12.31-8.15,25.73-15.21,40.31-17.56s30.55.54,41.61,10.32l-7.14-6.1a.81.81,0,0,1,.42-1.42,110.12,110.12,0,0,1,41.88,2.78c8.52,2.26,16.94,5.66,23.56,11.47C641,118,641.81,143.54,650.74,164.2c4.21,9.74,10.36,18.56,14.35,28.39,9.28,22.87,7.81,50.8.82,74.41l.71,19.19c-.19,11.25-8,19.32-7.19,32.67.68,11.23-11.74,18.82-22.61,21.69-1.93-1.87.92-6.45-.9-7.59-1.77.18-3.26,6.78-7.43,9.41a23.64,23.64,0,0,1-11.29,3.27,49,49,0,0,1-11.59-.76c-7.08-1.09-18.1-7.27-12.93-26.43l1.69-2c20.17-4.24,40.54-34.39,40.54-34.39v1.49c0-.52,0-1,0-1.49,0-8.63.89-8.58,2.73-18,2.39-12.24,6.33-24.22,7.25-36.66a77,77,0,0,0-12.45-47.65c-4.2-6.34-9.79-12.32-17.06-14.38a.83.83,0,0,0-1,.44h0a5.15,5.15,0,0,1-8.13,1.58c-6.07-5.54-17.12-8.91-16.31-17,3.93,8.52-1.85,19.9-10.91,22a.81.81,0,0,1-1-.68l-1-6.39a.79.79,0,0,0-1.46-.31c-2.86,4.47-8.57,6.92-14,7-6.13.13-12-2.11-17.74-4.35a.86.86,0,0,1-.48-.51,33.68,33.68,0,0,1-1.5-14.06A21.31,21.31,0,0,1,511,170.23a.81.81,0,0,1-.22-1.26A41.71,41.71,0,0,0,521.1,144.6a.81.81,0,0,0-1-.86c-3.77.81-7.1,3.1-10.15,5.5-22.31,17.58,3.73,44.7,1.93,73-.88,13.91-24.49,37.15-24.55,51.09s24.55,42.34,8.53,49.38l-2.2-2.21a2.52,2.52,0,0,1-.21,1.09c-1.29,3.36-4.69,5.56-8.19,6.37s-7.16.46-10.75.1c-6.34-.63-13.09-1.41-18.05-5.42"/><path class="cls-2" d="M641.41,276.66V280c0,.13,0,1.63,0,1.63s0-1.61,0-1.63v-3.35c0-.12,0-1.63,0-1.63s0,1.61,0,1.63Z"/><path class="cls-2" d="M595.59,184.47c-13.78,20.33-4.81,46.39-5.27,69l2.44-2.15a9,9,0,0,0-8.86,5l3.9-.25c-3.62-3.09-6.82-6.43-11.23-2.5-2.32,2.06,1.38,5.27,3.51,3.37,1.6-1.42,3,1.09,4.22,2.13,1,.87,3.11,1.2,3.9-.25.69-1.93,2.24-2.92,4.63-3a2.28,2.28,0,0,0,2.45-2.15c.44-21.59-8.53-47.37,4.6-66.74,1.69-2.48-2.69-4.86-4.29-2.49Z"/><path class="cls-2" d="M530.26,233.72c6.84,7.09,16.37,5.83,25.14,3.83,2.74-.62.89-5.23-1.63-4.66-6.95,1.58-15.33,3.42-20.9-2.35-2.27-2.34-4.66,1.07-2.61,3.18Z"/><path class="cls-2" d="M534.22,241.66a8.54,8.54,0,0,1,2-5.14c.75-.92-.27-2.57-1-3.16a1.84,1.84,0,0,0-2.77,0,10.52,10.52,0,0,0-2.36,6.06,3.22,3.22,0,0,0,1.65,3.06c.79.43,2.35.45,2.43-.8Z"/><path class="cls-2" d="M540.73,242.69a12.51,12.51,0,0,1,1.37-5.59c1.48-2.79-2.89-4.49-4.2-2a17.26,17.26,0,0,0-2.12,7.75c-.07,2.93,4.89,2.62,5-.13Z"/><path class="cls-2" d="M547.46,244.25V237a2.41,2.41,0,0,0-2.14-2.48c-1-.16-2.8.41-2.8,1.71v7.24a2.43,2.43,0,0,0,2.15,2.48c1,.15,2.79-.41,2.79-1.72Z"/><path class="cls-2" d="M614.66,236.27c6.78,3.16,16.47,6.17,22.3-.4,1-1.1-3.63-2.57-4.64-1.44-4.21,4.74-9.85,2.86-14.84.54-1.45-.67-5.74-.06-2.82,1.3Z"/><path class="cls-2" d="M621.28,244a8.59,8.59,0,0,1,.5-4.29c.26-.65-.94-1.76-1.34-2.18-.12-.12-2-1.82-2.11-1.44a9.32,9.32,0,0,0-.59,4.61c.12.93,1.21,1.89,1.85,2.49.15.13,1.76,1.41,1.69.81Z"/><path class="cls-2" d="M627.56,242.88v-3.34a3.38,3.38,0,0,0-2.11-2.75c-.85-.34-2.08-.31-2.08.89V241a3.38,3.38,0,0,0,2.11,2.75c.85.34,2.08.31,2.08-.89Z"/><path class="cls-2" d="M633,242.8a15.91,15.91,0,0,0-.28-5.24,2.77,2.77,0,0,0-2.82-2.09,2,2,0,0,0-2,2.34,12.22,12.22,0,0,1,.24,4.09c-.3,2.74,4.56,3.82,4.87.9Z"/><path class="cls-2" d="M523.24,184.69c9.68-5.09,23.44-6,34-3,13.12,3.67,15.29,16.67,14.2,28.47-.15,1.65.15,3.35,0,5,.94-10.18,2.41-23.28-4.17-31.93-4.65-6.11-12.27-7.53-19.52-7.81-8.41-.33-16.9.3-24.47,4.28-.71.37.66,4.65,0,5Z"/><path class="cls-2" d="M594.41,189c-.07.75-.36,5.4,0,5.49-.55-.16,4.36-7.34,4.59-7.58,9.4-9.85,31.22-9.72,33.77,6.07-.26-1.62.27-3.37,0-5-2-12.07-14.84-14.79-25.19-11.42a20.58,20.58,0,0,0-10.66,7.93c-.27.39-2.91,4.63-2.51,5v4.91l0-.4c.15-1.65-.16-3.35,0-5Z"/><text class="cls-4" transform="translate(121.94 947.49)">V<tspan class="cls-5" x="57.86" y="0">a</tspan><tspan class="cls-6" x="116.45" y="0">le</tspan><tspan class="cls-7" x="201.01" y="0">n</tspan><tspan class="cls-8" x="263.42" y="0">t</tspan><tspan class="cls-9" x="302.34" y="0">i</tspan><tspan class="cls-10" x="333.42" y="0">n</tspan><tspan class="cls-11" x="396.59" y="0">a </tspan><tspan class="cls-12" x="487.3" y="0">M</tspan><tspan class="cls-13" x="575.97" y="0">a</tspan><tspan class="cls-14" x="633.76" y="0">i</tspan><tspan class="cls-15" x="665.51" y="0">s</tspan><tspan class="cls-16" x="719.57" y="0">t</tspan><tspan class="cls-17" x="759.06" y="0">r</tspan><tspan class="cls-11" x="800.02" y="0">i</tspan></text><text class="cls-18" transform="translate(321.94 1036.49) scale(1.1 1.03)">o<tspan class="cls-19" x="56.42" y="0">s</tspan><tspan class="cls-20" x="100.29" y="0">t</tspan><tspan class="cls-21" x="135.69" y="0">e</tspan><tspan class="cls-22" x="185.65" y="0">t</tspan><tspan class="cls-23" x="222.64" y="0">r</tspan><tspan class="cls-24" x="262.79" y="0">i</tspan><tspan class="cls-25" x="293.06" y="0">c</tspan><tspan class="cls-26" x="342.92" y="0">a</tspan></text><path class="cls-27" d="M288.58,808.66C187.87,706.83,131.2,565.33,134.68,424.34c.6-24.2,2.9-48.47,9-71.95,9.93-38.42,29.64-73.71,49.75-108.19,18.54-31.8,38-63.81,65.47-88.8,15.35-14,32.88-25.41,50.32-36.8,39-25.48,79.24-51.48,125.19-61.29,38.59-8.25,78.71-4.52,118-.74L710.14,71.7c20.46,2,41,3.94,61,8.77,74.34,18,136.09,78.11,154.24,150.23,3.61,14.34,5.61,29,7.6,43.63,9.29,68.17,18.59,136.89,13.86,205.5s-24.53,138-68.08,192.25c-73.39,91.5-198.39,124.82-314.48,152.71-25.55,6.14-51.17,12.29-77.27,15.57a358.23,358.23,0,0,1-200.52-33.22"/><path class="cls-1" d="M342.05,368.3c83.78-52,90.4-24.61,118.58-70.5,22.09-36-12.31-67.65,17.41-129.36,15.84-32.9,35.13-46.6,42.29-51,7.92-4.86,31.67-19.44,58.46-13.68,43.33,9.32,67.38,64.72,69.51,77.87,6,36.9,26.31,65.1-6.78,96.23-.45.42-.45.42,2.72,2.54,2,1.32-4.89,1.49-6.62,3.55-15.13,18-4.52,8.16-21.06,22.78-18.24,16.11-21.23,9.45-22.6,14.19-18.25,63.46,67.42,7.87,128,57.81,50,41.18,44.76,78.1,47.43,95.92,6.44,43-10.23,91.37-13.31,103.86-15.47,62.7-39.33,101.15-71,134.69-16.49,17.44-82,79.48-130.45,79.82-56.73.4-139.91-87.2-188.25-145.06-21.69-26-50.58-59.16-64.29-130.22C297.39,493.43,289.41,401,342.05,368.3Z"/><path class="cls-2" d="M524.18,641c14.41,1,26.83-6.83,37.34-15.92a248.4,248.4,0,0,0,74.42-116.27c5.6-19.13,7.77-39.26,16.62-57.35l-2.12.2c3.87,17.11-6.25,33.8-2.36,50.94.21.93,1.81.32,2.12-.19A406.21,406.21,0,0,0,674.15,457c6.89-15.39,11.89-32,22-45.71l-1.74.32c5.68,3-1.81,15.65-3.35,19.6-2.63,6.8-5.22,13.61-7.64,20.48A275.1,275.1,0,0,0,672.25,492c-.2,1.06,1.64.5,2,.18,4.21-3.75,5.93-10.11,8.19-15.11l8.58-19,8.58-19,4.49-10c.56-1.24,1.06-3.55,2-4.53,4.85-4.83,3.63.49,3.27,2.81-1,6.67-4.77,12.73-7.63,18.73q-4.15,8.67-7.47,17.7a212.56,212.56,0,0,0-9.91,37.28c-.18,1.08,1.82.57,2.13,0,12.31-22.34,18.37-47.68,32.65-69l-2.11.2c1.34,7.93-1.85,15.08-5.08,22.15-2.93,6.4-5.67,12.87-8.14,19.47a282.58,282.58,0,0,0-11.37,39c-.15.69.92.66,1.28.59,6.64-1.19,9.28-7.57,11.89-13.06A154.48,154.48,0,0,1,722,473.54l-1.9.19c2.4,2.95-4.22,13.16-5.56,16q-2.88,6.12-5.81,12.2-6.27,13-12.82,25.95Q682.88,553.71,668.78,579c-.57,1,1.63,1,2.06.19q15.48-27.83,29.77-56.28,6.92-13.8,13.55-27.74,3.51-7.41,7-14.85c1.12-2.42,3-5.14,1-7.52-.42-.52-1.53-.3-1.9.18a158.92,158.92,0,0,0-12.64,19.4c-3.3,6-6.48,18.34-14.21,19.73l1.29.59a277.41,277.41,0,0,1,13.22-43.76c4.58-11.56,13.53-24.29,11.34-37.24-.17-1-1.81-.27-2.12.19-14.28,21.31-20.35,46.66-32.65,69h2.13a208.82,208.82,0,0,1,13.48-46.26c2.94-6.93,6.78-13.5,9.5-20.51,1.07-2.75,4.83-11.82.8-13.65-2.42-1.1-4.9,1.57-6,3.35-4.15,6.77-6.84,15-10.12,22.28l-10.62,23.55-4.9,10.87c-1.71,3.79-3.12,8.29-6.29,11.12l2,.18c3.14-16.74,8.34-32.95,14.27-48.9,2.87-7.7,6.25-15.27,8.91-23,1.11-3.25,2.11-7.58-1.53-9.5a1.53,1.53,0,0,0-1.75.32c-9.85,13.38-14.86,29.35-21.5,44.4a406.33,406.33,0,0,1-24.7,47.14l2.11-.19c-3.88-17.12,6.24-33.81,2.36-50.95-.2-.88-1.84-.37-2.11.2-6.84,14-9.78,29.19-13.28,44.22a244.09,244.09,0,0,1-14.62,43.83,246.82,246.82,0,0,1-49.73,72.74c-12.63,12.84-28.4,28.78-47.91,27.46-1-.07-2.25,1.39-.78,1.48Z"/><path class="cls-2" d="M647.9,637.51c-23.49,10.67-50.55,10.31-75.82,9.53-23.64-.73-48-3.9-68.57-16.39-32.9-20-50.75-57.25-60.62-93.12a289.39,289.39,0,0,1-7.16-35.21c-2-13.6-3.92-27.2-9-40.05-.35-.9-2-.33-2.18.4-5.2,16.77,3.58,34.2-1.63,51l2.18-.39A407.36,407.36,0,0,1,404,463.67c-5.34-15.3-9.06-31.38-17.71-45.28-.27-.44-1.1-.27-1.46-.11-3.93,1.69-3.58,5.92-2.65,9.52,2,8,4.82,15.77,7.07,23.67,4.69,16.43,8.62,33.06,10.45,50.06l2.09-.75c-3-3.08-4-7.67-5.43-11.6l-4-11.22-8.74-24.31-4-11.22c-1.39-3.86-2.43-8.84-4.58-12.36-1.22-2-3.49-4-5.82-2.46-3.51,2.39-.91,10.34,0,13.45,2.23,7.5,5.7,14.62,8.15,22.06a210.36,210.36,0,0,1,9.58,46.5L389,509c-10.54-23.31-14.64-49.09-27.23-71.52-.41-.73-1.94-.07-2.1.57-3.27,13,5.1,27,8.78,39.16a279.9,279.9,0,0,1,9.4,43.51l1.73-1c-7.82-2-9.79-13.89-12.61-20.25a157.41,157.41,0,0,0-11.41-21.11c-.37-.59-1.53-.19-1.89.2-1.94,2-.9,4.23,0,6.67,1.85,5.14,3.82,10.25,5.77,15.35q5.67,14.88,11.67,29.62,12,29.49,25.26,58.44c.4.88,2.55.23,2.18-.58q-12.26-26.76-23.44-54-5.5-13.38-10.73-26.88-2.61-6.74-5.17-13.51c-1-2.78-6.26-11.94-3.72-14.6l-1.9.19a152.87,152.87,0,0,1,13.94,27.29c2.21,5.7,4.15,12.77,10.8,14.51.6.16,1.83-.15,1.72-1a280.17,280.17,0,0,0-8.85-41.7c-1.95-6.61-4.23-13.09-6.57-19.57-2.47-6.85-4.57-13.76-2.74-21l-2.09.56c12.52,22.31,16.57,48,27,71.18.4.87,2.26.37,2.18-.58a211.17,211.17,0,0,0-7.16-38.63q-2.66-9.24-6.14-18.2c-2.34-6-5.31-12.09-5.86-18.62-.22-2.54.16-5.26,2.81-2.82,1.14,1,1.44,3.32,2,4.77l3.7,10.28,7.06,19.64,7.4,20.56c1.84,5.14,3.06,11.64,6.95,15.68.56.58,2.18.17,2.08-.75a275.67,275.67,0,0,0-8.16-41.82c-1.8-6.73-3.76-13.42-5.77-20.1-1.07-3.54-7.57-17.3-2.19-19.62l-1.46-.11c8.9,14.31,12.6,31,18.17,46.74a404.44,404.44,0,0,0,20.52,47.78c.43.84,1.94.39,2.18-.39,5.21-16.78-3.57-34.2,1.63-51l-2.18.39c9.12,23.09,9.13,48.74,15.45,72.63,5,18.86,11.92,37.37,21.86,54.21,9.71,16.43,22.53,31.24,38.8,41.43,20,12.52,43.67,16.23,66.86,17.23,27,1.16,56.21,1.68,81.29-9.71,1.36-.62.14-1.62-.92-1.13Z"/><path class="cls-2" d="M396.38,588.4c1.84,9.6,8.45,18.37,13.4,26.59q8.6,14.25,17.71,28.17c12.1,18.49,24.81,36.61,38.19,54.2,12,15.72,24.87,31.37,41.19,42.77a126.48,126.48,0,0,0,45.77,19.44c19.86,4.29,40.31,4.7,60.52,3.52,1.19-.07,1.72-1.57.23-1.48-35.21,2.06-72.21-1.12-102.39-21-16.06-10.59-28.82-25.43-40.52-40.51-12.74-16.42-24.75-33.44-36.28-50.71q-10-15-19.46-30.43c-5.81-9.5-14.06-20-16.19-31.12-.18-.93-2.36-.38-2.17.58Z"/><path class="cls-2" d="M635.76,642.83a298.38,298.38,0,0,0,35.48-64.26c.43-1.06-1.74-.89-2-.13a297.64,297.64,0,0,1-35.48,64.25c-.62.87,1.58.79,2,.14Z"/><path class="cls-2" d="M644.62,257.43c2.15,14.16-10.27,28.82-19.11,38.46S606.83,314,594,317.75c-9.71,2.87-19.81,1.47-29.6-.39-7.7-1.47-18.93-3-24.86-8.76.61.59-.64,3.14,0,3.75,3.14,3,8,4.41,12,5.65A126.44,126.44,0,0,0,569.32,322c12.37,1.9,23.29,1.48,34.66-4.44,13.18-6.87,24.65-19.63,32.69-31.94,6.31-9.66,9.69-20.4,8-31.89.18,1.22-.19,2.53,0,3.75Z"/><path class="cls-28" d="M461.75,325.23c-21.33,8.9-22.14-20.22-30.24-27.26-.39-.34,3.59-8.39,4-8.68,2.11-1.38-1.45,10.08-4,8.68-2.93-1.59,0,0-3.33.1-7.91.25-21.5,5.57-27.11,0s-11.86-16.89-15.69-23.61c-.16-.28-7.94-3.17-7.74-3.42,2.89-3.75,17.74-26.94,18.94-31.52a.79.79,0,0,0-1.17-.9c-9,5.31-22.27,2.36-27.86-6.63s-4.61-22.58-13.54-28a.81.81,0,0,1-.4-.77c.59-5.44,4.69-10,9.47-12.78,4.93-2.81,10.59-4,16.07-5.48,14.89-3.94,29.4-10.12,41.28-19.92,8.51-7,15.46-15.69,23-23.79a228,228,0,0,1,41.39-35.16C497.09,98,510.5,90.94,525.07,88.58s30.54.54,41.6,10.32l-7.13-6.09a.82.82,0,0,1,.42-1.43,110,110,0,0,1,41.86,2.78c8.51,2.26,16.93,5.65,23.55,11.47,16.9,14.86,17.7,40.44,26.63,61.09,4.21,9.74,10.36,18.55,14.35,28.38,9.27,22.87,7.81,50.79.81,74.39l.72,19.18c-.2,11.25-8,19.32-7.19,32.66.68,11.22-11.73,18.81-22.61,21.68-1.93-1.86.92-6.44-.89-7.59-1.77.18-3.26,6.78-7.43,9.41a23.64,23.64,0,0,1-11.29,3.27,48.94,48.94,0,0,1-11.58-.76c-7.08-1.09-18.1-7.26-12.93-26.42l1.69-2c20.17-4.24,40.53-34.37,40.53-34.37V286c0-.53,0-1,0-1.49,0-8.63.89-8.59,2.73-18,2.39-12.23,6.32-24.22,7.24-36.64a76.77,76.77,0,0,0-12.45-47.64c-4.19-6.34-9.78-12.31-17.05-14.37a.81.81,0,0,0-.95.44h0a5.15,5.15,0,0,1-8.13,1.58c-6.07-5.55-17.12-8.91-16.31-17,3.93,8.51-1.84,19.89-10.9,22a.81.81,0,0,1-1-.68l-1-6.39a.8.8,0,0,0-1.46-.32c-2.86,4.48-8.57,6.92-14,7-6.12.13-12-2.1-17.73-4.35a.86.86,0,0,1-.48-.51,33.47,33.47,0,0,1-1.49-14.05,21.3,21.3,0,0,1-30.93,17.12.81.81,0,0,1-.22-1.25,41.73,41.73,0,0,0,10.31-24.37.82.82,0,0,0-1-.86c-3.76.82-7.09,3.1-10.14,5.5-22.3,17.57,3.73,44.68,1.93,73-.88,13.91-24.48,37.14-24.53,51.07s24.53,42.33,8.52,49.37L495,323a2.45,2.45,0,0,1-.22,1.09c-1.28,3.36-4.68,5.55-8.18,6.36s-7.16.46-10.74.11c-6.35-.63-13.09-1.42-18.05-5.42"/><path class="cls-2" d="M642.67,279.14v3.36c0,.14,0,1.87,0,1.87s0-1.85,0-1.87v-3.36c0-.14,0-1.87,0-1.87s0,1.86,0,1.87Z"/><path class="cls-2" d="M597.78,186.83c-9.08,13.4-7.69,29.94-6.28,45.29.37,4,.76,7.94,1,11.91.14,2.08.24,4.15.28,6.23.06,3.13-.07,3.14-2.55,4.6-.67.4-2.92,2.4-3.45,2.54-1.86.51-1.89-.64-3.36-1.49-2.07-1.2-3.16-1.22-5,.46-.6.53,1.87,3.35,2.47,2.82,2.47-2.2,4.8.26,6.75,1.93.08.07.82.65,1,.38,1.44-2.68,3.45-4.07,6.59-4a.19.19,0,0,0,.22-.19c.46-22-8.53-47.93,4.87-67.7.56-.82-2.16-3.28-2.47-2.82Z"/><path class="cls-2" d="M531.48,235.51c6.65,6.88,16.35,5.48,24.81,3.56,2.38-.54,1.27-3.17-.82-2.7-7.26,1.65-15.44,3.36-21.22-2.61-1.23-1.28-4.39.08-2.77,1.75Z"/><path class="cls-2" d="M535.35,243.12a9.08,9.08,0,0,1,2.12-5.32c.55-.67-.81-1.25-1.24-1.34a2.35,2.35,0,0,0-2.34.6,10.1,10.1,0,0,0-2.28,5.87c-.09,1.42,3.66,1.63,3.74.19Z"/><path class="cls-2" d="M541.37,245a14,14,0,0,1,1.65-6.34c.42-.8-.46-1.26-1.12-1.3a2.56,2.56,0,0,0-2.32,1.18,15.65,15.65,0,0,0-1.84,7c0,1.73,3.6.95,3.63-.53Z"/><path class="cls-2" d="M548,246.62v-7.24c0-1.93-3.35-2.86-3.35-.5v7.24c0,1.93,3.35,2.86,3.35.5Z"/><path class="cls-2" d="M617,239.77c6.44,3,14.77,5.33,20.2-.8,1.4-1.57-1.26-4.21-2.65-2.65-4.64,5.23-11.57,2.64-16.93.15-2.2-1-2.53,2.41-.62,3.3Z"/><path class="cls-2" d="M622.66,244.87a8.19,8.19,0,0,1,.47-4.1c.68-1.74-3-2.27-3.6-.73a9.64,9.64,0,0,0-.62,4.78,1.73,1.73,0,0,0,1.86,1.32c.62,0,2-.37,1.89-1.27Z"/><path class="cls-2" d="M628.4,245v-3.34a2.31,2.31,0,0,0-1.58-2.08c-.72-.24-1.75,0-1.75.94v3.34a2.32,2.32,0,0,0,1.58,2.08c.72.24,1.75,0,1.75-.94Z"/><path class="cls-2" d="M633.31,246.06a14.23,14.23,0,0,0-.26-4.78c-.14-.65-1.11-1.3-1.6-1.67-.13-.1-1.36-.91-1.28-.52a13.65,13.65,0,0,1,.27,4.55c-.05.52.87,1.18,1.21,1.47.1.09,1.64,1.14,1.66.95Z"/><path class="cls-2" d="M524.55,186.58c9.67-5.09,23.43-6,34-3,13.64,3.83,15.31,17.59,14.19,29.71-.11,1.24.11,2.52,0,3.75.92-9.89,2.23-22.26-4.17-30.66-4.65-6.11-12.26-7.53-19.51-7.81-8.41-.33-16.9.29-24.46,4.27-.54.28.49,3.49,0,3.75Z"/><path class="cls-2" d="M595.69,192.11c-.06.62-.35,4.12,0,4.24-.65-.25,4.36-7.34,4.59-7.58,9.39-9.84,31.21-9.71,33.76,6.07-.19-1.21.2-2.53,0-3.75-2-12.06-14.83-14.79-25.18-11.42a20.63,20.63,0,0,0-10.66,7.93c-.27.39-2.91,4.63-2.51,5v3.68l0-.42c.12-1.24-.11-2.51,0-3.75Z"/></svg>