<?xml version="1.0" encoding="UTF-8" standalone="no"?>
<svg
   xmlns:dc="http://purl.org/dc/elements/1.1/"
   xmlns:cc="http://creativecommons.org/ns#"
   xmlns:rdf="http://www.w3.org/1999/02/22-rdf-syntax-ns#"
   xmlns:svg="http://www.w3.org/2000/svg"
   xmlns="http://www.w3.org/2000/svg"
   height="830.7251"
   width="853.58496"
   version="1.1"
   viewBox="0 0 853.58496 830.7251"
   data-name="Layer 1"
   id="Layer_1">
  <metadata
     id="metadata137">
    <rdf:RDF>
      <cc:Work
         rdf:about="">
        <dc:format>image/svg+xml</dc:format>
        <dc:type
           rdf:resource="http://purl.org/dc/dcmitype/StillImage" />
        <dc:title>LOGO_POST</dc:title>
      </cc:Work>
    </rdf:RDF>
  </metadata>
  <defs
     id="defs4">
    <style
       id="style2">.cls-1{fill:#e9bda2;}.cls-18,.cls-2,.cls-28,.cls-3,.cls-4{fill:#984371;}.cls-18,.cls-28,.cls-3{stroke:#984371;stroke-miterlimit:10;}.cls-3{stroke-width:0.65px;}.cls-4{font-size:102.27px;font-family:Karla-Bold, Karla;font-weight:700;letter-spacing:-0.04em;}.cls-5{letter-spacing:-0.01em;}.cls-6{letter-spacing:0em;}.cls-7{letter-spacing:-0.01em;}.cls-8{letter-spacing:-0.01em;}.cls-9{letter-spacing:-0.02em;}.cls-10{letter-spacing:-0.01em;}.cls-11{letter-spacing:0.02em;}.cls-12{letter-spacing:-0.01em;}.cls-13{letter-spacing:-0.02em;}.cls-14{letter-spacing:-0.02em;}.cls-15{letter-spacing:0em;}.cls-16{letter-spacing:-0.01em;}.cls-17{letter-spacing:-0.02em;}.cls-18{font-size:92.98px;font-family:Timeless-Normal, Timeless;letter-spacing:0.08em;}.cls-19{letter-spacing:0.08em;}.cls-20{letter-spacing:0.08em;}.cls-21{letter-spacing:0.07em;}.cls-22{letter-spacing:0.1em;}.cls-23{letter-spacing:0.1em;}.cls-24{letter-spacing:0.07em;}.cls-25{letter-spacing:0.09em;}.cls-26{letter-spacing:0.11em;}.cls-27{fill:#ed6f60;}.cls-28{stroke-width:0.75px;}</style>
  </defs>
  <title
     id="title6">LOGO_POST</title>
  <path
     style="fill:#e9bda2"
     id="path8"
     d="m 226.14139,333.48829 c 83.81,-52 90.44,-24.62 118.63,-70.53 22.1,-36 -12.31,-67.67 17.42,-129.4 15.84,-32.91 35.14,-46.619996 42.3,-50.999996 7.92,-4.86 31.68,-19.45 58.48,-13.69 43.35,9.33 67.41,64.749996 69.54,77.899996 6,36.91 26.32,65.12 -6.79,96.27 -0.44,0.41 -0.44,0.41 2.72,2.54 2,1.32 -4.88,1.49 -6.61,3.55 -15.15,18 -4.52,8.16 -21.08,22.78 -18.24,16.12 -21.24,9.46 -22.6,14.2 -18.26,63.48 67.44,7.87 128.05,57.83 50,41.2 44.77,78.13 47.44,96 6.44,43 -10.24,91.41 -13.32,103.9 -15.47,62.73 -39.33,101.19 -71,134.74 -16.49,17.44 -82.05,79.51 -130.5,79.85 -56.75,0.4 -140,-87.23 -188.31,-145.11 -21.7,-26 -50.6,-59.18 -64.32,-130.27 -4.72,-24.41 -12.72,-116.88 39.95,-149.56 z"
     class="cls-1" />
  <path
     style="fill:#984371"
     id="path10"
     d="m 407.82139,606.26829 c 14.12,1 26.47,-6.21 36.95,-15 a 236.1,236.1 0 0 0 32.7,-34.19 244.78,244.78 0 0 0 43.3,-84 c 5.45,-19 7.69,-38.83 16.44,-56.73 l -2.88,0.61 c 3.87,17.13 -6.25,33.82 -2.36,51 0.19,0.84 2.49,0 2.77,-0.43 a 406.25,406.25 0 0 0 23.7,-44.82 c 7.05,-15.66 12.11,-32.6 22.4,-46.56 l -2.5,0.67 c 5.49,2.89 -1.33,14.51 -2.74,18.12 -2.65,6.79 -5.26,13.6 -7.7,20.46 a 277.71,277.71 0 0 0 -11.73,42 c -0.19,1 2.25,0.2 2.57,-0.08 3.88,-3.45 5.46,-8.86 7.55,-13.48 l 9,-19.93 8.58,-19 4.49,-10 c 0.65,-1.43 1.11,-3.3 2,-4.53 0.38,-1.39 1.44,-2.09 3.19,-2.1 a 9,9 0 0 1 -0.1,2.78 c -0.55,6.51 -3.84,12.36 -6.67,18.12 -2.95,6 -5.65,12.18 -8,18.46 a 210.3,210.3 0 0 0 -10.51,38.8 c -0.18,1 2.55,0.16 2.88,-0.44 12.32,-22.29 18.32,-47.58 32.55,-68.84 l -2.77,0.43 c 1.25,7.42 -1.39,14.12 -4.4,20.77 -2.89,6.39 -5.72,12.8 -8.22,19.36 a 281.72,281.72 0 0 0 -12,40.54 c -0.12,0.58 0.91,0.5 1.21,0.45 6.43,-1.16 9.35,-6.22 12,-11.76 a 161.32,161.32 0 0 1 17.16,-28.5 l -2.68,0.57 c 2.46,3 -3.47,11.69 -4.8,14.52 q -2.85,6.1 -5.73,12.21 -6.53,13.49 -13.27,26.89 -13.29,26.26 -27.61,52 c -0.33,0.59 2.42,0.37 2.88,-0.44 q 15.24,-27.4 29.34,-55.44 6.93,-13.8 13.57,-27.74 3.32,-7 6.56,-14 c 1.24,-2.67 4,-6.3 1.78,-9 -0.49,-0.61 -2.3,0.06 -2.69,0.57 a 158.93,158.93 0 0 0 -12.19,18.62 c -1.86,3.35 -3.54,6.78 -5.19,10.24 -1.79,3.75 -3.92,9.14 -8.62,10 l 1.2,0.45 a 280.74,280.74 0 0 1 12.62,-42.26 c 2.64,-6.8 5.77,-13.37 8.65,-20.07 2.59,-6 4.44,-12.08 3.32,-18.68 -0.14,-0.86 -2.49,0 -2.78,0.43 -14.33,21.38 -20.42,46.78 -32.77,69.2 l 2.88,-0.44 a 210.87,210.87 0 0 1 12.84,-44.78 c 2.9,-7 6.59,-13.6 9.54,-20.56 1.1,-2.6 5.71,-13.15 1.39,-15 -2.31,-1 -5.16,1.44 -6.35,3.06 -2.09,2.86 -3.31,7 -4.77,10.25 l -4.9,10.87 -10.63,23.46 -4.9,10.87 c -1.89,4.18 -3.46,9.67 -6.94,12.76 l 2.57,-0.08 c 3,-16.19 8,-31.89 13.68,-47.33 2.85,-7.73 5.93,-15.37 8.88,-23.06 1.36,-3.55 3.35,-8.73 -0.92,-11 a 2.63,2.63 0 0 0 -2.5,0.67 c -9.67,13.14 -14.67,28.8 -21.13,43.58 a 402.08,402.08 0 0 1 -25,47.82 l 2.78,-0.42 c -3.88,-17.13 6.24,-33.82 2.36,-51 -0.21,-0.94 -2.62,0.07 -2.88,0.61 -6.94,14.18 -9.84,29.65 -13.41,44.9 a 243.05,243.05 0 0 1 -62.54,114.24 c -12.62,13.07 -28.9,30.29 -48.67,29 -0.76,0 -3.35,1.27 -1.83,1.38 z"
     class="cls-2" />
  <path
     style="fill:#984371"
     id="path12"
     d="m 531.96139,602.63829 c -23.4,10.64 -50.37,10.26 -75.56,9.48 -23.6,-0.73 -47.92,-3.89 -68.44,-16.37 -32.88,-20 -50.71,-57.24 -60.57,-93.08 a 289.31,289.31 0 0 1 -7.16,-35.23 c -2,-13.59 -3.93,-27.2 -9,-40.05 -0.45,-1.15 -2.62,-0.39 -2.9,0.53 -5.21,16.79 3.58,34.22 -1.63,51 l 2.9,-0.54 a 405.94,405.94 0 0 1 -21.13,-49.58 c -5.35,-15.33 -9.09,-31.42 -17.75,-45.35 -0.35,-0.56 -1.49,-0.3 -1.94,-0.11 -4.08,1.76 -3.84,6 -2.87,9.77 2,8 4.82,15.77 7.08,23.68 4.68,16.43 8.62,33.06 10.45,50.07 l 2.78,-1 c -3,-3.07 -4,-7.65 -5.41,-11.56 l -4,-11.23 -8.75,-24.32 -4,-11.22 c -1.39,-3.88 -2.44,-8.83 -4.58,-12.37 -1.36,-2.26 -3.86,-4.19 -6.41,-2.46 -3.66,2.48 -1.1,10.37 -0.12,13.65 2.24,7.5 5.71,14.62 8.16,22.07 a 210.33,210.33 0 0 1 9.58,46.51 l 2.9,-0.77 c -10.55,-23.33 -14.65,-49.13 -27.26,-71.58 -0.52,-0.93 -2.59,-0.07 -2.8,0.75 -3.27,13 5.1,27 8.79,39.22 a 280.39,280.39 0 0 1 9.4,43.53 l 2.31,-1.26 c -7.7,-2 -9.7,-13.9 -12.47,-20.16 a 157.56,157.56 0 0 0 -11.44,-21.16 c -0.48,-0.75 -2.06,-0.2 -2.52,0.28 -2,2.11 -1,4.29 -0.1,6.82 1.85,5.15 3.82,10.26 5.77,15.36 q 5.67,14.88 11.67,29.63 12,29.5 25.28,58.47 c 0.51,1.11 3.36,0.24 2.9,-0.78 q -12.26,-26.76 -23.45,-54 -5.5,-13.38 -10.73,-26.89 -2.62,-6.75 -5.17,-13.52 c -1,-2.66 -6.22,-11.91 -3.8,-14.45 l -2.52,0.28 a 153.85,153.85 0 0 1 13.92,27.26 c 2.24,5.78 4.2,12.83 10.93,14.6 0.76,0.2 2.46,-0.21 2.32,-1.26 a 281.6,281.6 0 0 0 -8.96,-41.66 c -1.95,-6.61 -4.23,-13.1 -6.57,-19.58 -2.47,-6.83 -4.57,-13.73 -2.74,-21 l -2.8,0.75 c 12.53,22.3 16.56,48 27,71.16 0.5,1.11 3,0.43 2.9,-0.77 a 211.27,211.27 0 0 0 -7.16,-38.64 q -2.64,-9.24 -6.14,-18.21 c -2.34,-6 -5.31,-12.09 -5.86,-18.62 -0.2,-2.32 -0.25,-4.76 2.1,-2.62 1.13,1 1.43,3.33 1.94,4.76 l 3.7,10.28 7.07,19.64 7.4,20.58 c 1.85,5.15 3.08,11.67 7,15.72 0.71,0.74 2.91,0.19 2.78,-1 a 275.68,275.68 0 0 0 -8.16,-41.84 c -1.81,-6.73 -3.77,-13.42 -5.77,-20.1 -1,-3.31 -7.46,-17.22 -2.41,-19.4 l -1.94,-0.1 c 8.89,14.29 12.58,31 18.15,46.71 a 405.44,405.44 0 0 0 20.52,47.8 c 0.55,1.07 2.6,0.45 2.91,-0.54 5.21,-16.79 -3.57,-34.22 1.63,-51 l -2.91,0.54 c 9.12,23.1 9.14,48.75 15.46,72.65 5,18.89 11.94,37.41 21.9,54.27 9.72,16.46 22.56,31.27 38.85,41.48 20,12.55 43.79,16.27 67,17.27 27.08,1.16 56.44,1.66 81.61,-9.78 1.82,-0.82 0.18,-2 -1.21,-1.41 z"
     class="cls-2" />
  <path
     style="fill:#984371"
     id="path14"
     d="m 280.64139,553.63829 c 1.82,9.49 8.36,18.19 13.26,26.32 q 8.43,14 17.38,27.7 18.12,27.74 38.11,54.19 c 12,15.77 24.84,31.54 41.13,43 13.88,9.81 29.79,16.24 46.36,19.84 19.83,4.3 40.28,4.67 60.46,3.49 0.94,-0.06 1.56,-1.14 0.25,-1.07 -35.23,2.07 -72.34,-1.15 -102.53,-21.1 -16.33,-10.78 -29.26,-25.92 -41.13,-41.29 -12.71,-16.47 -24.74,-33.51 -36.27,-50.82 q -9.84,-14.77 -19.11,-29.93 c -5.79,-9.47 -13.9,-19.81 -16,-30.88 -0.12,-0.65 -2,-0.19 -1.88,0.51 z"
     class="cls-2" />
  <path
     style="fill:#984371"
     id="path16"
     d="m 519.81139,608.02829 a 299,299 0 0 0 35.56,-64.39 c 0.2,-0.49 -1.65,-0.29 -1.88,0.28 a 297.36,297.36 0 0 1 -35.42,64.15 c -0.44,0.62 1.42,0.41 1.74,0 z"
     class="cls-2" />
  <path
     style="fill:#984371"
     id="path18"
     d="m 528.83139,222.32829 c 2.19,14.45 -10.07,29.11 -19.12,39 -8.89,9.69 -18.68,18.07 -31.51,21.87 -9.7,2.87 -19.8,1.47 -29.6,-0.39 -7.71,-1.47 -18.94,-3 -24.87,-8.76 0.53,0.51 -0.56,2.71 0,3.25 3.14,3 8,4.41 12,5.65 a 127.87,127.87 0 0 0 17.73,4 c 12.37,1.9 23.3,1.48 34.67,-4.44 13.19,-6.87 24.66,-19.64 32.7,-32 6.21,-9.5 9.67,-20.09 8,-31.4 0.16,1.06 -0.17,2.19 0,3.25 z"
     class="cls-2" />
  <path
     style="fill:#984371;stroke:#984371;stroke-width:0.64999998px;stroke-miterlimit:10"
     id="path20"
     d="m 345.89139,290.39829 c -21.34,8.9 -22.15,-20.23 -30.25,-27.27 -0.39,-0.34 3.59,-8.4 4,-8.68 2.12,-1.38 -1.45,10.08 -4,8.68 -2.93,-1.59 0,0 -3.33,0.1 -7.91,0.25 -21.51,5.58 -27.12,0 -5.61,-5.58 -11.87,-16.9 -15.72,-23.59 -0.16,-0.28 -7.94,-3.16 -7.74,-3.42 2.89,-3.75 17.74,-27 19,-31.52 a 0.8,0.8 0 0 0 -1.18,-0.91 c -9,5.31 -22.27,2.36 -27.86,-6.63 -5.59,-8.99 -4.62,-22.59 -13.55,-28 a 0.83,0.83 0 0 1 -0.4,-0.77 c 0.59,-5.45 4.69,-10.06 9.48,-12.79 4.79,-2.73 10.58,-4 16.08,-5.47 14.88,-4 29.4,-10.14 41.29,-19.93 8.51,-7 15.46,-15.7 23,-23.8 a 227.82,227.82 0 0 1 41.41,-35.169996 c 12.31,-8.15 25.73,-15.21 40.31,-17.56 14.58,-2.35 30.55,0.54 41.61,10.32 l -7.14,-6.1 a 0.81,0.81 0 0 1 0.42,-1.42 110.12,110.12 0 0 1 41.88,2.78 c 8.52,2.26 16.94,5.66 23.56,11.47 16.83,14.92 17.64,40.459996 26.57,61.119996 4.21,9.74 10.36,18.56 14.35,28.39 9.28,22.87 7.81,50.8 0.82,74.41 l 0.71,19.19 c -0.19,11.25 -8,19.32 -7.19,32.67 0.68,11.23 -11.74,18.82 -22.61,21.69 -1.93,-1.87 0.92,-6.45 -0.9,-7.59 -1.77,0.18 -3.26,6.78 -7.43,9.41 a 23.64,23.64 0 0 1 -11.29,3.27 49,49 0 0 1 -11.59,-0.76 c -7.08,-1.09 -18.1,-7.27 -12.93,-26.43 l 1.69,-2 c 20.17,-4.24 40.54,-34.39 40.54,-34.39 v 1.49 c 0,-0.52 0,-1 0,-1.49 0,-8.63 0.89,-8.58 2.73,-18 2.39,-12.24 6.33,-24.22 7.25,-36.66 a 77,77 0 0 0 -12.45,-47.65 c -4.2,-6.34 -9.79,-12.32 -17.06,-14.38 a 0.83,0.83 0 0 0 -1,0.44 v 0 a 5.15,5.15 0 0 1 -8.13,1.58 c -6.07,-5.54 -17.12,-8.91 -16.31,-17 3.93,8.52 -1.85,19.9 -10.91,22 a 0.81,0.81 0 0 1 -1,-0.68 l -1,-6.39 a 0.79,0.79 0 0 0 -1.46,-0.31 c -2.86,4.47 -8.57,6.92 -14,7 -6.13,0.13 -12,-2.11 -17.74,-4.35 a 0.86,0.86 0 0 1 -0.48,-0.51 33.68,33.68 0 0 1 -1.5,-14.06 21.31,21.31 0 0 1 -30.85,17.14 0.81,0.81 0 0 1 -0.22,-1.26 41.71,41.71 0 0 0 10.32,-24.37 0.81,0.81 0 0 0 -1,-0.86 c -3.77,0.81 -7.1,3.1 -10.15,5.5 -22.31,17.58 3.73,44.7 1.93,73 -0.88,13.91 -24.49,37.15 -24.55,51.09 -0.06,13.94 24.55,42.34 8.53,49.38 l -2.2,-2.21 a 2.52,2.52 0 0 1 -0.21,1.09 c -1.29,3.36 -4.69,5.56 -8.19,6.37 -3.5,0.81 -7.16,0.46 -10.75,0.1 -6.34,-0.63 -13.09,-1.41 -18.05,-5.42"
     class="cls-3" />
  <path
     style="fill:#984371"
     id="path22"
     d="m 526.88139,244.29829 v 3.34 c 0,0.13 0,1.63 0,1.63 0,0 0,-1.61 0,-1.63 v -3.35 c 0,-0.12 0,-1.63 0,-1.63 0,0 0,1.61 0,1.63 z"
     class="cls-2" />
  <path
     style="fill:#984371"
     id="path24"
     d="m 481.06139,152.10829 c -13.78,20.33 -4.81,46.39 -5.27,69 l 2.44,-2.15 a 9,9 0 0 0 -8.86,5 l 3.9,-0.25 c -3.62,-3.09 -6.82,-6.43 -11.23,-2.5 -2.32,2.06 1.38,5.27 3.51,3.37 1.6,-1.42 3,1.09 4.22,2.13 1,0.87 3.11,1.2 3.9,-0.25 0.69,-1.93 2.24,-2.92 4.63,-3 a 2.28,2.28 0 0 0 2.45,-2.15 c 0.44,-21.59 -8.53,-47.37 4.6,-66.74 1.69,-2.48 -2.69,-4.86 -4.29,-2.49 z"
     class="cls-2" />
  <path
     style="fill:#984371"
     id="path26"
     d="m 415.73139,201.35829 c 6.84,7.09 16.37,5.83 25.14,3.83 2.74,-0.62 0.89,-5.23 -1.63,-4.66 -6.95,1.58 -15.33,3.42 -20.9,-2.35 -2.27,-2.34 -4.66,1.07 -2.61,3.18 z"
     class="cls-2" />
  <path
     style="fill:#984371"
     id="path28"
     d="m 419.69139,209.29829 a 8.54,8.54 0 0 1 2,-5.14 c 0.75,-0.92 -0.27,-2.57 -1,-3.16 a 1.84,1.84 0 0 0 -2.77,0 10.52,10.52 0 0 0 -2.36,6.06 3.22,3.22 0 0 0 1.65,3.06 c 0.79,0.43 2.35,0.45 2.43,-0.8 z"
     class="cls-2" />
  <path
     style="fill:#984371"
     id="path30"
     d="m 426.20139,210.32829 a 12.51,12.51 0 0 1 1.37,-5.59 c 1.48,-2.79 -2.89,-4.49 -4.2,-2 a 17.26,17.26 0 0 0 -2.12,7.75 c -0.07,2.93 4.89,2.62 5,-0.13 z"
     class="cls-2" />
  <path
     style="fill:#984371"
     id="path32"
     d="m 432.93139,211.88829 v -7.25 a 2.41,2.41 0 0 0 -2.14,-2.48 c -1,-0.16 -2.8,0.41 -2.8,1.71 v 7.24 a 2.43,2.43 0 0 0 2.15,2.48 c 1,0.15 2.79,-0.41 2.79,-1.72 z"
     class="cls-2" />
  <path
     style="fill:#984371"
     id="path34"
     d="m 500.13139,203.90829 c 6.78,3.16 16.47,6.17 22.3,-0.4 1,-1.1 -3.63,-2.57 -4.64,-1.44 -4.21,4.74 -9.85,2.86 -14.84,0.54 -1.45,-0.67 -5.74,-0.06 -2.82,1.3 z"
     class="cls-2" />
  <path
     style="fill:#984371"
     id="path36"
     d="m 506.75139,211.63829 a 8.59,8.59 0 0 1 0.5,-4.29 c 0.26,-0.65 -0.94,-1.76 -1.34,-2.18 -0.12,-0.12 -2,-1.82 -2.11,-1.44 a 9.32,9.32 0 0 0 -0.59,4.61 c 0.12,0.93 1.21,1.89 1.85,2.49 0.15,0.13 1.76,1.41 1.69,0.81 z"
     class="cls-2" />
  <path
     style="fill:#984371"
     id="path38"
     d="m 513.03139,210.51829 v -3.34 a 3.38,3.38 0 0 0 -2.11,-2.75 c -0.85,-0.34 -2.08,-0.31 -2.08,0.89 v 3.32 a 3.38,3.38 0 0 0 2.11,2.75 c 0.85,0.34 2.08,0.31 2.08,-0.89 z"
     class="cls-2" />
  <path
     style="fill:#984371"
     id="path40"
     d="m 518.47139,210.43829 a 15.91,15.91 0 0 0 -0.28,-5.24 2.77,2.77 0 0 0 -2.82,-2.09 2,2 0 0 0 -2,2.34 12.22,12.22 0 0 1 0.24,4.09 c -0.3,2.74 4.56,3.82 4.87,0.9 z"
     class="cls-2" />
  <path
     style="fill:#984371"
     id="path42"
     d="m 408.71139,152.32829 c 9.68,-5.09 23.44,-6 34,-3 13.12,3.67 15.29,16.67 14.2,28.47 -0.15,1.65 0.15,3.35 0,5 0.94,-10.18 2.41,-23.28 -4.17,-31.93 -4.65,-6.11 -12.27,-7.53 -19.52,-7.81 -8.41,-0.33 -16.9,0.3 -24.47,4.28 -0.71,0.37 0.66,4.65 0,5 z"
     class="cls-2" />
  <path
     style="fill:#984371"
     id="path44"
     d="m 479.88139,156.63829 c -0.07,0.75 -0.36,5.4 0,5.49 -0.55,-0.16 4.36,-7.34 4.59,-7.58 9.4,-9.85 31.22,-9.72 33.77,6.07 -0.26,-1.62 0.27,-3.37 0,-5 -2,-12.07 -14.84,-14.79 -25.19,-11.42 a 20.58,20.58 0 0 0 -10.66,7.93 c -0.27,0.39 -2.91,4.63 -2.51,5 v 4.91 -0.4 c 0.15,-1.65 -0.16,-3.35 0,-5 z"
     class="cls-2" />
  <path
     style="fill:#ed6f60"
     id="path94"
     d="m 174.05139,776.29829 c -100.709995,-101.83 -157.379995,-243.33 -153.899995,-384.32 0.6,-24.2 2.9,-48.47 9,-71.95 9.93,-38.42 29.64,-73.71 49.75,-108.19 18.54,-31.8 37.999995,-63.81 65.469995,-88.8 15.35,-14 32.88,-25.409996 50.32,-36.799996 39,-25.48 79.24,-51.48 125.19,-61.29 38.59,-8.25 78.71,-4.52 118,-0.74 l 157.73,15.13 c 20.46,2 41,3.94 61,8.77 74.34,18 136.09,78.109996 154.24,150.229996 3.61,14.34 5.61,29 7.6,43.63 9.29,68.17 18.59,136.89 13.86,205.5 -4.73,68.61 -24.53,138 -68.08,192.25 -73.39,91.5 -198.39,124.82 -314.48,152.71 -25.55,6.14 -51.17,12.29 -77.27,15.57 a 358.23,358.23 0 0 1 -200.52,-33.22"
     class="cls-27" />
  <path
     style="fill:#e9bda2"
     id="path96"
     d="m 227.52139,335.93829 c 83.78,-52 90.4,-24.61 118.58,-70.5 22.09,-36 -12.31,-67.65 17.41,-129.36 15.84,-32.9 35.13,-46.599996 42.29,-50.999996 7.92,-4.86 31.67,-19.44 58.46,-13.68 43.33,9.32 67.38,64.719996 69.51,77.869996 6,36.9 26.31,65.1 -6.78,96.23 -0.45,0.42 -0.45,0.42 2.72,2.54 2,1.32 -4.89,1.49 -6.62,3.55 -15.13,18 -4.52,8.16 -21.06,22.78 -18.24,16.11 -21.23,9.45 -22.6,14.19 -18.25,63.46 67.42,7.87 128,57.81 50,41.18 44.76,78.1 47.43,95.92 6.44,43 -10.23,91.37 -13.31,103.86 -15.47,62.7 -39.33,101.15 -71,134.69 -16.49,17.44 -82,79.48 -130.45,79.82 -56.73,0.4 -139.91,-87.2 -188.25,-145.06 -21.69,-26 -50.58,-59.16 -64.29,-130.22 -4.7,-24.31 -12.68,-116.74 39.96,-149.44 z"
     class="cls-1" />
  <path
     style="fill:#984371"
     id="path98"
     d="m 409.65139,608.63829 c 14.41,1 26.83,-6.83 37.34,-15.92 a 248.4,248.4 0 0 0 74.42,-116.27 c 5.6,-19.13 7.77,-39.26 16.62,-57.35 l -2.12,0.2 c 3.87,17.11 -6.25,33.8 -2.36,50.94 0.21,0.93 1.81,0.32 2.12,-0.19 a 406.21,406.21 0 0 0 23.95,-45.41 c 6.89,-15.39 11.89,-32 22,-45.71 l -1.74,0.32 c 5.68,3 -1.81,15.65 -3.35,19.6 -2.63,6.8 -5.22,13.61 -7.64,20.48 a 275.1,275.1 0 0 0 -11.17,40.31 c -0.2,1.06 1.64,0.5 2,0.18 4.21,-3.75 5.93,-10.11 8.19,-15.11 l 8.58,-19 8.58,-19 4.49,-10 c 0.56,-1.24 1.06,-3.55 2,-4.53 4.85,-4.83 3.63,0.49 3.27,2.81 -1,6.67 -4.77,12.73 -7.63,18.73 q -4.15,8.67 -7.47,17.7 a 212.56,212.56 0 0 0 -9.91,37.28 c -0.18,1.08 1.82,0.57 2.13,0 12.31,-22.34 18.37,-47.68 32.65,-69 l -2.11,0.2 c 1.34,7.93 -1.85,15.08 -5.08,22.15 -2.93,6.4 -5.67,12.87 -8.14,19.47 a 282.58,282.58 0 0 0 -11.37,39 c -0.15,0.69 0.92,0.66 1.28,0.59 6.64,-1.19 9.28,-7.57 11.89,-13.06 a 154.48,154.48 0 0 1 16.4,-26.87 l -1.9,0.19 c 2.4,2.95 -4.22,13.16 -5.56,16 q -2.88,6.12 -5.81,12.2 -6.27,13 -12.82,25.95 -13.03,25.83 -27.13,51.12 c -0.57,1 1.63,1 2.06,0.19 q 15.48,-27.83 29.77,-56.28 6.92,-13.8 13.55,-27.74 3.51,-7.41 7,-14.85 c 1.12,-2.42 3,-5.14 1,-7.52 -0.42,-0.52 -1.53,-0.3 -1.9,0.18 a 158.92,158.92 0 0 0 -12.64,19.4 c -3.3,6 -6.48,18.34 -14.21,19.73 l 1.29,0.59 a 277.41,277.41 0 0 1 13.22,-43.76 c 4.58,-11.56 13.53,-24.29 11.34,-37.24 -0.17,-1 -1.81,-0.27 -2.12,0.19 -14.28,21.31 -20.35,46.66 -32.65,69 h 2.13 a 208.82,208.82 0 0 1 13.48,-46.26 c 2.94,-6.93 6.78,-13.5 9.5,-20.51 1.07,-2.75 4.83,-11.82 0.8,-13.65 -2.42,-1.1 -4.9,1.57 -6,3.35 -4.15,6.77 -6.84,15 -10.12,22.28 l -10.62,23.55 -4.9,10.87 c -1.71,3.79 -3.12,8.29 -6.29,11.12 l 2,0.18 c 3.14,-16.74 8.34,-32.95 14.27,-48.9 2.87,-7.7 6.25,-15.27 8.91,-23 1.11,-3.25 2.11,-7.58 -1.53,-9.5 a 1.53,1.53 0 0 0 -1.75,0.32 c -9.85,13.38 -14.86,29.35 -21.5,44.4 a 406.33,406.33 0 0 1 -24.7,47.14 l 2.11,-0.19 c -3.88,-17.12 6.24,-33.81 2.36,-50.95 -0.2,-0.88 -1.84,-0.37 -2.11,0.2 -6.84,14 -9.78,29.19 -13.28,44.22 a 244.09,244.09 0 0 1 -14.62,43.83 246.82,246.82 0 0 1 -49.73,72.74 c -12.63,12.84 -28.4,28.78 -47.91,27.46 -1,-0.07 -2.25,1.39 -0.78,1.48 z"
     class="cls-2" />
  <path
     style="fill:#984371"
     id="path100"
     d="m 533.37139,605.14829 c -23.49,10.67 -50.55,10.31 -75.82,9.53 -23.64,-0.73 -48,-3.9 -68.57,-16.39 -32.9,-20 -50.75,-57.25 -60.62,-93.12 a 289.39,289.39 0 0 1 -7.16,-35.21 c -2,-13.6 -3.92,-27.2 -9,-40.05 -0.35,-0.9 -2,-0.33 -2.18,0.4 -5.2,16.77 3.58,34.2 -1.63,51 l 2.18,-0.39 a 407.36,407.36 0 0 1 -21.1,-49.61 c -5.34,-15.3 -9.06,-31.38 -17.71,-45.28 -0.27,-0.44 -1.1,-0.27 -1.46,-0.11 -3.93,1.69 -3.58,5.92 -2.65,9.52 2,8 4.82,15.77 7.07,23.67 4.69,16.43 8.62,33.06 10.45,50.06 l 2.09,-0.75 c -3,-3.08 -4,-7.67 -5.43,-11.6 l -4,-11.22 -8.74,-24.31 -4,-11.22 c -1.39,-3.86 -2.43,-8.84 -4.58,-12.36 -1.22,-2 -3.49,-4 -5.82,-2.46 -3.51,2.39 -0.91,10.34 0,13.45 2.23,7.5 5.7,14.62 8.15,22.06 a 210.36,210.36 0 0 1 9.58,46.5 l 2.05,-0.62 c -10.54,-23.31 -14.64,-49.09 -27.23,-71.52 -0.41,-0.73 -1.94,-0.07 -2.1,0.57 -3.27,13 5.1,27 8.78,39.16 a 279.9,279.9 0 0 1 9.4,43.51 l 1.73,-1 c -7.82,-2 -9.79,-13.89 -12.61,-20.25 a 157.41,157.41 0 0 0 -11.41,-21.11 c -0.37,-0.59 -1.53,-0.19 -1.89,0.2 -1.94,2 -0.9,4.23 0,6.67 1.85,5.14 3.82,10.25 5.77,15.35 q 5.67,14.88 11.67,29.62 12,29.49 25.26,58.44 c 0.4,0.88 2.55,0.23 2.18,-0.58 q -12.26,-26.76 -23.44,-54 -5.5,-13.38 -10.73,-26.88 -2.61,-6.74 -5.17,-13.51 c -1,-2.78 -6.26,-11.94 -3.72,-14.6 l -1.9,0.19 a 152.87,152.87 0 0 1 13.94,27.29 c 2.21,5.7 4.15,12.77 10.8,14.51 0.6,0.16 1.83,-0.15 1.72,-1 a 280.17,280.17 0 0 0 -8.85,-41.7 c -1.95,-6.61 -4.23,-13.09 -6.57,-19.57 -2.47,-6.85 -4.57,-13.76 -2.74,-21 l -2.09,0.56 c 12.52,22.31 16.57,48 27,71.18 0.4,0.87 2.26,0.37 2.18,-0.58 a 211.17,211.17 0 0 0 -7.16,-38.63 q -2.66,-9.24 -6.14,-18.2 c -2.34,-6 -5.31,-12.09 -5.86,-18.62 -0.22,-2.54 0.16,-5.26 2.81,-2.82 1.14,1 1.44,3.32 2,4.77 l 3.7,10.28 7.06,19.64 7.4,20.56 c 1.84,5.14 3.06,11.64 6.95,15.68 0.56,0.58 2.18,0.17 2.08,-0.75 a 275.67,275.67 0 0 0 -8.16,-41.82 c -1.8,-6.73 -3.76,-13.42 -5.77,-20.1 -1.07,-3.54 -7.57,-17.3 -2.19,-19.62 l -1.46,-0.11 c 8.9,14.31 12.6,31 18.17,46.74 a 404.44,404.44 0 0 0 20.52,47.78 c 0.43,0.84 1.94,0.39 2.18,-0.39 5.21,-16.78 -3.57,-34.2 1.63,-51 l -2.18,0.39 c 9.12,23.09 9.13,48.74 15.45,72.63 5,18.86 11.92,37.37 21.86,54.21 9.71,16.43 22.53,31.24 38.8,41.43 20,12.52 43.67,16.23 66.86,17.23 27,1.16 56.21,1.68 81.29,-9.71 1.36,-0.62 0.14,-1.62 -0.92,-1.13 z"
     class="cls-2" />
  <path
     style="fill:#984371"
     id="path102"
     d="m 281.85139,556.03829 c 1.84,9.6 8.45,18.37 13.4,26.59 q 8.6,14.25 17.71,28.17 c 12.1,18.49 24.81,36.61 38.19,54.2 12,15.72 24.87,31.37 41.19,42.77 a 126.48,126.48 0 0 0 45.77,19.44 c 19.86,4.29 40.31,4.7 60.52,3.52 1.19,-0.07 1.72,-1.57 0.23,-1.48 -35.21,2.06 -72.21,-1.12 -102.39,-21 -16.06,-10.59 -28.82,-25.43 -40.52,-40.51 -12.74,-16.42 -24.75,-33.44 -36.28,-50.71 q -10,-15 -19.46,-30.43 c -5.81,-9.5 -14.06,-20 -16.19,-31.12 -0.18,-0.93 -2.36,-0.38 -2.17,0.58 z"
     class="cls-2" />
  <path
     style="fill:#984371"
     id="path104"
     d="m 521.23139,610.46829 a 298.38,298.38 0 0 0 35.48,-64.26 c 0.43,-1.06 -1.74,-0.89 -2,-0.13 a 297.64,297.64 0 0 1 -35.48,64.25 c -0.62,0.87 1.58,0.79 2,0.14 z"
     class="cls-2" />
  <path
     style="fill:#984371"
     id="path106"
     d="m 530.09139,225.06829 c 2.15,14.16 -10.27,28.82 -19.11,38.46 -8.84,9.64 -18.68,18.11 -31.51,21.86 -9.71,2.87 -19.81,1.47 -29.6,-0.39 -7.7,-1.47 -18.93,-3 -24.86,-8.76 0.61,0.59 -0.64,3.14 0,3.75 3.14,3 8,4.41 12,5.65 a 126.44,126.44 0 0 0 17.78,4 c 12.37,1.9 23.29,1.48 34.66,-4.44 13.18,-6.87 24.65,-19.63 32.69,-31.94 6.31,-9.66 9.69,-20.4 8,-31.89 0.18,1.22 -0.19,2.53 0,3.75 z"
     class="cls-2" />
  <path
     style="fill:#984371;stroke:#984371;stroke-width:0.75px;stroke-miterlimit:10"
     id="path108"
     d="m 347.22139,292.86829 c -21.33,8.9 -22.14,-20.22 -30.24,-27.26 -0.39,-0.34 3.59,-8.39 4,-8.68 2.11,-1.38 -1.45,10.08 -4,8.68 -2.93,-1.59 0,0 -3.33,0.1 -7.91,0.25 -21.5,5.57 -27.11,0 -5.61,-5.57 -11.86,-16.89 -15.69,-23.61 -0.16,-0.28 -7.94,-3.17 -7.74,-3.42 2.89,-3.75 17.74,-26.94 18.94,-31.52 a 0.79,0.79 0 0 0 -1.17,-0.9 c -9,5.31 -22.27,2.36 -27.86,-6.63 -5.59,-8.99 -4.61,-22.58 -13.54,-28 a 0.81,0.81 0 0 1 -0.4,-0.77 c 0.59,-5.44 4.69,-10 9.47,-12.78 4.93,-2.81 10.59,-4 16.07,-5.48 14.89,-3.94 29.4,-10.12 41.28,-19.92 8.51,-7 15.46,-15.69 23,-23.79 a 228,228 0 0 1 41.39,-35.159996 c 12.27,-8.09 25.68,-15.15 40.25,-17.51 14.57,-2.36 30.54,0.54 41.6,10.32 l -7.13,-6.09 a 0.82,0.82 0 0 1 0.42,-1.43 110,110 0 0 1 41.86,2.78 c 8.51,2.26 16.93,5.65 23.55,11.47 16.9,14.86 17.7,40.439996 26.63,61.089996 4.21,9.74 10.36,18.55 14.35,28.38 9.27,22.87 7.81,50.79 0.81,74.39 l 0.72,19.18 c -0.2,11.25 -8,19.32 -7.19,32.66 0.68,11.22 -11.73,18.81 -22.61,21.68 -1.93,-1.86 0.92,-6.44 -0.89,-7.59 -1.77,0.18 -3.26,6.78 -7.43,9.41 a 23.64,23.64 0 0 1 -11.29,3.27 48.94,48.94 0 0 1 -11.58,-0.76 c -7.08,-1.09 -18.1,-7.26 -12.93,-26.42 l 1.69,-2 c 20.17,-4.24 40.53,-34.37 40.53,-34.37 v 1.45 c 0,-0.53 0,-1 0,-1.49 0,-8.63 0.89,-8.59 2.73,-18 2.39,-12.23 6.32,-24.22 7.24,-36.64 a 76.77,76.77 0 0 0 -12.45,-47.64 c -4.19,-6.34 -9.78,-12.31 -17.05,-14.37 a 0.81,0.81 0 0 0 -0.95,0.44 v 0 a 5.15,5.15 0 0 1 -8.13,1.58 c -6.07,-5.55 -17.12,-8.91 -16.31,-17 3.93,8.51 -1.84,19.89 -10.9,22 a 0.81,0.81 0 0 1 -1,-0.68 l -1,-6.39 a 0.8,0.8 0 0 0 -1.46,-0.32 c -2.86,4.48 -8.57,6.92 -14,7 -6.12,0.13 -12,-2.1 -17.73,-4.35 a 0.86,0.86 0 0 1 -0.48,-0.51 33.47,33.47 0 0 1 -1.49,-14.05 21.3,21.3 0 0 1 -30.93,17.12 0.81,0.81 0 0 1 -0.22,-1.25 41.73,41.73 0 0 0 10.31,-24.37 0.82,0.82 0 0 0 -1,-0.86 c -3.76,0.82 -7.09,3.1 -10.14,5.5 -22.3,17.57 3.73,44.68 1.93,73 -0.88,13.91 -24.48,37.14 -24.53,51.07 -0.05,13.93 24.53,42.33 8.52,49.37 l -2.14,-2.16 a 2.45,2.45 0 0 1 -0.22,1.09 c -1.28,3.36 -4.68,5.55 -8.18,6.36 -3.5,0.81 -7.16,0.46 -10.74,0.11 -6.35,-0.63 -13.09,-1.42 -18.05,-5.42"
     class="cls-28" />
  <path
     style="fill:#984371"
     id="path110"
     d="m 528.14139,246.77829 v 3.36 c 0,0.14 0,1.87 0,1.87 0,0 0,-1.85 0,-1.87 v -3.36 c 0,-0.14 0,-1.87 0,-1.87 0,0 0,1.86 0,1.87 z"
     class="cls-2" />
  <path
     style="fill:#984371"
     id="path112"
     d="m 483.25139,154.46829 c -9.08,13.4 -7.69,29.94 -6.28,45.29 0.37,4 0.76,7.94 1,11.91 0.14,2.08 0.24,4.15 0.28,6.23 0.06,3.13 -0.07,3.14 -2.55,4.6 -0.67,0.4 -2.92,2.4 -3.45,2.54 -1.86,0.51 -1.89,-0.64 -3.36,-1.49 -2.07,-1.2 -3.16,-1.22 -5,0.46 -0.6,0.53 1.87,3.35 2.47,2.82 2.47,-2.2 4.8,0.26 6.75,1.93 0.08,0.07 0.82,0.65 1,0.38 1.44,-2.68 3.45,-4.07 6.59,-4 a 0.19,0.19 0 0 0 0.22,-0.19 c 0.46,-22 -8.53,-47.93 4.87,-67.7 0.56,-0.82 -2.16,-3.28 -2.47,-2.82 z"
     class="cls-2" />
  <path
     style="fill:#984371"
     id="path114"
     d="m 416.95139,203.14829 c 6.65,6.88 16.35,5.48 24.81,3.56 2.38,-0.54 1.27,-3.17 -0.82,-2.7 -7.26,1.65 -15.44,3.36 -21.22,-2.61 -1.23,-1.28 -4.39,0.08 -2.77,1.75 z"
     class="cls-2" />
  <path
     style="fill:#984371"
     id="path116"
     d="m 420.82139,210.75829 a 9.08,9.08 0 0 1 2.12,-5.32 c 0.55,-0.67 -0.81,-1.25 -1.24,-1.34 a 2.35,2.35 0 0 0 -2.34,0.6 10.1,10.1 0 0 0 -2.28,5.87 c -0.09,1.42 3.66,1.63 3.74,0.19 z"
     class="cls-2" />
  <path
     style="fill:#984371"
     id="path118"
     d="m 426.84139,212.63829 a 14,14 0 0 1 1.65,-6.34 c 0.42,-0.8 -0.46,-1.26 -1.12,-1.3 a 2.56,2.56 0 0 0 -2.32,1.18 15.65,15.65 0 0 0 -1.84,7 c 0,1.73 3.6,0.95 3.63,-0.53 z"
     class="cls-2" />
  <path
     style="fill:#984371"
     id="path120"
     d="m 433.47139,214.25829 v -7.24 c 0,-1.93 -3.35,-2.86 -3.35,-0.5 v 7.24 c 0,1.93 3.35,2.86 3.35,0.5 z"
     class="cls-2" />
  <path
     style="fill:#984371"
     id="path122"
     d="m 502.47139,207.40829 c 6.44,3 14.77,5.33 20.2,-0.8 1.4,-1.57 -1.26,-4.21 -2.65,-2.65 -4.64,5.23 -11.57,2.64 -16.93,0.15 -2.2,-1 -2.53,2.41 -0.62,3.3 z"
     class="cls-2" />
  <path
     style="fill:#984371"
     id="path124"
     d="m 508.13139,212.50829 a 8.19,8.19 0 0 1 0.47,-4.1 c 0.68,-1.74 -3,-2.27 -3.6,-0.73 a 9.64,9.64 0 0 0 -0.62,4.78 1.73,1.73 0 0 0 1.86,1.32 c 0.62,0 2,-0.37 1.89,-1.27 z"
     class="cls-2" />
  <path
     style="fill:#984371"
     id="path126"
     d="m 513.87139,212.63829 v -3.34 a 2.31,2.31 0 0 0 -1.58,-2.08 c -0.72,-0.24 -1.75,0 -1.75,0.94 v 3.34 a 2.32,2.32 0 0 0 1.58,2.08 c 0.72,0.24 1.75,0 1.75,-0.94 z"
     class="cls-2" />
  <path
     style="fill:#984371"
     id="path128"
     d="m 518.78139,213.69829 a 14.23,14.23 0 0 0 -0.26,-4.78 c -0.14,-0.65 -1.11,-1.3 -1.6,-1.67 -0.13,-0.1 -1.36,-0.91 -1.28,-0.52 a 13.65,13.65 0 0 1 0.27,4.55 c -0.05,0.52 0.87,1.18 1.21,1.47 0.1,0.09 1.64,1.14 1.66,0.95 z"
     class="cls-2" />
  <path
     style="fill:#984371"
     id="path130"
     d="m 410.02139,154.21829 c 9.67,-5.09 23.43,-6 34,-3 13.64,3.83 15.31,17.59 14.19,29.71 -0.11,1.24 0.11,2.52 0,3.75 0.92,-9.89 2.23,-22.26 -4.17,-30.66 -4.65,-6.11 -12.26,-7.53 -19.51,-7.81 -8.41,-0.33 -16.9,0.29 -24.46,4.27 -0.54,0.28 0.49,3.49 0,3.75 z"
     class="cls-2" />
  <path
     style="fill:#984371"
     id="path132"
     d="m 481.16139,159.74829 c -0.06,0.62 -0.35,4.12 0,4.24 -0.65,-0.25 4.36,-7.34 4.59,-7.58 9.39,-9.84 31.21,-9.71 33.76,6.07 -0.19,-1.21 0.2,-2.53 0,-3.75 -2,-12.06 -14.83,-14.79 -25.18,-11.42 a 20.63,20.63 0 0 0 -10.66,7.93 c -0.27,0.39 -2.91,4.63 -2.51,5 v 3.68 -0.42 c 0.12,-1.24 -0.11,-2.51 0,-3.75 z"
     class="cls-2" />
</svg>
