<svg id="Layer_1" data-name="Layer 1" xmlns="http://www.w3.org/2000/svg" viewBox="0 0 1081 1081"><defs><style>.cls-1{fill:#9a4471;}.cls-2{fill:#ec6e60;}.cls-3{fill:none;stroke:#fff;stroke-miterlimit:10;}</style></defs><title>puntatoremappa</title><path class="cls-1" d="M548.25,829.71c-7.34-10.91-14.44-21.44-21.51-32q-28.59-42.59-57.14-85.19Q451.33,685.29,433.08,658c-13.44-20-27.11-39.86-40.34-60-13.81-21-29.11-41.08-40.39-63.67A273.35,273.35,0,0,1,340.3,319.92c16-43.62,41.53-80.62,78.18-109.59,31.45-24.86,67-40.23,106.9-44.65,44.06-4.88,85.49,3.83,124.15,25.51a224.69,224.69,0,0,1,60.64,50c25.1,29.16,42.3,62.46,52.55,99.48,9.91,35.75,11.84,72,7.33,108.69a263.56,263.56,0,0,1-17.69,67c-7.69,19-18.14,36.53-29.68,53.47C702.62,599.27,683,629,663.16,658.6q-31.63,47.16-63.33,94.28-24.65,36.71-49.25,73.41C549.92,827.27,549.26,828.23,548.25,829.71Zm0-57.06c4.78-7.06,9.35-13.76,13.87-20.49q31.24-46.47,62.47-93c22.7-33.83,45.22-67.79,68.1-101.5,13.29-19.57,25.73-39.55,33.64-62,13.76-39,18-79,11.44-120-6.85-43.06-23.66-81.48-52.27-114.58-20.89-24.16-46.05-42.4-75.9-53.69a169.73,169.73,0,0,0-102.73-6.2c-35.59,8.76-65.45,27.4-90.49,53.84-23.75,25.08-40.19,54.53-50.2,87.49-10.55,34.75-12.91,70.21-7.78,106.15,3.69,25.88,10.95,50.78,23.79,73.57,9.75,17.31,20.85,33.89,31.85,50.46,23.12,34.8,46.59,69.35,69.87,104Q512.8,719.87,541.6,763C543.7,766.15,545.89,769.25,548.23,772.65Z" transform="translate(0.5 0.5)"/><path class="cls-1" d="M612.49,911.62c-5.69.69-11.36,1.64-17.06,2A758.77,758.77,0,0,1,476,912.91c-27.64-2.47-55.16-6.07-82.18-12.57-22.56-5.43-44.81-11.94-65.34-23.07-13.92-7.55-26.93-16.33-35.34-30.35-9.3-15.5-8.27-30.64,1.88-45.31,8.68-12.54,20.95-20.73,34.16-27.69,27.68-14.57,57.63-22,88.13-27.42,15.84-2.81,31.86-4.64,47.82-6.81a3.64,3.64,0,0,1,2.94,1c6.45,9.39,12.77,18.87,19.11,28.34.12.17,0,.49,0,1.14-4,.37-8,.71-12,1.11-25.68,2.55-51.27,5.83-76.36,12-19.57,4.85-39,10.43-56.94,19.9a89.59,89.59,0,0,0-15.65,10.4c-9.22,7.7-9.05,16.77.16,24.63,8.25,7,17.87,11.87,27.88,15.87,31.72,12.69,64.89,19.41,98.63,23.67,39.12,4.94,78.39,6.08,117.76,4.66,4.14-.15,8.29-.09,12.44-.13,1.06,1,2.16,1.89,3.17,2.91Q599.4,898.4,612.49,911.62Z" transform="translate(0.5 0.5)"/><path class="cls-1" d="M612.49,911.62q-13.1-13.22-26.2-26.41c-1-1-2.11-1.94-3.17-2.91,7.26-.72,14.51-1.54,21.77-2.15,33-2.76,65.54-8.09,97.23-17.69,17-5.15,33.93-11,48.51-21.77a36,36,0,0,0,3.93-3.24c8.19-8.09,8.3-16-.45-23.58A79.66,79.66,0,0,0,737.83,803c-25-12.52-51.86-19.56-79.27-24.4-15.33-2.7-30.85-4.38-46.28-6.53-1.4-.19-2.79-.49-4.6-.82,6.59-9.8,13-19.34,19.48-28.77a4,4,0,0,1,3.29-1c13.56,2.08,27.15,4,40.63,6.53,24.38,4.55,48.23,11.07,70.88,21.35,12.44,5.65,24.28,12.42,34.26,22,8.3,7.92,14.81,16.91,16.6,28.67,2.11,13.84-3.06,25.24-11.9,35.26-11.72,13.27-26.82,21.66-42.84,28.5-30.46,13-62.53,19.92-95.15,24.54C632.83,909.74,622.64,910.53,612.49,911.62Z" transform="translate(0.5 0.5)"/><path class="cls-1" d="M553.8,835.94c7.9.21,15.7,1,22.59,5.34,7.48,4.66,7.21,11.56-.78,15.64a46.23,46.23,0,0,1-29.24,4.49,56.58,56.58,0,0,1-17.9-6.11c-6.15-3.46-5.7-9.47.25-13.46,6.6-4.43,14.21-5.48,21.94-5.89C551.71,835.9,552.75,835.94,553.8,835.94Z" transform="translate(0.5 0.5)"/><path class="cls-1" d="M548.23,772.65c-2.34-3.4-4.53-6.5-6.63-9.64q-28.86-43.11-57.71-86.22c-23.28-34.68-46.75-69.23-69.87-104-11-16.57-22.1-33.15-31.85-50.46-12.84-22.79-20.1-47.69-23.79-73.57-5.13-35.94-2.77-71.4,7.78-106.15,10-33,26.45-62.41,50.2-87.49,25-26.44,54.9-45.08,90.49-53.84a169.73,169.73,0,0,1,102.73,6.2c29.85,11.29,55,29.53,75.9,53.69,28.61,33.1,45.42,71.52,52.27,114.58,6.52,41,2.32,81-11.44,120-7.91,22.42-20.35,42.4-33.64,62-22.88,33.71-45.4,67.67-68.1,101.5q-31.22,46.5-62.47,93C557.58,758.89,553,765.59,548.23,772.65Zm.07-542.86A154.77,154.77,0,1,0,703,382.94C702.41,298.52,633.39,229.67,548.3,229.79Z" transform="translate(0.5 0.5)"/><path class="cls-2" d="M548.3,229.79c85.09-.12,154.11,68.73,154.65,153.15A154.74,154.74,0,1,1,548.3,229.79Zm2.94,277.79c67.26-2,122.18-56.64,119.93-127.11C669,312.87,614,259.85,545,261.64A122.26,122.26,0,0,0,425.19,387C426.82,456.63,483.51,508.87,551.24,507.58Z" transform="translate(0.5 0.5)"/><rect class="cls-3" x="0.5" y="0.5" width="1080" height="1080"/></svg>